<svg width="16" height="16" viewBox="0 0 16 16" fill="none" xmlns="http://www.w3.org/2000/svg">
<path fill-rule="evenodd" clip-rule="evenodd" d="M8.69199 2.12446L15.238 12.7617C15.5711 13.303 15.1816 14 14.546 14H1.45404C0.818406 14 0.428934 13.303 0.762069 12.7617L7.30805 2.12446C7.62532 1.6089 8.37472 1.6089 8.69199 2.12446ZM8.52134 10.2556L8.63214 6.18177H7.36794L7.48157 10.2556H8.52134ZM7.5185 11.875C7.65297 12.0075 7.81396 12.0738 8.00146 12.0738C8.12267 12.0738 8.23441 12.0435 8.33669 11.9829C8.43896 11.9204 8.52134 11.838 8.58384 11.7357C8.64824 11.6316 8.68138 11.517 8.68328 11.392C8.68138 11.2064 8.61225 11.0473 8.47589 10.9147C8.33953 10.7822 8.18138 10.7159 8.00146 10.7159C7.81396 10.7159 7.65297 10.7822 7.5185 10.9147C7.38403 11.0473 7.31775 11.2064 7.31964 11.392C7.31775 11.5795 7.38403 11.7405 7.5185 11.875Z" fill="black"/>
</svg>
