<svg width="16" height="16" viewBox="0 0 16 16" fill="none" xmlns="http://www.w3.org/2000/svg">
<path fill-rule="evenodd" clip-rule="evenodd" d="M7.29289 15.7071C6.90237 15.3166 6.90237 14.6834 7.29289 14.2929L12.5858 9L1 9C0.447715 9 6.511e-07 8.55228 6.99382e-07 8C7.47664e-07 7.44771 0.447716 7 1 7L12.5858 7L7.29289 1.70711C6.90237 1.31658 6.90237 0.683417 7.29289 0.292893C7.68342 -0.0976322 8.31658 -0.0976321 8.70711 0.292893L15.7071 7.29289C16.0976 7.68342 16.0976 8.31658 15.7071 8.70711L8.70711 15.7071C8.31658 16.0976 7.68342 16.0976 7.29289 15.7071Z" fill="black"/>
</svg>
