<svg width="16" height="16" viewBox="0 0 16 16" fill="none" xmlns="http://www.w3.org/2000/svg">
<path fill-rule="evenodd" clip-rule="evenodd" d="M2.11612 2.11612C2.60427 1.62796 3.39573 1.62796 3.88388 2.11612L13.8839 12.1161C14.372 12.6043 14.372 13.3957 13.8839 13.8839C13.3957 14.372 12.6043 14.372 12.1161 13.8839L2.11612 3.88388C1.62796 3.39573 1.62796 2.60427 2.11612 2.11612Z" fill="black"/>
<path fill-rule="evenodd" clip-rule="evenodd" d="M13.8839 2.11612C14.372 2.60427 14.372 3.39573 13.8839 3.88388L3.88388 13.8839C3.39573 14.372 2.60427 14.372 2.11612 13.8839C1.62796 13.3957 1.62796 12.6043 2.11612 12.1161L12.1161 2.11612C12.6043 1.62796 13.3957 1.62796 13.8839 2.11612Z" fill="black"/>
</svg>
