<svg width="16" height="16" viewBox="0 0 16 16" fill="none" xmlns="http://www.w3.org/2000/svg">
<path fill-rule="evenodd" clip-rule="evenodd" d="M8.60355 4.14645C8.79882 4.34171 8.79882 4.65829 8.60355 4.85355L5.95711 7.5H15.25C15.5261 7.5 15.75 7.72386 15.75 8C15.75 8.27614 15.5261 8.5 15.25 8.5H5.95711L8.60355 11.1464C8.79882 11.3417 8.79882 11.6583 8.60355 11.8536C8.40829 12.0488 8.09171 12.0488 7.89645 11.8536L4.39645 8.35355C4.30268 8.25979 4.25 8.13261 4.25 8C4.25 7.86739 4.30268 7.74021 4.39645 7.64645L7.89645 4.14645C8.09171 3.95118 8.40829 3.95118 8.60355 4.14645Z" fill="black"/>
<rect y="2" width="2" height="12" rx="1" fill="black"/>
</svg>
