<svg width="16" height="16" viewBox="0 0 16 16" fill="none" xmlns="http://www.w3.org/2000/svg">
<path d="M13.5447 2.83914C12.5249 2.37141 11.4313 2.02681 10.2879 1.82944C10.2671 1.82563 10.2463 1.83515 10.2356 1.85419C10.0949 2.10423 9.93915 2.43043 9.83006 2.68682C8.60027 2.50278 7.37679 2.50278 6.17221 2.68682C6.0631 2.42473 5.90166 2.10423 5.76038 1.85419C5.74966 1.83579 5.72886 1.82627 5.70803 1.82944C4.56527 2.02618 3.47171 2.37078 2.45129 2.83914C2.44246 2.84294 2.43488 2.8493 2.42986 2.85754C0.355594 5.95517 -0.212633 8.97665 0.0661201 11.9607C0.0673814 11.9753 0.0755799 11.9892 0.086932 11.9981C1.45547 13.0027 2.78114 13.6126 4.08219 14.0169C4.10301 14.0232 4.12507 14.0156 4.13832 13.9985C4.44608 13.5784 4.72043 13.1354 4.95565 12.6695C4.96953 12.6423 4.95628 12.6099 4.92791 12.5991C4.49275 12.4341 4.0784 12.2329 3.67982 12.0045C3.64829 11.9861 3.64577 11.941 3.67477 11.9194C3.75865 11.8566 3.84255 11.7912 3.92264 11.7252C3.93713 11.7132 3.95732 11.7106 3.97435 11.7182C6.59286 12.9133 9.4277 12.9133 12.0153 11.7182C12.0323 11.71 12.0525 11.7125 12.0677 11.7246C12.1478 11.7906 12.2316 11.8566 12.3161 11.9194C12.3451 11.941 12.3433 11.9861 12.3117 12.0045C11.9131 12.2374 11.4988 12.4341 11.063 12.5985C11.0346 12.6093 11.022 12.6423 11.0359 12.6695C11.2762 13.1347 11.5505 13.5777 11.8526 13.9978C11.8652 14.0156 11.8879 14.0232 11.9087 14.0169C13.2161 13.6126 14.5417 13.0027 15.9103 11.9981C15.9223 11.9892 15.9298 11.9759 15.9311 11.9613C16.2647 8.51145 15.3723 5.51474 13.5655 2.85817C13.5611 2.8493 13.5535 2.84294 13.5447 2.83914ZM5.34668 10.1437C4.55833 10.1437 3.90875 9.42026 3.90875 8.53177C3.90875 7.64328 4.54574 6.91981 5.34668 6.91981C6.15392 6.91981 6.79721 7.64963 6.78459 8.53177C6.78459 9.42026 6.14761 10.1437 5.34668 10.1437ZM10.6632 10.1437C9.87484 10.1437 9.22526 9.42026 9.22526 8.53177C9.22526 7.64328 9.86222 6.91981 10.6632 6.91981C11.4704 6.91981 12.1137 7.64963 12.1011 8.53177C12.1011 9.42026 11.4704 10.1437 10.6632 10.1437Z" fill="black"/>
</svg>
