<svg width="16" height="16" viewBox="0 0 16 16" fill="none" xmlns="http://www.w3.org/2000/svg">
<path d="M0.650024 3.1499C0.650024 2.87376 0.873882 2.6499 1.15002 2.6499H14.874C15.1501 2.6499 15.374 2.87376 15.374 3.1499V3.24077C15.374 3.4118 15.2865 3.57096 15.1422 3.66272L8.28023 8.02495C8.11654 8.129 7.90743 8.129 7.74374 8.02495L0.881783 3.66272C0.737446 3.57096 0.650024 3.4118 0.650024 3.24077V3.1499Z" fill="black"/>
<path d="M1.41827 5.54422C1.08539 5.3326 0.650024 5.57173 0.650024 5.96617V12.977C0.650024 13.2531 0.873882 13.477 1.15002 13.477H14.874C15.1501 13.477 15.374 13.2531 15.374 12.977V5.96617C15.374 5.57173 14.9386 5.33261 14.6057 5.54422L8.28023 9.56539C8.11654 9.66945 7.90743 9.66945 7.74375 9.56539L1.41827 5.54422Z" fill="black"/>
</svg>
