<svg width="16" height="16" viewBox="0 0 16 16" fill="none" xmlns="http://www.w3.org/2000/svg">
<path fill-rule="evenodd" clip-rule="evenodd" d="M0.349976 4.0001C0.349976 3.64111 0.64099 3.3501 0.999976 3.3501H15C15.359 3.3501 15.65 3.64111 15.65 4.0001C15.65 4.35908 15.359 4.6501 15 4.6501H0.999976C0.64099 4.6501 0.349976 4.35908 0.349976 4.0001ZM2.84998 8.0001C2.84998 7.64111 3.14099 7.3501 3.49998 7.3501H13C13.359 7.3501 13.65 7.64111 13.65 8.0001C13.65 8.35908 13.359 8.6501 13 8.6501H3.49998C3.14099 8.6501 2.84998 8.35908 2.84998 8.0001ZM5.34998 12.0001C5.34998 11.6411 5.64099 11.3501 5.99998 11.3501H10.5C10.859 11.3501 11.15 11.6411 11.15 12.0001C11.15 12.3591 10.859 12.6501 10.5 12.6501H5.99998C5.64099 12.6501 5.34998 12.3591 5.34998 12.0001Z" fill="black"/>
</svg>
