<svg width="16" height="16" viewBox="0 0 16 16" fill="none" xmlns="http://www.w3.org/2000/svg">
<path d="M8.00027 2.0497e-09C6.10059 -4.35205e-05 4.2629 0.693019 2.81603 1.95517C1.36917 3.21731 0.407564 4.96617 0.103299 6.88877C-0.200966 8.81138 0.171966 10.7823 1.15536 12.4487C2.13875 14.1152 3.66843 15.3685 5.47064 15.9843C5.87065 16.0565 6.02025 15.8104 6.02025 15.5947C6.02025 15.4003 6.01065 14.7539 6.01065 14.0674C4.00023 14.4463 3.48023 13.5646 3.32023 13.1036C3.14274 12.6547 2.86129 12.2569 2.50022 11.9446C2.22022 11.7912 1.82021 11.4114 2.48982 11.4015C2.74572 11.4299 2.99118 11.5212 3.20537 11.6675C3.41956 11.8139 3.59617 12.0111 3.72023 12.2423C3.82961 12.4438 3.97671 12.6212 4.15308 12.7644C4.32946 12.9075 4.53165 13.0135 4.74806 13.0764C4.96448 13.1392 5.19087 13.1577 5.41425 13.1307C5.63764 13.1037 5.85363 13.0318 6.04985 12.919C6.0845 12.5018 6.2659 12.1118 6.56025 11.8215C4.78024 11.6165 2.92022 10.9094 2.92022 7.77192C2.90889 6.95656 3.20229 6.16767 3.74023 5.56707C3.49567 4.85855 3.52429 4.08101 3.82023 3.3934C3.82023 3.3934 4.48984 3.17849 6.02025 4.23416C7.32929 3.865 8.71124 3.865 10.0203 4.23416C11.5499 3.16783 12.2203 3.3934 12.2203 3.3934C12.5163 4.08099 12.5449 4.85856 12.3003 5.56707C12.8399 6.16664 13.1335 6.95622 13.1203 7.77192C13.1203 10.9192 11.2499 11.6165 9.46988 11.8215C9.66081 12.0199 9.80785 12.2581 9.90103 12.52C9.99421 12.7818 10.0313 13.0611 10.0099 13.339C10.0099 14.4365 10.0003 15.3183 10.0003 15.5947C10.0003 15.8104 10.1499 16.0663 10.5499 15.9843C12.3488 15.3633 13.8739 14.1071 14.853 12.4398C15.8321 10.7725 16.2014 8.80274 15.895 6.88209C15.5887 4.96145 14.6266 3.21493 13.1805 1.95432C11.7344 0.693714 9.89839 0.00105818 8.00027 2.0497e-09Z" fill="black"/>
</svg>
