<svg width="16" height="16" viewBox="0 0 16 16" fill="none" xmlns="http://www.w3.org/2000/svg">
<path fill-rule="evenodd" clip-rule="evenodd" d="M8 4.15C8.35898 4.15 8.65 4.44101 8.65 4.8V7.35H11.2C11.559 7.35 11.85 7.64101 11.85 8C11.85 8.35898 11.559 8.65 11.2 8.65H8.65V11.2C8.65 11.559 8.35898 11.85 8 11.85C7.64101 11.85 7.35 11.559 7.35 11.2V8.65H4.8C4.44101 8.65 4.15 8.35898 4.15 8C4.15 7.64101 4.44101 7.35 4.8 7.35H7.35V4.8C7.35 4.44101 7.64101 4.15 8 4.15ZM8 14.7C11.7003 14.7 14.7 11.7003 14.7 8C14.7 4.29969 11.7003 1.3 8 1.3C4.29969 1.3 1.3 4.29969 1.3 8C1.3 11.7003 4.29969 14.7 8 14.7ZM16 8C16 12.4183 12.4183 16 8 16C3.58172 16 0 12.4183 0 8C0 3.58172 3.58172 0 8 0C12.4183 0 16 3.58172 16 8Z" fill="black"/>
</svg>
