<svg width="16" height="16" viewBox="0 0 16 16" fill="none" xmlns="http://www.w3.org/2000/svg">
<path fill-rule="evenodd" clip-rule="evenodd" d="M8 14.7C11.7003 14.7 14.7 11.7003 14.7 8C14.7 4.29969 11.7003 1.3 8 1.3C4.29969 1.3 1.3 4.29969 1.3 8C1.3 11.7003 4.29969 14.7 8 14.7ZM16 8C16 12.4183 12.4183 16 8 16C3.58172 16 0 12.4183 0 8C0 3.58172 3.58172 0 8 0C12.4183 0 16 3.58172 16 8ZM8 7C8.55229 7 9 7.44772 9 8V11C9 11.5523 8.55229 12 8 12C7.44772 12 7 11.5523 7 11V8C7 7.44772 7.44772 7 8 7ZM8 4C7.44772 4 7 4.44772 7 5C7 5.55228 7.44772 6 8 6H8.00667C8.55895 6 9.00667 5.55228 9.00667 5C9.00667 4.44772 8.55895 4 8.00667 4H8Z" fill="black"/>
</svg>
