<svg width="16" height="16" viewBox="0 0 16 16" fill="none" xmlns="http://www.w3.org/2000/svg">
<path d="M6.28571 15.45C6.28571 15.7525 6.54286 16 6.85714 16H9.14286C9.45714 16 9.71428 15.7525 9.71428 15.45V13.9H6.28571V15.45ZM8 4C5.79429 4 4 5.727 4 7.85C4 9.159 4.68 10.3085 5.71429 11.007V12.25C5.71429 12.5525 5.97143 12.8 6.28571 12.8H9.71428C10.0286 12.8 10.2857 12.5525 10.2857 12.25V11.007C11.32 10.3085 12 9.159 12 7.85C12 5.727 10.2057 4 8 4Z" fill="black"/>
<path d="M3 11C3 11.5523 2.55228 12 2 12C1.44772 12 1 11.5523 1 11C1 10.4477 1.44772 10 2 10C2.55228 10 3 10.4477 3 11Z" fill="black"/>
<path d="M15 11C15 11.5523 14.5523 12 14 12C13.4477 12 13 11.5523 13 11C13 10.4477 13.4477 10 14 10C14.5523 10 15 10.4477 15 11Z" fill="black"/>
<path d="M2 7C2 7.55228 1.55228 8 1 8C0.447715 8 0 7.55228 0 7C0 6.44772 0.447715 6 1 6C1.55228 6 2 6.44772 2 7Z" fill="black"/>
<path d="M16 7C16 7.55228 15.5523 8 15 8C14.4477 8 14 7.55228 14 7C14 6.44772 14.4477 6 15 6C15.5523 6 16 6.44772 16 7Z" fill="black"/>
<path d="M4 3C4 3.55228 3.55228 4 3 4C2.44772 4 2 3.55228 2 3C2 2.44772 2.44772 2 3 2C3.55228 2 4 2.44772 4 3Z" fill="black"/>
<path d="M14 3C14 3.55228 13.5523 4 13 4C12.4477 4 12 3.55228 12 3C12 2.44772 12.4477 2 13 2C13.5523 2 14 2.44772 14 3Z" fill="black"/>
<path d="M9 1C9 1.55228 8.55228 2 8 2C7.44772 2 7 1.55228 7 1C7 0.447715 7.44772 0 8 0C8.55228 0 9 0.447715 9 1Z" fill="black"/>
</svg>
