<svg width="16" height="16" viewBox="0 0 16 16" fill="none" xmlns="http://www.w3.org/2000/svg">
<path fill-rule="evenodd" clip-rule="evenodd" d="M12.083 11.1638C13.0576 9.98417 13.6431 8.47128 13.6431 6.82163C13.6431 3.05415 10.589 0 6.82156 0C3.05412 0 0 3.05415 0 6.82163C0 10.5891 3.05412 13.6433 6.82156 13.6433C8.4715 13.6433 9.98463 13.0575 11.1643 12.0825C11.1694 12.0879 11.1745 12.0932 11.1797 12.0985L14.889 15.8078C15.1428 16.0616 15.5544 16.0616 15.8082 15.8078C16.0621 15.5539 16.0621 15.1424 15.8082 14.8885L12.099 11.1793C12.0937 11.174 12.0884 11.1688 12.083 11.1638ZM12.3431 6.82163C12.3431 9.87115 9.87103 12.3433 6.82156 12.3433C3.7721 12.3433 1.3 9.87115 1.3 6.82163C1.3 3.7721 3.7721 1.3 6.82156 1.3C9.87103 1.3 12.3431 3.7721 12.3431 6.82163Z" fill="black"/>
</svg>
