<svg width="16" height="16" viewBox="0 0 16 16" fill="none" xmlns="http://www.w3.org/2000/svg">
<g clip-path="url(#clip0_495_495)">
<path fill-rule="evenodd" clip-rule="evenodd" d="M7.99998 6.6501C7.25439 6.6501 6.64998 7.25451 6.64998 8.0001C6.64998 8.74568 7.25439 9.3501 7.99998 9.3501C8.74556 9.3501 9.34998 8.74568 9.34998 8.0001C9.34998 7.25451 8.74556 6.6501 7.99998 6.6501ZM5.34998 8.0001C5.34998 6.53654 6.53642 5.3501 7.99998 5.3501C9.46353 5.3501 10.65 6.53654 10.65 8.0001C10.65 9.46365 9.46353 10.6501 7.99998 10.6501C6.53642 10.6501 5.34998 9.46365 5.34998 8.0001Z" fill="black"/>
<path fill-rule="evenodd" clip-rule="evenodd" d="M7.9837 1.3C7.80247 1.3 7.62866 1.37199 7.50051 1.50014C7.37236 1.6283 7.30037 1.8021 7.30037 1.98333V2.09926C7.299 2.44055 7.19787 2.77399 7.00943 3.05854C6.82099 3.34309 6.55345 3.56633 6.23975 3.70077C6.18426 3.72456 6.12586 3.74044 6.06624 3.74807C5.78073 3.84837 5.47328 3.87317 5.17401 3.81891C4.82995 3.75652 4.51247 3.5925 4.26251 3.34799L4.25738 3.34298L4.21741 3.30295C4.15395 3.23941 4.07833 3.18876 3.99538 3.15437C3.91242 3.11998 3.8235 3.10228 3.7337 3.10228C3.6439 3.10228 3.55498 3.11998 3.47202 3.15437C3.38907 3.18876 3.31371 3.23916 3.25024 3.3027C3.18671 3.36616 3.13579 3.44204 3.10141 3.52499C3.06702 3.60794 3.04932 3.69686 3.04932 3.78667C3.04932 3.87647 3.06702 3.96539 3.10141 4.04834C3.13579 4.1313 3.1862 4.20666 3.24973 4.27012L3.29505 4.31545C3.53956 4.56541 3.70356 4.88292 3.76594 5.22697C3.8271 5.56429 3.78782 5.91198 3.65321 6.22694C3.53069 6.54838 3.31608 6.82674 3.03604 7.02703C2.75042 7.23131 2.40995 7.34494 2.0589 7.35316L2.0437 7.35333H1.9837C1.80247 7.35333 1.62866 7.42533 1.50051 7.55348C1.37236 7.68163 1.30037 7.85544 1.30037 8.03667C1.30037 8.2179 1.37236 8.39171 1.50051 8.51986C1.62866 8.64801 1.80247 8.72 1.9837 8.72H2.09962C2.44091 8.72137 2.77436 8.82249 3.05891 9.01094C3.3425 9.19874 3.56519 9.46511 3.69978 9.77744C3.83983 10.0965 3.88145 10.4501 3.81927 10.793C3.75689 11.1371 3.59287 11.4546 3.34836 11.7045L3.34335 11.7096L3.30332 11.7496C3.23978 11.8131 3.18913 11.8887 3.15474 11.9717C3.12035 12.0546 3.10265 12.1435 3.10265 12.2333C3.10265 12.3231 3.12035 12.4121 3.15474 12.495C3.18913 12.578 3.23953 12.6533 3.30306 12.7168C3.36653 12.7803 3.4424 12.8312 3.52536 12.8656C3.60831 12.9 3.69723 12.9177 3.78703 12.9177C3.87683 12.9177 3.96575 12.9 4.04871 12.8656C4.13167 12.8312 4.20703 12.7808 4.27049 12.7173L4.31582 12.672C4.56578 12.4275 4.88329 12.2635 5.22734 12.2011C5.56466 12.1399 5.91235 12.1792 6.22731 12.3138C6.54875 12.4363 6.8271 12.651 7.0274 12.931C7.23168 13.2166 7.34531 13.5571 7.35352 13.9081L7.3537 13.9233V13.9833C7.3537 14.1646 7.42569 14.3384 7.55384 14.4665C7.68199 14.5947 7.8558 14.6667 8.03703 14.6667C8.21826 14.6667 8.39207 14.5947 8.52022 14.4665C8.64837 14.3384 8.72037 14.1646 8.72037 13.9833V13.87L8.72037 13.8674C8.72173 13.5261 8.82286 13.1927 9.0113 12.9081C9.19911 12.6245 9.46546 12.4019 9.77777 12.2673C10.0968 12.1272 10.4505 12.0856 10.7934 12.1478C11.1374 12.2101 11.4549 12.3742 11.7049 12.6187L11.71 12.6237L11.75 12.6637C11.8135 12.7273 11.8891 12.7779 11.972 12.8123C12.055 12.8467 12.1439 12.8644 12.2337 12.8644C12.3235 12.8644 12.4124 12.8467 12.4954 12.8123C12.5783 12.7779 12.6537 12.7275 12.7172 12.664C12.7807 12.6005 12.8316 12.5246 12.866 12.4417C12.9004 12.3587 12.9181 12.2698 12.9181 12.18C12.9181 12.0902 12.9004 12.0013 12.866 11.9183C12.8316 11.8354 12.7812 11.76 12.7177 11.6965L12.6723 11.6512C12.4278 11.4013 12.2638 11.0837 12.2015 10.7397C12.1393 10.3968 12.1809 10.0431 12.321 9.72407C12.4556 9.41176 12.6782 9.14541 12.9618 8.9576C13.2464 8.76916 13.5798 8.66803 13.9211 8.66667L13.9237 8.66666L13.9837 8.66667C14.1649 8.66667 14.3387 8.59467 14.4669 8.46652C14.595 8.33837 14.667 8.16456 14.667 7.98333C14.667 7.8021 14.595 7.6283 14.4669 7.50014C14.3387 7.37199 14.1649 7.3 13.9837 7.3H13.8704L13.8678 7.29999C13.5265 7.29863 13.193 7.19751 12.9085 7.00906C12.6239 6.82062 12.4007 6.55308 12.2663 6.23939C12.2425 6.1839 12.2266 6.12549 12.219 6.06587C12.1187 5.78036 12.0939 5.47291 12.1481 5.17364C12.2105 4.82959 12.3745 4.51211 12.619 4.26214L12.6241 4.25701L12.6641 4.21704C12.7276 4.15358 12.7783 4.07796 12.8127 3.99501C12.847 3.91206 12.8647 3.82314 12.8647 3.73333C12.8647 3.64353 12.847 3.55461 12.8127 3.47166C12.7783 3.3887 12.7279 3.31334 12.6643 3.24988C12.6009 3.18634 12.525 3.13543 12.442 3.10104C12.3591 3.06665 12.2702 3.04895 12.1804 3.04895C12.0906 3.04895 12.0016 3.06665 11.9187 3.10104C11.8357 3.13543 11.7604 3.18583 11.6969 3.24936L11.6516 3.29469C11.4016 3.5392 11.0841 3.70319 10.7401 3.76557C10.3972 3.82775 10.0435 3.78612 9.72447 3.64608C9.41215 3.51149 9.14578 3.2888 8.95797 3.00521C8.76953 2.72066 8.6684 2.38722 8.66704 2.04593L8.66703 2.04333V1.98333C8.66703 1.8021 8.59504 1.6283 8.46689 1.50014C8.33874 1.37199 8.16493 1.3 7.9837 1.3ZM6.58127 0.580905C6.95322 0.208958 7.45769 0 7.9837 0C8.50971 0 9.01418 0.208958 9.38613 0.580905C9.75807 0.952851 9.96703 1.45732 9.96703 1.98333V2.04169C9.96756 2.12911 9.99356 2.2145 10.0418 2.28741C10.0903 2.36058 10.1591 2.41799 10.2398 2.45256L10.2462 2.45531C10.3284 2.49161 10.4197 2.50247 10.5081 2.48643C10.5957 2.47056 10.6765 2.42909 10.7405 2.36729L10.7772 2.33064C10.9614 2.14623 11.1801 1.99994 11.4209 1.90013C11.6616 1.80032 11.9197 1.74895 12.1804 1.74895C12.441 1.74895 12.6991 1.80033 12.9399 1.90013C13.1805 1.99988 13.3991 2.14605 13.5832 2.3303C13.7676 2.51446 13.9138 2.73314 14.0136 2.97383C14.1134 3.21461 14.1647 3.4727 14.1647 3.73333C14.1647 3.99397 14.1134 4.25206 14.0136 4.49283C13.9138 4.73361 13.7675 4.95234 13.5831 5.13654L13.5464 5.17319C13.4846 5.23716 13.4431 5.31802 13.4273 5.40557C13.4112 5.49405 13.4221 5.5853 13.4584 5.66755C13.4772 5.71017 13.4913 5.75457 13.5006 5.79997C13.5336 5.84941 13.5763 5.89206 13.6263 5.92519C13.6992 5.97346 13.7845 5.99945 13.8719 6H13.9837C14.5097 6 15.0142 6.20896 15.3861 6.58091C15.7581 6.95285 15.967 7.45732 15.967 7.98333C15.967 8.50935 15.7581 9.01382 15.3861 9.38576C15.0142 9.75771 14.5097 9.96667 13.9837 9.96667H13.9253C13.8379 9.9672 13.7525 9.99319 13.6796 10.0415C13.6064 10.0899 13.549 10.1587 13.5145 10.2394L13.5117 10.2458C13.4754 10.328 13.4646 10.4193 13.4806 10.5078C13.4965 10.5953 13.538 10.6762 13.5998 10.7402L13.6364 10.7768C13.8208 10.961 13.9671 11.1797 14.0669 11.4205C14.1667 11.6613 14.2181 11.9194 14.2181 12.18C14.2181 12.4406 14.1667 12.6987 14.0669 12.9395C13.9671 13.1803 13.8208 13.399 13.6364 13.5832C13.4522 13.7676 13.234 13.9134 12.9932 14.0132C12.7524 14.113 12.4943 14.1644 12.2337 14.1644C11.9731 14.1644 11.715 14.113 11.4742 14.0132C11.2334 13.9134 11.0147 13.7671 10.8305 13.5827L10.7938 13.546C10.7299 13.4842 10.649 13.4428 10.5615 13.4269C10.473 13.4109 10.3817 13.4217 10.2995 13.458L10.2931 13.4608C10.2124 13.4954 10.1436 13.5527 10.0952 13.6259C10.0469 13.6988 10.0209 13.7842 10.0204 13.8716V13.9833C10.0204 14.5093 9.81141 15.0138 9.43946 15.3858C9.06751 15.7577 8.56305 15.9667 8.03703 15.9667C7.51102 15.9667 7.00655 15.7577 6.6346 15.3858C6.26266 15.0138 6.0537 14.5093 6.0537 13.9833V13.9326C6.05047 13.8444 6.02139 13.7591 5.97002 13.6873C5.91749 13.6138 5.84408 13.5579 5.75933 13.5267C5.74648 13.522 5.73378 13.5169 5.72125 13.5113C5.63899 13.475 5.54775 13.4642 5.45927 13.4802C5.37172 13.4961 5.29086 13.5376 5.22689 13.5994L5.19024 13.636C5.00604 13.8204 4.7873 13.9667 4.54653 14.0665C4.30576 14.1663 4.04767 14.2177 3.78703 14.2177C3.52639 14.2177 3.26831 14.1663 3.02753 14.0665C2.78676 13.9667 2.56802 13.8204 2.38382 13.636C2.19942 13.4518 2.05364 13.2336 1.95383 12.9928C1.85402 12.7521 1.80265 12.494 1.80265 12.2333C1.80265 11.9727 1.85402 11.7146 1.95383 11.4738C2.0536 11.2332 2.1998 11.0145 2.38408 10.8304L2.42099 10.7935C2.48279 10.7295 2.52426 10.6486 2.54013 10.5611C2.55617 10.4726 2.54534 10.3814 2.50904 10.2991L2.50622 10.2927C2.47165 10.2121 2.41428 10.1433 2.34111 10.0948C2.26821 10.0465 2.18282 10.0205 2.09539 10.02H1.9837C1.45769 10.02 0.953217 9.81104 0.581271 9.43909C0.209323 9.06715 0.000366211 8.56268 0.000366211 8.03667C0.000366211 7.51065 0.209323 7.00619 0.581271 6.63424C0.953217 6.26229 1.45769 6.05333 1.9837 6.05333H2.03443C2.1226 6.05011 2.20793 6.02103 2.27976 5.96965C2.35321 5.91712 2.40915 5.84371 2.44032 5.75897C2.44505 5.74611 2.45018 5.73341 2.45571 5.72089C2.49201 5.63863 2.50284 5.54738 2.4868 5.45891C2.47092 5.37135 2.42945 5.29049 2.36765 5.22653L2.331 5.18988C2.1466 5.00568 2.00031 4.78694 1.9005 4.54616C1.80069 4.30539 1.74932 4.04731 1.74932 3.78667C1.74932 3.52603 1.80069 3.26794 1.9005 3.02717C2.00026 2.78651 2.14647 2.56786 2.33075 2.38371C2.51489 2.19943 2.73354 2.05323 2.9742 1.95347C3.21497 1.85366 3.47306 1.80228 3.7337 1.80228C3.99434 1.80228 4.25242 1.85366 4.4932 1.95347C4.73397 2.05328 4.95271 2.19957 5.13691 2.38397L5.17356 2.42062C5.23753 2.48242 5.31839 2.52389 5.40594 2.53976C5.49441 2.55581 5.58566 2.54498 5.66792 2.50867C5.71054 2.48986 5.75494 2.47574 5.80033 2.46647C5.84978 2.43344 5.89243 2.39078 5.92556 2.34075C5.97383 2.26786 5.99982 2.1825 6.00037 2.0951V1.98333C6.00037 1.45732 6.20933 0.952851 6.58127 0.580905Z" fill="black"/>
</g>
<defs>
<clipPath id="clip0_495_495">
<rect width="16" height="16" fill="white"/>
</clipPath>
</defs>
</svg>
