<svg width="16" height="16" viewBox="0 0 16 16" fill="none" xmlns="http://www.w3.org/2000/svg">
<path fill-rule="evenodd" clip-rule="evenodd" d="M7.99998 6.64998C7.25439 6.64998 6.64998 7.25439 6.64998 7.99998C6.64998 8.74556 7.25439 9.34998 7.99998 9.34998C8.74556 9.34998 9.34998 8.74556 9.34998 7.99998C9.34998 7.25439 8.74556 6.64998 7.99998 6.64998ZM5.34998 7.99998C5.34998 6.53642 6.53642 5.34998 7.99998 5.34998C9.46353 5.34998 10.65 6.53642 10.65 7.99998C10.65 9.46353 9.46353 10.65 7.99998 10.65C6.53642 10.65 5.34998 9.46353 5.34998 7.99998Z" fill="#B8BDBF"/>
<path fill-rule="evenodd" clip-rule="evenodd" d="M7.9837 1.29988C7.80247 1.29988 7.62866 1.37187 7.50051 1.50002C7.37236 1.62817 7.30037 1.80198 7.30037 1.98321V2.09914C7.299 2.44042 7.19787 2.77387 7.00943 3.05842C6.82099 3.34297 6.55345 3.56621 6.23975 3.70065C6.18426 3.72443 6.12586 3.74032 6.06624 3.74795C5.78073 3.84825 5.47328 3.87305 5.17401 3.81879C4.82995 3.7564 4.51247 3.59238 4.26251 3.34787L4.25738 3.34285L4.21741 3.30282C4.15395 3.23929 4.07833 3.18864 3.99538 3.15425C3.91242 3.11986 3.8235 3.10216 3.7337 3.10216C3.6439 3.10216 3.55498 3.11986 3.47202 3.15425C3.38907 3.18864 3.31371 3.23904 3.25024 3.30258C3.18671 3.36604 3.13579 3.44191 3.10141 3.52487C3.06702 3.60782 3.04932 3.69674 3.04932 3.78654C3.04932 3.87635 3.06702 3.96527 3.10141 4.04822C3.13579 4.13118 3.1862 4.20654 3.24973 4.27L3.29505 4.31533C3.53956 4.56529 3.70356 4.8828 3.76594 5.22685C3.8271 5.56417 3.78782 5.91186 3.65321 6.22682C3.53069 6.54825 3.31608 6.82661 3.03604 7.02691C2.75042 7.23119 2.40995 7.34482 2.0589 7.35303L2.0437 7.35321H1.9837C1.80247 7.35321 1.62866 7.42521 1.50051 7.55336C1.37236 7.68151 1.30037 7.85531 1.30037 8.03654C1.30037 8.21778 1.37236 8.39158 1.50051 8.51973C1.62866 8.64788 1.80247 8.71988 1.9837 8.71988H2.09962C2.44091 8.72124 2.77436 8.82237 3.05891 9.01082C3.3425 9.19862 3.56519 9.46499 3.69978 9.77731C3.83983 10.0964 3.88145 10.45 3.81927 10.7929C3.75689 11.137 3.59287 11.4544 3.34836 11.7044L3.34335 11.7095L3.30332 11.7495C3.23978 11.813 3.18913 11.8886 3.15474 11.9715C3.12035 12.0545 3.10265 12.1434 3.10265 12.2332C3.10265 12.323 3.12035 12.4119 3.15474 12.4949C3.18913 12.5778 3.23953 12.6532 3.30306 12.7167C3.36653 12.7802 3.4424 12.8311 3.52536 12.8655C3.60831 12.8999 3.69723 12.9176 3.78703 12.9176C3.87683 12.9176 3.96575 12.8999 4.04871 12.8655C4.13167 12.8311 4.20703 12.7807 4.27049 12.7172L4.31582 12.6719C4.56578 12.4273 4.88329 12.2634 5.22734 12.201C5.56466 12.1398 5.91235 12.1791 6.22731 12.3137C6.54875 12.4362 6.8271 12.6508 7.0274 12.9309C7.23168 13.2165 7.34531 13.557 7.35352 13.908L7.3537 13.9232V13.9832C7.3537 14.1644 7.42569 14.3382 7.55384 14.4664C7.68199 14.5946 7.8558 14.6665 8.03703 14.6665C8.21826 14.6665 8.39207 14.5946 8.52022 14.4664C8.64837 14.3382 8.72037 14.1644 8.72037 13.9832V13.8699L8.72037 13.8673C8.72173 13.526 8.82286 13.1926 9.0113 12.908C9.19911 12.6244 9.46546 12.4017 9.77777 12.2671C10.0968 12.1271 10.4505 12.0855 10.7934 12.1476C11.1374 12.21 11.4549 12.374 11.7049 12.6186L11.71 12.6236L11.75 12.6636C11.8135 12.7271 11.8891 12.7778 11.972 12.8122C12.055 12.8466 12.1439 12.8643 12.2337 12.8643C12.3235 12.8643 12.4124 12.8466 12.4954 12.8122C12.5783 12.7778 12.6537 12.7274 12.7172 12.6638C12.7807 12.6004 12.8316 12.5245 12.866 12.4416C12.9004 12.3586 12.9181 12.2697 12.9181 12.1799C12.9181 12.0901 12.9004 12.0012 12.866 11.9182C12.8316 11.8352 12.7812 11.7599 12.7177 11.6964L12.6723 11.6511C12.4278 11.4011 12.2638 11.0836 12.2015 10.7396C12.1393 10.3967 12.1809 10.043 12.321 9.72395C12.4556 9.41164 12.6782 9.14528 12.9618 8.95748C13.2464 8.76904 13.5798 8.66791 13.9211 8.66655L13.9237 8.66654L13.9837 8.66654C14.1649 8.66654 14.3387 8.59455 14.4669 8.4664C14.595 8.33825 14.667 8.16444 14.667 7.98321C14.667 7.80198 14.595 7.62817 14.4669 7.50002C14.3387 7.37187 14.1649 7.29988 13.9837 7.29988H13.8704L13.8678 7.29987C13.5265 7.29851 13.193 7.19739 12.9085 7.00894C12.6239 6.8205 12.4007 6.55296 12.2663 6.23927C12.2425 6.18378 12.2266 6.12537 12.219 6.06575C12.1187 5.78024 12.0939 5.47279 12.1481 5.17352C12.2105 4.82947 12.3745 4.51199 12.619 4.26202L12.6241 4.25689L12.6641 4.21692C12.7276 4.15346 12.7783 4.07784 12.8127 3.99489C12.847 3.91193 12.8647 3.82301 12.8647 3.73321C12.8647 3.64341 12.847 3.55449 12.8127 3.47154C12.7783 3.38858 12.7279 3.31322 12.6643 3.24975C12.6009 3.18622 12.525 3.13531 12.442 3.10092C12.3591 3.06653 12.2702 3.04883 12.1804 3.04883C12.0906 3.04883 12.0016 3.06653 11.9187 3.10092C11.8357 3.13531 11.7604 3.18571 11.6969 3.24924L11.6516 3.29457C11.4016 3.53908 11.0841 3.70307 10.7401 3.76545C10.3972 3.82763 10.0435 3.786 9.72447 3.64595C9.41215 3.51137 9.14578 3.28868 8.95797 3.00509C8.76953 2.72054 8.6684 2.38709 8.66704 2.0458L8.66703 2.04321V1.98321C8.66703 1.80198 8.59504 1.62817 8.46689 1.50002C8.33874 1.37187 8.16493 1.29988 7.9837 1.29988ZM6.58127 0.580783C6.95322 0.208836 7.45769 -0.00012207 7.9837 -0.00012207C8.50971 -0.00012207 9.01418 0.208836 9.38613 0.580783C9.75807 0.952729 9.96703 1.4572 9.96703 1.98321V2.04156C9.96756 2.12899 9.99356 2.21438 10.0418 2.28729C10.0903 2.36046 10.1591 2.41787 10.2398 2.45244L10.2462 2.45518C10.3284 2.49149 10.4197 2.50235 10.5081 2.48631C10.5957 2.47043 10.6765 2.42897 10.7405 2.36717L10.7772 2.33051C10.9614 2.14611 11.1801 1.99982 11.4209 1.90001C11.6616 1.8002 11.9197 1.74883 12.1804 1.74883C12.441 1.74883 12.6991 1.8002 12.9399 1.90001C13.1805 1.99976 13.3991 2.14593 13.5832 2.33018C13.7676 2.51434 13.9138 2.73302 14.0136 2.97371C14.1134 3.21449 14.1647 3.47257 14.1647 3.73321C14.1647 3.99385 14.1134 4.25194 14.0136 4.49271C13.9138 4.73348 13.7675 4.95222 13.5831 5.13642L13.5464 5.17307C13.4846 5.23703 13.4431 5.31789 13.4273 5.40545C13.4112 5.49393 13.4221 5.58518 13.4584 5.66743C13.4772 5.71005 13.4913 5.75445 13.5006 5.79985C13.5336 5.84929 13.5763 5.89194 13.6263 5.92507C13.6992 5.97334 13.7845 5.99933 13.8719 5.99988H13.9837C14.5097 5.99988 15.0142 6.20884 15.3861 6.58078C15.7581 6.95273 15.967 7.4572 15.967 7.98321C15.967 8.50923 15.7581 9.01369 15.3861 9.38564C15.0142 9.75758 14.5097 9.96654 13.9837 9.96654H13.9253C13.8379 9.96708 13.7525 9.99307 13.6796 10.0414C13.6064 10.0898 13.549 10.1586 13.5145 10.2393L13.5117 10.2457C13.4754 10.3279 13.4646 10.4192 13.4806 10.5076C13.4965 10.5952 13.538 10.6761 13.5998 10.74L13.6364 10.7767C13.8208 10.9609 13.9671 11.1796 14.0669 11.4204C14.1667 11.6612 14.2181 11.9192 14.2181 12.1799C14.2181 12.4405 14.1667 12.6986 14.0669 12.9394C13.9671 13.1802 13.8208 13.3989 13.6364 13.5831C13.4522 13.7675 13.234 13.9133 12.9932 14.0131C12.7524 14.1129 12.4943 14.1643 12.2337 14.1643C11.9731 14.1643 11.715 14.1129 11.4742 14.0131C11.2334 13.9133 11.0147 13.767 10.8305 13.5826L10.7938 13.5459C10.7299 13.4841 10.649 13.4427 10.5615 13.4268C10.473 13.4107 10.3817 13.4216 10.2995 13.4579L10.2931 13.4607C10.2124 13.4953 10.1436 13.5526 10.0952 13.6258C10.0469 13.6987 10.0209 13.7841 10.0204 13.8715V13.9832C10.0204 14.5092 9.81141 15.0137 9.43946 15.3856C9.06751 15.7576 8.56305 15.9665 8.03703 15.9665C7.51102 15.9665 7.00655 15.7576 6.6346 15.3856C6.26266 15.0137 6.0537 14.5092 6.0537 13.9832V13.9325C6.05047 13.8443 6.02139 13.759 5.97002 13.6871C5.91749 13.6137 5.84408 13.5578 5.75933 13.5266C5.74648 13.5219 5.73378 13.5167 5.72125 13.5112C5.63899 13.4749 5.54775 13.4641 5.45927 13.4801C5.37172 13.496 5.29086 13.5375 5.22689 13.5993L5.19024 13.6359C5.00604 13.8203 4.7873 13.9666 4.54653 14.0664C4.30576 14.1662 4.04767 14.2176 3.78703 14.2176C3.52639 14.2176 3.26831 14.1662 3.02753 14.0664C2.78676 13.9666 2.56802 13.8203 2.38382 13.6359C2.19942 13.4517 2.05364 13.2335 1.95383 12.9927C1.85402 12.7519 1.80265 12.4938 1.80265 12.2332C1.80265 11.9726 1.85402 11.7145 1.95383 11.4737C2.0536 11.2331 2.1998 11.0144 2.38408 10.8303L2.42099 10.7933C2.48279 10.7294 2.52426 10.6485 2.54013 10.561C2.55617 10.4725 2.54534 10.3812 2.50904 10.299L2.50622 10.2926C2.47165 10.212 2.41428 10.1431 2.34111 10.0947C2.26821 10.0464 2.18282 10.0204 2.09539 10.0199H1.9837C1.45769 10.0199 0.953217 9.81092 0.581271 9.43897C0.209323 9.06703 0.000366211 8.56256 0.000366211 8.03654C0.000366211 7.51053 0.209323 7.00606 0.581271 6.63412C0.953217 6.26217 1.45769 6.05321 1.9837 6.05321H2.03443C2.1226 6.04999 2.20793 6.02091 2.27976 5.96953C2.35321 5.917 2.40915 5.84359 2.44032 5.75884C2.44504 5.74599 2.45018 5.73329 2.45571 5.72076C2.49201 5.63851 2.50284 5.54726 2.4868 5.45879C2.47092 5.37123 2.42945 5.29037 2.36765 5.2264L2.331 5.18975C2.1466 5.00556 2.00031 4.78682 1.9005 4.54604C1.80069 4.30527 1.74932 4.04718 1.74932 3.78654C1.74932 3.52591 1.80069 3.26782 1.9005 3.02705C2.00026 2.78638 2.14647 2.56774 2.33075 2.38359C2.51489 2.19931 2.73354 2.05311 2.9742 1.95335C3.21497 1.85354 3.47306 1.80216 3.7337 1.80216C3.99434 1.80216 4.25243 1.85354 4.4932 1.95335C4.73397 2.05316 4.95271 2.19944 5.13691 2.38385L5.17356 2.4205C5.23753 2.4823 5.31839 2.52377 5.40594 2.53964C5.49441 2.55568 5.58566 2.54485 5.66792 2.50855C5.71054 2.48974 5.75494 2.47562 5.80033 2.46635C5.84978 2.43332 5.89243 2.39066 5.92556 2.34062C5.97383 2.26774 5.99982 2.18238 6.00037 2.09498V1.98321C6.00037 1.4572 6.20933 0.952729 6.58127 0.580783Z" fill="#B8BDBF"/>
</svg>
