<svg width="16" height="16" viewBox="0 0 16 16" fill="none" xmlns="http://www.w3.org/2000/svg">
<path d="M3.50002 12.5C3.50002 12.6326 3.44734 12.7598 3.35357 12.8536C3.25981 12.9473 3.13263 13 3.00002 13C2.86741 13 2.74024 12.9473 2.64647 12.8536C2.5527 12.7598 2.50002 12.6326 2.50002 12.5V3.70703L1.35402 4.85403C1.30753 4.90052 1.25234 4.93739 1.1916 4.96255C1.13087 4.98771 1.06577 5.00066 1.00002 5.00066C0.934277 5.00066 0.869177 4.98771 0.808438 4.96255C0.747698 4.93739 0.692509 4.90052 0.646021 4.85403C0.599533 4.80754 0.562657 4.75235 0.537498 4.69161C0.512339 4.63087 0.49939 4.56577 0.49939 4.50003C0.49939 4.43428 0.512339 4.36918 0.537498 4.30844C0.562657 4.2477 0.599533 4.19252 0.646021 4.14603L2.64602 2.14703L2.65302 2.14003C2.74702 2.04873 2.87322 1.99816 3.00425 1.99929C3.13529 2.00041 3.2606 2.05313 3.35302 2.14603L5.35302 4.14603C5.39951 4.19245 5.4364 4.24757 5.46158 4.30825C5.48677 4.36893 5.49975 4.43398 5.4998 4.49967C5.49985 4.56537 5.48695 4.63044 5.46185 4.69115C5.43676 4.75186 5.39994 4.80704 5.35352 4.85353C5.3071 4.90002 5.25198 4.93691 5.1913 4.96209C5.13062 4.98727 5.06557 5.00026 4.99988 5.00031C4.93418 5.00035 4.86911 4.98746 4.8084 4.96236C4.74769 4.93726 4.69251 4.90045 4.64602 4.85403L3.50002 3.70703V12.5ZM7.00002 3.50003C7.00002 3.36742 7.0527 3.24024 7.14647 3.14647C7.24024 3.05271 7.36741 3.00003 7.50002 3.00003H14.5C14.6326 3.00003 14.7598 3.05271 14.8536 3.14647C14.9473 3.24024 15 3.36742 15 3.50003C15 3.63264 14.9473 3.75981 14.8536 3.85358C14.7598 3.94735 14.6326 4.00003 14.5 4.00003H7.50002C7.36741 4.00003 7.24024 3.94735 7.14647 3.85358C7.0527 3.75981 7.00002 3.63264 7.00002 3.50003ZM7.50002 6.00003C7.36741 6.00003 7.24024 6.05271 7.14647 6.14647C7.0527 6.24024 7.00002 6.36742 7.00002 6.50003C7.00002 6.63264 7.0527 6.75981 7.14647 6.85358C7.24024 6.94735 7.36741 7.00003 7.50002 7.00003H12.5C12.6326 7.00003 12.7598 6.94735 12.8536 6.85358C12.9473 6.75981 13 6.63264 13 6.50003C13 6.36742 12.9473 6.24024 12.8536 6.14647C12.7598 6.05271 12.6326 6.00003 12.5 6.00003H7.50002ZM7.50002 9.00003C7.36741 9.00003 7.24024 9.05271 7.14647 9.14647C7.0527 9.24024 7.00002 9.36742 7.00002 9.50003C7.00002 9.63264 7.0527 9.75981 7.14647 9.85358C7.24024 9.94735 7.36741 10 7.50002 10H10.5C10.6326 10 10.7598 9.94735 10.8536 9.85358C10.9473 9.75981 11 9.63264 11 9.50003C11 9.36742 10.9473 9.24024 10.8536 9.14647C10.7598 9.05271 10.6326 9.00003 10.5 9.00003H7.50002ZM7.50002 12C7.36741 12 7.24024 12.0527 7.14647 12.1465C7.0527 12.2402 7.00002 12.3674 7.00002 12.5C7.00002 12.6326 7.0527 12.7598 7.14647 12.8536C7.24024 12.9473 7.36741 13 7.50002 13H8.50002C8.63263 13 8.75981 12.9473 8.85357 12.8536C8.94734 12.7598 9.00002 12.6326 9.00002 12.5C9.00002 12.3674 8.94734 12.2402 8.85357 12.1465C8.75981 12.0527 8.63263 12 8.50002 12H7.50002Z" fill="black"/>
</svg>
