<svg width="16" height="16" viewBox="0 0 16 16" fill="none" xmlns="http://www.w3.org/2000/svg">
<path d="M3.50002 2.5C3.50002 2.36739 3.44734 2.24021 3.35357 2.14645C3.25981 2.05268 3.13263 2 3.00002 2C2.86741 2 2.74024 2.05268 2.64647 2.14645C2.5527 2.24021 2.50002 2.36739 2.50002 2.5V11.293L1.35402 10.146C1.26013 10.0521 1.1328 9.99937 1.00002 9.99937C0.867245 9.99937 0.739908 10.0521 0.646021 10.146C0.552135 10.2399 0.49939 10.3672 0.49939 10.5C0.49939 10.6328 0.552135 10.7601 0.646021 10.854L2.64602 12.853L2.65302 12.86C2.7469 12.9515 2.87314 13.0023 3.00426 13.0011C3.13537 13 3.26073 12.9471 3.35302 12.854L5.35302 10.854C5.39951 10.8076 5.4364 10.7525 5.46158 10.6918C5.48677 10.6311 5.49975 10.5661 5.4998 10.5004C5.49985 10.4347 5.48695 10.3696 5.46185 10.3089C5.43675 10.2482 5.39994 10.193 5.35352 10.1465C5.3071 10.1 5.25197 10.0631 5.1913 10.0379C5.13062 10.0128 5.06557 9.99977 4.99988 9.99972C4.93418 9.99968 4.86911 10.0126 4.8084 10.0377C4.74769 10.0628 4.69251 10.0996 4.64602 10.146L3.50002 11.293V2.5ZM7.00002 3.5C7.00002 3.36739 7.0527 3.24021 7.14647 3.14645C7.24024 3.05268 7.36741 3 7.50002 3H14.5C14.6326 3 14.7598 3.05268 14.8536 3.14645C14.9473 3.24021 15 3.36739 15 3.5C15 3.63261 14.9473 3.75979 14.8536 3.85355C14.7598 3.94732 14.6326 4 14.5 4H7.50002C7.36741 4 7.24024 3.94732 7.14647 3.85355C7.0527 3.75979 7.00002 3.63261 7.00002 3.5ZM7.50002 6C7.36741 6 7.24024 6.05268 7.14647 6.14645C7.0527 6.24021 7.00002 6.36739 7.00002 6.5C7.00002 6.63261 7.0527 6.75979 7.14647 6.85355C7.24024 6.94732 7.36741 7 7.50002 7H12.5C12.6326 7 12.7598 6.94732 12.8536 6.85355C12.9473 6.75979 13 6.63261 13 6.5C13 6.36739 12.9473 6.24021 12.8536 6.14645C12.7598 6.05268 12.6326 6 12.5 6H7.50002ZM7.50002 9C7.36741 9 7.24024 9.05268 7.14647 9.14645C7.0527 9.24021 7.00002 9.36739 7.00002 9.5C7.00002 9.63261 7.0527 9.75979 7.14647 9.85355C7.24024 9.94732 7.36741 10 7.50002 10H10.5C10.6326 10 10.7598 9.94732 10.8536 9.85355C10.9473 9.75979 11 9.63261 11 9.5C11 9.36739 10.9473 9.24021 10.8536 9.14645C10.7598 9.05268 10.6326 9 10.5 9H7.50002ZM7.50002 12C7.36741 12 7.24024 12.0527 7.14647 12.1464C7.0527 12.2402 7.00002 12.3674 7.00002 12.5C7.00002 12.6326 7.0527 12.7598 7.14647 12.8536C7.24024 12.9473 7.36741 13 7.50002 13H8.50002C8.63263 13 8.75981 12.9473 8.85357 12.8536C8.94734 12.7598 9.00002 12.6326 9.00002 12.5C9.00002 12.3674 8.94734 12.2402 8.85357 12.1464C8.75981 12.0527 8.63263 12 8.50002 12H7.50002Z" fill="black"/>
</svg>
