<svg width="16" height="16" viewBox="0 0 16 16" fill="none" xmlns="http://www.w3.org/2000/svg">
<path d="M8 0C6.41775 0 4.87103 0.469192 3.55544 1.34824C2.23985 2.22729 1.21447 3.47672 0.608967 4.93853C0.00346631 6.40034 -0.15496 8.00887 0.153721 9.56072C0.462403 11.1126 1.22433 12.538 2.34315 13.6569C3.46197 14.7757 4.88743 15.5376 6.43928 15.8463C7.99113 16.155 9.59966 15.9965 11.0615 15.391C12.5233 14.7855 13.7727 13.7602 14.6518 12.4446C15.5308 11.129 16 9.58225 16 8C16 6.94942 15.7931 5.90914 15.391 4.93853C14.989 3.96793 14.3997 3.08601 13.6569 2.34315C12.914 1.60028 12.0321 1.011 11.0615 0.608964C10.0909 0.206926 9.05058 0 8 0ZM10.544 12.1216C10.5141 12.1963 10.4686 12.2638 10.4105 12.3195C10.3524 12.3752 10.2831 12.4178 10.2072 12.4445C10.1312 12.4712 10.0505 12.4813 9.97032 12.4742C9.89015 12.467 9.81244 12.4428 9.7424 12.4032L7.5704 10.7152L6.1768 12.0016C6.14445 12.0255 6.10662 12.0409 6.06679 12.0463C6.02695 12.0518 5.98638 12.0471 5.9488 12.0328L6.216 9.6416L6.224 9.6488L6.2296 9.6016C6.2296 9.6016 10.1376 6.0432 10.2968 5.892C10.4584 5.7408 10.4048 5.708 10.4048 5.708C10.4144 5.524 10.116 5.708 10.116 5.708L4.9376 9.0392L2.7816 8.3048C2.7816 8.3048 2.4504 8.1864 2.4192 7.9248C2.3864 7.6656 2.792 7.5248 2.792 7.5248L11.3656 4.1184C11.3656 4.1184 12.0704 3.8048 12.0704 4.3248L10.544 12.1216Z" fill="black"/>
</svg>
