<svg width="16" height="16" viewBox="0 0 16 16" fill="none" xmlns="http://www.w3.org/2000/svg">
<path fill-rule="evenodd" clip-rule="evenodd" d="M0 8C0 12.4 3.6 16 8 16C12.4 16 16 12.4 16 8C16 3.6 12.4 0 8 0C3.6 0 0 3.6 0 8ZM8.65 3.5C8.65 3.14102 8.35898 2.85 8 2.85C7.64102 2.85 7.35 3.14102 7.35 3.5V8C7.35 8.17239 7.41848 8.33772 7.54038 8.45962L10.0404 10.9596C10.2942 11.2135 10.7058 11.2135 10.9596 10.9596C11.2135 10.7058 11.2135 10.2942 10.9596 10.0404L8.65 7.73076V3.5Z" fill="black"/>
</svg>
