<svg width="16" height="16" viewBox="0 0 16 16" fill="none" xmlns="http://www.w3.org/2000/svg">
<path d="M8 16C3.6 16 0 12.4 0 8C0 3.6 3.6 0 8 0C12.4 0 16 3.6 16 8C16 12.4 12.4 16 8 16ZM8 1.33333C4.33333 1.33333 1.33333 4.33333 1.33333 8C1.33333 11.6667 4.33333 14.6667 8 14.6667C11.6667 14.6667 14.6667 11.6667 14.6667 8C14.6667 4.33333 11.6667 1.33333 8 1.33333Z" fill="black"/>
<path d="M8 8.66667C7.6 8.66667 7.33333 8.4 7.33333 8V3.33333C7.33333 2.93333 7.6 2.66667 8 2.66667C8.4 2.66667 8.66667 2.93333 8.66667 3.33333V8C8.66667 8.4 8.4 8.66667 8 8.66667Z" fill="black"/>
<path d="M10.6667 11.3333C10.4667 11.3333 10.3333 11.2667 10.2 11.1333L7.53333 8.46667C7.26667 8.2 7.26667 7.8 7.53333 7.53333C7.8 7.26667 8.2 7.26667 8.46667 7.53333L11.1333 10.2C11.4 10.4667 11.4 10.8667 11.1333 11.1333C11 11.2667 10.8667 11.3333 10.6667 11.3333Z" fill="black"/>
</svg>
