<svg width="16" height="16" viewBox="0 0 16 16" fill="none" xmlns="http://www.w3.org/2000/svg">
<path d="M16 2.56048C15.3987 2.82136 14.7627 2.99381 14.112 3.07248C14.7985 2.66234 15.313 2.01711 15.56 1.25648C14.9148 1.64053 14.2086 1.91112 13.472 2.05648C12.9796 1.52254 12.324 1.16712 11.6078 1.04596C10.8917 0.924805 10.1556 1.04477 9.51503 1.38703C8.87443 1.7293 8.36555 2.27451 8.06819 2.93715C7.77084 3.59979 7.70183 4.34239 7.872 5.04848C6.56754 4.9825 5.29155 4.64284 4.12692 4.05157C2.96229 3.4603 1.93508 2.63063 1.112 1.61648C0.82331 2.12061 0.671615 2.69154 0.672 3.27248C0.670976 3.81199 0.803374 4.34337 1.0574 4.81933C1.31143 5.29529 1.67921 5.70105 2.128 6.00048C1.60638 5.98629 1.09591 5.84632 0.64 5.59248V5.63248C0.64391 6.38839 0.908795 7.11975 1.38985 7.70285C1.87091 8.28595 2.5386 8.68499 3.28 8.83248C2.9946 8.91933 2.6983 8.96513 2.4 8.96848C2.19351 8.96607 1.98754 8.94734 1.784 8.91248C1.99513 9.56273 2.4037 10.131 2.95286 10.5382C3.50202 10.9454 4.16446 11.1713 4.848 11.1845C3.69376 12.0927 2.26871 12.5884 0.8 12.5925C0.532588 12.5934 0.265388 12.5773 0 12.5445C1.49954 13.5127 3.24705 14.0267 5.032 14.0245C6.26375 14.0373 7.48571 13.8045 8.62649 13.3397C9.76728 12.875 10.804 12.1876 11.6762 11.3177C12.5483 10.4478 13.2384 9.41279 13.706 8.2732C14.1737 7.13362 14.4096 5.91226 14.4 4.68048V4.25648C15.0278 3.78833 15.5692 3.21442 16 2.56048Z" fill="black"/>
</svg>
