<svg width="16" height="16" viewBox="0 0 16 16" fill="none" xmlns="http://www.w3.org/2000/svg">
<path fill-rule="evenodd" clip-rule="evenodd" d="M1.20279 11.1006C1.96793 10.3927 2.99932 10 4.06863 10H11.9314C13.0007 10 14.0321 10.3927 14.7972 11.1006C15.5634 11.8094 16 12.7775 16 13.7937V15.381C16 15.7228 15.7147 16 15.3627 16C15.0108 16 14.7255 15.7228 14.7255 15.381V13.7937C14.7255 13.1259 14.4391 12.479 13.9182 11.9971C13.3964 11.5143 12.6822 11.2381 11.9314 11.2381H4.06863C3.31782 11.2381 2.60365 11.5143 2.08177 11.9971C1.56094 12.479 1.27451 13.1259 1.27451 13.7937V15.381C1.27451 15.7228 0.989201 16 0.637255 16C0.285309 16 0 15.7228 0 15.381V13.7937C0 12.7775 0.436603 11.8094 1.20279 11.1006Z" fill="black"/>
<path fill-rule="evenodd" clip-rule="evenodd" d="M8 1.42466C6.57768 1.42466 5.42466 2.57768 5.42466 4C5.42466 5.42232 6.57768 6.57534 8 6.57534C9.42232 6.57534 10.5753 5.42232 10.5753 4C10.5753 2.57768 9.42232 1.42466 8 1.42466ZM4 4C4 1.79086 5.79086 0 8 0C10.2091 0 12 1.79086 12 4C12 6.20914 10.2091 8 8 8C5.79086 8 4 6.20914 4 4Z" fill="black"/>
</svg>
