<svg width="16" height="16" viewBox="0 0 16 16" fill="none" xmlns="http://www.w3.org/2000/svg">
<path d="M3.27553 4.91601C5.88479 2.36133 10.1152 2.36133 12.7245 4.91601L13.0385 5.22347C13.169 5.3512 13.169 5.5583 13.0385 5.68603L11.9643 6.73779C11.8991 6.80166 11.7933 6.80166 11.7281 6.73779L11.2959 6.31469C9.47564 4.53248 6.52438 4.53248 4.7041 6.31469L4.24131 6.7678C4.17608 6.83167 4.07032 6.83167 4.00509 6.7678L2.93086 5.71604C2.80039 5.58831 2.80039 5.38121 2.93086 5.25347L3.27553 4.91601ZM14.9461 7.09116L15.9022 8.02723C16.0326 8.15496 16.0326 8.36206 15.9022 8.48979L11.5912 12.7106C11.4607 12.8384 11.2492 12.8384 11.1187 12.7107L8.05909 9.71499C8.02647 9.68305 7.97359 9.68305 7.94097 9.71499L4.88138 12.7106C4.75092 12.8384 4.5394 12.8384 4.40893 12.7107L0.0978471 8.48974C-0.0326157 8.362 -0.0326157 8.15491 0.0978471 8.02717L1.05391 7.0911C1.18438 6.96337 1.3959 6.96337 1.52636 7.0911L4.58606 10.0868C4.61868 10.1187 4.67156 10.1187 4.70418 10.0868L7.76373 7.0911C7.89419 6.96337 8.10571 6.96336 8.23617 7.09109L11.2959 10.0868C11.3285 10.1187 11.3814 10.1187 11.414 10.0868L14.4736 7.09116C14.6041 6.96342 14.8156 6.96342 14.9461 7.09116Z" fill="black"/>
</svg>
