<svg width="24" height="24" viewBox="0 0 24 24" fill="none" xmlns="http://www.w3.org/2000/svg">
<path d="M12 1.83333C12.4954 1.83175 12.9814 1.96892 13.4029 2.22931C13.8244 2.4897 14.1646 2.8629 14.3849 3.30667L21.8846 18.3067C22.088 18.7132 22.1841 19.1651 22.1638 19.6193C22.1435 20.0735 22.0074 20.5149 21.7684 20.9017C21.5294 21.2885 21.1955 21.6077 20.7985 21.8291C20.4014 22.0505 19.9543 22.1667 19.4997 22.1667H4.50032C4.0457 22.1667 3.59861 22.0505 3.20154 21.8291C2.80446 21.6077 2.47058 21.2885 2.23161 20.9017C1.99265 20.5149 1.85653 20.0735 1.8362 19.6193C1.81586 19.1651 1.91198 18.7132 2.11542 18.3067L9.6151 3.30667C9.83543 2.8629 10.1756 2.4897 10.5971 2.22931C11.0186 1.96892 11.5046 1.83175 12 1.83333ZM12 2.93452e-08C11.1644 -9.53844e-05 10.3453 0.232484 9.63443 0.67168C8.92357 1.11088 8.34902 1.73934 7.97517 2.48667L0.475494 17.4867C0.132267 18.1728 -0.0298578 18.9353 0.00452148 19.7017C0.0389007 20.4681 0.268642 21.213 0.671923 21.8656C1.0752 22.5182 1.63863 23.0569 2.30869 23.4305C2.97874 23.804 3.73317 24.0001 4.50032 24H19.4997C20.2668 24.0001 21.0213 23.804 21.6913 23.4305C22.3614 23.0569 22.9248 22.5182 23.3281 21.8656C23.7314 21.213 23.9611 20.4681 23.9955 19.7017C24.0299 18.9353 23.8677 18.1728 23.5245 17.4867L16.0248 2.48667C15.651 1.73934 15.0764 1.11088 14.3656 0.67168C13.6547 0.232484 12.8356 -9.53844e-05 12 2.93452e-08V2.93452e-08Z" fill="#70D44B"/>
</svg>
