<svg width="24" height="24" viewBox="0 0 24 24" fill="none" xmlns="http://www.w3.org/2000/svg">
<g clip-path="url(#clip0_1_94)">
<path d="M9.47368 21.4737C13.3107 21.4737 16.4211 18.3633 16.4211 14.5263C16.4211 10.6893 13.3107 7.57893 9.47368 7.57893C5.63671 7.57893 2.52632 10.6893 2.52632 14.5263C2.52632 18.3633 5.63671 21.4737 9.47368 21.4737ZM9.47368 24C4.24168 24 0 19.7583 0 14.5263C0 9.2943 4.24168 5.05261 9.47368 5.05261C14.7057 5.05261 18.9474 9.2943 18.9474 14.5263C18.9474 19.7583 14.7057 24 9.47368 24Z" fill="#FBCC5C"/>
<path d="M14.5263 16.4211C18.3633 16.4211 21.4737 13.3107 21.4737 9.47368C21.4737 5.63672 18.3633 2.52632 14.5263 2.52632C10.6894 2.52632 7.57896 5.63672 7.57896 9.47368C7.57896 13.3107 10.6894 16.4211 14.5263 16.4211ZM14.5263 18.9474C9.29433 18.9474 5.05264 14.7057 5.05264 9.47368C5.05264 4.24168 9.29433 0 14.5263 0C19.7583 0 24 4.24168 24 9.47368C24 14.7057 19.7583 18.9474 14.5263 18.9474Z" fill="#35D07F"/>
<path d="M14.8393 18.9473C15.4962 18.1513 15.967 17.2186 16.2174 16.2174C17.2187 15.9671 18.1513 15.4964 18.9474 14.8396C18.9111 15.9991 18.6614 17.142 18.2107 18.2109C17.1417 18.6615 15.9988 18.9111 14.8393 18.9473ZM7.78258 7.78255C6.78137 8.03287 5.8487 8.50361 5.05264 9.1604C5.08894 8.00089 5.33867 6.85801 5.78932 5.78903C6.8583 5.33847 8.00119 5.08882 9.16068 5.05261C8.50381 5.84865 8.03299 6.78132 7.78258 7.78255V7.78255Z" fill="#5EA33B"/>
</g>
<defs>
<clipPath id="clip0_1_94">
<rect width="24" height="24" fill="white"/>
</clipPath>
</defs>
</svg>
