<svg width="24" height="24" viewBox="0 0 24 24" fill="none" xmlns="http://www.w3.org/2000/svg">
<g clip-path="url(#clip0_8_116)">
<path d="M10.6825 0.26061C11.4217 -0.0455288 12.5466 -0.0455288 13.2858 0.26061L20.8292 3.38449C21.2744 3.56885 21.5189 3.84359 21.5627 4.12721H21.5699V19.8293C21.5601 20.1387 21.3133 20.446 20.8292 20.6465L13.2858 23.7704C12.5466 24.0765 11.4217 24.0765 10.6825 23.7704L3.13915 20.6465C2.65707 20.4468 2.42571 20.1374 2.41425 19.8293C2.41307 19.7977 2.41297 19.7716 2.41421 19.7502L2.41425 4.23293C2.41312 4.2111 2.41311 4.18937 2.41422 4.16773L2.41425 4.12721H2.41762C2.45112 3.84046 2.68454 3.57273 3.13915 3.38449L10.6825 0.26061ZM20.3826 12.8873L13.2858 15.8262C12.5466 16.1324 11.4217 16.1324 10.6825 15.8262L3.60154 12.8938V19.7984L10.6825 22.7152C11.101 22.8905 11.536 23.0613 11.9597 23.0688L11.9842 23.069C12.407 23.0701 12.8175 22.9018 13.2338 22.7424L20.3826 19.7733V12.8873ZM1.18733 19.4879C1.18733 20.0895 1.27651 20.485 1.45357 20.7635C1.60033 20.9944 1.82053 21.1709 2.22259 21.3856L2.24554 21.3978C2.33378 21.4444 2.43098 21.4933 2.5493 21.5507L2.68883 21.6177L3.11729 21.8205L2.50276 22.617L2.02321 22.3899L1.9426 22.3511C1.80394 22.284 1.68902 22.2264 1.58182 22.1697C0.435921 21.564 0.00856024 20.9036 0.000127613 19.5298L0 19.4879H1.18733ZM11.3905 8.67868C11.3355 8.69345 11.284 8.71059 11.237 8.73003L3.69367 11.8539C3.68575 11.8572 3.6782 11.8604 3.67102 11.8636L3.66463 11.8665L3.67648 11.8719L3.69367 11.8792L11.237 15.003C11.284 15.0225 11.3355 15.0396 11.3905 15.0544V8.67868ZM12.5778 8.67868V15.0544C12.6328 15.0396 12.6844 15.0225 12.7313 15.003L20.2747 11.8792C20.2826 11.8759 20.2901 11.8726 20.2973 11.8694L20.3037 11.8665L20.2919 11.8612L20.2747 11.8539L12.7313 8.73003C12.6844 8.71059 12.6328 8.69345 12.5778 8.67868ZM20.3826 5.24106L13.6156 8.0434L20.3826 10.8458V5.24106ZM3.60154 5.24761V10.8392L10.3527 8.0434L3.60154 5.24761ZM12.7313 1.0838C12.339 0.921347 11.6293 0.921347 11.237 1.0838L3.69367 4.20766C3.68575 4.21095 3.6782 4.21418 3.67102 4.21741L3.66463 4.22029L3.67648 4.2256L3.69367 4.23293L11.237 7.35678C11.6293 7.51925 12.339 7.51925 12.7313 7.35678L20.2747 4.23293C20.2826 4.22964 20.2901 4.22641 20.2973 4.22321L20.3037 4.22029L20.2919 4.21499L20.2747 4.20766L12.7313 1.0838ZM21.4972 1.42636L21.9768 1.65345L22.0574 1.69225C22.196 1.75936 22.311 1.81701 22.4182 1.87368C23.5641 2.4794 23.9914 3.1398 23.9999 4.5136L24 4.55546H22.8127C22.8127 3.95381 22.7235 3.55842 22.5464 3.27982C22.3997 3.04894 22.1795 2.87249 21.7774 2.65779L21.7545 2.64559C21.6662 2.59895 21.569 2.55008 21.4507 2.49266L21.3112 2.42566L20.8827 2.22293L21.4972 1.42636Z" fill="#1969FF"/>
</g>
<defs>
<clipPath id="clip0_8_116">
<rect width="24" height="24" fill="white"/>
</clipPath>
</defs>
</svg>
