<svg width="24" height="24" viewBox="0 0 24 24" fill="none" xmlns="http://www.w3.org/2000/svg">
<g clip-path="url(#clip0_10_135)">
<path d="M13.0966 23.7546C12.4916 24.0557 11.521 24.0557 10.916 23.7546L1.09664 18.736C0.491597 18.4237 0 17.6765 0 17.0631V7.03712C0 6.42373 0.491597 5.67652 1.08403 5.36425L10.8908 0.356818C11.4958 0.0557026 12.4664 0.0557026 13.0714 0.356818L22.8908 5.37541C23.4958 5.68767 23.9874 6.43489 23.9874 7.04827L24 17.0743C24 17.6877 23.5084 18.4349 22.916 18.7472L13.0966 23.7546Z" fill="#5E464D"/>
<path d="M20.8487 18C21.1261 18 21.2269 17.9442 21.3655 17.7435C21.5042 17.5427 21.4412 17.2193 21.4286 17.1301C21.416 16.9293 21.3403 16.7174 21.3277 16.6059C21.3277 16.539 21.3277 16.1152 21.3403 15.9368C21.5042 13.171 22.8529 12.513 23.2437 12.4349C23.7227 12.3457 23.9244 12.4684 23.9874 12.4795V8.2416V8.18583V7.05944C23.9874 6.44606 23.4958 5.69884 22.8908 5.38658L13.0714 0.36799C12.4664 0.0557221 11.4958 0.0557221 10.8908 0.36799L1.09664 5.36427C0.491597 5.66539 0 6.42375 0 7.03713V8.13007C0 8.14122 0 8.14122 0 8.15238V9.75832C0.0630252 9.79178 0.113445 9.81409 0.176471 9.84754C0.365546 9.95907 0.554622 10.0148 0.743698 10.1375C1.04622 10.3271 1.52521 10.5501 2.2563 11.1747C2.34454 11.2527 2.64706 11.5873 2.71008 11.6654C2.94958 11.9219 3.15126 12.1896 3.44118 12.4014C3.60504 12.5241 3.7563 12.6356 3.93277 12.7137C4.22269 12.8475 4.70168 12.8141 4.94118 12.7249C6.80672 12.0111 7.97899 12.368 8.52101 12.658C9.85714 13.3717 10.3109 14.3643 10.4496 15.5687C10.4748 15.8252 10.4622 15.9591 10.4622 16.0371C10.4622 16.3271 10.4496 16.7843 10.7899 16.8624C11.2815 16.9739 11.395 16.5055 11.4706 16.2044C11.6345 15.513 12.6807 15.0557 13.4496 15.4014C13.979 15.6468 14.1933 15.7806 14.7227 15.5799C15.3782 15.3234 15.7185 14.6765 15.9454 14.3308C16.3235 13.762 16.8529 13.5613 16.8908 13.539C17.9118 12.9702 20.4832 13.1264 20.5714 15.6245C20.5714 15.7583 20.5714 16.1041 20.5714 16.3159C20.5714 16.5501 20.584 16.7843 20.5588 17.0297C20.5462 17.197 20.5084 17.3643 20.4958 17.5316C20.4958 17.5093 20.395 18 20.8487 18Z" fill="#E4A663"/>
<path d="M13.2353 11.2416C12.5546 11.5874 11.4454 11.5874 10.7647 11.2416L0.731079 6.55762C0.844524 6.65799 0.970575 6.74721 1.09663 6.80297L10.916 11.8216C11.521 12.1338 12.4916 12.1338 13.0966 11.8216L22.9033 6.81412C23.0294 6.74721 23.1555 6.66914 23.2689 6.56877L13.2353 11.2416Z" fill="white"/>
<path d="M10.7521 1.02594C11.4328 0.680212 12.542 0.680212 13.2227 1.02594L14.4454 1.47203C14.332 1.37166 14.2059 1.28244 14.0799 1.22668L13.0841 0.657907C12.479 0.345639 11.5084 0.345639 10.9034 0.657907L9.16389 1.53895C9.03783 1.60586 8.91179 1.68393 8.79834 1.7843L10.7521 1.02594Z" fill="white"/>
</g>
<defs>
<clipPath id="clip0_10_135">
<rect width="24" height="24" fill="white"/>
</clipPath>
</defs>
</svg>
