<svg width="24" height="24" viewBox="0 0 24 24" fill="none" xmlns="http://www.w3.org/2000/svg">
<g clip-path="url(#clip0_102_6)">
<path d="M8.55073 15.4512C8.16769 15.4512 7.81201 15.3995 7.48369 15.2961C7.15537 15.1928 6.87874 15.0377 6.65377 14.831C6.42879 14.6243 6.2677 14.3659 6.17041 14.0558C6.07921 13.7457 6.06706 13.3839 6.13393 12.9705C6.18255 12.7091 6.23425 12.4477 6.28897 12.1862C6.34978 11.9247 6.41055 11.6603 6.47137 11.3928C6.67201 10.572 7.03378 9.94878 7.55665 9.52317C8.07951 9.09755 8.78482 8.88477 9.67249 8.88477C10.0555 8.88477 10.4082 8.93949 10.7304 9.04893C11.0587 9.15227 11.3354 9.31038 11.5603 9.52317C11.7914 9.73595 11.9525 9.99741 12.0437 10.3075C12.141 10.6176 12.1531 10.9793 12.0802 11.3928C12.0376 11.6603 11.9859 11.9247 11.9251 12.1862C11.8704 12.4477 11.8127 12.7091 11.7518 12.9705C11.5451 13.8035 11.1803 14.4267 10.6574 14.8401C10.1346 15.2475 9.43234 15.4512 8.55073 15.4512ZM8.66929 14.1379C8.99761 14.1379 9.28642 14.0406 9.53569 13.846C9.78495 13.6515 9.9613 13.3414 10.0646 12.9158C10.1315 12.6483 10.1893 12.396 10.2379 12.1588C10.2926 11.9217 10.3413 11.6755 10.3838 11.4201C10.4629 10.9945 10.4264 10.6844 10.2744 10.4899C10.1224 10.2953 9.88225 10.198 9.55393 10.198C9.22561 10.198 8.93679 10.2953 8.68753 10.4899C8.44431 10.6844 8.27103 10.9945 8.16769 11.4201C8.10082 11.6755 8.04001 11.9217 7.98529 12.1588C7.93666 12.396 7.88799 12.6483 7.83937 12.9158C7.76641 13.3414 7.80289 13.6515 7.94881 13.846C8.09473 14.0406 8.33487 14.1379 8.66929 14.1379ZM12.4533 15.36C12.3925 15.36 12.3439 15.3387 12.3074 15.2961C12.2709 15.2535 12.2587 15.1988 12.2709 15.132L13.5295 9.20397C13.5416 9.1371 13.5751 9.08238 13.6298 9.03981C13.6845 8.99723 13.7423 8.97597 13.8031 8.97597H16.229C16.5998 8.97597 16.9343 9.01854 17.2322 9.10365C17.5362 9.18875 17.7885 9.3195 17.9892 9.49581C18.1898 9.67211 18.3296 9.89406 18.4087 10.1616C18.4877 10.423 18.4908 10.73 18.4178 11.0827C18.2658 11.7819 17.9557 12.2987 17.4876 12.6331C17.0255 12.9675 16.4023 13.1347 15.618 13.1347H14.3868L13.9672 15.132C13.955 15.1988 13.9216 15.2535 13.8669 15.2961C13.8182 15.3387 13.7605 15.36 13.6936 15.36H12.4533ZM14.6239 11.8761H15.6727C15.9219 11.8761 16.1438 11.8093 16.3384 11.6755C16.5391 11.5417 16.6698 11.338 16.7306 11.0644C16.761 10.9064 16.7671 10.7665 16.7488 10.6449C16.7306 10.5233 16.6668 10.426 16.5573 10.3531C16.4539 10.2801 16.2928 10.2436 16.074 10.2436H14.9796L14.6239 11.8761Z" fill="#FF0420"/>
<path fill-rule="evenodd" clip-rule="evenodd" d="M12.5 25C19.4036 25 25 19.4036 25 12.5C25 5.59645 19.4036 0 12.5 0C5.59645 0 0 5.59645 0 12.5C0 19.4036 5.59645 25 12.5 25ZM7.7955 15.9335C8.1375 16.0412 8.508 16.095 8.907 16.095C9.82535 16.095 10.5568 15.8828 11.1015 15.4585C11.6461 15.0278 12.0261 14.3786 12.2415 13.511C12.3048 13.2386 12.365 12.9664 12.422 12.694C12.4853 12.4217 12.5391 12.1462 12.5835 11.8675C12.6595 11.4369 12.6468 11.06 12.5455 10.737C12.4505 10.414 12.2826 10.1417 12.042 9.92C11.8076 9.69835 11.5195 9.53365 11.1775 9.426C10.8418 9.312 10.4745 9.255 10.0755 9.255C9.15085 9.255 8.41615 9.47665 7.8715 9.92C7.32685 10.3634 6.95 11.0125 6.741 11.8675C6.67765 12.1462 6.61435 12.4217 6.551 12.694C6.494 12.9664 6.44015 13.2386 6.3895 13.511C6.31985 13.9416 6.3325 14.3185 6.4275 14.6415C6.52885 14.9645 6.69665 15.2337 6.931 15.449C7.16535 15.6644 7.4535 15.8259 7.7955 15.9335ZM9.933 14.423C9.67335 14.6257 9.3725 14.727 9.0305 14.727C8.68215 14.727 8.432 14.6257 8.28 14.423C8.128 14.2204 8.09 13.8974 8.166 13.454C8.21665 13.1754 8.26735 12.9125 8.318 12.6655C8.375 12.4185 8.43835 12.162 8.508 11.896C8.61565 11.4526 8.79615 11.1297 9.0495 10.927C9.30915 10.7244 9.61 10.623 9.952 10.623C10.294 10.623 10.5442 10.7244 10.7025 10.927C10.8609 11.1297 10.8988 11.4526 10.8165 11.896C10.7721 12.162 10.7215 12.4185 10.6645 12.6655C10.6139 12.9125 10.5537 13.1754 10.484 13.454C10.3764 13.8974 10.1926 14.2204 9.933 14.423ZM12.8202 15.9335C12.8582 15.9779 12.9089 16 12.9722 16H14.2642C14.3339 16 14.394 15.9779 14.4447 15.9335C14.5017 15.8892 14.5365 15.8321 14.5492 15.7625L14.9862 13.682H16.2687C17.0857 13.682 17.7348 13.5079 18.2162 13.1595C18.7038 12.8112 19.0268 12.2729 19.1852 11.5445C19.2612 11.1772 19.258 10.8574 19.1757 10.585C19.0933 10.3064 18.9477 10.0752 18.7387 9.8915C18.5297 9.70785 18.2668 9.57165 17.9502 9.483C17.6398 9.39435 17.2915 9.35 16.9052 9.35H14.3782C14.3148 9.35 14.2547 9.37215 14.1977 9.4165C14.1407 9.46085 14.1058 9.51785 14.0932 9.5875L12.7822 15.7625C12.7695 15.8321 12.7822 15.8892 12.8202 15.9335ZM16.3257 12.371H15.2332L15.6037 10.6705H16.7437C16.9717 10.6705 17.1395 10.7085 17.2472 10.7845C17.3612 10.8605 17.4277 10.9619 17.4467 11.0885C17.4657 11.2152 17.4594 11.3609 17.4277 11.5255C17.3644 11.8105 17.2282 12.0226 17.0192 12.162C16.8165 12.3013 16.5854 12.371 16.3257 12.371Z" fill="white"/>
</g>
<defs>
<clipPath id="clip0_102_6">
<rect width="24" height="24" fill="white"/>
</clipPath>
</defs>
</svg>
