<?xml version="1.0" encoding="UTF-8" standalone="no"?>
<!DOCTYPE svg PUBLIC "-//W3C//DTD SVG 1.1//EN" "http://www.w3.org/Graphics/SVG/1.1/DTD/svg11.dtd">
<svg width="100%" height="100%" viewBox="0 0 24 24" version="1.1" xmlns="http://www.w3.org/2000/svg" xmlns:xlink="http://www.w3.org/1999/xlink" xml:space="preserve" xmlns:serif="http://www.serif.com/" style="fill-rule:evenodd;clip-rule:evenodd;stroke-linejoin:round;stroke-miterlimit:2;">
    <g transform="matrix(1,0,0,1,-81.9646,-0.171075)">
        <g id="Optimism_logo" transform="matrix(0.13395,0,0,0.149263,56.4999,-24.8306)">
            <rect x="190.107" y="167.501" width="179.172" height="160.79" style="fill:none;"/>
            <g transform="matrix(-8.14418,0,0,-7.30862,369.279,328.29)">
                <circle cx="11" cy="11" r="11" style="fill:rgb(255,4,32);"/>
            </g>
            <g transform="matrix(8.14418,0,0,7.30862,190.107,167.501)">
                <path d="M7.447,14C6.728,14 6.139,13.844 5.68,13.533C5.227,13.217 5,12.767 5,12.183C5,12.061 5.015,11.911 5.045,11.733C5.124,11.333 5.236,10.853 5.381,10.292C5.792,8.764 6.852,8 8.562,8C9.027,8 9.444,8.072 9.813,8.217C10.181,8.356 10.471,8.567 10.683,8.85C10.894,9.128 11,9.461 11,9.85C11,9.967 10.985,10.114 10.955,10.292C10.864,10.786 10.755,11.267 10.628,11.733C10.417,12.494 10.051,13.064 9.532,13.442C9.012,13.814 8.317,14 7.447,14ZM7.574,12.8C7.912,12.8 8.199,12.708 8.435,12.525C8.677,12.342 8.849,12.061 8.952,11.683C9.091,11.161 9.196,10.705 9.269,10.317C9.293,10.2 9.305,10.081 9.305,9.958C9.305,9.453 9.018,9.2 8.444,9.2C8.106,9.2 7.816,9.292 7.574,9.475C7.338,9.658 7.169,9.939 7.066,10.317C6.958,10.689 6.849,11.144 6.74,11.683C6.716,11.794 6.704,11.911 6.704,12.033C6.704,12.544 6.994,12.8 7.574,12.8Z" style="fill:white;fill-rule:nonzero;"/>
            </g>
            <g transform="matrix(8.14418,0,0,7.30862,190.107,167.501)">
                <path d="M11.181,14C11.117,14 11.067,13.98 11.031,13.94C11.002,13.894 10.993,13.843 11.005,13.786L12.222,8.214C12.233,8.151 12.266,8.1 12.319,8.06C12.372,8.02 12.427,8 12.486,8L14.831,8C15.484,8 16.007,8.131 16.4,8.394C16.8,8.657 17,9.037 17,9.534C17,9.677 16.982,9.826 16.947,9.98C16.8,10.637 16.503,11.123 16.057,11.437C15.616,11.751 15.01,11.909 14.241,11.909L13.05,11.909L12.645,13.786C12.633,13.849 12.601,13.9 12.548,13.94C12.495,13.98 12.439,14 12.38,14L11.181,14ZM14.302,10.726C14.549,10.726 14.764,10.66 14.946,10.529C15.134,10.397 15.257,10.209 15.316,9.963C15.334,9.866 15.343,9.78 15.343,9.706C15.343,9.54 15.293,9.414 15.193,9.329C15.093,9.237 14.922,9.191 14.681,9.191L13.623,9.191L13.288,10.726L14.302,10.726Z" style="fill:white;fill-rule:nonzero;"/>
            </g>
        </g>
    </g>
</svg>
