<svg width="24" height="24" viewBox="0 0 24 24" fill="none" xmlns="http://www.w3.org/2000/svg">
<g clip-path="url(#clip0_1_90)">
<path d="M12 24C18.6274 24 24 18.6274 24 12C24 5.37258 18.6274 0 12 0C5.37258 0 0 5.37258 0 12C0 18.6274 5.37258 24 12 24Z" fill="#FF0420"/>
<path d="M8.50239 15.1895C7.78787 15.1895 7.20246 15.0213 6.74612 14.6851C6.29579 14.3428 6.07062 13.8565 6.07062 13.226C6.07062 13.0939 6.08564 12.9318 6.11564 12.7396C6.19374 12.3074 6.30481 11.7879 6.44891 11.1815C6.85719 9.53031 7.91099 8.70471 9.61023 8.70471C10.0726 8.70471 10.4869 8.78276 10.8531 8.93886C11.2194 9.08895 11.5076 9.31714 11.7178 9.62338C11.9279 9.92358 12.033 10.2839 12.033 10.7042C12.033 10.8302 12.018 10.9894 11.988 11.1815C11.8979 11.7159 11.7898 12.2353 11.6637 12.7396C11.4536 13.5623 11.0903 14.1777 10.5739 14.586C10.0575 14.9883 9.36707 15.1895 8.50239 15.1895ZM8.62849 13.8925C8.96478 13.8925 9.24995 13.7934 9.48414 13.5953C9.72433 13.3971 9.89545 13.0939 9.9975 12.6856C10.1356 12.1212 10.2407 11.6288 10.3128 11.2085C10.3368 11.0824 10.3488 10.9534 10.3488 10.8212C10.3488 10.2748 10.0635 10.0016 9.49316 10.0016C9.15687 10.0016 8.86868 10.1007 8.62849 10.2988C8.39435 10.497 8.2262 10.8002 8.12415 11.2085C8.01606 11.6108 7.90796 12.1032 7.79991 12.6856C7.77587 12.8057 7.76387 12.9318 7.76387 13.0639C7.76387 13.6163 8.05211 13.8925 8.62849 13.8925Z" fill="white"/>
<path d="M12.4465 15.0993C12.3805 15.0993 12.3294 15.0783 12.2934 15.0363C12.2634 14.9882 12.2544 14.9342 12.2664 14.8742L13.5093 9.01985C13.5213 8.9538 13.5543 8.89975 13.6084 8.8577C13.6624 8.8157 13.7194 8.79468 13.7795 8.79468H16.1753C16.8417 8.79468 17.3761 8.93277 17.7784 9.20897C18.1867 9.48521 18.3909 9.88447 18.3909 10.4069C18.3909 10.5569 18.3729 10.7131 18.3368 10.8752C18.1867 11.5657 17.8835 12.0761 17.4272 12.4063C16.9769 12.7366 16.3584 12.9017 15.5718 12.9017H14.3559L13.9416 14.8742C13.9296 14.9402 13.8966 14.9942 13.8426 15.0363C13.7885 15.0783 13.7314 15.0993 13.6714 15.0993H12.4465ZM15.6349 11.6588C15.887 11.6588 16.1062 11.5897 16.2923 11.4516C16.4845 11.3135 16.6106 11.1154 16.6706 10.8572C16.6886 10.7551 16.6976 10.665 16.6976 10.587C16.6976 10.4129 16.6466 10.2808 16.5445 10.1907C16.4424 10.0946 16.2683 10.0466 16.0221 10.0466H14.9413L14.5991 11.6588H15.6349Z" fill="white"/>
</g>
<defs>
<clipPath id="clip0_1_90">
<rect width="24" height="24" fill="white"/>
</clipPath>
</defs>
</svg>
