<?xml version="1.0" encoding="UTF-8"?>
<svg width="24px" height="24px" viewBox="0 0 24 24" version="1.1" xmlns="http://www.w3.org/2000/svg" xmlns:xlink="http://www.w3.org/1999/xlink">
    <title>optimism_logo</title>
    <g id="Page-1" stroke="none" stroke-width="1" fill="none" fill-rule="evenodd">
        <g id="optimism_logo" fill-rule="nonzero">
            <path d="M12,24 C18.6274,24 24,18.6274 24,12 C24,5.37258 18.6274,0 12,0 C5.37258,0 0,5.37258 0,12 C0,18.6274 5.37258,24 12,24 Z" id="Path" fill="#FFFFFF"></path>
            <path d="M8.50239,15.1895 C7.78787,15.1895 7.20246,15.0213 6.74612,14.6851 C6.29579,14.3428 6.07062,13.8565 6.07062,13.226 C6.07062,13.0939 6.08564,12.9318 6.11564,12.7396 C6.19374,12.3074 6.30481,11.7879 6.44891,11.1815 C6.85719,9.53031 7.91099,8.70471 9.61023,8.70471 C10.0726,8.70471 10.4869,8.78276 10.8531,8.93886 C11.2194,9.08895 11.5076,9.31714 11.7178,9.62338 C11.9279,9.92358 12.033,10.2839 12.033,10.7042 C12.033,10.8302 12.018,10.9894 11.988,11.1815 C11.8979,11.7159 11.7898,12.2353 11.6637,12.7396 C11.4536,13.5623 11.0903,14.1777 10.5739,14.586 C10.0575,14.9883 9.36707,15.1895 8.50239,15.1895 Z M8.62849,13.8925 C8.96478,13.8925 9.24995,13.7934 9.48414,13.5953 C9.72433,13.3971 9.89545,13.0939 9.9975,12.6856 C10.1356,12.1212 10.2407,11.6288 10.3128,11.2085 C10.3368,11.0824 10.3488,10.9534 10.3488,10.8212 C10.3488,10.2748 10.0635,10.0016 9.49316,10.0016 C9.15687,10.0016 8.86868,10.1007 8.62849,10.2988 C8.39435,10.497 8.2262,10.8002 8.12415,11.2085 C8.01606,11.6108 7.90796,12.1032 7.79991,12.6856 C7.77587,12.8057 7.76387,12.9318 7.76387,13.0639 C7.76387,13.6163 8.05211,13.8925 8.62849,13.8925 Z" id="Shape" fill="#FF0420"></path>
            <path d="M12.4465,15.0993 C12.3805,15.0993 12.3294,15.0783 12.2934,15.0363 C12.2634,14.9882 12.2544,14.9342 12.2664,14.8742 L13.5093,9.01985 C13.5213,8.9538 13.5543,8.89975 13.6084,8.8577 C13.6624,8.8157 13.7194,8.79468 13.7795,8.79468 L16.1753,8.79468 C16.8417,8.79468 17.3761,8.93277 17.7784,9.20897 C18.1867,9.48521 18.3909,9.88447 18.3909,10.4069 C18.3909,10.5569 18.3729,10.7131 18.3368,10.8752 C18.1867,11.5657 17.8835,12.0761 17.4272,12.4063 C16.9769,12.7366 16.3584,12.9017 15.5718,12.9017 L14.3559,12.9017 L13.9416,14.8742 C13.9296,14.9402 13.8966,14.9942 13.8426,15.0363 C13.7885,15.0783 13.7314,15.0993 13.6714,15.0993 L12.4465,15.0993 Z M15.6349,11.6588 C15.887,11.6588 16.1062,11.5897 16.2923,11.4516 C16.4845,11.3135 16.6106,11.1154 16.6706,10.8572 C16.6886,10.7551 16.6976,10.665 16.6976,10.587 C16.6976,10.4129 16.6466,10.2808 16.5445,10.1907 C16.4424,10.0946 16.2683,10.0466 16.0221,10.0466 L14.9413,10.0466 L14.5991,11.6588 L15.6349,11.6588 Z" id="Shape" fill="#FF0420"></path>
        </g>
    </g>
</svg>