<svg width="24" height="24" viewBox="0 0 24 24" fill="none" xmlns="http://www.w3.org/2000/svg">
<g clip-path="url(#clip0_1_87)">
<path d="M18.125 7.30745C17.6875 7.02088 17.125 7.02088 16.625 7.30745L13.125 9.67163L10.75 11.1761L7.3125 13.5403C6.875 13.8269 6.3125 13.8269 5.8125 13.5403L3.125 11.6776C2.6875 11.391 2.375 10.8179 2.375 10.1731V6.59103C2.375 6.0179 2.625 5.44476 3.125 5.08655L5.8125 3.29551C6.25 3.00894 6.8125 3.00894 7.3125 3.29551L10 5.1582C10.4375 5.44476 10.75 6.0179 10.75 6.66267V9.02685L13.125 7.45073V5.01491C13.125 4.44178 12.875 3.86864 12.375 3.51043L7.375 0.14327C6.9375 -0.143297 6.375 -0.143297 5.875 0.14327L0.75 3.58208C0.25 3.86864 0 4.44178 0 5.01491V11.7492C0 12.3224 0.25 12.8955 0.75 13.2537L5.8125 16.6209C6.25 16.9074 6.8125 16.9074 7.3125 16.6209L10.75 14.3283L13.125 12.7522L16.5625 10.4597C17 10.1731 17.5625 10.1731 18.0625 10.4597L20.75 12.2507C21.1875 12.5373 21.5 13.1104 21.5 13.7552V17.3373C21.5 17.9104 21.25 18.4836 20.75 18.8418L18.125 20.6328C17.6875 20.9194 17.125 20.9194 16.625 20.6328L13.9375 18.8418C13.5 18.5552 13.1875 17.9821 13.1875 17.3373V15.0448L10.8125 16.6209V18.9851C10.8125 19.5582 11.0625 20.1313 11.5625 20.4895L16.625 23.8567C17.0625 24.1433 17.625 24.1433 18.125 23.8567L23.1875 20.4895C23.625 20.203 23.9375 19.6298 23.9375 18.9851V12.1791C23.9375 11.606 23.6875 11.0328 23.1875 10.6746L18.125 7.30745Z" fill="#8247E5"/>
</g>
<defs>
<clipPath id="clip0_1_87">
<rect width="24" height="24" fill="white"/>
</clipPath>
</defs>
</svg>
