<svg width="77" height="77" viewBox="0 0 77 77" fill="currentColor" xmlns="http://www.w3.org/2000/svg">
<path d="M24.8141 31.9746C17.4489 37.4384 13.3428 42.6501 11.3665 45.6359C11.2975 45.7411 11.2404 45.8552 11.1773 45.9633C11.1323 45.9603 11.0902 45.9513 11.0451 45.9513C9.39911 45.9513 8.06543 47.285 8.06543 48.931C8.06543 50.493 9.26693 51.7576 10.7959 51.8868C12.2616 56.4945 16.9986 63.5327 18.083 65.4789C18.4284 66.1007 19.0832 66.4822 19.7951 66.4822H26.2772C24.508 60.9913 20.5852 46.0417 24.8144 31.9751L24.8141 31.9746Z"/>
<path d="M37.757 52.2539C36.4773 57.5525 36.5915 64.6441 36.6486 66.4827H42.3346C42.9654 66.4827 43.4761 65.9811 43.4911 65.3533C43.5331 63.4609 43.8245 57.3392 42.8573 52.87C40.5714 52.837 38.7421 52.4885 37.7569 52.2542L37.757 52.2539Z"/>
<path d="M67.3046 32.1674C66.3734 27.6918 62.9371 24.2763 58.6568 23.1859L58.6538 20.7289C58.6538 15.0338 54.0371 10.4141 48.339 10.4141C42.644 10.4141 38.0242 15.0308 38.0242 20.7289V22.8165H36.3692C33.4465 22.8165 30.7101 24.2403 29.031 26.6342C28.5264 27.3551 27.9977 28.1811 27.4721 29.1032C27.2889 29.5508 27.1176 30.0044 26.9524 30.4549C21.6628 45.0528 26.1895 61.3032 27.8956 66.4399C27.9016 66.4549 27.9046 66.4669 27.9107 66.4819H35.1017C35.1017 66.4519 35.0987 66.4159 35.0987 66.3798C35.0326 64.1601 34.9395 56.591 36.4623 51.0937L36.6756 50.3187L37.2283 50.4929L37.4415 50.559C37.4836 50.571 40.5955 51.5292 44.6866 51.2619C47.1257 50.7122 51.1146 49.5497 53.6619 47.4532C53.6619 47.4532 53.6499 47.4562 53.6319 47.4592C54.542 46.9155 55.359 46.2367 56.0588 45.4466C56.0588 45.4527 56.0618 45.4587 56.0618 45.4647C56.0709 45.5187 56.0799 45.5788 56.0889 45.6419C56.0949 45.6749 56.0979 45.705 56.1039 45.738C56.1129 45.7981 56.1219 45.8642 56.1309 45.9303C56.1369 45.9663 56.1399 45.9993 56.146 46.0354C56.155 46.1075 56.167 46.1796 56.176 46.2577C56.179 46.2907 56.185 46.3237 56.188 46.3568C56.2 46.4409 56.209 46.525 56.221 46.6151C56.6145 49.7991 57.0891 56.5939 55.5722 65.1424C55.4491 65.8393 55.9898 66.4761 56.6956 66.4761H63.0515C63.5051 66.4761 63.9166 66.2088 64.0968 65.7912C65.034 63.6345 67.8275 56.5576 68.7076 47.0179C68.8818 45.1375 68.8758 43.2452 68.6896 41.3678C68.4583 39.109 68.0348 35.6787 67.3048 32.1672L67.3046 32.1674ZM48.3389 45.1313C45.0078 45.1313 42.2984 42.506 42.1452 39.2139L54.5324 39.2109C54.3792 42.506 51.6698 45.1313 48.3386 45.1313L48.3389 45.1313ZM54.5477 35.8799V37.6611H42.1328V35.8799C42.1328 33.7953 43.1631 31.957 44.7401 30.8306C43.0069 30.1998 41.1326 28.8962 40.3305 26.2199C40.0572 25.3097 40.7481 24.3906 41.6972 24.3906H54.9856C55.9348 24.3906 56.6256 25.3097 56.3523 26.2199C55.5472 28.8992 53.6759 30.1998 51.9428 30.8306C53.5167 31.957 54.547 33.7953 54.547 35.8799H54.5477Z"/>
<path d="M46.7979 27.6922C46.7979 29.2662 44.437 29.2662 44.437 27.6922C44.437 26.1182 46.7979 26.1182 46.7979 27.6922Z"/>
<path d="M52.5621 27.6922C52.5621 29.2662 50.2012 29.2662 50.2012 27.6922C50.2012 26.1182 52.5621 26.1182 52.5621 27.6922Z"/>
<path d="M46.6418 32.9061C46.3324 32.6688 45.8878 32.7259 45.6505 33.0353L45.5814 33.1254C45.3441 33.4348 45.4012 33.8793 45.7106 34.1167L46.3564 34.6123C46.6658 34.8496 47.1103 34.7925 47.3476 34.4831L47.4167 34.393C47.654 34.0836 47.597 33.6391 47.2876 33.4017L46.6418 32.9061Z"/>
<path d="M51.3813 33.0353C51.144 32.7259 50.6995 32.6688 50.3901 32.9061L49.7443 33.4017C49.4349 33.639 49.3778 34.0836 49.6151 34.393L49.6842 34.4831C49.9215 34.7925 50.366 34.8496 50.6754 34.6123L51.3213 34.1167C51.6306 33.8794 51.6877 33.4348 51.4504 33.1254L51.3813 33.0353Z"/>
</svg>
