<svg width="150" height="150" viewBox="0 0 150 150" fill="none" xmlns="http://www.w3.org/2000/svg">
<g clip-path="url(#clip0_1478_29768)">
<rect width="150" height="150" rx="75" fill="#DAF193"/>
<g clip-path="url(#clip1_1478_29768)">
<path d="M185.669 55.0657C174.912 34.1899 140.987 31.0308 124.966 47.3581C122.739 45.7575 120.27 44.4153 117.566 43.3366C113.254 41.6116 108.544 40.7492 103.449 40.7492C98.3532 40.7492 93.668 41.634 89.3929 43.4012C85.1203 45.1734 81.3995 47.5719 78.2404 50.6117C75.0764 53.6564 72.6306 57.2107 70.9057 61.2795C69.1807 65.3483 68.3182 69.7228 68.3182 74.408C68.3182 79.0932 69.1807 83.3434 70.9057 87.4122C72.5113 91.2001 74.7209 94.5481 77.5445 97.4437C77.5569 97.4562 77.5668 97.4661 77.5793 97.4785C76.7218 98.3286 75.8593 99.1811 74.9919 100.016C66.8095 107.94 58.058 115.195 48.0539 120.972C34.6619 128.433 17.7281 133.026 3.28975 126.137C-10.4377 119.567 -17.7551 105.519 -15.9804 90.7726C-15.9804 90.7378 -15.9755 90.7105 -15.968 90.6757C-15.9382 90.4247 -15.8984 90.1662 -15.8587 89.9151C-15.8139 89.6119 -15.7791 89.3087 -15.7269 89.0129C-15.6996 88.8364 -15.6698 88.6649 -15.635 88.4934C-15.5952 88.2473 -15.543 88.0087 -15.4933 87.7676C-15.4659 87.6409 -15.4361 87.5166 -15.4088 87.3898C-14.9067 85.0311 -14.1287 82.8488 -13.0997 80.843C-12.9332 80.5124 -12.7617 80.1918 -12.5852 79.8712C-12.3914 79.5058 -12.1801 79.1454 -11.9514 78.7974C-11.8147 78.5812 -11.6706 78.3625 -11.5289 78.1462C-7.05993 71.5298 0.327016 67.5132 8.21107 65.4278C8.24586 65.4154 8.28066 65.4104 8.31297 65.4055C10.632 64.8462 12.9932 64.4461 15.3693 64.1826C14.3577 67.451 13.8557 70.8562 13.8557 74.403C13.8557 79.0087 14.6958 83.3385 16.381 87.4072C18.0661 91.476 20.4249 95.0353 23.4721 98.0726C26.5119 101.112 30.0662 103.518 34.1325 105.283C38.2013 107.048 42.6156 107.935 47.3803 107.935C50.261 107.935 53.0945 107.605 55.8882 106.946C58.6819 106.29 61.15 105.467 63.2876 104.483V86.2341C61.15 88.1256 58.9106 89.5473 56.5692 90.4893C54.2279 91.4313 51.8617 91.906 49.4781 91.906C47.0944 91.906 44.7531 91.4313 42.7025 90.4893C40.647 89.5473 38.8575 88.2672 37.3388 86.6666C35.8202 85.0609 34.6246 83.1918 33.7621 81.0567C32.8997 78.9192 32.4722 76.6176 32.4722 74.1545C32.4722 71.6913 32.8773 69.4071 33.7 67.3094C34.1971 66.0467 34.8036 64.881 35.5293 63.8123C36.9511 63.7725 38.3753 63.7103 39.797 63.6184C43.8981 63.5438 47.9892 63.2356 52.0456 62.316C53.6562 61.9332 55.3712 61.4709 56.9818 60.7675C62.2263 59.0773 66.8767 56.2314 66.8269 51.3176V51.2952C67.1575 46.5305 62.2138 42.5636 55.7092 41.5495C53.0299 41.1319 50.425 40.8685 47.8824 40.8685C42.8666 40.8685 38.2659 41.7533 34.0728 43.5205C29.8847 45.2852 26.2857 47.7136 23.2857 50.7931C20.4522 53.7012 18.2227 57.0541 16.6071 60.8495C12.6303 61.3168 8.67089 62.1122 4.91776 63.335C4.66672 63.4096 4.42066 63.4891 4.16962 63.5761C-2.69288 65.8031 -8.9365 69.5861 -13.2215 75.6184C-13.3707 75.8297 -13.5198 76.041 -13.6565 76.2572C-13.7832 76.4412 -13.9075 76.6276 -14.0268 76.8239C-14.1113 76.9557 -14.1983 77.0924 -14.2779 77.2291C-14.3922 77.413 -14.5016 77.5944 -14.6035 77.7784C-14.7128 77.9623 -14.8197 78.1487 -14.9241 78.3326C-15.4386 79.2647 -15.9009 80.2191 -16.3185 81.1959C-16.403 81.3898 -16.485 81.5837 -16.5596 81.7776C-16.6913 82.0858 -16.8056 82.4014 -16.915 82.7146C-16.9548 82.8165 -16.9945 82.9209 -17.0293 83.0228C-17.1138 83.2689 -17.1959 83.5075 -17.2754 83.7535C-18.8239 88.4536 -19.2986 93.4992 -18.8239 98.4703C-18.8239 98.51 -18.8189 98.5498 -18.8114 98.5896C-18.6573 100.481 -18.3839 102.365 -18.0111 104.234C-15.4336 115.976 -6.35156 125.836 4.92273 129.813C16.3785 133.966 28.8731 132.139 39.9436 127.561C43.1648 126.263 46.2842 124.737 49.2345 123.077C60.4963 116.552 70.155 108.154 79.2123 99.0295C82.1079 101.624 85.4683 103.71 89.2786 105.286C93.5512 107.05 98.2364 107.938 103.334 107.938C108.432 107.938 113.132 107.03 117.447 105.223C121.759 103.419 125.48 100.973 128.604 97.8887C131.724 94.8091 134.169 91.2324 135.939 87.1661C137.704 83.0974 138.591 78.7626 138.591 74.1619C138.591 69.5612 137.729 65.2215 135.996 61.1528C134.271 57.084 131.848 53.5322 128.724 50.4924C128.403 50.1842 128.077 49.876 127.747 49.5901C127.25 49.1328 126.735 48.7053 126.211 48.2877C126.188 48.2703 126.159 48.248 126.136 48.2306C141.556 32.5992 174.271 35.5942 184.737 55.5777C193.461 71.5223 189.532 94.1927 173.826 104.306C170.021 106.832 165.696 108.529 161.234 109.516L161.354 110.075C165.885 109.103 170.294 107.413 174.191 104.865C190.347 94.6227 194.503 71.4651 185.674 55.0682L185.669 55.0657ZM42.3297 58.1975C44.3803 57.335 46.6421 56.9 49.1102 56.9C49.9155 56.9 50.6984 56.9448 51.464 57.0367C51.469 57.0367 51.4814 57.0417 51.4863 57.0417C52.4408 57.248 54.8219 57.8992 52.15 58.8189C52.1376 58.8238 52.1276 58.8238 52.1202 58.8313C49.4855 59.4303 46.7664 59.8205 44.1218 60.1685H44.1168C42.2079 60.3276 40.3165 60.4096 38.5642 60.4494C39.6727 59.5347 40.9304 58.7865 42.3297 58.1975V58.1975ZM88.1676 81.0617C87.3449 78.9242 86.9347 76.6226 86.9347 74.1594C86.9347 71.6963 87.3225 69.514 88.1054 67.379C88.8834 65.2414 89.9745 63.3922 91.3739 61.8313C92.7683 60.2704 94.4708 59.0376 96.4866 58.1353C98.4974 57.2281 100.737 56.7758 103.205 56.7758C105.673 56.7758 107.93 57.2505 109.985 58.1925C111.089 58.702 112.115 59.306 113.053 60.0094C107.07 65.8205 101.398 71.9672 95.7534 78.1437C95.7086 78.1885 95.6614 78.2357 95.6216 78.2854C93.6904 80.3136 91.7641 82.3418 89.8503 84.3824C89.1767 83.3608 88.6224 82.2523 88.1651 81.0642L88.1676 81.0617ZM118.802 81.0617C118.019 83.1993 116.905 85.0659 115.471 86.6715C114.032 88.2722 112.282 89.5448 110.231 90.4942C108.176 91.4363 105.919 91.911 103.451 91.911C100.983 91.911 98.8702 91.4363 96.8569 90.4942C94.8412 89.5448 93.0988 88.2722 91.6175 86.6715C91.4907 86.5348 91.3714 86.3981 91.2571 86.2614C98.9348 77.8355 106.493 69.253 114.596 61.3168C114.83 61.5405 115.063 61.7741 115.287 62.0127C116.761 63.6184 117.914 65.4626 118.737 67.5604C119.555 69.6582 119.965 71.8976 119.965 74.2788C119.965 76.6599 119.577 78.9242 118.799 81.0592L118.802 81.0617Z" fill="#0D0D0C"/>
<path d="M77.5786 97.4757C76.7211 98.3257 75.8587 99.1782 74.9912 100.013C75.8487 99.1683 76.7062 98.3058 77.5438 97.4434C77.5563 97.4558 77.5662 97.4657 77.5786 97.4782V97.4757Z" fill="#FCFCFC"/>
</g>
</g>
<defs>
<clipPath id="clip0_1478_29768">
<rect width="150" height="150" rx="75" fill="white"/>
</clipPath>
<clipPath id="clip1_1478_29768">
<rect width="209.211" height="95.1703" fill="white" transform="translate(-19 36.9634)"/>
</clipPath>
</defs>
</svg>
