<svg width="24" height="24" viewBox="0 0 24 24" fill="none" xmlns="http://www.w3.org/2000/svg">
<circle cx="12" cy="12" r="12" fill="#516369"/>
<path d="M11.3409 19.6385C6.06781 19.6385 4.65894 14.1417 5.29578 10.5401C5.3235 10.3834 5.52897 10.3382 5.6185 10.4699C5.89575 10.8774 6.14247 11.466 6.55125 11.4149C7.16565 11.338 7.59131 5.91654 11.2327 4.39108C11.3483 4.34267 11.4692 4.43451 11.4565 4.55914C11.2764 6.32579 12.3372 8.85501 14.2164 8.85501C15.2936 8.85501 16.0307 7.99526 16.399 7.13183C16.5109 6.86954 16.8941 6.90261 16.9582 7.18045C17.6155 10.0268 19.3723 19.6385 11.3409 19.6385Z" fill="#EF7376"/>
<path d="M9.49246 14.3384C9.61646 14.2342 9.80471 14.3057 9.83286 14.4652C9.89874 14.8384 10.1154 15.4798 10.8259 15.4798C11.6807 15.4798 12.2607 13.1278 12.4129 12.4361C12.4379 12.3223 12.5488 12.245 12.663 12.2682C14.7991 12.7026 15.8377 19.6388 11.141 19.6388C7.72189 19.6388 8.49649 15.1751 9.49246 14.3384ZM15.3294 6.82674C15.4046 6.23793 14.3298 7.84839 14.3298 7.84839C14.3298 7.84839 15.1492 8.23546 15.3294 6.82674ZM4.49893 15.6081C4.52158 15.3574 4.19911 14.6863 4.14202 14.952C4.00536 15.5877 4.47627 15.8587 4.49893 15.6081Z" fill="#FFB636"/>
<path d="M13.099 14.8934C13.0189 14.5593 12.7317 15.3352 12.7678 15.6513C12.8039 15.9673 13.2906 15.6926 13.099 14.8934Z" fill="#FFD469"/>
</svg>
