<svg width="16" height="16" viewBox="0 0 16 16" fill="none" xmlns="http://www.w3.org/2000/svg">
<path d="M4.00916 14.3248C4.02516 14.7024 4.33556 15 4.71316 15H11.2908C11.6684 15 11.9804 14.7024 11.9948 14.3248L12.4652 4.408H3.53876L4.00916 14.3248ZM9.48916 6.872C9.48916 6.7136 9.61716 6.5856 9.77556 6.5856H10.2332C10.3916 6.5856 10.5196 6.7152 10.5196 6.872V12.5376C10.5196 12.696 10.39 12.824 10.2332 12.824H9.77556C9.61716 12.824 9.48916 12.696 9.48916 12.5376V6.872ZM7.48756 6.872C7.48756 6.7136 7.61556 6.5856 7.77396 6.5856H8.23156C8.38996 6.5856 8.51796 6.7152 8.51796 6.872V12.5376C8.51796 12.696 8.38996 12.824 8.23156 12.824H7.77396C7.61556 12.824 7.48756 12.696 7.48756 12.5376V6.872ZM5.48436 6.872C5.48436 6.7136 5.61236 6.5856 5.76916 6.5856H6.22676C6.38516 6.5856 6.51316 6.7152 6.51316 6.872V12.5376C6.51316 12.696 6.38356 12.824 6.22676 12.824H5.76916C5.61076 12.824 5.48436 12.696 5.48436 12.5376V6.872ZM12.7772 1.7216H9.74356V1.1472C9.74356 1.0656 9.67796 1 9.59636 1H6.40916C6.32756 1 6.26196 1.0656 6.26196 1.1472V1.7216H3.22676C2.98356 1.7216 2.78516 1.9184 2.78516 2.1632V3.552H13.2188V2.1632C13.2188 1.92 13.022 1.7216 12.7772 1.7216Z" fill="#EF7376"/>
</svg>
