<svg width="16" height="16" viewBox="0 -1 12 12" fill="none" xmlns="http://www.w3.org/2000/svg">
<g clip-path="url(#clip0)">
<path d="M0 9.60414C0.278 8.65015 0.555 7.69615 0.833 6.74215C0.855 6.66615 0.878 6.59015 0.898 6.51415C0.93 6.39915 0.99 6.30615 1.082 6.22915C1.168 6.15815 1.244 6.07315 1.323 5.99415C2.626 4.70316 3.929 3.41216 5.231 2.12016C5.261 2.09016 5.287 2.05616 5.308 2.03016C5.485 2.20816 5.651 2.37516 5.836 2.56116C5.816 2.57516 5.777 2.59516 5.747 2.62516C4.397 3.97216 3.048 5.31915 1.701 6.66915C1.653 6.71815 1.613 6.78515 1.594 6.85115C1.432 7.38615 1.278 7.92415 1.118 8.46115C1.098 8.52815 1.108 8.57015 1.159 8.61615C1.242 8.69114 1.315 8.77715 1.399 8.85114C1.428 8.87614 1.483 8.89514 1.518 8.88614C2.056 8.73215 2.593 8.57515 3.129 8.41315C3.175 8.39915 3.218 8.36015 3.254 8.32315C4.623 6.95815 5.99 5.59115 7.357 4.22516C7.383 4.19916 7.405 4.17016 7.42 4.15316C7.614 4.34716 7.802 4.53516 8.008 4.74116C7.999 4.74716 7.963 4.76216 7.938 4.78716C6.59 6.12215 5.24 7.45415 3.899 8.79614C3.712 8.98414 3.509 9.10014 3.258 9.17114C2.368 9.42314 1.482 9.68914 0.594 9.95014C0.535 9.96714 0.475 9.98314 0.416 10.0001H0.336C0.293 9.98114 0.249 9.96414 0.206 9.94414C0.086 9.88814 0.045 9.77414 0 9.66314V9.60414ZM2.689 7.94715C2.663 7.78115 2.635 7.62915 2.617 7.47715C2.608 7.40515 2.579 7.37615 2.509 7.36315C2.338 7.33015 2.169 7.28715 2.011 7.25215C3.429 5.83115 4.847 4.40916 6.256 2.99616C6.481 3.22116 6.716 3.45516 6.943 3.68116C5.539 5.08915 4.122 6.51015 2.689 7.94715ZM6.773 0.641165C6.901 0.516166 7.029 0.383166 7.166 0.259166C7.559 -0.0948329 8.071 -0.0868329 8.454 0.287166C8.877 0.699165 9.294 1.11616 9.706 1.53916C10.096 1.93816 10.09 2.47216 9.701 2.87016C9.584 2.99016 9.463 3.10716 9.351 3.21716C8.495 2.36216 7.64 1.50816 6.773 0.641165ZM5.73 1.58516C5.924 1.40316 6.123 1.21616 6.312 1.03816C7.208 1.93416 8.099 2.82616 8.998 3.72516C8.811 3.90016 8.61 4.08916 8.416 4.27116L5.73 1.58516Z" fill="#516369"/>
</g>
<defs>
<clipPath id="clip0">
<rect width="16" height="16" fill="#516369"/>
</clipPath>
</defs>
</svg>
