<svg width="16" height="18" viewBox="0 0 16 18" fill="none" xmlns="http://www.w3.org/2000/svg">
<g clip-path="url(#clip0)">
<path d="M7.33301 2.99219H2.66634C2.31272 2.99219 1.97358 3.14514 1.72353 3.4174C1.47348 3.68966 1.33301 4.05892 1.33301 4.44395V14.6063C1.33301 14.9914 1.47348 15.3606 1.72353 15.6329C1.97358 15.9051 2.31272 16.0581 2.66634 16.0581H11.9997C12.3533 16.0581 12.6924 15.9051 12.9425 15.6329C13.1925 15.3606 13.333 14.9914 13.333 14.6063V9.52514" stroke="#516369" stroke-opacity="0.5" stroke-width="1.5" stroke-linecap="round" stroke-linejoin="round"/>
<path d="M12.333 1.90315C12.5982 1.61438 12.9579 1.45215 13.333 1.45215C13.7081 1.45215 14.0678 1.61438 14.333 1.90315C14.5982 2.19193 14.7472 2.58359 14.7472 2.99198C14.7472 3.40037 14.5982 3.79203 14.333 4.08081L7.99967 10.9767L5.33301 11.7026L5.99967 8.79905L12.333 1.90315Z" stroke="#516369" stroke-opacity="0.5" stroke-width="1.5" stroke-linecap="round" stroke-linejoin="round"/>
</g>
<defs>
<clipPath id="clip0">
<rect width="16" height="17.4212" fill="white" transform="translate(0 0.0888672)"/>
</clipPath>
</defs>
</svg>
