<svg width="16" height="16" viewBox="0 0 16 16" fill="none" xmlns="http://www.w3.org/2000/svg">
<path fill-rule="evenodd" clip-rule="evenodd" d="M1.34998 0.638037C1.34998 0.285659 1.63563 0 1.98801 0H13.7672C14.1195 0 14.4052 0.285659 14.4052 0.638037V15.362C14.4052 15.7143 14.1195 16 13.7672 16H1.98801C1.63563 16 1.34998 15.7143 1.34998 15.362V0.638037ZM2.62605 1.27607V14.7239H13.1291V1.27607H2.62605ZM4.29476 4.07362C4.29476 3.72124 4.58042 3.43558 4.9328 3.43558H10.8224C11.1747 3.43558 11.4604 3.72124 11.4604 4.07362C11.4604 4.426 11.1747 4.71166 10.8224 4.71166H4.9328C4.58042 4.71166 4.29476 4.426 4.29476 4.07362ZM4.29476 8C4.29476 7.64762 4.58042 7.36196 4.9328 7.36196H10.8224C11.1747 7.36196 11.4604 7.64762 11.4604 8C11.4604 8.35238 11.1747 8.63804 10.8224 8.63804H4.9328C4.58042 8.63804 4.29476 8.35238 4.29476 8ZM4.29476 11.9264C4.29476 11.574 4.58042 11.2883 4.9328 11.2883H10.8224C11.1747 11.2883 11.4604 11.574 11.4604 11.9264C11.4604 12.2788 11.1747 12.5644 10.8224 12.5644H4.9328C4.58042 12.5644 4.29476 12.2788 4.29476 11.9264Z" fill="black"/>
</svg>
