<svg width="16" height="16" viewBox="0 0 16 16" fill="none" xmlns="http://www.w3.org/2000/svg">
<path fill-rule="evenodd" clip-rule="evenodd" d="M11.7778 7.75924C11.3585 7.39982 11.3099 6.76852 11.6693 6.34919L12.8258 4.99998L6 4.99998C5.44772 4.99998 5 4.55227 5 3.99998C5 3.4477 5.44772 2.99998 6 2.99998L12.8258 2.99998L11.6693 1.65077C11.3099 1.23145 11.3585 0.600147 11.7778 0.240725C12.1971 -0.118698 12.8284 -0.0701358 13.1878 0.34919L15.7593 3.34919C16.0802 3.72368 16.0802 4.27628 15.7593 4.65077L13.1878 7.65077C12.8284 8.0701 12.1971 8.11866 11.7778 7.75924Z" fill="black"/>
<path fill-rule="evenodd" clip-rule="evenodd" d="M4.5468 8.27586C4.94673 8.65675 4.96217 9.28973 4.58128 9.68966L3.33333 11L11 11C11.5523 11 12 11.4477 12 12C12 12.5523 11.5523 13 11 13L3.33333 13L4.58128 14.3103C4.96217 14.7103 4.94673 15.3433 4.5468 15.7241C4.14687 16.105 3.51389 16.0896 3.133 15.6897L0.275861 12.6897C-0.0919548 12.3034 -0.0919547 11.6966 0.275862 11.3103L3.133 8.31035C3.51389 7.91042 4.14687 7.89498 4.5468 8.27586Z" fill="black"/>
</svg>
