<svg width="16" height="10" viewBox="0 0 16 10" fill="none" xmlns="http://www.w3.org/2000/svg">
<path d="M3.27553 2.01269C5.88479 -0.54199 10.1152 -0.54199 12.7245 2.01269L13.0385 2.32015C13.169 2.44788 13.169 2.65498 13.0385 2.78271L11.9643 3.83447C11.8991 3.89834 11.7933 3.89834 11.7281 3.83447L11.2959 3.41137C9.47564 1.62916 6.52438 1.62916 4.7041 3.41137L4.24131 3.86448C4.17608 3.92835 4.07032 3.92835 4.00509 3.86448L2.93086 2.81272C2.8004 2.68499 2.8004 2.47789 2.93086 2.35015L3.27553 2.01269ZM14.9461 4.18784L15.9022 5.12391C16.0326 5.25164 16.0326 5.45874 15.9022 5.58647L11.5912 9.80733C11.4607 9.93506 11.2492 9.93507 11.1187 9.80733L8.05908 6.81167C8.02647 6.77973 7.97359 6.77973 7.94097 6.81167L4.88138 9.80733C4.75092 9.93506 4.5394 9.93507 4.40893 9.80733L0.0978471 5.58642C-0.0326157 5.45868 -0.0326157 5.25159 0.0978471 5.12385L1.05391 4.18778C1.18438 4.06005 1.3959 4.06005 1.52636 4.18778L4.58606 7.18349C4.61868 7.21542 4.67156 7.21542 4.70418 7.18349L7.76373 4.18778C7.89419 4.06005 8.10571 4.06004 8.23617 4.18777L11.2959 7.18349C11.3285 7.21542 11.3814 7.21542 11.414 7.18349L14.4736 4.18784C14.6041 4.0601 14.8156 4.0601 14.9461 4.18784Z" fill="black"/>
</svg>
