<svg width="40" height="38" viewBox="0 0 40 38" fill="none" xmlns="http://www.w3.org/2000/svg">
<path d="M11.1346 14.791C6.34558 18.3438 3.67563 21.7325 2.39063 23.674C2.3457 23.7424 2.3086 23.8166 2.26758 23.8869C2.23828 23.885 2.21094 23.8791 2.18164 23.8791C1.11134 23.8791 0.244141 24.7463 0.244141 25.8166C0.244141 26.8322 1.02539 27.6545 2.01954 27.7385C2.97264 30.7346 6.05274 35.311 6.75784 36.5765C6.98245 36.9808 7.40824 37.2288 7.87114 37.2288H12.086C10.9356 33.6585 8.38484 23.9378 11.1348 14.7913L11.1346 14.791Z" fill="white"/>
<path d="M19.5504 27.9766C18.7183 31.4219 18.7926 36.0331 18.8297 37.2286H22.5269C22.9371 37.2286 23.2691 36.9024 23.2789 36.4942C23.3062 35.2637 23.4957 31.2832 22.8667 28.3772C21.3804 28.3557 20.1909 28.1291 19.5503 27.9768L19.5504 27.9766Z" fill="white"/>
<path d="M38.7635 14.9161C38.1581 12.006 35.9237 9.78513 33.1405 9.07613L33.1386 7.47848C33.1386 3.77538 30.1366 0.771484 26.4316 0.771484C22.7285 0.771484 19.7246 3.77343 19.7246 7.47848V8.83588H18.6484C16.748 8.83588 14.9687 9.76168 13.8769 11.3183C13.5488 11.787 13.205 12.3241 12.8633 12.9237C12.7441 13.2147 12.6328 13.5097 12.5254 13.8026C9.08591 23.2946 12.0293 33.8611 13.1387 37.2011C13.1426 37.2109 13.1445 37.2187 13.1484 37.2285H17.8242C17.8242 37.2089 17.8223 37.1855 17.8223 37.1621C17.7793 35.7187 17.7188 30.7971 18.709 27.2226L18.8476 26.7187L19.207 26.8319L19.3457 26.8749C19.373 26.8827 21.3965 27.5058 24.0566 27.3319C25.6426 26.9745 28.2363 26.2186 29.8926 24.8554C29.8926 24.8554 29.8848 24.8574 29.8731 24.8593C30.4649 24.5058 30.9962 24.0644 31.4512 23.5507C31.4512 23.5546 31.4532 23.5585 31.4532 23.5624C31.459 23.5976 31.4649 23.6366 31.4707 23.6777C31.4746 23.6991 31.4766 23.7187 31.4805 23.7402C31.4864 23.7792 31.4922 23.8222 31.4981 23.8652C31.502 23.8886 31.5039 23.9101 31.5079 23.9335C31.5137 23.9804 31.5215 24.0273 31.5274 24.0781C31.5293 24.0995 31.5332 24.121 31.5352 24.1425C31.543 24.1972 31.5489 24.2519 31.5567 24.3105C31.8125 26.3808 32.1211 30.799 31.1348 36.3575C31.0547 36.8106 31.4063 37.2247 31.8653 37.2247H35.9981C36.293 37.2247 36.5606 37.0508 36.6778 36.7794C37.2872 35.377 39.1036 30.7754 39.6758 24.5724C39.7891 23.3497 39.7852 22.1193 39.6641 20.8985C39.5137 19.4298 39.2383 17.1993 38.7637 14.916L38.7635 14.9161ZM26.4315 23.3456C24.2655 23.3456 22.5038 21.6386 22.4042 19.498L30.4587 19.496C30.359 21.6386 28.5973 23.3456 26.4313 23.3456L26.4315 23.3456ZM30.4686 17.3301V18.4883H22.3961V17.3301C22.3961 15.9747 23.066 14.7793 24.0914 14.0469C22.9645 13.6368 21.7457 12.7891 21.2242 11.0489C21.0465 10.4571 21.4957 9.85943 22.1129 9.85943H30.7534C31.3706 9.85943 31.8198 10.4571 31.642 11.0489C31.1186 12.7911 29.9018 13.6368 28.7748 14.0469C29.7983 14.7793 30.4682 15.9747 30.4682 17.3301H30.4686Z" fill="white"/>
<path d="M25.4287 12.0059C25.4287 13.0293 23.8936 13.0293 23.8936 12.0059C23.8936 10.9824 25.4287 10.9824 25.4287 12.0059Z" fill="white"/>
<path d="M29.1768 12.0059C29.1768 13.0293 27.6416 13.0293 27.6416 12.0059C27.6416 10.9824 29.1768 10.9824 29.1768 12.0059Z" fill="white"/>
<path d="M25.3276 15.3969C25.1264 15.2426 24.8374 15.2797 24.6831 15.4809L24.6381 15.5395C24.4838 15.7407 24.5209 16.0297 24.7221 16.184L25.142 16.5063C25.3432 16.6606 25.6323 16.6235 25.7866 16.4223L25.8315 16.3637C25.9858 16.1626 25.9487 15.8735 25.7475 15.7192L25.3276 15.3969Z" fill="white"/>
<path d="M28.4096 15.4809C28.2553 15.2797 27.9663 15.2426 27.7651 15.3969L27.3452 15.7192C27.144 15.8735 27.1069 16.1625 27.2612 16.3637L27.3061 16.4223C27.4604 16.6235 27.7495 16.6606 27.9506 16.5063L28.3706 16.184C28.5717 16.0298 28.6088 15.7407 28.4546 15.5395L28.4096 15.4809Z" fill="white"/>
</svg>
