<?xml version="1.0" encoding="utf-8"?>
<!-- Generator: Adobe Illustrator 24.3.0, SVG Export Plug-In . SVG Version: 6.00 Build 0)  -->
<svg version="1.1" id="bold" xmlns="http://www.w3.org/2000/svg" xmlns:xlink="http://www.w3.org/1999/xlink" x="0px" y="0px"
	 viewBox="0 0 512 512" style="enable-background:new 0 0 512 512;" xml:space="preserve">
<style type="text/css">
	.st0{fill:#C43737;}
</style>
<path class="st0" d="M83.1,445.8h291.1l-13.9-45l33.3,28.5l30.5,27.3l55.5,46.4V63.5C478.2,36.2,454.7,13,425.5,13L83.2,13.1
	c-29.1,0-52.8,23.3-52.8,50.6v331.6C30.4,424,54,445.8,83.1,445.8L83.1,445.8z M298.4,129l-0.7,0.2l0.2-0.2H298.4z M142.6,154.9
	c37.4-27.2,72.1-25.9,72.1-25.9l2.8,2.8c-45.8,10.9-66.6,31.4-66.6,31.4s5.6-2.7,15.3-6.9c61.7-24.3,129-22.5,191.4,8.2
	c0,0-20.8-19.1-63.8-31.4l3.8-3.7c5.9,0,37.4,1.1,71,25.7c0,0,37.6,64.3,37.6,143.3c-1.2-1.5-23.4,34-80.3,35.2
	c0,0-9.6-10.9-16.5-20.4c33.3-9.6,45.7-28.7,45.7-28.7c-10.9,6.9-20.9,11-29,15c-12.4,5.5-24.9,8.2-37.3,10.9
	c-58.9,9.6-91.9-6.4-123.2-19.1l-10.7-5.4c0,0,12.4,19.1,44.4,28.7c-8.4,9.6-16.7,20.5-16.7,20.5c-56.9-1.3-77.6-36.9-77.6-36.9
	C105.2,219.1,142.6,154.9,142.6,154.9L142.6,154.9z"/>
<path class="st0" d="M302.1,273.7c14.5,0,26.3-12.2,26.3-27.4c0-15-11.8-27.3-26.3-27.3v0.1c-14.5,0-26.3,12.2-26.3,27.3
	C275.8,261.5,287.6,273.7,302.1,273.7z"/>
<path class="st0" d="M207.8,273.7c14.5,0,26.3-12.2,26.3-27.4c0-15-11.7-27.3-26.3-27.3l-0.1,0.1c-14.5,0-26.3,12.2-26.3,27.3
	C181.5,261.5,193.3,273.7,207.8,273.7z"/>
</svg>
