<svg width="36" height="36" viewBox="0 0 36 36" fill="none" xmlns="http://www.w3.org/2000/svg">
<path d="M17.9999 3.3418C14.438 3.34172 10.9924 4.59838 8.27953 6.88691C5.56668 9.17543 3.76369 12.3465 3.1932 15.8325C2.6227 19.3186 3.32195 22.8922 5.16579 25.9138C7.00964 28.9355 9.87775 31.2079 13.2569 32.3246C14.0069 32.4555 14.2874 32.0093 14.2874 31.6181C14.2874 31.2656 14.2694 30.0936 14.2694 28.8488C10.4999 29.5359 9.52488 27.9371 9.22488 27.1012C8.89209 26.2873 8.36439 25.566 7.68738 24.9997C7.16238 24.7216 6.41238 24.0329 7.66788 24.0151C8.1477 24.0666 8.60793 24.232 9.00953 24.4974C9.41114 24.7628 9.74228 25.1203 9.97488 25.5396C10.18 25.905 10.4558 26.2266 10.7865 26.4862C11.1172 26.7457 11.4963 26.9379 11.9021 27.0519C12.3078 27.1659 12.7323 27.1994 13.1511 27.1504C13.57 27.1015 13.975 26.971 14.3429 26.7666C14.4079 26.0101 14.748 25.3029 15.2999 24.7766C11.9624 24.4048 8.47488 23.1227 8.47488 17.4339C8.45363 15.9555 9.00375 14.525 10.0124 13.436C9.55384 12.1513 9.6075 10.7415 10.1624 9.49471C10.1624 9.49471 11.4179 9.10504 14.2874 11.0192C16.7418 10.3498 19.333 10.3498 21.7874 11.0192C24.6554 9.0857 25.9124 9.49471 25.9124 9.49471C26.4674 10.7415 26.5211 12.1513 26.0624 13.436C27.0741 14.5232 27.6247 15.9548 27.5999 17.4339C27.5999 23.1406 24.0929 24.4048 20.7554 24.7766C21.1134 25.1363 21.3891 25.5683 21.5638 26.043C21.7385 26.5178 21.8081 27.0243 21.7679 27.5281C21.7679 29.5181 21.7499 31.1169 21.7499 31.6181C21.7499 32.0093 22.0304 32.4733 22.7804 32.3246C26.1533 31.1986 29.0129 28.9207 30.8486 25.8976C32.6844 22.8745 33.3769 19.3029 32.8025 15.8204C32.228 12.3379 30.4241 9.17112 27.7127 6.88538C25.0013 4.59964 21.5588 3.34372 17.9999 3.3418Z" fill="#516369" fill-opacity="0.7"/>
</svg>
