<?xml version="1.0" encoding="utf-8"?>
<!-- Generator: Adobe Illustrator 24.3.0, SVG Export Plug-In . SVG Version: 6.00 Build 0)  -->
<svg version="1.1" id="bold" xmlns="http://www.w3.org/2000/svg" xmlns:xlink="http://www.w3.org/1999/xlink" x="0px" y="0px"
	 viewBox="0 0 512 512" style="enable-background:new 0 0 512 512;" xml:space="preserve">
<style type="text/css">
	.st0{fill:#C43737;}
</style>
<g>
	<path class="st0" d="M332.2,195.6c-2.8-3.7-5.7-7.7-9.1-11.2c-3.4-3.4-7.3-6.5-11-9.3l-41.6,41.6c4.3,2.2,8.3,4.7,12,8.3
		c16.8,16.9,16.8,44.1,0,60.9L140.4,428c-16.8,16.9-44.1,16.9-60.9,0c-16.8-16.8-16.8-44.1,0-60.9l56-56
		c-10.3-21.7-14.4-46.1-11.8-69.4l-84.9,84.9c-39.2,39.2-39.2,102.9,0,142.1s102.9,39.2,142.1,0L323,326.6
		c36-36,38.3-92.6,9.3-131.2L332.2,195.6z"/>
	<path class="st0" d="M470.1,37.4C430.9-1.8,367.2-1.8,328,37.4l-147,147c-36,36-38.3,92.6-9.3,131.2l0.2-0.2
		c2.8,3.7,5.7,7.7,9.1,11.2c3.5,3.4,7.3,6.5,11,9.3l41.6-41.6c-4.3-2.2-8.3-4.7-12-8.3c-16.9-16.9-16.9-44.1,0-60.9l147-147
		c16.9-16.9,44.1-16.9,60.9,0c16.9,16.9,16.9,44.1,0,60.9l-60.9,60.9c10.4,21.7,14.4,46.1,11.8,69.4l89.8-89.8
		C509.3,140.3,509.3,76.6,470.1,37.4z"/>
</g>
</svg>
