<?xml version="1.0" encoding="utf-8"?>
<!-- Generator: Adobe Illustrator 24.3.0, SVG Export Plug-In . SVG Version: 6.00 Build 0)  -->
<svg version="1.1" id="bold" xmlns="http://www.w3.org/2000/svg" xmlns:xlink="http://www.w3.org/1999/xlink" x="0px" y="0px"
	 viewBox="0 0 512 512" style="enable-background:new 0 0 512 512;" xml:space="preserve">
<style type="text/css">
	.st0{fill:#C43737;}
</style>
<path class="st0" d="M460.9,101.6L500,64.2V56H364.6L268,296.3L158.2,56h-142v8.2l45.7,55c4.5,4.1,6.8,10,6.2,16v216.1
	c1.4,7.8-1.1,15.8-6.6,21.4L10,435.1v8.1h145.9V435l-51.5-62.3c-5.6-5.7-8.2-13.5-7.1-21.4V164.4l128.1,278.9h14.9l110.1-278.9
	v222.2c0,5.9,0,7.1-3.8,10.9L307,435.8v8.2h192.2v-8.2L461,398.4c-3.3-2.5-5.1-6.8-4.4-10.9v-275
	C455.8,108.4,457.6,104.1,460.9,101.6L460.9,101.6z"/>
</svg>
