<svg width="29" height="29" viewBox="0 0 29 29" fill="none" xmlns="http://www.w3.org/2000/svg">
<path d="M14.5 0C11.6322 0 8.82875 0.85041 6.44424 2.44369C4.05972 4.03697 2.20122 6.30156 1.10375 8.95109C0.00628262 11.6006 -0.280866 14.5161 0.27862 17.3288C0.838105 20.1415 2.2191 22.7252 4.24696 24.753C6.27482 26.7809 8.85847 28.1619 11.6712 28.7214C14.4839 29.2809 17.3994 28.9937 20.0489 27.8962C22.6984 26.7988 24.963 24.9403 26.5563 22.5558C28.1496 20.1712 29 17.3678 29 14.5C29 12.5958 28.6249 10.7103 27.8963 8.95109C27.1676 7.19187 26.0995 5.5934 24.753 4.24695C23.4066 2.9005 21.8081 1.83244 20.0489 1.10375C18.2897 0.375054 16.4042 0 14.5 0ZM19.111 21.9704C19.0569 22.1059 18.9744 22.2282 18.8691 22.3291C18.7638 22.4301 18.6381 22.5073 18.5005 22.5557C18.3629 22.604 18.2165 22.6223 18.0712 22.6094C17.9259 22.5965 17.785 22.5527 17.6581 22.4808L13.7214 19.4213L11.1955 21.7529C11.1368 21.7962 11.0683 21.824 10.996 21.8339C10.9238 21.8438 10.8503 21.8354 10.7822 21.8094L11.2665 17.4754L11.281 17.4884L11.2912 17.4029C11.2912 17.4029 18.3744 10.9533 18.663 10.6792C18.9559 10.4052 18.8587 10.3457 18.8587 10.3457C18.8761 10.0122 18.3353 10.3457 18.3353 10.3457L8.9494 16.3835L5.04166 15.0524C5.04166 15.0524 4.44136 14.8378 4.38481 14.3637C4.32536 13.8939 5.06051 13.6387 5.06051 13.6387L20.6002 7.4646C20.6002 7.4646 21.8776 6.8962 21.8776 7.8387L19.111 21.9704Z" fill="#516369" fill-opacity="0.7"/>
</svg>
