<?xml version="1.0" encoding="utf-8"?>
<!-- Generator: Adobe Illustrator 24.3.0, SVG Export Plug-In . SVG Version: 6.00 Build 0)  -->
<svg version="1.1" id="bold" xmlns="http://www.w3.org/2000/svg" xmlns:xlink="http://www.w3.org/1999/xlink" x="0px" y="0px"
	 viewBox="0 0 512 512" style="enable-background:new 0 0 512 512;" xml:space="preserve">
<style type="text/css">
	.st0{fill:#C43737;}
</style>
<g>
	<g>
		<path class="st0" d="M501,98.1c-18.2,8-37.6,13.3-57.9,15.9c20.8-12.4,36.7-32,44.2-55.5c-19.4,11.6-40.9,19.8-63.7,24.3
			C405.2,63.2,378.9,51,350.2,51c-55.6,0-100.4,45.1-100.4,100.5c0,8,0.7,15.6,2.3,22.9C168.6,170.3,94.7,130.3,45,69.3
			c-8.7,15-13.8,32.2-13.8,50.8c0,34.8,17.9,65.6,44.6,83.5c-16.1-0.3-32-5-45.4-12.4c0,0.3,0,0.7,0,1.1c0,48.8,34.8,89.4,80.5,98.7
			c-8.2,2.2-17.1,3.3-26.3,3.3c-6.4,0-12.9-0.4-19-1.7c13,39.8,49.9,69,93.9,70C125.4,389.3,82,405.4,35,405.4
			c-8.2,0-16.1-0.4-24-1.4c44.5,28.7,97.2,45.1,154.1,45.1C350,449.1,451,295.9,451,163.2c0-4.4-0.2-8.7-0.4-13
			C470.6,136.1,487.3,118.4,501,98.1z"/>
	</g>
</g>
</svg>
