<svg width="36" height="29" viewBox="0 0 36 29" fill="none" xmlns="http://www.w3.org/2000/svg">
<path d="M36 3.4744C34.647 4.05523 33.2162 4.4392 31.752 4.61436C33.2967 3.70118 34.4543 2.26458 35.01 0.571051C33.5584 1.42614 31.9694 2.0286 30.312 2.35224C29.2042 1.16343 27.7289 0.372085 26.1177 0.102333C24.5064 -0.16742 22.8502 0.0996733 21.4088 0.861723C19.9675 1.62377 18.8225 2.83767 18.1534 4.31305C17.4844 5.78842 17.3291 7.44181 17.712 9.0139C14.777 8.867 11.906 8.11076 9.28558 6.79429C6.66516 5.47783 4.35392 3.63059 2.502 1.37259C1.85245 2.49504 1.51113 3.76619 1.512 5.05966C1.5097 6.26086 1.80759 7.44399 2.37916 8.50371C2.95073 9.56342 3.77823 10.4668 4.788 11.1335C3.61436 11.1019 2.46579 10.7903 1.44 10.2251V10.3142C1.4488 11.9972 2.04479 13.6256 3.12717 14.9238C4.20954 16.2221 5.71186 17.1106 7.38 17.4389C6.73786 17.6323 6.07117 17.7343 5.4 17.7418C4.9354 17.7364 4.47196 17.6947 4.014 17.6171C4.48904 19.0648 5.40832 20.3301 6.64393 21.2367C7.87955 22.1434 9.37004 22.6464 10.908 22.6757C8.31097 24.6978 5.10459 25.8014 1.8 25.8106C1.19832 25.8125 0.597124 25.7768 0 25.7037C3.37397 27.8594 7.30586 29.0037 11.322 28.9989C14.0934 29.0274 16.8428 28.5091 19.4096 27.4743C21.9764 26.4396 24.309 24.9091 26.2714 22.9722C28.2337 21.0354 29.7863 18.731 30.8386 16.1937C31.8909 13.6564 32.4217 10.9371 32.4 8.19456V7.25052C33.8125 6.20819 35.0307 4.93039 36 3.4744Z" fill="#516369" fill-opacity="0.7"/>
</svg>
