<svg width="14" height="14" viewBox="0 0 14 14" fill="none" xmlns="http://www.w3.org/2000/svg">
<path d="M5.66672 10.3635L4.48672 11.5101C4.1773 11.8196 3.75764 11.9934 3.32005 11.9934C2.88247 11.9934 2.46281 11.8196 2.15339 11.5101C1.84397 11.2007 1.67014 10.7811 1.67014 10.3435C1.67014 9.90589 1.84397 9.48623 2.15339 9.17681L5.18005 6.14347C5.47713 5.84544 5.8774 5.67299 6.29806 5.66183C6.71872 5.65066 7.12758 5.80162 7.44005 6.08347L7.52005 6.15014C7.64647 6.27391 7.81688 6.34239 7.99379 6.34051C8.1707 6.33864 8.33962 6.26656 8.46339 6.14014C8.58715 6.01372 8.65563 5.84331 8.65376 5.6664C8.65188 5.48949 8.57981 5.32058 8.45339 5.19681C8.41576 5.14816 8.37571 5.10143 8.33339 5.05681C7.76429 4.56168 7.02827 4.30137 6.27443 4.32861C5.52059 4.35584 4.80528 4.66858 4.27339 5.20347L1.20672 8.23681C0.685625 8.804 0.403801 9.55059 0.420103 10.3206C0.436406 11.0907 0.749575 11.8247 1.29421 12.3693C1.83884 12.914 2.57283 13.2271 3.34289 13.2434C4.11294 13.2597 4.85952 12.9779 5.42672 12.4568L6.58005 11.3301C6.69393 11.2059 6.75653 11.0432 6.75526 10.8746C6.75399 10.7061 6.68894 10.5443 6.57319 10.4218C6.45745 10.2993 6.29961 10.2252 6.13143 10.2144C5.96325 10.2035 5.79721 10.2568 5.66672 10.3635ZM12.7934 0.870141C12.2326 0.312813 11.474 0 10.6834 0C9.89274 0 9.1342 0.312813 8.57339 0.870141L7.42005 1.99681C7.30618 2.12104 7.24358 2.28379 7.24485 2.45232C7.24612 2.62084 7.31117 2.78263 7.42691 2.90513C7.54265 3.02763 7.70049 3.10175 7.86868 3.11258C8.03686 3.1234 8.2029 3.07013 8.33339 2.96347L9.48672 1.81681C9.79614 1.50739 10.2158 1.33356 10.6534 1.33356C11.091 1.33356 11.5106 1.50739 11.8201 1.81681C12.1295 2.12623 12.3033 2.54589 12.3033 2.98347C12.3033 3.42106 12.1295 3.84072 11.8201 4.15014L8.79339 7.18347C8.49631 7.48151 8.09604 7.65396 7.67538 7.66512C7.25472 7.67629 6.84586 7.52533 6.53339 7.24347L6.45339 7.17681C6.32697 7.05304 6.15656 6.98456 5.97965 6.98644C5.80274 6.98831 5.63382 7.06039 5.51005 7.18681C5.38629 7.31323 5.31781 7.48364 5.31968 7.66055C5.32156 7.83745 5.39363 8.00637 5.52005 8.13014C5.56848 8.17967 5.61967 8.22641 5.67339 8.27014C6.24317 8.76377 6.97887 9.02311 7.73225 8.99589C8.48564 8.96868 9.20071 8.65693 9.73339 8.12347L12.7667 5.09014C13.3276 4.53286 13.6452 3.77629 13.6502 2.98564C13.6552 2.19499 13.3472 1.43447 12.7934 0.870141Z" fill="#859296"/>
</svg>
