<?xml version="1.0" encoding="UTF-8"?>
<svg width="24px" height="24px" viewBox="0 0 24 24" version="1.1" xmlns="http://www.w3.org/2000/svg" xmlns:xlink="http://www.w3.org/1999/xlink">
    <title>Artboard Copy 18</title>
    <g id="Artboard-Copy-18" stroke="none" stroke-width="1" fill="none" fill-rule="evenodd">
        <g id="microchip-ai-light" transform="translate(1.000000, 1.000000)" fill="#000000" fill-rule="nonzero">
            <path d="M6.875,0 C7.253125,0 7.5625,0.309375 7.5625,0.6875 L7.5625,2.75 L10.3125,2.75 L10.3125,0.6875 C10.3125,0.309375 10.621875,0 11,0 C11.378125,0 11.6875,0.309375 11.6875,0.6875 L11.6875,2.75 L14.4375,2.75 L14.4375,0.6875 C14.4375,0.309375 14.746875,0 15.125,0 C15.503125,0 15.8125,0.309375 15.8125,0.6875 L15.8125,2.75 L16.5,2.75 C18.0167969,2.75 19.25,3.98320313 19.25,5.5 L19.25,6.1875 L21.3125,6.1875 C21.690625,6.1875 22,6.496875 22,6.875 C22,7.253125 21.690625,7.5625 21.3125,7.5625 L19.25,7.5625 L19.25,10.3125 L21.3125,10.3125 C21.690625,10.3125 22,10.621875 22,11 C22,11.378125 21.690625,11.6875 21.3125,11.6875 L19.25,11.6875 L19.25,14.4375 L21.3125,14.4375 C21.690625,14.4375 22,14.746875 22,15.125 C22,15.503125 21.690625,15.8125 21.3125,15.8125 L19.25,15.8125 L19.25,16.5 C19.25,18.0167969 18.0167969,19.25 16.5,19.25 L15.8125,19.25 L15.8125,21.3125 C15.8125,21.690625 15.503125,22 15.125,22 C14.746875,22 14.4375,21.690625 14.4375,21.3125 L14.4375,19.25 L11.6875,19.25 L11.6875,21.3125 C11.6875,21.690625 11.378125,22 11,22 C10.621875,22 10.3125,21.690625 10.3125,21.3125 L10.3125,19.25 L7.5625,19.25 L7.5625,21.3125 C7.5625,21.690625 7.253125,22 6.875,22 C6.496875,22 6.1875,21.690625 6.1875,21.3125 L6.1875,19.25 L5.5,19.25 C3.98320313,19.25 2.75,18.0167969 2.75,16.5 L2.75,15.8125 L0.6875,15.8125 C0.309375,15.8125 0,15.503125 0,15.125 C0,14.746875 0.309375,14.4375 0.6875,14.4375 L2.75,14.4375 L2.75,11.6875 L0.6875,11.6875 C0.309375,11.6875 0,11.378125 0,11 C0,10.621875 0.309375,10.3125 0.6875,10.3125 L2.75,10.3125 L2.75,7.5625 L0.6875,7.5625 C0.309375,7.5625 0,7.253125 0,6.875 C0,6.496875 0.309375,6.1875 0.6875,6.1875 L2.75,6.1875 L2.75,5.5 C2.75,3.98320313 3.98320313,2.75 5.5,2.75 L6.1875,2.75 L6.1875,0.6875 C6.1875,0.309375 6.496875,0 6.875,0 Z M5.5,4.125 C4.73945312,4.125 4.125,4.73945312 4.125,5.5 L4.125,16.5 C4.125,17.2605469 4.73945312,17.875 5.5,17.875 L16.5,17.875 C17.2605469,17.875 17.875,17.2605469 17.875,16.5 L17.875,5.5 C17.875,4.73945312 17.2605469,4.125 16.5,4.125 L5.5,4.125 Z M9.56914062,7.975 L11.9753906,13.475 C12.1257812,13.8230469 11.9710937,14.2269531 11.6230469,14.3816406 C11.275,14.5363281 10.8710938,14.3730469 10.7164063,14.0292969 L10.2910156,13.0625 L7.58398438,13.0625 L7.16289062,14.025 C7.0125,14.3730469 6.60429688,14.5320313 6.25625,14.3773437 C5.90820312,14.2226562 5.74921875,13.81875 5.90390625,13.4707031 L8.31015625,7.97070312 C8.41757813,7.72148437 8.66679688,7.55820312 8.94179687,7.55820312 C9.21679688,7.55820312 9.46171875,7.72148437 9.5734375,7.97070312 L9.56914062,7.975 Z M8.9375,9.96445313 L8.18554688,11.6875 L9.69375,11.6875 L8.9375,9.96445313 Z M15.125,8.25 L15.125,13.75 C15.125,14.128125 14.815625,14.4375 14.4375,14.4375 C14.059375,14.4375 13.75,14.128125 13.75,13.75 L13.75,8.25 C13.75,7.871875 14.059375,7.5625 14.4375,7.5625 C14.815625,7.5625 15.125,7.871875 15.125,8.25 Z" id="Shape"></path>
        </g>
    </g>
</svg>