<?xml version="1.0" encoding="UTF-8"?>
<svg width="24px" height="24px" viewBox="0 0 24 24" version="1.1" xmlns="http://www.w3.org/2000/svg" xmlns:xlink="http://www.w3.org/1999/xlink">
    <title>Artboard Copy 17</title>
    <g id="Artboard-Copy-17" stroke="none" stroke-width="1" fill="none" fill-rule="evenodd">
        <g id="microchip-ai-solid" transform="translate(1.000000, 1.000000)" fill="#000000" fill-rule="nonzero">
            <path d="M7.5625,1.03125 C7.5625,0.459765625 7.10273438,0 6.53125,0 C5.95976562,0 5.5,0.459765625 5.5,1.03125 L5.5,2.75 C3.98320313,2.75 2.75,3.98320313 2.75,5.5 L1.03125,5.5 C0.459765625,5.5 0,5.95976562 0,6.53125 C0,7.10273438 0.459765625,7.5625 1.03125,7.5625 L2.75,7.5625 L2.75,9.96875 L1.03125,9.96875 C0.459765625,9.96875 0,10.4285156 0,11 C0,11.5714844 0.459765625,12.03125 1.03125,12.03125 L2.75,12.03125 L2.75,14.4375 L1.03125,14.4375 C0.459765625,14.4375 0,14.8972656 0,15.46875 C0,16.0402344 0.459765625,16.5 1.03125,16.5 L2.75,16.5 C2.75,18.0167969 3.98320313,19.25 5.5,19.25 L5.5,20.96875 C5.5,21.5402344 5.95976562,22 6.53125,22 C7.10273438,22 7.5625,21.5402344 7.5625,20.96875 L7.5625,19.25 L9.96875,19.25 L9.96875,20.96875 C9.96875,21.5402344 10.4285156,22 11,22 C11.5714844,22 12.03125,21.5402344 12.03125,20.96875 L12.03125,19.25 L14.4375,19.25 L14.4375,20.96875 C14.4375,21.5402344 14.8972656,22 15.46875,22 C16.0402344,22 16.5,21.5402344 16.5,20.96875 L16.5,19.25 C18.0167969,19.25 19.25,18.0167969 19.25,16.5 L20.96875,16.5 C21.5402344,16.5 22,16.0402344 22,15.46875 C22,14.8972656 21.5402344,14.4375 20.96875,14.4375 L19.25,14.4375 L19.25,12.03125 L20.96875,12.03125 C21.5402344,12.03125 22,11.5714844 22,11 C22,10.4285156 21.5402344,9.96875 20.96875,9.96875 L19.25,9.96875 L19.25,7.5625 L20.96875,7.5625 C21.5402344,7.5625 22,7.10273438 22,6.53125 C22,5.95976562 21.5402344,5.5 20.96875,5.5 L19.25,5.5 C19.25,3.98320313 18.0167969,2.75 16.5,2.75 L16.5,1.03125 C16.5,0.459765625 16.0402344,0 15.46875,0 C14.8972656,0 14.4375,0.459765625 14.4375,1.03125 L14.4375,2.75 L12.03125,2.75 L12.03125,1.03125 C12.03125,0.459765625 11.5714844,0 11,0 C10.4285156,0 9.96875,0.459765625 9.96875,1.03125 L9.96875,2.75 L7.5625,2.75 L7.5625,1.03125 Z M8.9375,7.5625 C9.2125,7.5625 9.45742187,7.72578125 9.56914062,7.975 L11.3738281,12.1 L11.9753906,13.475 C12.1257812,13.8230469 11.9710937,14.2269531 11.6230469,14.3816406 C11.275,14.5363281 10.8710938,14.3730469 10.7164062,14.0292969 L10.2910156,13.0625 L7.58398438,13.0625 L7.16289063,14.025 C7.0125,14.3730469 6.60429688,14.5320312 6.25625,14.3773437 C5.90820313,14.2226562 5.74921875,13.81875 5.90390625,13.4707031 L6.50546875,12.0957031 L8.31015625,7.97070312 C8.41757813,7.72148437 8.66679688,7.55820312 8.94179687,7.55820312 L8.9375,7.5625 Z M9.68945312,11.6875 L8.9375,9.96445312 L8.18554688,11.6875 L9.69375,11.6875 L9.68945312,11.6875 Z M14.4375,7.5625 C14.815625,7.5625 15.125,7.871875 15.125,8.25 L15.125,13.75 C15.125,14.128125 14.815625,14.4375 14.4375,14.4375 C14.059375,14.4375 13.75,14.128125 13.75,13.75 L13.75,8.25 C13.75,7.871875 14.059375,7.5625 14.4375,7.5625 Z" id="Shape"></path>
        </g>
    </g>
</svg>