<?xml version="1.0" encoding="UTF-8" standalone="no"?>
<!DOCTYPE svg PUBLIC "-//W3C//DTD SVG 1.1//EN" "http://www.w3.org/Graphics/SVG/1.1/DTD/svg11.dtd">
<svg width="100%" height="100%" viewBox="0 0 24 24" version="1.1" xmlns="http://www.w3.org/2000/svg" xmlns:xlink="http://www.w3.org/1999/xlink" xml:space="preserve" xmlns:serif="http://www.serif.com/" style="fill-rule:evenodd;clip-rule:evenodd;stroke-linejoin:round;stroke-miterlimit:2;">
    <g transform="matrix(1,0,0,1,-225.488,-0.878464)">
        <g id="Arbitrum" transform="matrix(0.13395,0,0,0.149263,200.023,-24.1233)">
            <rect x="190.107" y="167.501" width="179.172" height="160.79" style="fill:none;"/>
            <g transform="matrix(5.59912,0,0,5.02468,198.505,167.501)">
                <path d="M16.93,18.432L15.344,22.68C15.297,22.797 15.297,22.928 15.344,23.046L18.068,30.357L21.221,28.577L17.439,18.432C17.352,18.196 17.017,18.196 16.93,18.432Z" style="fill-rule:nonzero;"/>
                <path d="M20.103,11.284C20.016,11.049 19.681,11.049 19.594,11.284L18.008,15.532C17.961,15.65 17.961,15.781 18.008,15.899L22.473,27.87L25.626,26.09L20.103,11.284Z" style="fill-rule:nonzero;"/>
                <path d="M14.5,1.983C14.58,1.983 14.654,2.003 14.728,2.042L26.751,8.83C26.891,8.908 26.978,9.052 26.978,9.209L26.978,22.784C26.978,22.941 26.891,23.085 26.751,23.164L14.728,29.958C14.661,29.997 14.58,30.017 14.5,30.017C14.42,30.017 14.346,29.997 14.272,29.958L2.256,23.17C2.115,23.092 2.028,22.948 2.028,22.791L2.028,9.209C2.028,9.052 2.115,8.908 2.256,8.83L14.279,2.042C14.346,2.003 14.426,1.983 14.5,1.983ZM14.5,0C14.072,0 13.643,0.111 13.262,0.327L1.238,7.115C0.475,7.547 0,8.345 0,9.209L0,22.784C0,23.648 0.475,24.453 1.238,24.885L13.262,31.673C13.643,31.889 14.072,32 14.5,32C14.928,32 15.357,31.889 15.739,31.673L27.762,24.885C28.531,24.453 29,23.655 29,22.784L29,9.209C29,8.345 28.525,7.54 27.762,7.108L15.745,0.327C15.357,0.111 14.928,0 14.5,0Z" style="fill-rule:nonzero;"/>
                <path d="M6.555,27.883L7.659,24.925L9.882,26.731L7.807,28.59L6.555,27.883Z" style="fill-rule:nonzero;"/>
                <path d="M13.489,8.24L10.443,8.24C10.215,8.24 10.008,8.378 9.934,8.587L3.4,26.103L6.553,27.883L13.75,8.594C13.81,8.424 13.683,8.24 13.489,8.24Z" style="fill-rule:nonzero;"/>
                <path d="M18.824,8.24L15.778,8.24C15.55,8.24 15.342,8.378 15.269,8.587L7.805,28.59L10.958,30.37L19.078,8.6C19.145,8.424 19.011,8.24 18.824,8.24Z" style="fill-rule:nonzero;"/>
            </g>
        </g>
    </g>
</svg>
