<?xml version="1.0" encoding="UTF-8" standalone="no"?>
<!DOCTYPE svg PUBLIC "-//W3C//DTD SVG 1.1//EN" "http://www.w3.org/Graphics/SVG/1.1/DTD/svg11.dtd">
<svg width="100%" height="100%" viewBox="0 0 24 24" version="1.1" xmlns="http://www.w3.org/2000/svg" xmlns:xlink="http://www.w3.org/1999/xlink" xml:space="preserve" xmlns:serif="http://www.serif.com/" style="fill-rule:evenodd;clip-rule:evenodd;stroke-linejoin:round;stroke-miterlimit:2;">
    <g transform="matrix(1,0,0,1,-384.828,-27.2263)">
        <g id="arrow-up-right-dots" transform="matrix(0.13395,0,0,0.149263,359.363,2.22461)">
            <rect x="190.107" y="167.501" width="179.172" height="160.79" style="fill:none;"/>
            <g id="arrow-up-right-dots-regular.svg" transform="matrix(0.311062,0,0,0.279149,279.693,247.896)">
                <g transform="matrix(1,0,0,1,-288,-256)">
                    <clipPath id="_clip1">
                        <rect x="0" y="0" width="576" height="512"/>
                    </clipPath>
                    <g clip-path="url(#_clip1)">
                        <path d="M128,24C128,37.3 138.7,48 152,48L238.1,48L7,279C-2.4,288.4 -2.4,303.6 7,312.9C16.4,322.2 31.6,322.3 40.9,312.9L271.9,81.9L271.9,168C271.9,181.3 282.6,192 295.9,192C309.2,192 319.9,181.3 319.9,168L319.9,24C319.9,10.7 309.2,-0 295.9,-0L152,0C138.7,0 128,10.7 128,24ZM576,80C576,53.668 554.332,32 528,32C501.668,32 480,53.668 480,80C480,106.332 501.668,128 528,128C554.332,128 576,106.332 576,80ZM448,208C448,181.668 426.332,160 400,160C373.668,160 352,181.668 352,208C352,234.332 373.668,256 400,256C426.332,256 448,234.332 448,208ZM400,384C426.332,384 448,362.332 448,336C448,309.668 426.332,288 400,288C373.668,288 352,309.668 352,336C352,362.332 373.668,384 400,384ZM448,464C448,437.668 426.332,416 400,416C373.668,416 352,437.668 352,464C352,490.332 373.668,512 400,512C426.332,512 448,490.332 448,464ZM576,464C576,437.668 554.332,416 528,416C501.668,416 480,437.668 480,464C480,490.332 501.668,512 528,512C554.332,512 576,490.332 576,464ZM272,384C298.332,384 320,362.332 320,336C320,309.668 298.332,288 272,288C245.668,288 224,309.668 224,336C224,362.332 245.668,384 272,384ZM320,464C320,437.668 298.332,416 272,416C245.668,416 224,437.668 224,464C224,490.332 245.668,512 272,512C298.332,512 320,490.332 320,464ZM144,512C170.332,512 192,490.332 192,464C192,437.668 170.332,416 144,416C117.668,416 96,437.668 96,464C96,490.332 117.668,512 144,512ZM576,336C576,309.668 554.332,288 528,288C501.668,288 480,309.668 480,336C480,362.332 501.668,384 528,384C554.332,384 576,362.332 576,336ZM528,256C554.332,256 576,234.332 576,208C576,181.668 554.332,160 528,160C501.668,160 480,181.668 480,208C480,234.332 501.668,256 528,256Z" style="fill-rule:nonzero;"/>
                    </g>
                </g>
            </g>
        </g>
    </g>
</svg>
