<?xml version="1.0" encoding="UTF-8"?>
<svg width="24px" height="24px" viewBox="0 0 24 24" version="1.1" xmlns="http://www.w3.org/2000/svg" xmlns:xlink="http://www.w3.org/1999/xlink">
    <title>Artboard Copy 7</title>
    <g id="Artboard-Copy-7" stroke="none" stroke-width="1" fill="none" fill-rule="evenodd">
        <g id="bolt-light" transform="translate(4.000000, 2.000000)" fill="#000000" fill-rule="nonzero">
            <path d="M10.734375,0.24609375 C10.9140625,0.0859375 11.1445313,0 11.3828125,0 C12.0546875,0 12.5234375,0.66796875 12.296875,1.30078125 L9.63671875,8.75 L13.9453125,8.75 C14.5273437,8.75 15,9.22265625 15,9.8046875 C15,10.109375 14.8710937,10.3945312 14.6445312,10.5976562 L4.26171875,19.7578125 C4.0859375,19.9140625 3.85546875,20 3.6171875,20 C2.9453125,20 2.4765625,19.3320312 2.69921875,18.6992188 L5.36328125,11.25 L1.0078125,11.25 C0.453125,11.25 0,10.796875 0,10.2421875 C0,9.953125 0.125,9.6796875 0.33984375,9.48828125 L10.734375,0.24609375 Z M10.7539063,1.90234375 L1.64453125,10 L6.25,10 C6.453125,10 6.64453125,10.0976562 6.76171875,10.265625 C6.87890625,10.4335938 6.90625,10.6445312 6.83984375,10.8359375 L4.2421875,18.109375 L13.4296875,10 L8.75,10 C8.546875,10 8.35546875,9.90234375 8.23828125,9.734375 C8.12109375,9.56640625 8.09375,9.35546875 8.16015625,9.1640625 L10.7539063,1.8984375 L10.7539063,1.90234375 Z" id="Shape"></path>
        </g>
    </g>
</svg>