<?xml version="1.0" encoding="UTF-8"?>
<svg width="24px" height="24px" viewBox="0 0 24 24" version="1.1" xmlns="http://www.w3.org/2000/svg" xmlns:xlink="http://www.w3.org/1999/xlink">
    <title>Artboard Copy 3</title>
    <g id="Artboard-Copy-3" stroke="none" stroke-width="1" fill="none" fill-rule="evenodd">
        <g id="bolt-solid" transform="translate(4.000000, 2.000000)" fill="#000000" fill-rule="nonzero">
            <path d="M13.2238722,1.74247932 C13.4696525,1.20734198 13.2863587,0.582364068 12.7823009,0.238626216 C12.278243,-0.105111636 11.5908914,-0.0738627406 11.1201597,0.308936231 L0.455795432,9.05862702 C0.039218703,9.40236487 -0.11074892,9.95312666 0.0850421432,10.4374845 C0.280833206,10.9218424 0.780725281,11.2499558 1.33477233,11.2499558 L5.97960286,11.2499558 L2.77612781,18.2575207 C2.53034754,18.792658 2.71364131,19.4176359 3.21769915,19.7613738 C3.72175699,20.1051116 4.40910859,20.0738627 4.8798403,19.6910638 L15.5442046,10.941373 C15.9607813,10.5976351 16.1107489,10.0468733 15.9149579,9.56251546 C15.7191668,9.07815758 15.2234405,8.75395029 14.6652277,8.75395029 L10.0203971,8.75395029 L13.2238722,1.74247932 Z" id="Path"></path>
        </g>
    </g>
</svg>