<?xml version="1.0" encoding="UTF-8"?>
<svg width="24px" height="24px" viewBox="0 0 24 24" version="1.1" xmlns="http://www.w3.org/2000/svg" xmlns:xlink="http://www.w3.org/1999/xlink">
    <title>Artboard Copy 4</title>
    <g id="Artboard-Copy-4" stroke="none" stroke-width="1" fill="none" fill-rule="evenodd">
        <g id="seal-solid" transform="translate(2.000000, 2.000000)" fill="#000000" fill-rule="nonzero">
            <path d="M11.3472429,0.557377049 C10.6040735,-0.18579235 9.39592648,-0.18579235 8.64878291,0.557377049 L6.84053651,2.36959762 L4.27719821,2.36959762 C3.22404372,2.36959762 2.36959762,3.22404372 2.36959762,4.27719821 L2.36959762,6.84053651 L0.557377049,8.65275708 C-0.18579235,9.39592648 -0.18579235,10.6040735 0.557377049,11.3512171 L2.36959762,13.1594635 L2.36959762,15.7228018 C2.36959762,16.7759563 3.22404372,17.6304024 4.27719821,17.6304024 L6.84053651,17.6304024 L8.65275708,19.442623 C9.39592648,20.1857923 10.6040735,20.1857923 11.3512171,19.442623 L13.1594635,17.6304024 L15.7228018,17.6304024 C16.7759563,17.6304024 17.6304024,16.7759563 17.6304024,15.7228018 L17.6304024,13.1594635 L19.442623,11.3472429 C20.1857923,10.6040735 20.1857923,9.39592648 19.442623,8.64878291 L17.6304024,6.84053651 L17.6304024,4.27719821 C17.6304024,3.22404372 16.7759563,2.36959762 15.7228018,2.36959762 L13.1594635,2.36959762 L11.3472429,0.557377049 Z" id="Path"></path>
        </g>
    </g>
</svg>