<?xml version="1.0" encoding="UTF-8" standalone="no"?>
<!DOCTYPE svg PUBLIC "-//W3C//DTD SVG 1.1//EN" "http://www.w3.org/Graphics/SVG/1.1/DTD/svg11.dtd">
<svg width="100%" height="100%" viewBox="0 0 24 24" version="1.1" xmlns="http://www.w3.org/2000/svg" xmlns:xlink="http://www.w3.org/1999/xlink" xml:space="preserve" xmlns:serif="http://www.serif.com/" style="fill-rule:evenodd;clip-rule:evenodd;stroke-linejoin:round;stroke-miterlimit:2;">
    <g transform="matrix(1,0,0,1,-109.973,-0.196619)">
        <g id="Certificate-Light" serif:id="Certificate Light" transform="matrix(0.13395,0,0,0.149263,84.5079,-24.8051)">
            <rect x="190.107" y="167.501" width="179.172" height="160.79" style="fill:none;"/>
            <g transform="matrix(8.77401,0,0,7.87384,191.952,169.157)">
                <path d="M7.739,3.268C7.5,3.506 7.178,3.641 6.841,3.641L4.277,3.641C3.927,3.641 3.641,3.927 3.641,4.277L3.641,6.841C3.641,7.178 3.506,7.5 3.268,7.739L1.456,9.551C1.209,9.797 1.209,10.203 1.456,10.449L0.557,11.347C-0.186,10.604 -0.186,9.396 0.557,8.649L2.37,6.841L2.37,4.277C2.37,3.224 3.224,2.37 4.277,2.37L6.841,2.37L8.653,0.557C9.396,-0.186 10.604,-0.186 11.351,0.557L13.159,2.37L15.723,2.37C16.776,2.37 17.63,3.224 17.63,4.277L17.63,6.841L19.443,8.653C20.186,9.396 20.186,10.604 19.443,11.351L17.63,13.159L17.63,15.723C17.63,16.776 16.776,17.63 15.723,17.63L13.159,17.63L11.347,19.443C10.604,20.186 9.396,20.186 8.649,19.443L6.841,17.63L4.277,17.63C3.224,17.63 2.37,16.776 2.37,15.723L2.37,13.159L0.557,11.347L1.456,10.449L3.268,12.261C3.506,12.5 3.641,12.822 3.641,13.159L3.641,15.723C3.641,16.073 3.927,16.359 4.277,16.359L6.841,16.359C7.178,16.359 7.5,16.494 7.739,16.732L9.551,18.544C9.797,18.791 10.203,18.791 10.449,18.544L12.261,16.732C12.5,16.494 12.822,16.359 13.159,16.359L15.723,16.359C16.073,16.359 16.359,16.073 16.359,15.723L16.359,13.159C16.359,12.822 16.494,12.5 16.732,12.261L18.544,10.449C18.791,10.203 18.791,9.797 18.544,9.551L16.732,7.739C16.494,7.5 16.359,7.178 16.359,6.841L16.359,4.277C16.359,3.927 16.073,3.641 15.723,3.641L13.159,3.641C12.822,3.641 12.5,3.506 12.261,3.268L10.449,1.456C10.203,1.209 9.797,1.209 9.551,1.456L7.739,3.268Z" style="fill-rule:nonzero;"/>
            </g>
        </g>
    </g>
</svg>
