<?xml version="1.0" encoding="UTF-8"?>
<svg width="24px" height="24px" viewBox="0 0 24 24" version="1.1" xmlns="http://www.w3.org/2000/svg" xmlns:xlink="http://www.w3.org/1999/xlink">
    <title>Artboard Copy 9</title>
    <g id="Artboard-Copy-9" stroke="none" stroke-width="1" fill="none" fill-rule="evenodd">
        <g id="seal-light" transform="translate(2.000000, 2.000000)" fill="#1E3050" fill-rule="nonzero">
            <path d="M7.73869846,3.26775956 C7.50024839,3.50620964 7.17834078,3.64133135 6.84053651,3.64133135 L4.27719821,3.64133135 C3.92747144,3.64133135 3.64133135,3.92747144 3.64133135,4.27719821 L3.64133135,6.84053651 C3.64133135,7.17834078 3.50620964,7.50024839 3.26775956,7.73869846 L1.455539,9.55091903 C1.20914059,9.79731744 1.20914059,10.2026826 1.455539,10.449081 L0.557377049,11.3472429 C-0.18579235,10.6040735 -0.18579235,9.39592648 0.557377049,8.64878291 L2.36959762,6.84053651 L2.36959762,4.27719821 C2.36959762,3.22404372 3.22404372,2.36959762 4.27719821,2.36959762 L6.84053651,2.36959762 L8.65275708,0.557377049 C9.39592648,-0.18579235 10.6040735,-0.18579235 11.3512171,0.557377049 L13.1594635,2.36959762 L15.7228018,2.36959762 C16.7759563,2.36959762 17.6304024,3.22404372 17.6304024,4.27719821 L17.6304024,6.84053651 L19.442623,8.65275708 C20.1857923,9.39592648 20.1857923,10.6040735 19.442623,11.3512171 L17.6304024,13.1594635 L17.6304024,15.7228018 C17.6304024,16.7759563 16.7759563,17.6304024 15.7228018,17.6304024 L13.1594635,17.6304024 L11.3472429,19.442623 C10.6040735,20.1857923 9.39592648,20.1857923 8.64878291,19.442623 L6.84053651,17.6304024 L4.27719821,17.6304024 C3.22404372,17.6304024 2.36959762,16.7759563 2.36959762,15.7228018 L2.36959762,13.1594635 L0.557377049,11.3472429 L1.455539,10.449081 L3.26775956,12.2613015 C3.50620964,12.4997516 3.64133135,12.8216592 3.64133135,13.1594635 L3.64133135,15.7228018 C3.64133135,16.0725286 3.92747144,16.3586687 4.27719821,16.3586687 L6.84053651,16.3586687 C7.17834078,16.3586687 7.50024839,16.4937904 7.73869846,16.7322404 L9.55091903,18.544461 C9.79731744,18.7908594 10.2026826,18.7908594 10.449081,18.544461 L12.2613015,16.7322404 C12.4997516,16.4937904 12.8216592,16.3586687 13.1594635,16.3586687 L15.7228018,16.3586687 C16.0725286,16.3586687 16.3586687,16.0725286 16.3586687,15.7228018 L16.3586687,13.1594635 C16.3586687,12.8216592 16.4937904,12.4997516 16.7322404,12.2613015 L18.544461,10.449081 C18.7908594,10.2026826 18.7908594,9.79731744 18.544461,9.55091903 L16.7322404,7.73869846 C16.4937904,7.50024839 16.3586687,7.17834078 16.3586687,6.84053651 L16.3586687,4.27719821 C16.3586687,3.92747144 16.0725286,3.64133135 15.7228018,3.64133135 L13.1594635,3.64133135 C12.8216592,3.64133135 12.4997516,3.50620964 12.2613015,3.26775956 L10.449081,1.455539 C10.2026826,1.20914059 9.79731744,1.20914059 9.55091903,1.455539 L7.73869846,3.26775956 Z" id="Path"></path>
        </g>
    </g>
</svg>