<svg width="24" height="24" viewBox="0 0 24 24" fill="none" xmlns="http://www.w3.org/2000/svg">
<g clip-path="url(#clip0_1891_30167)">
<path d="M1.45686 16.1257C1.91581 16.407 2.44113 16.5617 2.9793 16.5738C3.39553 17.4862 3.94675 18.3307 4.61441 19.0789C4.43477 19.5421 4.37067 20.042 4.42766 20.5355C4.48466 21.029 4.66103 21.5012 4.94152 21.9113C5.22201 22.3213 5.59818 22.6568 6.03747 22.8888C6.47677 23.1208 6.96597 23.2422 7.46275 23.2427C7.81995 23.2433 8.17457 23.1822 8.5109 23.0619C9.00387 22.885 9.44262 22.5835 9.78441 22.1867C10.5725 22.3801 11.381 22.4786 12.1925 22.4801C12.3969 22.4801 12.6039 22.4801 12.8083 22.4592C13.1772 23.0746 13.7507 23.5407 14.4285 23.776C15.1063 24.0113 15.8453 24.0008 16.5161 23.7462C17.1869 23.4917 17.7469 23.0094 18.098 22.3837C18.4492 21.758 18.5691 21.0288 18.4369 20.3236C19.2279 19.7005 19.9235 18.9652 20.5017 18.1408C20.6509 18.1634 20.8015 18.1757 20.9524 18.1775C21.6404 18.1759 22.3078 17.9425 22.8469 17.5151C23.386 17.0876 23.7654 16.491 23.9237 15.8214C24.0821 15.1519 24.0103 14.4485 23.7198 13.8248C23.4294 13.2011 22.9373 12.6935 22.3229 12.3838V12.3629C22.3238 11.3872 22.1844 10.4164 21.9089 9.48046C22.495 8.95658 22.8568 8.2271 22.9193 7.44347C22.9817 6.65984 22.74 5.88225 22.2443 5.27214C21.8077 4.73626 21.2031 4.36345 20.5282 4.21411C19.8534 4.06478 19.1478 4.14767 18.526 4.44935C17.7765 3.84628 16.9443 3.35388 16.055 2.98718C16.0251 2.19745 15.6905 1.45 15.1212 0.90178C14.552 0.353564 13.7925 0.047234 13.0022 0.0471191L12.9734 0.0471191C12.2804 0.0536117 11.6101 0.295102 11.0722 0.732081C10.5343 1.16906 10.1607 1.77565 10.0124 2.45262C9.07734 2.65677 8.17638 2.99386 7.33698 3.4536C6.69656 2.98177 5.89749 2.77805 5.10935 2.88568C4.3212 2.99331 3.60601 3.40382 3.11556 4.03009C2.69289 4.56965 2.46322 5.23529 2.46322 5.92069C2.46322 6.60609 2.69289 7.27172 3.11556 7.81129C2.68105 8.68585 2.37565 9.61881 2.20891 10.581C1.64 10.7463 1.13127 11.073 0.74445 11.5217C0.357631 11.9704 0.109347 12.5218 0.0297245 13.1088C-0.0498981 13.6959 0.0425629 14.2934 0.295889 14.8289C0.549215 15.3644 0.952516 15.8149 1.45686 16.1257ZM7.86105 21.2721C7.71741 21.3242 7.56489 21.3474 7.41226 21.3404C7.25962 21.3334 7.10987 21.2964 6.9716 21.2314C6.83332 21.1664 6.70923 21.0747 6.60646 20.9616C6.50368 20.8486 6.42424 20.7163 6.37268 20.5725C6.32181 20.4315 6.29932 20.2818 6.30651 20.132C6.31371 19.9823 6.35044 19.8354 6.41461 19.6999C6.49314 19.5239 6.61419 19.3701 6.76688 19.2524C6.91958 19.1347 7.09912 19.0568 7.28938 19.0257C7.47963 18.9946 7.67464 19.0112 7.85687 19.0741C8.0391 19.1371 8.20283 19.2443 8.33336 19.3861C8.46388 19.528 8.55711 19.7001 8.60465 19.8869C8.6522 20.0738 8.65257 20.2695 8.60574 20.4565C8.5589 20.6435 8.46633 20.8159 8.33635 20.9583C8.20636 21.1007 8.04304 21.2085 7.86105 21.2721ZM16.5214 21.2721C16.4347 21.527 16.2624 21.7439 16.0337 21.8859C15.805 22.028 15.5342 22.0863 15.2673 22.051C15.0005 22.0157 14.7541 21.889 14.5702 21.6924C14.3863 21.4958 14.2763 21.2416 14.2589 20.973C14.2414 20.7043 14.3177 20.438 14.4746 20.2193C14.6316 20.0006 14.8595 19.8431 15.1196 19.7736C15.3796 19.7041 15.6557 19.7269 15.9008 19.8382C16.1459 19.9495 16.3449 20.1423 16.4637 20.3838C16.5326 20.5204 16.5732 20.6695 16.5831 20.8221C16.593 20.9747 16.572 21.1278 16.5214 21.2721ZM22.074 15.3632C22.008 15.6621 21.8268 15.923 21.5698 16.0893C21.3128 16.2556 21.0006 16.3139 20.7009 16.2515C20.4001 16.185 20.1378 16.0022 19.9714 15.7429C19.8049 15.4837 19.7479 15.1691 19.8126 14.868C19.8445 14.7184 19.9059 14.5768 19.9931 14.4512C20.0804 14.3257 20.1919 14.2188 20.3209 14.1369C20.5062 14.0153 20.723 13.9506 20.9446 13.9508C21.0327 13.9506 21.1206 13.9603 21.2066 13.9796C21.5078 14.0455 21.7705 14.2282 21.937 14.4876C22.1036 14.747 22.1604 15.062 22.0949 15.3632H22.074ZM19.8597 6.03729C20.1004 6.03614 20.3355 6.10984 20.5325 6.24817C20.7294 6.38651 20.8785 6.58264 20.9591 6.80944C21.0397 7.03623 21.0478 7.28247 20.9823 7.51406C20.9168 7.74566 20.7809 7.95117 20.5934 8.10215C20.3527 8.28154 20.0519 8.3609 19.7539 8.32364C19.456 8.28638 19.184 8.13537 18.9948 7.90221C18.8057 7.66904 18.714 7.37177 18.7389 7.07255C18.7638 6.77333 18.9035 6.49534 19.1287 6.29671C19.3359 6.12989 19.5937 6.03842 19.8597 6.03729ZM12.1716 2.29278C12.3877 2.07372 12.6814 1.94853 12.9891 1.94427C13.295 1.9463 13.5879 2.06818 13.8049 2.28374C14.022 2.4993 14.1458 2.79137 14.1499 3.09723C14.1505 3.16753 14.1443 3.23772 14.1316 3.30686V3.32521C14.1316 3.35403 14.1185 3.38023 14.1133 3.40906C14.0644 3.60584 13.965 3.78647 13.825 3.93313C13.7184 4.04285 13.5909 4.13019 13.4501 4.19004C13.3092 4.24988 13.1579 4.28102 13.0048 4.28164C12.7759 4.28119 12.5521 4.21317 12.3616 4.08612C12.1711 3.95907 12.0223 3.77862 11.9339 3.56739C11.8455 3.35617 11.8214 3.12355 11.8646 2.89868C11.9078 2.67381 12.0164 2.46669 12.1768 2.30326L12.1716 2.29278ZM10.2194 4.35763C10.4601 4.8972 10.852 5.35542 11.3478 5.67679C11.8436 5.99815 12.4219 6.16889 13.0127 6.16831H13.0415C13.4435 6.16552 13.841 6.08328 14.2111 5.92634C14.5812 5.76939 14.9166 5.54083 15.1981 5.2538C15.3265 5.12191 15.4432 4.97898 15.5466 4.82668C16.1202 5.08138 16.6619 5.40238 17.1608 5.78312C16.9309 6.22567 16.8127 6.71768 16.8164 7.21634C16.82 7.715 16.9455 8.20521 17.1819 8.64433C17.4182 9.08344 17.7583 9.45815 18.1725 9.73586C18.5867 10.0136 19.0624 10.1859 19.5584 10.2378C19.6658 10.2378 19.7733 10.2535 19.8781 10.2535C19.9829 10.2535 20.0668 10.2535 20.1585 10.2535C20.3166 10.8589 20.4046 11.4805 20.4205 12.1061C19.8682 12.2013 19.3528 12.4465 18.9305 12.815C18.5083 13.1834 18.1955 13.6609 18.0264 14.1952C17.8574 14.7295 17.8385 15.3 17.9719 15.8443C18.1053 16.3886 18.3858 16.8857 18.7828 17.2813C18.4074 17.7824 17.9767 18.2395 17.4988 18.6439C17.0447 18.2261 16.4748 17.9554 15.864 17.8675C15.2532 17.7796 14.6301 17.8785 14.0766 18.1513C13.7155 18.3284 13.393 18.5751 13.1277 18.8773C12.8624 19.1795 12.6594 19.5312 12.5306 19.9122C12.4583 20.1299 12.41 20.3548 12.3864 20.583C11.7611 20.5968 11.1362 20.5405 10.5234 20.4153C10.5652 19.8505 10.4495 19.2852 10.189 18.7824C9.92847 18.2795 9.53345 17.8589 9.04793 17.5674C8.56242 17.2759 8.00549 17.1249 7.43921 17.1313C6.87293 17.1377 6.31955 17.3012 5.84074 17.6036C5.44025 17.1204 5.09648 16.5929 4.81618 16.0314C5.15842 15.7909 5.44816 15.4833 5.6678 15.1274C5.87891 14.7852 6.02048 14.4049 6.08443 14.008C6.14837 13.6111 6.13343 13.2055 6.04046 12.8143C5.94749 12.4232 5.77831 12.0543 5.54261 11.7286C5.3069 11.403 5.00929 11.127 4.66682 10.9164C4.50057 10.8131 4.32513 10.7254 4.14274 10.6544C4.26522 10.0404 4.45777 9.44257 4.7166 8.87254C4.97272 8.94305 5.23707 8.97918 5.50272 8.97997C5.98333 8.98521 6.45836 8.8767 6.88903 8.6633C7.3197 8.4499 7.69378 8.13765 7.98073 7.75207C8.26768 7.36649 8.45936 6.9185 8.54012 6.44469C8.62087 5.97089 8.58842 5.4847 8.44539 5.02583C9.00816 4.7336 9.60367 4.50929 10.2194 4.35763ZM4.60917 5.20401C4.70213 5.08278 4.81842 4.98138 4.95118 4.90577C5.08394 4.83017 5.23048 4.78189 5.38218 4.76379C5.43014 4.75999 5.47833 4.75999 5.5263 4.76379C5.78756 4.76756 6.03979 4.85995 6.24166 5.02583C6.42298 5.16758 6.55818 5.35993 6.63016 5.57854C6.70214 5.79715 6.70767 6.03219 6.64604 6.25394C6.58441 6.47569 6.4584 6.67418 6.28394 6.8243C6.10949 6.97442 5.89443 7.06942 5.66597 7.09729C5.43751 7.12516 5.20591 7.08465 5.00048 6.98087C4.79505 6.87709 4.62502 6.71472 4.51189 6.51429C4.39876 6.31386 4.34762 6.08438 4.36493 5.85488C4.38225 5.62537 4.46725 5.40616 4.60917 5.22498V5.20401ZM2.79325 12.3865C2.87915 12.3663 2.96704 12.3557 3.05529 12.355C3.33082 12.3529 3.59807 12.4492 3.80904 12.6264C4.02 12.8037 4.16086 13.0504 4.20631 13.3221C4.25176 13.5939 4.19883 13.873 4.05703 14.1092C3.91522 14.3455 3.69384 14.5235 3.43262 14.6112C3.36649 14.6212 3.30153 14.6379 3.23871 14.6609C2.95033 14.7093 2.65436 14.6459 2.41099 14.4838C2.16762 14.3218 1.99511 14.0731 1.92853 13.7884C1.85767 13.4878 1.90891 13.1714 2.07102 12.9086C2.23313 12.6458 2.49287 12.458 2.79325 12.3865Z" fill="currentColor"/>
</g>
<defs>
<clipPath id="clip0_1891_30167">
<rect width="24" height="24" fill="white"/>
</clipPath>
</defs>
</svg>
