<svg width="25" height="25" viewBox="0 0 25 25" fill="none" xmlns="http://www.w3.org/2000/svg">
<g clip-path="url(#clip0_1891_30167)">
<path d="M2.451 16.1807C2.90995 16.462 3.43527 16.6166 3.97344 16.6287C4.38967 17.5411 4.94089 18.3856 5.60855 19.1338C5.42891 19.597 5.36481 20.097 5.42181 20.5905C5.4788 21.084 5.65517 21.5562 5.93566 21.9662C6.21615 22.3762 6.59232 22.7117 7.03161 22.9437C7.47091 23.1757 7.96011 23.2972 8.4569 23.2976C8.8141 23.2983 9.16871 23.2371 9.50504 23.1168C9.99801 22.94 10.4368 22.6384 10.7785 22.2416C11.5667 22.435 12.3751 22.5336 13.1867 22.5351C13.3911 22.5351 13.5981 22.5351 13.8025 22.5141C14.1713 23.1295 14.7448 23.5957 15.4226 23.831C16.1004 24.0662 16.8394 24.0557 17.5102 23.8012C18.1811 23.5466 18.741 23.0643 19.0922 22.4386C19.4433 21.8129 19.5633 21.0837 19.431 20.3785C20.222 19.7555 20.9177 19.0201 21.4959 18.1957C21.6451 18.2184 21.7957 18.2306 21.9466 18.2324C22.6346 18.2308 23.302 17.9975 23.8411 17.57C24.3802 17.1425 24.7595 16.5459 24.9179 15.8764C25.0763 15.2068 25.0044 14.5035 24.714 13.8798C24.4235 13.2561 23.9314 12.7484 23.317 12.4388V12.4178C23.3179 11.4421 23.1785 10.4714 22.903 9.5354C23.4891 9.01151 23.851 8.28203 23.9134 7.4984C23.9759 6.71477 23.7341 5.93718 23.2384 5.32708C22.8019 4.79119 22.1972 4.41838 21.5224 4.26905C20.8475 4.11971 20.142 4.2026 19.5201 4.50428C18.7706 3.90122 17.9385 3.40881 17.0491 3.04211C17.0193 2.25238 16.6846 1.50493 16.1154 0.956712C15.5462 0.408495 14.7867 0.102166 13.9964 0.102051L13.9675 0.102051C13.2745 0.108543 12.6043 0.350034 12.0664 0.787013C11.5285 1.22399 11.1548 1.83059 11.0065 2.50755C10.0715 2.7117 9.17052 3.04879 8.33112 3.50854C7.6907 3.0367 6.89163 2.83298 6.10349 2.94061C5.31534 3.04824 4.60015 3.45875 4.1097 4.08502C3.68703 4.62458 3.45736 5.29022 3.45736 5.97562C3.45736 6.66102 3.68703 7.32665 4.1097 7.86622C3.67519 8.74078 3.36979 9.67374 3.20305 10.636C2.63414 10.8012 2.12541 11.128 1.73859 11.5767C1.35177 12.0254 1.10349 12.5767 1.02387 13.1637C0.944243 13.7508 1.0367 14.3483 1.29003 14.8838C1.54336 15.4194 1.94666 15.8699 2.451 16.1807ZM8.85519 21.3271C8.71155 21.3792 8.55903 21.4024 8.4064 21.3954C8.25377 21.3884 8.10401 21.3513 7.96574 21.2863C7.82746 21.2213 7.70337 21.1296 7.6006 21.0166C7.49782 20.9035 7.41838 20.7713 7.36682 20.6274C7.31595 20.4864 7.29346 20.3367 7.30066 20.187C7.30785 20.0372 7.34459 19.8904 7.40875 19.7549C7.48728 19.5788 7.60833 19.425 7.76102 19.3073C7.91372 19.1896 8.09326 19.1117 8.28352 19.0806C8.47377 19.0495 8.66878 19.0661 8.85101 19.1291C9.03324 19.192 9.19697 19.2992 9.3275 19.4411C9.45802 19.583 9.55125 19.755 9.59879 19.9419C9.64634 20.1287 9.64671 20.3244 9.59988 20.5114C9.55304 20.6984 9.46047 20.8709 9.33049 21.0133C9.20051 21.1556 9.03718 21.2635 8.85519 21.3271ZM17.5155 21.3271C17.4289 21.5819 17.2565 21.7988 17.0279 21.9409C16.7992 22.0829 16.5283 22.1412 16.2615 22.1059C15.9946 22.0707 15.7483 21.9439 15.5644 21.7473C15.3805 21.5508 15.2704 21.2965 15.253 21.0279C15.2356 20.7593 15.3118 20.4929 15.4688 20.2742C15.6257 20.0555 15.8536 19.898 16.1137 19.8285C16.3738 19.759 16.6499 19.7819 16.895 19.8932C17.1401 20.0044 17.339 20.1973 17.4579 20.4388C17.5267 20.5754 17.5673 20.7244 17.5772 20.877C17.5871 21.0297 17.5661 21.1827 17.5155 21.3271ZM23.0681 15.4181C23.0021 15.7171 22.821 15.9779 22.564 16.1442C22.3069 16.3105 21.9947 16.3688 21.695 16.3064C21.3942 16.2399 21.132 16.0571 20.9655 15.7979C20.7991 15.5386 20.742 15.2241 20.8067 14.9229C20.8386 14.7734 20.9 14.6317 20.9873 14.5062C21.0746 14.3806 21.186 14.2738 21.3151 14.1918C21.5003 14.0702 21.7171 14.0055 21.9387 14.0058C22.0269 14.0055 22.1148 14.0152 22.2008 14.0346C22.5019 14.1005 22.7646 14.2832 22.9312 14.5426C23.0977 14.802 23.1545 15.1169 23.0891 15.4181H23.0681ZM20.8539 6.09223C21.0946 6.09108 21.3297 6.16477 21.5266 6.3031C21.7236 6.44144 21.8727 6.63758 21.9532 6.86437C22.0338 7.09116 22.0419 7.3374 21.9764 7.56899C21.9109 7.80059 21.775 8.0061 21.5876 8.15708C21.3468 8.33647 21.046 8.41584 20.7481 8.37857C20.4501 8.34131 20.1782 8.19031 19.989 7.95714C19.7998 7.72397 19.7081 7.4267 19.733 7.12748C19.758 6.82826 19.8976 6.55027 20.1228 6.35164C20.3301 6.18482 20.5878 6.09335 20.8539 6.09223ZM13.1657 2.34771C13.3819 2.12865 13.6755 2.00346 13.9833 1.9992C14.2891 2.00123 14.582 2.12311 14.7991 2.33867C15.0161 2.55424 15.14 2.8463 15.1441 3.15217C15.1446 3.22246 15.1385 3.29265 15.1257 3.3618V3.38014C15.1257 3.40896 15.1126 3.43517 15.1074 3.46399C15.0585 3.66077 14.9592 3.8414 14.8192 3.98807C14.7125 4.09779 14.585 4.18512 14.4442 4.24497C14.3034 4.30481 14.152 4.33595 13.999 4.33657C13.77 4.33612 13.5462 4.2681 13.3557 4.14105C13.1652 4.014 13.0165 3.83355 12.9281 3.62233C12.8397 3.4111 12.8155 3.17848 12.8587 2.95361C12.902 2.72874 13.0106 2.52162 13.1709 2.35819L13.1657 2.34771ZM11.2135 4.41257C11.4542 4.95214 11.8462 5.41035 12.3419 5.73172C12.8377 6.05309 13.416 6.22382 14.0068 6.22324H14.0357C14.4377 6.22045 14.8351 6.13821 15.2052 5.98127C15.5753 5.82432 15.9108 5.59576 16.1922 5.30873C16.3207 5.17684 16.4373 5.03391 16.5407 4.88161C17.1143 5.13631 17.656 5.45731 18.1549 5.83805C17.9251 6.2806 17.8068 6.77261 17.8105 7.27127C17.8142 7.76993 17.9397 8.26015 18.176 8.69926C18.4123 9.13837 18.7524 9.51308 19.1666 9.79079C19.5808 10.0685 20.0566 10.2408 20.5525 10.2927C20.66 10.2927 20.7674 10.3084 20.8722 10.3084C20.977 10.3084 21.0609 10.3084 21.1526 10.3084C21.3108 10.9138 21.3987 11.5355 21.4146 12.161C20.8624 12.2562 20.3469 12.5014 19.9247 12.8699C19.5024 13.2384 19.1897 13.7159 19.0206 14.2502C18.8515 14.7844 18.8326 15.3549 18.966 15.8992C19.0994 16.4436 19.3799 16.9407 19.7769 17.3362C19.4015 17.8373 18.9708 18.2944 18.4929 18.6988C18.0388 18.281 17.4689 18.0104 16.8581 17.9224C16.2473 17.8345 15.6242 17.9334 15.0707 18.2062C14.7097 18.3833 14.3872 18.6301 14.1219 18.9323C13.8565 19.2345 13.6536 19.5862 13.5247 19.9671C13.4525 20.1848 13.4041 20.4097 13.3806 20.6379C12.7552 20.6517 12.1303 20.5954 11.5175 20.4702C11.5594 19.9055 11.4436 19.3401 11.1831 18.8373C10.9226 18.3345 10.5276 17.9138 10.0421 17.6223C9.55656 17.3308 8.99963 17.1798 8.43335 17.1862C7.86707 17.1926 7.31369 17.3561 6.83488 17.6586C6.43439 17.1754 6.09062 16.6478 5.81032 16.0863C6.15256 15.8459 6.44231 15.5383 6.66194 15.1823C6.87305 14.8402 7.01462 14.4598 7.07857 14.0629C7.14252 13.666 7.12758 13.2604 7.0346 12.8693C6.94163 12.4782 6.77245 12.1092 6.53675 11.7835C6.30104 11.4579 6.00344 11.1819 5.66096 10.9714C5.49471 10.8681 5.31928 10.7803 5.13688 10.7093C5.25936 10.0954 5.45191 9.49751 5.71074 8.92747C5.96686 8.99798 6.23121 9.03411 6.49686 9.0349C6.97747 9.04015 7.4525 8.93163 7.88317 8.71823C8.31384 8.50483 8.68792 8.19258 8.97487 7.807C9.26182 7.42142 9.4535 6.97343 9.53426 6.49963C9.61502 6.02582 9.58256 5.53963 9.43954 5.08076C10.0023 4.78853 10.5978 4.56423 11.2135 4.41257ZM5.60331 5.25895C5.69628 5.13771 5.81256 5.03631 5.94532 4.9607C6.07808 4.8851 6.22462 4.83682 6.37632 4.81872C6.42428 4.81492 6.47247 4.81492 6.52044 4.81872C6.7817 4.82249 7.03393 4.91488 7.2358 5.08076C7.41712 5.22252 7.55232 5.41486 7.6243 5.63347C7.69628 5.85208 7.70181 6.08713 7.64018 6.30888C7.57855 6.53062 7.45254 6.72911 7.27809 6.87923C7.10363 7.02935 6.88857 7.12436 6.66011 7.15223C6.43165 7.1801 6.20005 7.13958 5.99462 7.0358C5.78919 6.93203 5.61916 6.76965 5.50603 6.56922C5.3929 6.36879 5.34176 6.13931 5.35907 5.90981C5.37639 5.68031 5.46139 5.4611 5.60331 5.27991V5.25895ZM3.78739 12.4414C3.8733 12.4212 3.96118 12.4107 4.04943 12.4099C4.32497 12.4079 4.59221 12.5041 4.80318 12.6814C5.01414 12.8586 5.155 13.1053 5.20045 13.3771C5.2459 13.6488 5.19297 13.9279 5.05117 14.1642C4.90937 14.4004 4.68798 14.5784 4.42676 14.6661C4.36063 14.6762 4.29567 14.6929 4.23285 14.7159C3.94447 14.7642 3.64851 14.7009 3.40513 14.5388C3.16176 14.3767 2.98925 14.128 2.92267 13.8433C2.85181 13.5427 2.90306 13.2264 3.06516 12.9635C3.22727 12.7007 3.48701 12.5129 3.78739 12.4414Z" fill="currentColor"/>
</g>
<defs>
<clipPath id="clip0_1891_30167">
<rect width="24" height="24" fill="white" transform="translate(0.994141 0.0549316)"/>
</clipPath>
</defs>
</svg>
