<svg width="24" height="24" viewBox="0 0 24 24" fill="none" xmlns="http://www.w3.org/2000/svg">
<g clip-path="url(#clip0_1891_30198)">
<path d="M2.58643 10.6514C2.45725 10.6507 2.32922 10.6757 2.20984 10.725C2.09045 10.7744 1.9821 10.847 1.89113 10.9388C1.80017 11.0305 1.7284 11.1394 1.68004 11.2592C1.63167 11.379 1.60768 11.5072 1.60947 11.6364V21.4678C1.61018 21.9715 1.81061 22.4544 2.16682 22.8106C2.52303 23.1669 3.00596 23.3673 3.50971 23.368H20.4831C20.9869 23.3673 21.4698 23.1669 21.826 22.8106C22.1822 22.4544 22.3826 21.9715 22.3833 21.4678V11.6364C22.3833 11.3787 22.281 11.1316 22.0988 10.9494C21.9166 10.7672 21.6694 10.6648 21.4117 10.6648C21.1541 10.6648 20.9069 10.7672 20.7247 10.9494C20.5425 11.1316 20.4402 11.3787 20.4402 11.6364V21.4248H3.55803V11.6364C3.5598 11.5077 3.53599 11.3799 3.48795 11.2605C3.43992 11.141 3.36864 11.0323 3.27824 10.9407C3.18784 10.849 3.08013 10.7763 2.96137 10.7266C2.84261 10.6769 2.71516 10.6514 2.58643 10.6514Z" fill="currentColor"/>
<path d="M0.973401 9.67967C1.16438 9.68068 1.35131 9.62461 1.51019 9.51863L11.9777 2.58864L22.4988 9.39517C22.6059 9.4661 22.7261 9.51507 22.8523 9.53925C22.9785 9.56344 23.1082 9.56235 23.234 9.53606C23.3597 9.50977 23.479 9.45879 23.585 9.38608C23.6909 9.31336 23.7814 9.22036 23.8511 9.11246C23.9209 9.00455 23.9685 8.88388 23.9913 8.75743C24.0141 8.63098 24.0116 8.50126 23.9839 8.37579C23.9563 8.25032 23.904 8.13158 23.8301 8.02645C23.7562 7.92132 23.6623 7.83188 23.5536 7.76332L13.0029 0.932631C12.6973 0.732857 12.3401 0.626465 11.975 0.626465C11.6098 0.626465 11.2526 0.732857 10.947 0.932631L0.433925 7.89752C0.259606 8.01273 0.127074 8.18107 0.0559928 8.37756C-0.0150884 8.57405 -0.020931 8.78821 0.0393318 8.98829C0.0995945 9.18836 0.222752 9.36367 0.39053 9.48822C0.558307 9.61276 0.761766 9.6799 0.970717 9.67967H0.973401Z" fill="currentColor"/>
<path d="M6.60016 14.5511C7.45694 14.5511 8.15149 13.8566 8.15149 12.9998C8.15149 12.143 7.45694 11.4485 6.60016 11.4485C5.74338 11.4485 5.04883 12.143 5.04883 12.9998C5.04883 13.8566 5.74338 14.5511 6.60016 14.5511Z" fill="currentColor"/>
<path d="M12.0005 14.5538C12.308 14.5544 12.6087 14.4637 12.8646 14.2932C13.1206 14.1228 13.3202 13.8803 13.4382 13.5964C13.5562 13.3125 13.5874 12.9999 13.5277 12.6983C13.4681 12.3967 13.3203 12.1195 13.103 11.9019C12.8858 11.6843 12.6089 11.536 12.3074 11.4759C12.0059 11.4157 11.6933 11.4463 11.4092 11.5638C11.125 11.6814 10.8822 11.8806 10.7113 12.1362C10.5404 12.3918 10.4492 12.6923 10.4492 12.9998C10.4492 13.4115 10.6126 13.8064 10.9034 14.0977C11.1943 14.3891 11.5889 14.5531 12.0005 14.5538Z" fill="currentColor"/>
<path d="M17.4009 14.5538C17.7084 14.5544 18.0091 14.4637 18.265 14.2932C18.5209 14.1228 18.7205 13.8803 18.8386 13.5964C18.9566 13.3125 18.9878 12.9999 18.9281 12.6983C18.8684 12.3967 18.7207 12.1195 18.5034 11.9019C18.2862 11.6843 18.0093 11.536 17.7078 11.4759C17.4063 11.4157 17.0937 11.4463 16.8096 11.5638C16.5254 11.6814 16.2826 11.8806 16.1117 12.1362C15.9408 12.3918 15.8496 12.6923 15.8496 12.9998C15.8496 13.4115 16.013 13.8064 16.3038 14.0977C16.5947 14.3891 16.9893 14.5531 17.4009 14.5538Z" fill="currentColor"/>
<path d="M6.59894 19.2882C6.90565 19.2877 7.20532 19.1962 7.46008 19.0255C7.71484 18.8547 7.91326 18.6122 8.03026 18.3287C8.14727 18.0452 8.17761 17.7333 8.11745 17.4326C8.05729 17.1318 7.90933 16.8557 7.69226 16.639C7.4752 16.4223 7.19877 16.2748 6.89792 16.2152C6.59706 16.1555 6.28528 16.1864 6.00197 16.3039C5.71865 16.4214 5.47653 16.6202 5.30618 16.8753C5.13584 17.1303 5.04492 17.4302 5.04492 17.7369C5.04492 17.9408 5.08514 18.1428 5.16327 18.3312C5.2414 18.5196 5.35591 18.6907 5.50024 18.8348C5.64458 18.9789 5.81592 19.0931 6.00444 19.1709C6.19297 19.2487 6.39499 19.2886 6.59894 19.2882Z" fill="currentColor"/>
<path d="M12.0005 19.2882C12.3074 19.2882 12.6073 19.1972 12.8624 19.0268C13.1175 18.8563 13.3164 18.614 13.4338 18.3305C13.5512 18.0471 13.5819 17.7352 13.5221 17.4342C13.4622 17.1333 13.3145 16.8569 13.0975 16.6399C12.8805 16.423 12.6041 16.2752 12.3032 16.2154C12.0023 16.1555 11.6903 16.1862 11.4069 16.3036C11.1234 16.4211 10.8811 16.6199 10.7107 16.875C10.5402 17.1301 10.4492 17.4301 10.4492 17.7369C10.4492 18.1483 10.6127 18.5429 10.9036 18.8338C11.1945 19.1248 11.5891 19.2882 12.0005 19.2882Z" fill="currentColor"/>
<path d="M17.4009 19.2882C17.7078 19.2882 18.0077 19.1972 18.2628 19.0268C18.5179 18.8563 18.7168 18.614 18.8342 18.3305C18.9516 18.0471 18.9823 17.7352 18.9225 17.4342C18.8626 17.1333 18.7149 16.8569 18.4979 16.6399C18.2809 16.423 18.0045 16.2752 17.7036 16.2154C17.4027 16.1555 17.0907 16.1862 16.8073 16.3036C16.5238 16.4211 16.2815 16.6199 16.1111 16.875C15.9406 17.1301 15.8496 17.4301 15.8496 17.7369C15.8496 17.9406 15.8897 18.1423 15.9677 18.3305C16.0457 18.5188 16.1599 18.6898 16.304 18.8338C16.448 18.9779 16.6191 19.0922 16.8073 19.1701C16.9955 19.2481 17.1972 19.2882 17.4009 19.2882Z" fill="currentColor"/>
</g>
<defs>
<clipPath id="clip0_1891_30198">
<rect width="24" height="24" fill="white"/>
</clipPath>
</defs>
</svg>
