<?xml version="1.0" encoding="UTF-8" standalone="no"?>
<!DOCTYPE svg PUBLIC "-//W3C//DTD SVG 1.1//EN" "http://www.w3.org/Graphics/SVG/1.1/DTD/svg11.dtd">
<svg width="100%" height="100%" viewBox="0 0 24 24" version="1.1" xmlns="http://www.w3.org/2000/svg" xmlns:xlink="http://www.w3.org/1999/xlink" xml:space="preserve" xmlns:serif="http://www.serif.com/" style="fill-rule:evenodd;clip-rule:evenodd;stroke-linejoin:round;stroke-miterlimit:2;">
    <g transform="matrix(1,0,0,1,-55.8649,-83.1876)">
        <g id="write" transform="matrix(0.13395,0,0,0.149263,30.4002,58.1859)">
            <rect x="190.107" y="167.501" width="179.172" height="160.79" style="fill:none;"/>
            <g transform="matrix(0.238896,0,0,0.214386,279.693,247.896)">
                <g transform="matrix(1,0,0,1,-375,-375)">
                    <g>
                        <path d="M64.965,0L685.035,0C720.89,0 750,29.11 750,64.965L750,179.88L742.75,180.52C699.36,184.38 661.72,199.32 633.22,223.99L624.95,231.15L617.72,226.5C600.2,215.21 575.671,205.697 554.08,201.83C539.44,199.208 509.61,198.259 494.86,199.95C436.72,206.616 385.2,241.03 360.2,289.88C346.86,315.96 341.99,336.79 342.01,367.8C342.02,408.56 355.181,444.32 381.56,475.44C384.551,478.969 387,482.31 387,482.86C387,483.97 350.84,518.11 336.7,530.35C291.27,569.69 244.07,600.759 203.63,617.95C131.299,648.698 66.844,650.502 13.03,623.31C6.161,619.839 0,616.963 0,616.963L0,337.625C0,337.625 4.21,335.91 6.84,334.58C12.85,331.54 29.913,325.58 39.88,323.04C46.252,321.416 55.17,319.72 74.17,316.53L76.84,316.08L74.97,322.61C69.19,342.8 67.877,374.791 71.9,397.4C75.827,419.471 85.271,442.769 98.14,462.09C107.191,475.679 128.209,496.481 142.42,505.91C164.759,520.732 188.98,530.07 214,533.49C234.64,536.32 261.31,534.74 282.15,529.46C291.9,526.99 309.18,521.34 314.25,518.97L317,517.68L317,472.34C317,447.4 316.71,427 316.36,427C316.01,427 312.52,429.411 308.61,432.36C288.692,447.383 269.9,454.147 248,454.21C234.77,454.248 222.809,451.513 211.64,445.89C200.919,440.493 195.889,436.701 186.81,427.2C178.679,418.691 173.823,411.209 169.65,400.78C164.284,387.369 163.488,382.71 163.58,365C163.658,350.03 163.91,347.667 166.39,339.5C167.894,334.548 171.03,326.9 173.36,322.5L177.59,314.5L203.05,313.35C241.48,311.6 262.34,308.011 286.15,299.04C301.62,293.211 304.922,291.684 312.57,286.78C325.114,278.736 332.15,268.96 334.1,256.86C336.29,243.27 332.231,232.239 321.24,221.87C306.231,207.709 286.52,201.729 247.5,199.48C227.54,198.33 201.53,201.779 182.5,208.11C140.549,222.067 107.172,250.831 87.52,289.96C84.2,296.57 82.4,299.092 80.75,299.44C79.51,299.701 73.55,300.65 67.5,301.55C48.53,304.371 20.63,312.08 4.75,318.89L0,320.93L0,64.965C0,29.11 29.11,0 64.965,0ZM750,187.336L750,685.035C750,720.89 720.89,750 685.035,750L64.965,750C29.11,750 0,720.89 0,685.035L0,633.71L9.25,637.78C29.34,646.61 46.681,651.654 64.5,653.88C69.45,654.498 74.62,655.17 76,655.37C81.7,656.19 105.41,655.93 115.58,654.92C199.08,646.71 288.24,596.63 379.78,506.54C388.19,498.27 395.5,491.35 396.03,491.17C396.56,490.99 399.349,492.851 402.24,495.31C414.177,505.464 437.21,518.451 453.79,524.38C491.859,537.993 538.9,538.481 576.51,525.67C631.461,506.952 674.408,461.48 688.01,407.62C691.929,392.1 693,383.18 693,366C693,343.2 690.143,326.619 682.85,307.21C673.504,282.338 661.7,264.55 641.94,245.59L631.79,235.85L634.15,233.31C637.38,229.82 651.13,219.27 659,214.26C674.43,204.41 698.241,195.227 719,191.11C727.961,189.333 750,187.336 750,187.336ZM543.92,316.75C532.12,328.71 517.037,344.348 510.4,351.5C503.767,358.648 491.877,371.478 483.98,380C476.087,388.518 465.24,400.11 459.89,405.75C454.54,411.39 449.94,416 449.68,416C448.78,416 444.301,407.55 441.66,400.87C427.346,364.668 437.391,320.061 465.06,297.03C489.231,276.911 527.11,273.55 555.75,288.98C559.99,291.27 562.8,292.28 563.33,294C563.421,294.294 563.445,294.608 563.398,294.953C563.153,296.711 561.066,299.262 556.579,303.918C554.689,305.877 552.373,308.208 549.59,311.01C547.88,312.74 545.99,314.64 543.92,316.75ZM581.72,311.56C598.42,333.46 603.87,362.63 596.59,391.18C592.47,407.38 586.383,418.593 575.62,429.84C565.033,440.903 550.57,449.21 536.5,452.32C526.99,454.42 514.849,455.065 507,453.89C491.359,451.549 474.7,443.41 463.14,432.47L456.76,426.44L478.53,402.47C519.28,357.59 544.34,330.88 563.42,312.01C563.88,311.56 564.31,311.13 564.73,310.72C569.64,305.85 571.96,303.54 574.05,303.74C574.719,303.805 575.363,304.128 576.058,304.708C577.495,305.905 579.154,308.193 581.72,311.56ZM236.5,293.49C220.65,295.98 195,297.93 195,296.64C195,295.31 206.18,288.87 213.72,285.85C217.97,284.15 224.83,282.15 228.97,281.41C243.27,278.86 263.13,280.04 266.1,283.62C269.05,287.18 262.21,289.46 236.5,293.49Z" style="fill:rgb(7,7,7);"/>
                    </g>
                </g>
            </g>
        </g>
    </g>
</svg>
