<?xml version="1.0" encoding="UTF-8" standalone="no"?>
<!DOCTYPE svg PUBLIC "-//W3C//DTD SVG 1.1//EN" "http://www.w3.org/Graphics/SVG/1.1/DTD/svg11.dtd">
<svg width="100%" height="100%" viewBox="0 0 25 24" version="1.1" xmlns="http://www.w3.org/2000/svg" xmlns:xlink="http://www.w3.org/1999/xlink" xml:space="preserve" xmlns:serif="http://www.serif.com/" style="fill-rule:evenodd;clip-rule:evenodd;stroke-linejoin:round;stroke-miterlimit:2;">
    <g transform="matrix(1,0,0,1,-250.137,-163.88)">
        <g id="write" transform="matrix(0.133959,0,0,0.149263,224.671,138.878)">
            <rect x="190.107" y="167.501" width="179.172" height="160.79" style="fill:none;"/>
            <g id="noun-cylinder-1821875.svg" transform="matrix(6.00888e-16,-8.8071,9.81324,5.39279e-16,302.56,247.896)">
                <g transform="matrix(1,0,0,1,-9,-11.25)">
                    <clipPath id="_clip1">
                        <rect x="0" y="0" width="18" height="22.5"/>
                    </clipPath>
                    <g clip-path="url(#_clip1)">
                        <g transform="matrix(1,0,0,1,-281,-2481)">
                            <path d="M299,2484.5L299,2495.5C299,2497.58 294.961,2499 290,2499C285.039,2499 281,2497.58 281,2495.5L281,2484.5C281,2482.43 285.039,2481 290,2481C294.961,2481 299,2482.43 299,2484.5ZM282,2486.17L282,2495.5C282,2496.74 285.573,2498 290,2498C294.427,2498 298,2496.74 298,2495.5L298,2486.17C296.499,2487.3 293.457,2488 290,2488C286.543,2488 283.501,2487.3 282,2486.17ZM290,2487C294.427,2487 298,2485.74 298,2484.5C298,2483.26 294.427,2482 290,2482C285.573,2482 282,2483.26 282,2484.5C282,2485.74 285.573,2487 290,2487Z"/>
                        </g>
                    </g>
                </g>
            </g>
        </g>
    </g>
</svg>
