<?xml version="1.0" encoding="UTF-8" standalone="no"?>
<!DOCTYPE svg PUBLIC "-//W3C//DTD SVG 1.1//EN" "http://www.w3.org/Graphics/SVG/1.1/DTD/svg11.dtd">
<svg width="100%" height="100%" viewBox="0 0 24 24" version="1.1" xmlns="http://www.w3.org/2000/svg" xmlns:xlink="http://www.w3.org/1999/xlink" xml:space="preserve" xmlns:serif="http://www.serif.com/" style="fill-rule:evenodd;clip-rule:evenodd;stroke-linejoin:round;stroke-miterlimit:2;">
    <g transform="matrix(1,0,0,1,-304.996,-0.045357)">
        <g id="EAS" transform="matrix(0.13395,0,0,0.149263,279.531,-24.9564)">
            <rect x="190.107" y="167.501" width="179.172" height="160.79" style="fill:none;"/>
            <g transform="matrix(12.7424,0,0,6.69957,-3806.72,167.197)">
                <path d="M321.718,0.045L326.056,21.73C326.059,21.909 326.063,23.276 326.063,24.045L315.363,24.045L315.373,21.76L319.688,0.045L321.718,0.045Z" style="fill:rgb(77,99,182);"/>
            </g>
            <g transform="matrix(8.11939,0,0,4.2668,-2324.17,201.964)">
                <path d="M321.718,0.045L326.039,21.723C326.053,22.558 326.048,23.263 326.063,24.045L315.363,24.045L315.373,21.76L319.688,0.045L321.718,0.045Z" style="fill:rgb(123,147,219);"/>
            </g>
            <g transform="matrix(3.74528,0,0,1.95729,-921.249,236.363)">
                <path d="M321.718,0.045L326.039,21.723C326.053,22.558 326.048,23.263 326.063,24.045L315.363,24.045L315.373,21.76L319.688,0.045L321.718,0.045Z" style="fill:rgb(190,208,247);"/>
            </g>
        </g>
    </g>
</svg>
