<svg width="24" height="24" viewBox="0 0 25 25" fill="none" xmlns="http://www.w3.org/2000/svg">
<g clip-path="url(#clip0_1891_30193)">
<path d="M13.53 19.8865C13.7208 19.887 13.9075 19.8329 14.0672 19.731C14.2269 19.6291 14.3525 19.4837 14.4286 19.3129L15.0214 17.9913C15.2734 17.423 15.3856 16.8049 15.3489 16.1866C15.3122 15.5684 15.1278 14.9671 14.8103 14.431L14.5721 14.0345L14.6614 13.8389L15.0133 13.7702C15.6527 13.648 16.2523 13.3761 16.7605 12.9779C17.2687 12.5797 17.6704 12.067 17.9311 11.4838L18.4426 10.3473C18.5413 10.1118 18.5413 9.84791 18.4426 9.61245C18.3961 9.49517 18.3262 9.38806 18.237 9.29732C18.1478 9.20658 18.041 9.13402 17.9229 9.08382L12.8615 6.9217C12.7435 6.87091 12.6165 6.84341 12.4876 6.84078C12.3587 6.83816 12.2306 6.86046 12.1106 6.9064C11.9906 6.95235 11.8811 7.02102 11.7883 7.10848C11.6956 7.19594 11.6216 7.30044 11.5704 7.41597L11.0615 8.55254C10.8012 9.13613 10.6899 9.77269 10.737 10.4076C10.7842 11.0424 10.9884 11.6567 11.3322 12.1975L11.5217 12.5014L11.4351 12.6944L10.9749 12.7948C10.3557 12.9295 9.77759 13.2048 9.28759 13.5983C8.79759 13.9919 8.40943 14.4927 8.15458 15.06L7.56182 16.3816C7.45827 16.6144 7.45339 16.8778 7.54825 17.1141C7.64311 17.3504 7.82999 17.5404 8.06797 17.6424L13.1294 19.8045C13.2558 19.8583 13.3922 19.8861 13.53 19.8865ZM12.8723 9.31377L12.9914 9.04945L16.2556 10.4424L16.1392 10.7067C16.0048 11.0064 15.7978 11.2698 15.5362 11.4742C15.2745 11.6786 14.966 11.818 14.637 11.8803L13.779 12.0442C13.7053 12.0591 13.6336 12.0821 13.5652 12.1129C13.5403 12.044 13.5086 11.9776 13.4705 11.9147L13.0076 11.1851C12.8346 10.9076 12.732 10.5936 12.7084 10.2695C12.6849 9.9453 12.7411 9.62034 12.8723 9.3217V9.31377ZM9.75963 16.2653L9.95993 15.8213C10.0908 15.53 10.2901 15.2728 10.5417 15.0708C10.7932 14.8687 11.09 14.7274 11.408 14.6583L12.3553 14.4521C12.4206 14.4386 12.4841 14.4183 12.5448 14.3913C12.5666 14.4538 12.5947 14.514 12.6287 14.571L13.1186 15.3957C13.2822 15.671 13.3773 15.9799 13.3961 16.2976C13.4149 16.6154 13.3569 16.933 13.2269 17.2248L13.0266 17.6636L9.75963 16.2653Z" fill="currentColor"/>
<path d="M12.4166 2.68998H12.4869C12.978 2.65562 13.471 2.65562 13.9621 2.68998C14.2219 2.7082 14.4786 2.62487 14.6755 2.45832C14.8725 2.29177 14.9936 2.05564 15.0123 1.80187C15.0309 1.5481 14.9456 1.29749 14.775 1.10516C14.6045 0.912834 14.3627 0.794545 14.1028 0.776319C13.5189 0.73667 12.9328 0.73667 12.3489 0.776319C12.089 0.785082 11.8434 0.894294 11.666 1.07993C11.4886 1.26557 11.394 1.51242 11.4029 1.76619C11.4119 2.01995 11.5237 2.25985 11.7138 2.43309C11.9039 2.60633 12.1567 2.69874 12.4166 2.68998Z" fill="currentColor"/>
<path d="M8.16444 3.83183C8.31659 3.83196 8.46669 3.79757 8.60292 3.73139C8.82216 3.62302 9.04952 3.52258 9.27688 3.43007C9.50424 3.33756 9.7343 3.25298 9.96437 3.16575C10.0865 3.12601 10.1993 3.06317 10.2966 2.98082C10.3938 2.89848 10.4735 2.79824 10.531 2.68582C10.5886 2.57341 10.6229 2.45103 10.632 2.32567C10.6411 2.2003 10.6249 2.07441 10.5842 1.95518C10.5435 1.83595 10.4791 1.72571 10.3948 1.63077C10.3105 1.53582 10.2079 1.45802 10.0927 1.40182C9.97763 1.34561 9.8523 1.3121 9.72393 1.30319C9.59555 1.29428 9.46664 1.31015 9.34454 1.34989C9.07388 1.43976 8.80321 1.5402 8.53254 1.64857C8.26188 1.75694 7.99121 1.87588 7.72054 2.0054C7.52278 2.10164 7.36413 2.26033 7.27035 2.45571C7.17658 2.6511 7.15318 2.87169 7.20396 3.0817C7.25475 3.2917 7.37673 3.47877 7.5501 3.61255C7.72347 3.74632 7.93806 3.81894 8.15902 3.81862L8.16444 3.83183Z" fill="currentColor"/>
<path d="M4.6783 6.47513C4.81905 6.4758 4.95826 6.4466 5.08631 6.38955C5.21436 6.3325 5.32819 6.24897 5.41993 6.14474C5.58233 5.965 5.75285 5.78526 5.92608 5.6161C6.0993 5.44694 6.28065 5.28306 6.46741 5.12712C6.66374 4.96062 6.78431 4.72479 6.80258 4.47149C6.82085 4.21819 6.73534 3.96818 6.56485 3.77645C6.39436 3.58473 6.15286 3.46699 5.89348 3.44915C5.63409 3.4313 5.37808 3.51481 5.18174 3.6813C4.9625 3.86632 4.74868 4.06192 4.54297 4.2628C4.33726 4.46368 4.13426 4.67513 3.94209 4.89187C3.81717 5.02996 3.73587 5.20041 3.70799 5.38264C3.68011 5.56486 3.70686 5.75108 3.785 5.91878C3.86314 6.08649 3.98933 6.22852 4.14833 6.32771C4.30733 6.42691 4.49234 6.47903 4.68101 6.47778L4.6783 6.47513Z" fill="currentColor"/>
<path d="M2.23534 7.37907C2.10812 7.6196 1.98632 7.88392 1.87535 8.14824C1.76438 8.41255 1.65882 8.67687 1.56679 8.94119C1.52565 9.06058 1.50906 9.18673 1.51796 9.3124C1.52687 9.43807 1.5611 9.56079 1.61868 9.67351C1.67627 9.78623 1.75609 9.88673 1.85355 9.96926C1.95101 10.0518 2.0642 10.1147 2.18662 10.1544C2.28641 10.1854 2.39045 10.2015 2.49518 10.202C2.70115 10.2018 2.90186 10.1384 3.06894 10.0208C3.23602 9.90318 3.36102 9.73725 3.42627 9.54647C3.50476 9.32181 3.59138 9.09449 3.69694 8.86982C3.8025 8.64515 3.89452 8.42577 4.00279 8.21696C4.10658 7.99105 4.11691 7.7347 4.03163 7.50151C3.94635 7.26833 3.77206 7.07637 3.54521 6.96578C3.31835 6.85518 3.05649 6.83451 2.81439 6.90809C2.57229 6.98166 2.36869 7.14379 2.24616 7.36057L2.23534 7.37907Z" fill="currentColor"/>
<path d="M0.969226 11.8963C0.939453 12.1791 0.939453 12.4646 0.939453 12.7474C0.939453 13.0302 0.939453 13.3236 0.969226 13.6064C0.988281 13.847 1.09941 14.0716 1.28049 14.2357C1.46157 14.3998 1.6993 14.4913 1.94633 14.4919H2.02212C2.28146 14.4736 2.5228 14.3557 2.69327 14.164C2.86374 13.9722 2.94942 13.7223 2.93156 13.469C2.91532 13.2311 2.90449 12.9879 2.90449 12.7448C2.90449 12.5016 2.90449 12.2637 2.93156 12.0258C2.94951 11.7724 2.86363 11.5224 2.69282 11.3308C2.52202 11.1392 2.28027 11.0218 2.02077 11.0042C1.76126 10.9867 1.50526 11.0706 1.30907 11.2374C1.11288 11.4042 0.992586 11.6402 0.97464 11.8937L0.969226 11.8963Z" fill="currentColor"/>
<path d="M1.87554 17.3386C1.98651 17.6029 2.10831 17.8672 2.24094 18.1316C2.29852 18.244 2.37822 18.3443 2.47549 18.4267C2.57276 18.5091 2.6857 18.5719 2.80785 18.6117C2.93 18.6515 3.05897 18.6673 3.1874 18.6584C3.31584 18.6495 3.44121 18.616 3.55638 18.5598C3.67154 18.5035 3.77424 18.4257 3.8586 18.3307C3.94296 18.2357 4.00734 18.1254 4.04805 18.0061C4.08877 17.8869 4.10503 17.7609 4.0959 17.6355C4.08677 17.5101 4.05244 17.3876 3.99486 17.2752C3.88479 17.0602 3.78193 16.8408 3.6863 16.617C3.59156 16.3976 3.50495 16.1703 3.41563 15.9457C3.33344 15.7049 3.15666 15.5058 2.92418 15.3923C2.6917 15.2788 2.42256 15.2601 2.17598 15.3404C1.9294 15.4206 1.72556 15.5933 1.60932 15.8203C1.49308 16.0473 1.47396 16.3101 1.55615 16.5509C1.66171 16.81 1.76457 17.0796 1.87554 17.3386Z" fill="currentColor"/>
<path d="M4.53875 21.2319C4.74445 21.4354 4.96099 21.631 5.18293 21.8187C5.36015 21.971 5.58834 22.0546 5.82441 22.0539C6.02441 22.0541 6.21969 21.9946 6.38402 21.8833C6.54835 21.772 6.67386 21.6142 6.7437 21.4312C6.81354 21.2482 6.82435 21.0487 6.77469 20.8595C6.72503 20.6703 6.61727 20.5005 6.46589 20.3728C6.28184 20.2143 6.09779 20.0504 5.92456 19.8786C5.75133 19.7068 5.58352 19.5323 5.42383 19.3499C5.33941 19.255 5.23667 19.1772 5.12147 19.1211C5.00628 19.0649 4.88089 19.0315 4.75245 19.0226C4.62402 19.0138 4.49506 19.0297 4.37294 19.0696C4.25082 19.1094 4.13793 19.1723 4.04072 19.2548C3.94351 19.3372 3.86387 19.4376 3.80636 19.55C3.74885 19.6625 3.7146 19.785 3.70555 19.9104C3.6965 20.0358 3.71284 20.1618 3.75363 20.281C3.79442 20.4003 3.85886 20.5105 3.94328 20.6054C4.13275 20.8354 4.33304 21.031 4.53875 21.2319Z" fill="currentColor"/>
<path d="M7.72954 23.4785C7.98667 23.6027 8.25463 23.7217 8.5253 23.8301C8.79597 23.9384 9.06663 24.0415 9.3373 24.1314C9.43751 24.1648 9.54269 24.1817 9.64857 24.1816C9.88195 24.1824 10.108 24.1018 10.2859 23.9544C10.4639 23.8069 10.5821 23.6023 10.6193 23.3773C10.6565 23.1523 10.6102 22.9217 10.4889 22.7271C10.3675 22.5324 10.1789 22.3865 9.95713 22.3155C9.72706 22.2389 9.49429 22.1543 9.26422 22.0512C9.03415 21.9481 8.81221 21.8583 8.59567 21.7552C8.36165 21.643 8.09159 21.6262 7.8449 21.7085C7.59821 21.7908 7.39509 21.9654 7.28023 22.1939C7.16538 22.4225 7.14819 22.6862 7.23245 22.9271C7.31671 23.168 7.49552 23.3664 7.72954 23.4785Z" fill="currentColor"/>
<path d="M12.3533 24.7183C12.6429 24.7368 12.9379 24.7474 13.2275 24.7474C13.5171 24.7474 13.8149 24.7474 14.1072 24.7183C14.2357 24.7095 14.3611 24.676 14.4764 24.6198C14.5916 24.5636 14.6944 24.4858 14.7789 24.3908C14.8633 24.2958 14.9278 24.1855 14.9686 24.0662C15.0094 23.9469 15.0257 23.8209 15.0166 23.6954C15.0076 23.5699 14.9733 23.4474 14.9157 23.3349C14.8582 23.2223 14.7785 23.122 14.6812 23.0395C14.584 22.957 14.471 22.8941 14.3489 22.8542C14.2267 22.8144 14.0976 22.7985 13.9692 22.8073C13.4772 22.8417 12.9833 22.8417 12.4913 22.8073C12.3628 22.7985 12.2338 22.8144 12.1116 22.8542C11.9894 22.8941 11.8765 22.957 11.7792 23.0395C11.682 23.122 11.6023 23.2223 11.5447 23.3349C11.4872 23.4474 11.4529 23.5699 11.4438 23.6954C11.4348 23.8209 11.4511 23.9469 11.4919 24.0662C11.5327 24.1855 11.5972 24.2958 11.6816 24.3908C11.7661 24.4858 11.8688 24.5636 11.9841 24.6198C12.0993 24.676 12.2248 24.7095 12.3533 24.7183Z" fill="currentColor"/>
<path d="M17.8526 21.7632C17.6324 21.8707 17.4078 21.9711 17.1786 22.0645C16.954 22.157 16.7212 22.2416 16.4911 22.3156C16.2693 22.3866 16.0808 22.5325 15.9594 22.7272C15.838 22.9218 15.7917 23.1524 15.8289 23.3774C15.8661 23.6024 15.9844 23.807 16.1623 23.9545C16.3403 24.1019 16.5663 24.1825 16.7997 24.1817C16.9056 24.1818 17.0107 24.1648 17.1109 24.1315C17.3816 24.0416 17.6523 23.9412 17.9229 23.8328C18.1936 23.7244 18.4643 23.6055 18.7349 23.476C18.8501 23.4197 18.9528 23.3419 19.0372 23.2469C19.1215 23.1519 19.1859 23.0416 19.2266 22.9224C19.2673 22.8031 19.2836 22.6771 19.2745 22.5517C19.2653 22.4263 19.231 22.3038 19.1734 22.1914C19.1158 22.0789 19.0361 21.9786 18.9389 21.8963C18.8416 21.8139 18.7287 21.751 18.6065 21.7112C18.4844 21.6715 18.3554 21.6556 18.227 21.6645C18.0985 21.6734 17.9731 21.707 17.858 21.7632H17.8526Z" fill="currentColor"/>
<path d="M22.4205 19.2495C22.3231 19.1671 22.2101 19.1043 22.0879 19.0647C21.9656 19.025 21.8366 19.0093 21.7082 19.0184C21.5797 19.0275 21.4543 19.0612 21.3392 19.1176C21.2241 19.1741 21.1215 19.2521 21.0374 19.3473C20.875 19.527 20.7071 19.7068 20.5312 19.8759C20.3553 20.0451 20.1766 20.2116 19.9899 20.3649C19.8383 20.4927 19.7305 20.6628 19.6809 20.8522C19.6313 21.0416 19.6424 21.2414 19.7125 21.4245C19.7827 21.6076 19.9087 21.7654 20.0734 21.8765C20.2382 21.9876 20.4338 22.0468 20.6341 22.046C20.8701 22.0467 21.0983 21.963 21.2755 21.8107C21.4921 21.6284 21.7086 21.4328 21.9143 21.2292C22.12 21.0257 22.323 20.8169 22.5152 20.6002C22.5999 20.5054 22.6646 20.3953 22.7056 20.2762C22.7467 20.157 22.7633 20.0311 22.7545 19.9057C22.7457 19.7802 22.7117 19.6577 22.6543 19.5451C22.597 19.4325 22.5176 19.3321 22.4205 19.2495Z" fill="currentColor"/>
<path d="M23.3402 18.6468C23.5226 18.6468 23.7014 18.5974 23.8567 18.5041C24.012 18.4107 24.1377 18.2771 24.2199 18.1182C24.3471 17.8671 24.4689 17.6054 24.5799 17.3437C24.6909 17.082 24.7964 16.8151 24.8884 16.5375C24.9293 16.4183 24.9457 16.2924 24.9368 16.167C24.9278 16.0415 24.8937 15.9191 24.8362 15.8065C24.7788 15.694 24.6992 15.5936 24.6021 15.5111C24.5049 15.4286 24.3921 15.3656 24.27 15.3257C24.1479 15.2857 24.0189 15.2697 23.8905 15.2784C23.762 15.2872 23.6366 15.3206 23.5214 15.3766C23.4061 15.4327 23.3033 15.5104 23.2189 15.6053C23.1344 15.7002 23.0698 15.8104 23.029 15.9296C22.9505 16.1596 22.8639 16.3895 22.7583 16.6089C22.6527 16.8283 22.5607 17.0503 22.4552 17.2618C22.3814 17.4078 22.3468 17.5696 22.3546 17.7323C22.3624 17.8949 22.4123 18.0529 22.4996 18.1915C22.587 18.3302 22.7089 18.4449 22.854 18.525C22.9992 18.6051 23.1627 18.6479 23.3294 18.6494L23.3402 18.6468Z" fill="currentColor"/>
<path d="M18.7248 2.01343C18.4541 1.8892 18.197 1.77026 17.9317 1.66189C17.6665 1.55352 17.3904 1.45043 17.1062 1.36057C16.8596 1.27995 16.5903 1.29829 16.3576 1.41156C16.1249 1.52482 15.9477 1.72373 15.8652 1.96453C15.7826 2.20533 15.8014 2.46829 15.9174 2.69556C16.0334 2.92284 16.2371 3.09581 16.4836 3.17643C16.7191 3.25308 16.9546 3.33766 17.1793 3.44074C17.4039 3.54383 17.6313 3.63105 17.8505 3.73942C17.9862 3.80442 18.1351 3.83875 18.2863 3.83986C18.5069 3.83887 18.7207 3.76541 18.8934 3.63131C19.066 3.49721 19.1874 3.31028 19.238 3.10061C19.2887 2.89094 19.2656 2.67074 19.1725 2.47544C19.0794 2.28015 18.9217 2.12114 18.7248 2.024V2.01343Z" fill="currentColor"/>
<path d="M17.9923 6.06017C17.978 6.18594 17.9895 6.31322 18.026 6.43464C18.0624 6.55607 18.1232 6.66922 18.2048 6.76755C18.2863 6.86588 18.387 6.94743 18.5011 7.00749C18.6152 7.06755 18.7403 7.10492 18.8692 7.11743L22.7208 7.49012H22.8182C22.9685 7.48976 23.1167 7.45575 23.2514 7.39069C23.3861 7.32563 23.5038 7.23126 23.5953 7.11485C23.6868 6.99843 23.7497 6.86307 23.7792 6.71918C23.8087 6.57528 23.8041 6.42669 23.7656 6.28484L22.7912 2.70334C22.7241 2.45798 22.5599 2.24872 22.3348 2.12157C22.1096 1.99443 21.842 1.95982 21.5908 2.02536C21.3395 2.09091 21.1252 2.25124 20.995 2.47107C20.8648 2.69091 20.8294 2.95226 20.8965 3.19761L21.4378 5.15356L21.5109 5.43902L19.0749 5.20113C18.9459 5.18688 18.8152 5.19789 18.6905 5.23353C18.5659 5.26918 18.4497 5.32873 18.3489 5.40872C18.2481 5.4887 18.1647 5.58751 18.1034 5.69937C18.0422 5.81122 18.0044 5.93388 17.9923 6.06017Z" fill="currentColor"/>
</g>
<defs>
<clipPath id="clip0_1891_30193">
<rect width="24" height="24" fill="white" transform="translate(0.939453 0.747314)"/>
</clipPath>
</defs>
</svg>
