<svg width="24" height="24" viewBox="0 0 24 24" fill="none" xmlns="http://www.w3.org/2000/svg">
<g clip-path="url(#clip0_1891_30193)">
<path d="M12.5906 19.1391C12.7813 19.1396 12.9681 19.0856 13.1278 18.9837C13.2874 18.8817 13.4131 18.7364 13.4892 18.5656L14.0819 17.244C14.3339 16.6757 14.4461 16.0576 14.4094 15.4393C14.3728 14.821 14.1883 14.2198 13.8708 13.6836L13.6326 13.2872L13.722 13.0916L14.0738 13.0228C14.7133 12.9007 15.3128 12.6288 15.821 12.2306C16.3292 11.8323 16.7309 11.3197 16.9916 10.7365L17.5032 9.59994C17.6018 9.36448 17.6018 9.10059 17.5032 8.86514C17.4566 8.74785 17.3867 8.64074 17.2975 8.55001C17.2083 8.45927 17.1016 8.3867 16.9835 8.3365L11.922 6.17439C11.8041 6.1236 11.677 6.09609 11.5481 6.09347C11.4193 6.09084 11.2911 6.11315 11.1711 6.15909C11.0511 6.20503 10.9416 6.27371 10.8489 6.36117C10.7562 6.44862 10.6821 6.55313 10.6309 6.66866L10.1221 7.80522C9.86179 8.38881 9.75044 9.02538 9.79758 9.66025C9.84473 10.2951 10.049 10.9093 10.3928 11.4502L10.5822 11.7541L10.4956 11.9471L10.0355 12.0475C9.4162 12.1822 8.83814 12.4575 8.34814 12.851C7.85813 13.2446 7.46998 13.7453 7.21513 14.3127L6.62237 15.6343C6.51881 15.8671 6.51393 16.1305 6.6088 16.3668C6.70366 16.6031 6.89054 16.793 7.12852 16.8951L12.19 19.0572C12.3164 19.1109 12.4527 19.1388 12.5906 19.1391ZM11.9328 8.56646L12.0519 8.30214L15.3162 9.69509L15.1998 9.95941C15.0653 10.2591 14.8584 10.5225 14.5967 10.7269C14.3351 10.9313 14.0265 11.0707 13.6976 11.133L12.8396 11.2969C12.7659 11.3118 12.6941 11.3348 12.6258 11.3656C12.6008 11.2967 12.5691 11.2303 12.531 11.1673L12.0682 10.4378C11.8951 10.1603 11.7925 9.8463 11.769 9.52214C11.7454 9.19798 11.8016 8.87303 11.9328 8.57439V8.56646ZM8.82018 15.518L9.02048 15.0739C9.15132 14.7826 9.35061 14.5255 9.6022 14.3235C9.85379 14.1214 10.1506 13.9801 10.4685 13.911L11.4159 13.7048C11.4811 13.6913 11.5446 13.6709 11.6053 13.644C11.6271 13.7065 11.6552 13.7667 11.6892 13.8237L12.1792 14.6484C12.3428 14.9236 12.4378 15.2326 12.4566 15.5503C12.4754 15.8681 12.4175 16.1856 12.2874 16.4775L12.0871 16.9162L8.82018 15.518Z" fill="currentColor"/>
<path d="M11.4771 1.94266H11.5475C12.0386 1.9083 12.5315 1.9083 13.0226 1.94266C13.2825 1.96089 13.5391 1.87756 13.7361 1.71101C13.933 1.54445 14.0542 1.30832 14.0728 1.05456C14.0915 0.800789 14.0061 0.550175 13.8356 0.357847C13.665 0.165519 13.4232 0.047231 13.1634 0.0290047C12.5794 -0.0106448 11.9934 -0.0106448 11.4095 0.0290047C11.1496 0.0377674 10.9039 0.14698 10.7265 0.332616C10.5491 0.518252 10.4545 0.765106 10.4635 1.01887C10.4724 1.27264 10.5843 1.51253 10.7744 1.68577C10.9645 1.85902 11.2173 1.95142 11.4771 1.94266Z" fill="currentColor"/>
<path d="M7.22498 3.08452C7.37714 3.08464 7.52724 3.05026 7.66346 2.98408C7.8827 2.87571 8.11006 2.77527 8.33742 2.68276C8.56478 2.59024 8.79485 2.50566 9.02492 2.41844C9.14701 2.37869 9.25989 2.31586 9.35712 2.23351C9.45435 2.15116 9.53401 2.05092 9.59157 1.93851C9.64913 1.8261 9.68344 1.70372 9.69257 1.57835C9.70169 1.45299 9.68544 1.3271 9.64474 1.20787C9.60404 1.08863 9.5397 0.978399 9.45537 0.883453C9.37105 0.788507 9.2684 0.71071 9.15329 0.654504C9.03817 0.598298 8.91285 0.564784 8.78448 0.555875C8.6561 0.546965 8.52718 0.562835 8.40509 0.602579C8.13442 0.692447 7.86376 0.792887 7.59309 0.901258C7.32242 1.00963 7.05176 1.12857 6.78109 1.25809C6.58332 1.35432 6.42467 1.51302 6.3309 1.7084C6.23712 1.90378 6.21373 2.12438 6.26451 2.33438C6.31529 2.54438 6.43727 2.73146 6.61065 2.86523C6.78402 2.99901 6.99861 3.07163 7.21957 3.0713L7.22498 3.08452Z" fill="currentColor"/>
<path d="M3.73885 5.72782C3.87959 5.72848 4.01881 5.69928 4.14686 5.64224C4.27491 5.58519 4.38874 5.50166 4.48048 5.39742C4.64288 5.21769 4.8134 5.03795 4.98662 4.86879C5.15985 4.69962 5.3412 4.53575 5.52796 4.3798C5.72429 4.21331 5.84485 3.97748 5.86313 3.72418C5.8814 3.47088 5.79589 3.22087 5.6254 3.02914C5.45491 2.83741 5.21341 2.71968 4.95402 2.70183C4.69464 2.68399 4.43862 2.7675 4.24229 2.93399C4.02305 3.11901 3.80922 3.3146 3.60352 3.51548C3.39781 3.71636 3.19481 3.92782 3.00264 4.14456C2.87772 4.28264 2.79641 4.45309 2.76854 4.63532C2.74066 4.81755 2.76741 5.00376 2.84555 5.17147C2.92369 5.33918 3.04988 5.48121 3.20888 5.5804C3.36788 5.67959 3.55288 5.73171 3.74156 5.73046L3.73885 5.72782Z" fill="currentColor"/>
<path d="M1.29588 6.63176C1.16867 6.87229 1.04687 7.13661 0.935898 7.40092C0.824924 7.66524 0.719364 7.92956 0.627338 8.19387C0.586198 8.31327 0.569604 8.43942 0.57851 8.56508C0.587415 8.69075 0.621644 8.81347 0.679232 8.92619C0.73682 9.03891 0.816634 9.13942 0.914094 9.22194C1.01155 9.30447 1.12474 9.36739 1.24716 9.40709C1.34696 9.43812 1.451 9.45416 1.55572 9.45467C1.7617 9.4545 1.96241 9.39112 2.12948 9.2735C2.29656 9.15587 2.42156 8.98994 2.48682 8.79916C2.56531 8.57449 2.65192 8.34718 2.75748 8.12251C2.86304 7.89784 2.95507 7.67846 3.06334 7.46965C3.16712 7.24373 3.17746 6.98738 3.09218 6.7542C3.0069 6.52102 2.83261 6.32906 2.60575 6.21846C2.3789 6.10787 2.11704 6.08719 1.87494 6.16077C1.63284 6.23435 1.42924 6.39648 1.30671 6.61326L1.29588 6.63176Z" fill="currentColor"/>
<path d="M0.0297733 11.149C0 11.4318 0 11.7173 0 12.0001C0 12.2829 0 12.5763 0.0297733 12.8591C0.0488274 13.0996 0.159961 13.3243 0.341039 13.4884C0.522116 13.6525 0.759848 13.744 1.00688 13.7446H1.08267C1.34201 13.7263 1.58335 13.6084 1.75382 13.4166C1.92428 13.2249 2.00997 12.975 1.99211 12.7217C1.97587 12.4838 1.96504 12.2406 1.96504 11.9975C1.96504 11.7543 1.96504 11.5164 1.99211 11.2785C2.01005 11.0251 1.92418 10.7751 1.75337 10.5835C1.58256 10.3919 1.34082 10.2744 1.08131 10.2569C0.821809 10.2394 0.565805 10.3233 0.369618 10.4901C0.173432 10.6569 0.053133 10.8929 0.0351866 11.1463L0.0297733 11.149Z" fill="currentColor"/>
<path d="M0.936086 16.5913C1.04706 16.8556 1.16886 17.1199 1.30149 17.3842C1.35907 17.4967 1.43877 17.597 1.53604 17.6794C1.63331 17.7618 1.74624 17.8246 1.86839 17.8644C1.99054 17.9042 2.11952 17.92 2.24795 17.9111C2.37638 17.9022 2.50176 17.8687 2.61692 17.8124C2.73209 17.7562 2.83478 17.6784 2.91915 17.5834C3.00351 17.4884 3.06788 17.3781 3.1086 17.2588C3.14932 17.1395 3.16558 17.0136 3.15645 16.8882C3.14732 16.7628 3.11299 16.6403 3.0554 16.5279C2.94533 16.3129 2.84248 16.0935 2.74684 15.8697C2.65211 15.6503 2.5655 15.423 2.47618 15.1983C2.39398 14.9575 2.2172 14.7585 1.98472 14.645C1.75224 14.5315 1.48311 14.5128 1.23653 14.5931C0.989943 14.6733 0.786112 14.846 0.669872 15.073C0.553632 15.3 0.534505 15.5628 0.616699 15.8036C0.722259 16.0627 0.825112 16.3323 0.936086 16.5913Z" fill="currentColor"/>
<path d="M3.59929 20.4846C3.805 20.6881 4.02153 20.8837 4.24348 21.0713C4.4207 21.2237 4.64888 21.3073 4.88496 21.3066C5.08496 21.3068 5.28023 21.2473 5.44457 21.136C5.6089 21.0246 5.73441 20.8669 5.80425 20.6839C5.87408 20.5009 5.8849 20.3014 5.83523 20.1122C5.78557 19.923 5.67782 19.7532 5.52644 19.6255C5.34239 19.4669 5.15833 19.3031 4.98511 19.1313C4.81188 18.9595 4.64407 18.785 4.48437 18.6026C4.39995 18.5077 4.29722 18.4299 4.18202 18.3738C4.06683 18.3176 3.94143 18.2842 3.813 18.2753C3.68457 18.2665 3.55561 18.2824 3.43349 18.3223C3.31137 18.3621 3.19848 18.425 3.10127 18.5075C3.00405 18.5899 2.92442 18.6902 2.86691 18.8027C2.8094 18.9152 2.77514 19.0377 2.7661 19.1631C2.75705 19.2885 2.77338 19.4144 2.81417 19.5337C2.85496 19.653 2.91941 19.7632 3.00383 19.8581C3.19329 20.0881 3.39359 20.2837 3.59929 20.4846Z" fill="currentColor"/>
<path d="M6.79009 22.7312C7.04722 22.8554 7.31518 22.9744 7.58585 23.0827C7.85651 23.1911 8.12718 23.2942 8.39785 23.3841C8.49806 23.4174 8.60323 23.4344 8.70911 23.4343C8.94249 23.4351 9.16851 23.3545 9.34647 23.2071C9.52443 23.0596 9.64265 22.855 9.67985 22.63C9.71706 22.405 9.6708 22.1744 9.5494 21.9798C9.42801 21.7851 9.23945 21.6392 9.01767 21.5682C8.78761 21.4916 8.55483 21.407 8.32477 21.3039C8.0947 21.2008 7.87275 21.1109 7.65622 21.0079C7.4222 20.8957 7.15214 20.8789 6.90545 20.9612C6.65875 21.0435 6.45564 21.2181 6.34078 21.4466C6.22592 21.6752 6.20874 21.9389 6.293 22.1798C6.37726 22.4207 6.55607 22.619 6.79009 22.7312Z" fill="currentColor"/>
<path d="M11.4138 23.971C11.7034 23.9895 11.9985 24.0001 12.2881 24.0001C12.5777 24.0001 12.8754 24.0001 13.1677 23.971C13.2962 23.9622 13.4217 23.9287 13.5369 23.8725C13.6522 23.8163 13.755 23.7385 13.8394 23.6435C13.9239 23.5485 13.9883 23.4382 14.0291 23.3189C14.0699 23.1996 14.0862 23.0736 14.0772 22.9481C14.0681 22.8226 14.0338 22.7001 13.9763 22.5876C13.9187 22.475 13.8391 22.3747 13.7418 22.2922C13.6445 22.2097 13.5316 22.1468 13.4094 22.1069C13.2872 22.0671 13.1582 22.0511 13.0297 22.06C12.5377 22.0944 12.0438 22.0944 11.5519 22.06C11.4234 22.0511 11.2943 22.0671 11.1722 22.1069C11.05 22.1468 10.937 22.2097 10.8398 22.2922C10.7425 22.3747 10.6628 22.475 10.6053 22.5876C10.5477 22.7001 10.5134 22.8226 10.5044 22.9481C10.4953 23.0736 10.5117 23.1996 10.5525 23.3189C10.5933 23.4382 10.6577 23.5485 10.7422 23.6435C10.8266 23.7385 10.9294 23.8163 11.0446 23.8725C11.1599 23.9287 11.2853 23.9622 11.4138 23.971Z" fill="currentColor"/>
<path d="M16.9131 21.0159C16.693 21.1234 16.4683 21.2238 16.2392 21.3172C16.0145 21.4097 15.7817 21.4943 15.5517 21.5683C15.3299 21.6393 15.1413 21.7852 15.0199 21.9799C14.8985 22.1745 14.8523 22.4051 14.8895 22.6301C14.9267 22.8551 15.0449 23.0597 15.2229 23.2072C15.4008 23.3546 15.6268 23.4352 15.8602 23.4344C15.9661 23.4345 16.0713 23.4175 16.1715 23.3842C16.4422 23.2943 16.7128 23.1939 16.9835 23.0855C17.2542 22.9771 17.5248 22.8582 17.7955 22.7287C17.9107 22.6724 18.0133 22.5946 18.0977 22.4996C18.1821 22.4046 18.2464 22.2943 18.2872 22.175C18.3279 22.0558 18.3441 21.9298 18.335 21.8044C18.3259 21.679 18.2916 21.5565 18.234 21.4441C18.1764 21.3316 18.0967 21.2313 17.9994 21.1489C17.9021 21.0666 17.7892 21.0037 17.6671 20.9639C17.5449 20.9242 17.4159 20.9083 17.2875 20.9172C17.1591 20.9261 17.0337 20.9596 16.9185 21.0159H16.9131Z" fill="currentColor"/>
<path d="M21.481 18.5022C21.3837 18.4198 21.2706 18.357 21.1484 18.3174C21.0262 18.2777 20.8972 18.262 20.7687 18.2711C20.6402 18.2801 20.5149 18.3139 20.3998 18.3703C20.2847 18.4267 20.1821 18.5048 20.0979 18.6C19.9355 18.7797 19.7677 18.9595 19.5918 19.1286C19.4158 19.2978 19.2372 19.4643 19.0504 19.6176C18.8989 19.7454 18.791 19.9154 18.7415 20.1049C18.6919 20.2943 18.7029 20.4941 18.7731 20.6772C18.8433 20.8603 18.9692 21.0181 19.134 21.1292C19.2987 21.2403 19.4944 21.2994 19.6946 21.2987C19.9307 21.2994 20.1589 21.2157 20.3361 21.0634C20.5526 20.881 20.7692 20.6854 20.9749 20.4819C21.1806 20.2784 21.3836 20.0696 21.5757 19.8529C21.6604 19.7581 21.7251 19.648 21.7662 19.5289C21.8072 19.4097 21.8238 19.2838 21.815 19.1583C21.8062 19.0329 21.7722 18.9104 21.7149 18.7978C21.6576 18.6852 21.5781 18.5848 21.481 18.5022Z" fill="currentColor"/>
<path d="M22.4008 17.8995C22.5831 17.8995 22.7619 17.8501 22.9172 17.7568C23.0725 17.6634 23.1983 17.5298 23.2804 17.3709C23.4077 17.1197 23.5295 16.8581 23.6404 16.5964C23.7514 16.3347 23.857 16.0678 23.949 15.7902C23.9899 15.671 24.0063 15.5451 23.9973 15.4196C23.9884 15.2942 23.9542 15.1717 23.8968 15.0592C23.8393 14.9467 23.7598 14.8463 23.6626 14.7638C23.5655 14.6813 23.4526 14.6183 23.3305 14.5783C23.2084 14.5384 23.0795 14.5224 22.951 14.5311C22.8226 14.5399 22.6972 14.5732 22.5819 14.6293C22.4667 14.6854 22.3639 14.7631 22.2794 14.858C22.1949 14.9529 22.1304 15.0631 22.0895 15.1823C22.011 15.4123 21.9244 15.6422 21.8188 15.8616C21.7133 16.081 21.6213 16.303 21.5157 16.5145C21.442 16.6605 21.4074 16.8223 21.4151 16.9849C21.4229 17.1475 21.4728 17.3056 21.5602 17.4442C21.6475 17.5829 21.7695 17.6976 21.9146 17.7777C22.0597 17.8578 22.2233 17.9006 22.39 17.9021L22.4008 17.8995Z" fill="currentColor"/>
<path d="M17.7853 1.26612C17.5146 1.14189 17.2575 1.02294 16.9923 0.914574C16.727 0.806204 16.4509 0.70312 16.1667 0.613252C15.9201 0.532636 15.6509 0.550978 15.4181 0.664243C15.1854 0.777509 15.0083 0.976419 14.9257 1.21722C14.8432 1.45802 14.862 1.72098 14.9779 1.94825C15.0939 2.17552 15.2976 2.3485 15.5442 2.42911C15.7797 2.50576 16.0152 2.59034 16.2398 2.69343C16.4645 2.79651 16.6918 2.88374 16.9111 2.99211C17.0468 3.0571 17.1957 3.09143 17.3468 3.09255C17.5674 3.09155 17.7813 3.01809 17.9539 2.884C18.1265 2.7499 18.248 2.56297 18.2986 2.3533C18.3492 2.14363 18.3261 1.92342 18.233 1.72813C18.1399 1.53284 17.9822 1.37382 17.7853 1.27669V1.26612Z" fill="currentColor"/>
<path d="M17.0528 5.31285C17.0386 5.43862 17.05 5.56591 17.0865 5.68733C17.123 5.80875 17.1838 5.9219 17.2653 6.02023C17.3469 6.11856 17.4476 6.20012 17.5616 6.26018C17.6757 6.32023 17.8008 6.3576 17.9298 6.37012L21.7814 6.74281H21.8788C22.0291 6.74245 22.1773 6.70843 22.312 6.64337C22.4467 6.57831 22.5643 6.48395 22.6558 6.36753C22.7473 6.25112 22.8102 6.11575 22.8398 5.97186C22.8693 5.82797 22.8646 5.67938 22.8261 5.53752L21.8517 1.95602C21.7846 1.71067 21.6204 1.5014 21.3953 1.37426C21.1702 1.24711 20.9026 1.2125 20.6513 1.27805C20.4001 1.34359 20.1858 1.50392 20.0556 1.72376C19.9254 1.9436 19.8899 2.20494 19.9571 2.4503L20.4984 4.40624L20.5715 4.69171L18.1355 4.45382C18.0064 4.43956 17.8757 4.45058 17.7511 4.48622C17.6264 4.52186 17.5103 4.58142 17.4095 4.6614C17.3087 4.74139 17.2252 4.8402 17.164 4.95205C17.1027 5.06391 17.0649 5.18657 17.0528 5.31285Z" fill="currentColor"/>
</g>
<defs>
<clipPath id="clip0_1891_30193">
<rect width="24" height="24" fill="white"/>
</clipPath>
</defs>
</svg>
