<?xml version="1.0" encoding="UTF-8"?>
<svg width="24px" height="24px" viewBox="0 0 24 24" version="1.1" xmlns="http://www.w3.org/2000/svg" xmlns:xlink="http://www.w3.org/1999/xlink">
    <title>face-smile-solid</title>
    <g id="face-smile-solid" stroke="none" stroke-width="1" fill="none" fill-rule="evenodd">
        <path d="M12,23.5 C18.3512746,23.5 23.5,18.3512746 23.5,12 C23.5,5.64872538 18.3512746,0.5 12,0.5 C5.64872538,0.5 0.5,5.64872538 0.5,12 C0.5,18.3512746 5.64872538,23.5 12,23.5 Z M7.78886861,14.7762626 C8.60909986,15.8109118 10.0112829,16.9005423 12,16.9005423 C13.9887171,16.9005423 15.3909001,15.8109118 16.2111314,14.7762626 C16.4769046,14.4413762 16.9397167,14.4063881 17.2467306,14.6962898 C17.5537446,14.9861915 17.5858206,15.4910203 17.3200474,15.8259067 C16.298195,17.1054729 14.5248459,18.5 12,18.5 C9.47515408,18.5 7.70180496,17.1054729 6.67995262,15.8259067 C6.41417936,15.4910203 6.44625545,14.9861915 6.75326938,14.6962898 C7.06028331,14.4063881 7.52309536,14.4413762 7.78886861,14.7762626 Z M6.5,10 C6.5,9.17157288 7.17157288,8.5 8,8.5 C8.82842712,8.5 9.5,9.17157288 9.5,10 C9.5,10.8284271 8.82842712,11.5 8,11.5 C7.17157288,11.5 6.5,10.8284271 6.5,10 Z M16,8.5 C16.8284271,8.5 17.5,9.17157288 17.5,10 C17.5,10.8284271 16.8284271,11.5 16,11.5 C15.1715729,11.5 14.5,10.8284271 14.5,10 C14.5,9.17157288 15.1715729,8.5 16,8.5 Z" id="Shape" fill="#000000" fill-rule="nonzero"></path>
    </g>
</svg>