<?xml version="1.0" encoding="UTF-8"?>
<svg width="24px" height="24px" viewBox="0 0 24 24" version="1.1" xmlns="http://www.w3.org/2000/svg" xmlns:xlink="http://www.w3.org/1999/xlink">
    <title>face-smile-solid copy</title>
    <g id="face-smile-solid-copy" stroke="none" stroke-width="1" fill="none" fill-rule="evenodd">
        <path d="M21.5,12 C21.5,6.75329488 17.2467051,2.5 12,2.5 C6.75329488,2.5 2.5,6.75329488 2.5,12 C2.5,17.2467051 6.75329488,21.5 12,21.5 C17.2467051,21.5 21.5,17.2467051 21.5,12 Z M0.5,12 C0.5,5.64872538 5.64872538,0.5 12,0.5 C18.3512746,0.5 23.5,5.64872538 23.5,12 C23.5,18.3512746 18.3512746,23.5 12,23.5 C5.64872538,23.5 0.5,18.3512746 0.5,12 Z M8.40146191,14.8466017 C9.09840581,15.5781736 10.2905467,16.3588142 11.9962252,16.3588142 C13.7019037,16.3588142 14.8940445,15.5781736 15.5909884,14.8466017 C16.0036526,14.4139038 16.7005965,14.3826782 17.1453567,14.7841505 C17.590117,15.1856228 17.6222131,15.863665 17.2095489,16.296363 C16.2008143,17.3580342 14.4584546,18.5 12.0008103,18.5 C9.54316606,18.5 7.79622116,17.362495 6.79207173,16.296363 C6.37940758,15.863665 6.40691852,15.1856228 6.85626393,14.7841505 C7.30560934,14.3826782 7.99796808,14.409443 8.41063223,14.8466017 L8.40146191,14.8466017 Z M6.5,10 C6.5,9.17157288 7.17157288,8.5 8,8.5 C8.82842712,8.5 9.5,9.17157288 9.5,10 C9.5,10.8284271 8.82842712,11.5 8,11.5 C7.17157288,11.5 6.5,10.8284271 6.5,10 Z M16,8.5 C16.8284271,8.5 17.5,9.17157288 17.5,10 C17.5,10.8284271 16.8284271,11.5 16,11.5 C15.1715729,11.5 14.5,10.8284271 14.5,10 C14.5,9.17157288 15.1715729,8.5 16,8.5 Z" id="Shape" fill="#000000" fill-rule="nonzero"></path>
    </g>
</svg>