<?xml version="1.0" encoding="UTF-8" standalone="no"?>
<!DOCTYPE svg PUBLIC "-//W3C//DTD SVG 1.1//EN" "http://www.w3.org/Graphics/SVG/1.1/DTD/svg11.dtd">
<svg width="100%" height="100%" viewBox="0 0 24 24" version="1.1" xmlns="http://www.w3.org/2000/svg" xmlns:xlink="http://www.w3.org/1999/xlink" xml:space="preserve" xmlns:serif="http://www.serif.com/" style="fill-rule:evenodd;clip-rule:evenodd;stroke-linejoin:round;stroke-miterlimit:2;">
    <g transform="matrix(1,0,0,1,-277.427,-0.045357)">
        <g id="Want" transform="matrix(0.13395,0,0,0.149263,251.963,-24.9564)">
            <rect x="190.107" y="167.501" width="179.172" height="160.79" style="fill:none;"/>
            <g transform="matrix(0.238543,0,0,0.214069,159.361,140.861)">
                <path d="M257.778,155.556L742.222,155.556L742.222,844.445L671.111,844.445L671.111,528.889L670.414,528.889C662.554,441.677 589.258,373.333 500,373.333C410.742,373.333 337.446,441.677 329.586,528.889L328.889,528.889L328.889,844.445L257.778,844.445L257.778,155.556Z" style="fill-rule:nonzero;"/>
            </g>
            <g transform="matrix(0.238543,0,0,0.214069,159.361,140.861)">
                <path d="M128.889,253.333L157.778,351.111L182.222,351.111L182.222,746.667C169.949,746.667 160,756.616 160,768.889L160,795.556L155.556,795.556C143.283,795.556 133.333,805.505 133.333,817.778L133.333,844.445L382.222,844.445L382.222,817.778C382.222,805.505 372.273,795.556 360,795.556L355.556,795.556L355.556,768.889C355.556,756.616 345.606,746.667 333.333,746.667L306.667,746.667L306.667,253.333L128.889,253.333Z" style="fill-rule:nonzero;"/>
            </g>
            <g transform="matrix(0.238543,0,0,0.214069,159.361,140.861)">
                <path d="M675.556,746.667C663.283,746.667 653.333,756.616 653.333,768.889L653.333,795.556L648.889,795.556C636.616,795.556 626.667,805.505 626.667,817.778L626.667,844.445L875.556,844.445L875.556,817.778C875.556,805.505 865.606,795.556 853.333,795.556L848.889,795.556L848.889,768.889C848.889,756.616 838.94,746.667 826.667,746.667L826.667,351.111L851.111,351.111L880,253.333L702.222,253.333L702.222,746.667L675.556,746.667Z" style="fill-rule:nonzero;"/>
            </g>
        </g>
    </g>
</svg>
