<?xml version="1.0" encoding="UTF-8" standalone="no"?>
<!DOCTYPE svg PUBLIC "-//W3C//DTD SVG 1.1//EN" "http://www.w3.org/Graphics/SVG/1.1/DTD/svg11.dtd">
<svg width="100%" height="100%" viewBox="0 0 24 24" version="1.1" xmlns="http://www.w3.org/2000/svg" xmlns:xlink="http://www.w3.org/1999/xlink" xml:space="preserve" xmlns:serif="http://www.serif.com/" style="fill-rule:evenodd;clip-rule:evenodd;stroke-linejoin:round;stroke-miterlimit:2;">
    <g transform="matrix(1,0,0,1,-194.688,-54.9825)">
        <g id="Feather" transform="matrix(0.13395,0,0,0.149263,169.223,29.9808)">
            <rect x="190.107" y="167.501" width="179.172" height="160.79" style="fill:none;"/>
            <clipPath id="_clip1">
                <rect x="190.107" y="167.501" width="179.172" height="160.79"/>
            </clipPath>
            <g clip-path="url(#_clip1)">
                <g id="feather-pointed-light.svg" transform="matrix(0.349945,0,0,0.314042,279.693,247.896)">
                    <g transform="matrix(1,0,0,1,-256,-256)">
                        <clipPath id="_clip2">
                            <rect x="0" y="0" width="512" height="512"/>
                        </clipPath>
                        <g clip-path="url(#_clip2)">
                            <path d="M102.2,348.1C89.9,302.4 89.8,224.5 160,154.3C200.6,113.7 258.9,84.5 319.1,64.7C379,44.9 438.2,35.3 477.9,32C477.9,32 478.1,32 478.3,32.1C478.6,32.2 478.9,32.4 479.3,32.8C479.7,33.2 479.9,33.5 480,33.8C480.1,34 480.1,34.2 480.1,34.2C476.8,73.9 467.2,133.1 447.4,192.9C444,203.4 440.2,213.8 436.2,224L310.7,224L348.3,186.4C354.5,180.2 354.5,170 348.3,163.8C342.1,157.6 331.9,157.6 325.7,163.8L116.1,373.3C109.1,364.7 104.5,356.4 102.2,348.1ZM116,418.6C127.7,428.5 140.7,436.6 155.6,440.6C209.7,455.2 300.3,454.6 380.4,374.5C471.5,283.5 505,120.5 511.9,36.8C512.7,26.9 508.9,17.2 501.9,10.2C494.9,3.2 485.2,-0.6 475.3,0.2C391.5,7 228.5,40.5 137.4,131.6C57.3,211.7 56.7,302.3 71.3,356.4C75.3,371.2 83.4,384.2 93.3,396L4.7,484.7C-1.5,490.9 -1.5,501.1 4.7,507.3C10.9,513.5 21.1,513.5 27.3,507.3L116,418.6ZM138.7,395.9L182.6,352L357.7,352C287.5,422.2 209.5,422.1 163.9,409.8C155.6,407.6 147.3,402.9 138.7,395.9ZM385.1,320L214.7,320L278.7,256L422.5,256C411.7,278.9 399.3,300.6 385.1,320Z" style="fill-rule:nonzero;"/>
                        </g>
                    </g>
                </g>
            </g>
        </g>
    </g>
</svg>
