<svg width="16" height="16" viewBox="0 0 16 16" fill="none" xmlns="http://www.w3.org/2000/svg">
<path fill-rule="evenodd" clip-rule="evenodd" d="M0.350098 4.0001C0.350098 3.64111 0.641113 3.3501 1.0001 3.3501H15.0001C15.3591 3.3501 15.6501 3.64111 15.6501 4.0001C15.6501 4.35908 15.3591 4.6501 15.0001 4.6501H1.0001C0.641113 4.6501 0.350098 4.35908 0.350098 4.0001ZM2.8501 8.0001C2.8501 7.64111 3.14111 7.3501 3.5001 7.3501H13.0001C13.3591 7.3501 13.6501 7.64111 13.6501 8.0001C13.6501 8.35908 13.3591 8.6501 13.0001 8.6501H3.5001C3.14111 8.6501 2.8501 8.35908 2.8501 8.0001ZM5.3501 12.0001C5.3501 11.6411 5.64111 11.3501 6.0001 11.3501H10.5001C10.8591 11.3501 11.1501 11.6411 11.1501 12.0001C11.1501 12.3591 10.8591 12.6501 10.5001 12.6501H6.0001C5.64111 12.6501 5.3501 12.3591 5.3501 12.0001Z" fill="#B8BDBF"/>
</svg>
