<?xml version="1.0" encoding="UTF-8" standalone="no"?>
<!DOCTYPE svg PUBLIC "-//W3C//DTD SVG 1.1//EN" "http://www.w3.org/Graphics/SVG/1.1/DTD/svg11.dtd">
<svg width="100%" height="100%" viewBox="0 0 24 24" version="1.1" xmlns="http://www.w3.org/2000/svg" xmlns:xlink="http://www.w3.org/1999/xlink" xml:space="preserve" xmlns:serif="http://www.serif.com/" style="fill-rule:evenodd;clip-rule:evenodd;stroke-linejoin:round;stroke-miterlimit:2;">
    <g transform="matrix(1,0,0,1,-331.94,-27.2489)">
        <g id="Gear" transform="matrix(0.13395,0,0,0.149263,306.475,2.24723)">
            <rect x="190.107" y="167.501" width="179.172" height="160.79" style="fill:none;"/>
            <g id="gear-light.svg" transform="matrix(0.349945,0,0,0.314042,279.693,247.896)">
                <g transform="matrix(1,0,0,1,-256,-256)">
                    <path d="M223.3,37.8C223.7,36.3 224.6,35 225.7,34C235.6,32.7 245.7,32 256,32C266.3,32 276.4,32.7 286.3,34C287.4,35 288.2,36.3 288.7,37.8L302.4,85.5C305.9,97.6 314.6,106.6 324.9,111.6C332.5,115.2 339.7,119.4 346.6,124.1C356,130.6 368.3,133.6 380.5,130.6L428.7,118.6C430.2,118.2 431.7,118.3 433.1,118.8C438.5,125.7 443.5,133 448,140.6L452.3,148C456.5,155.5 460.2,163.3 463.5,171.3C463.2,172.8 462.5,174.2 461.4,175.3L426.8,211C418.1,220 414.6,232.1 415.5,243.5C415.8,247.6 416,251.8 416,256C416,260.2 415.8,264.4 415.5,268.5C414.6,279.9 418.1,292 426.8,301L461.3,336.7C462.4,337.8 463.1,339.2 463.4,340.7C460.1,348.7 456.4,356.5 452.2,364.1L448,371.4C443.4,379 438.4,386.2 433.1,393.2C431.7,393.7 430.2,393.7 428.7,393.4L380.5,381.4C368.3,378.4 356.1,381.4 346.6,387.9C339.7,392.6 332.5,396.8 324.9,400.4C314.6,405.3 305.8,414.4 302.4,426.5L288.7,474.2C288.3,475.7 287.4,477 286.3,478C276.4,479.3 266.3,480 256,480C245.7,480 235.6,479.3 225.7,478C224.6,477 223.8,475.7 223.3,474.2L209.6,426.5C206.1,414.4 197.4,405.4 187.1,400.4C179.5,396.8 172.3,392.6 165.4,387.9C156,381.4 143.7,378.4 131.5,381.4L83.3,393.4C81.8,393.8 80.3,393.7 78.9,393.2C73.5,386.2 68.5,379 63.9,371.4L59.7,364.1C55.5,356.6 51.8,348.8 48.5,340.7C48.8,339.2 49.5,337.8 50.6,336.7L85.2,301C93.9,292 97.4,279.9 96.5,268.5C96.2,264.4 96,260.2 96,256C96,251.8 96.2,247.6 96.5,243.5C97.4,232.1 93.9,220 85.2,211L50.7,175.2C49.6,174.1 48.9,172.7 48.6,171.2C51.9,163.2 55.6,155.4 59.8,147.8L64,140.5C68.6,132.9 73.6,125.7 79,118.7C80.4,118.2 81.9,118.2 83.4,118.5L131.6,130.5C143.8,133.5 156,130.5 165.5,124C172.4,119.3 179.6,115.1 187.2,111.5C197.5,106.6 206.3,97.5 209.7,85.4L223.4,37.7L223.3,37.8ZM256,0C243,0 230.1,1 217.6,2.9C215.9,3.2 214.2,3.7 212.6,4.5C203.1,9.4 195.7,18.1 192.6,29L178.9,76.7C178.3,78.9 176.4,81.2 173.3,82.7C164.2,87 155.5,92.1 147.3,97.7C144.5,99.6 141.5,100.1 139.3,99.5L91.1,87.5C80.2,84.8 69,86.9 60,92.6C58.5,93.5 57.2,94.7 56.1,96.1C49,105 42.4,114.3 36.5,124.1L36.4,124.4L32,132L31.9,132.3C26.5,142.1 21.7,152.2 17.6,162.7C17,164.3 16.6,166 16.5,167.7C16,178.5 19.8,189.3 27.7,197.5L62.2,233.2C63.8,234.9 64.9,237.6 64.6,241C64.2,246 64,251 64,256C64,261 64.2,266.1 64.6,271C64.9,274.4 63.8,277.2 62.2,278.8L27.7,314.6C19.8,322.8 16,333.6 16.5,344.4C16.6,346.1 17,347.8 17.6,349.4C21.7,359.9 26.5,370 31.9,379.8L32,380.1L36.4,387.7L36.5,388C42.4,397.8 48.9,407.2 56.1,416.1C57.2,417.5 58.5,418.7 60,419.6C69,425.3 80.2,427.4 91.1,424.7L139.3,412.7C141.5,412.1 144.5,412.6 147.3,414.5C155.5,420.2 164.2,425.2 173.3,429.5C176.4,431 178.2,433.3 178.9,435.5L192.6,483C195.7,493.8 203.1,502.5 212.6,507.5C214.2,508.3 215.8,508.9 217.6,509.1C230.1,511 243,512 256,512C269,512 281.9,511 294.4,509.1C296.1,508.8 297.8,508.3 299.4,507.5C308.9,502.6 316.3,493.9 319.4,483L333.1,435.3C333.7,433.1 335.6,430.8 338.7,429.3C347.8,425 356.5,419.9 364.7,414.3C367.5,412.4 370.5,411.9 372.7,412.5L420.9,424.5C431.8,427.2 443,425.2 452,419.4C453.5,418.5 454.8,417.3 455.9,415.9C463,407 469.5,397.7 475.4,387.9L475.6,387.6L480,380L480.1,379.7C485.5,370 490.3,359.8 494.4,349.3C495,347.7 495.4,346 495.5,344.3C496,333.5 492.2,322.7 484.3,314.5L449.8,278.8C448.2,277.1 447.1,274.4 447.4,271C447.8,266 448,261 448,256C448,251 447.8,245.9 447.4,241C447.1,237.6 448.2,234.8 449.8,233.2L484.3,197.5C492.2,189.3 496,178.5 495.5,167.7C495.4,166 495,164.3 494.4,162.7C490.3,152.2 485.5,142.1 480.1,132.3L480,132L475.6,124.4L475.4,124.1C469.5,114.3 463,104.9 455.9,96.1C454.8,94.7 453.5,93.5 452,92.6C443,86.9 431.8,84.8 420.9,87.5L372.7,99.5C370.5,100.1 367.5,99.6 364.7,97.7C356.5,92 347.8,87 338.7,82.7C335.6,81.2 333.8,78.9 333.1,76.7L319.4,29C316.3,18.2 308.9,9.5 299.4,4.5C297.8,3.7 296.2,3.1 294.4,2.9C281.9,1 269,0 256,0ZM200,256C200,225.279 225.279,200 256,200C286.721,200 312,225.279 312,256C312,286.721 286.721,312 256,312C225.279,312 200,286.721 200,256ZM344,256C344,207.725 304.275,168 256,168C207.725,168 168,207.725 168,256C168,304.275 207.725,344 256,344C304.275,344 344,304.275 344,256Z" style="fill-rule:nonzero;"/>
                </g>
            </g>
        </g>
    </g>
</svg>
