<?xml version="1.0" encoding="UTF-8"?>
<svg width="24px" height="24px" viewBox="0 0 24 24" version="1.1" xmlns="http://www.w3.org/2000/svg" xmlns:xlink="http://www.w3.org/1999/xlink">
    <title>Artboard Copy 21</title>
    <g id="Artboard-Copy-21" stroke="none" stroke-width="1" fill="none" fill-rule="evenodd">
        <g id="gem" transform="translate(1.500000, 1.500000)" fill="#000000" fill-rule="nonzero">
            <g id="Group">
                <path d="M7.138631,2.37919498 C7.33784422,1.75838153 7.45208497,1.11114045 7.47899292,0.446202292 C6.79779701,0.645825316 6.14327301,0.917416452 5.52297404,1.25743628 C6.01250983,1.70552626 6.55373721,2.08094025 7.138631,2.37919498 Z" id="Path"></path>
                <path d="M12.3236035,20.8355942 L12.3564123,20.8296951 C12.4246263,20.8174252 12.4937844,20.8037394 12.5629426,20.7905256 C12.5702596,19.9160541 12.7151849,19.0592796 12.9913454,18.2360116 C12.2011015,17.9500268 11.3653029,17.803967 10.500236,17.803967 C9.64319434,17.803967 8.80550747,17.9507347 8.00298977,18.2381352 C8.2779701,19.0580998 8.42265932,19.9141664 8.43044847,20.788166 C8.51211644,20.8044473 8.59378442,20.8212005 8.6754524,20.8355942 C9.85515342,21.0548019 11.1460268,21.0548019 12.3236035,20.8355942 Z" id="Path"></path>
                <path d="M5.52297404,19.7430946 C6.14421715,20.0835864 6.79850511,20.3549416 7.47899292,20.5545646 C7.4516129,19.8929299 7.33548387,19.244273 7.1332022,18.6173246 C6.55184894,18.9181749 6.01203777,19.2950046 5.52297404,19.7430946 Z" id="Path"></path>
                <path d="M3.25987411,14.2100446 C2.87136113,14.9821091 2.36837136,15.6876326 1.7570417,16.3124573 C1.80566483,16.3841895 1.85476003,16.4559216 1.89960661,16.5186873 C2.60464201,17.5347354 3.47324941,18.402836 4.4815893,19.1003368 C4.54767899,19.147529 4.61518489,19.1921256 4.68245476,19.2369582 C5.3086546,18.6248753 6.01557828,18.1213345 6.78764752,17.7334146 C6.43123525,16.9660694 5.94523997,16.2735238 5.33556255,15.6694636 C4.72541306,15.0595043 4.02863887,14.571065 3.25987411,14.2100446 Z" id="Path"></path>
                <path d="M16.5181747,1.90019411 C16.4504327,1.8518221 16.3800944,1.80510181 16.309284,1.75790961 C15.6932337,2.3711723 14.9879622,2.87471312 14.2085759,3.2616892 C14.5697089,4.0292704 15.0575924,4.72464753 15.6658537,5.33271909 C16.2741149,5.94079064 16.9699449,6.42875803 17.7375295,6.78954243 C18.122974,6.01275875 18.6247836,5.3072353 19.2358773,4.68830954 C19.1912667,4.62153257 19.1471282,4.55451964 19.1001574,4.48892247 C18.4047994,3.47688565 17.536428,2.60642544 16.5181747,1.90019411 Z" id="Path"></path>
                <path d="M1.25287175,15.4705484 C1.69968529,14.982817 2.07568843,14.4445899 2.37663257,13.8636539 C1.74712825,13.6614353 1.10062943,13.5451065 0.446341463,13.517499 C0.645554681,14.195651 0.91534225,14.8490271 1.25287175,15.4705484 Z" id="Path"></path>
                <path d="M12.9915814,2.76003607 C12.7151849,1.93700403 12.5700236,1.08140936 12.5624705,0.210005309 C12.4935484,0.196791492 12.4241542,0.183341714 12.3559402,0.17083578 L12.3238395,0.165172715 C11.7344611,0.05545084 11.120771,0 10.4995279,0 C9.87828482,0 9.26483084,0.05545084 8.67592447,0.165172715 C8.59378442,0.179566337 8.51188041,0.19631957 8.42974036,0.21260088 C8.42171518,1.09131972 8.27915028,1.94549862 8.00723839,2.75956415 C8.79630212,3.04932428 9.63115657,3.19656424 10.4995279,3.19656424 C11.3695515,3.19679992 12.2051141,3.04908832 12.9915814,2.76003607 Z" id="Path"></path>
                <path d="M13.8606609,2.37919498 C14.4507474,2.07787276 14.9891424,1.70151493 15.470417,1.25342495 C14.8468135,0.91482088 14.1922895,0.644645511 13.5141621,0.445966331 C13.5415421,1.1047695 13.6579072,1.75224655 13.8606609,2.37919498 Z" id="Path"></path>
                <path d="M0.165224233,8.67982618 C0.0554681353,9.26996469 0,9.88322738 0,10.5038049 C0,11.1243824 0.0554681353,11.7376451 0.164988198,12.3268397 L0.170416994,12.3565708 C0.182926829,12.4257074 0.196616837,12.4960238 0.21007081,12.5658682 C1.07513769,12.573183 1.92911094,12.7178271 2.7559402,12.9939015 C3.04319434,12.1925779 3.19047994,11.3542084 3.19047994,10.496726 C3.19047994,9.63145698 3.04413847,8.79568304 2.75806452,8.00568554 C1.93099921,8.28199589 1.07749803,8.42664 0.212667191,8.43442671 C0.196144768,8.51654115 0.179622345,8.59865558 0.165224233,8.67982618 Z" id="Path"></path>
                <path d="M15.6658537,15.6680478 C15.0573564,16.2709282 14.5692368,16.9646536 14.2076318,17.7343585 C14.9905586,18.1272336 15.6963021,18.6326621 16.309284,19.2428573 C16.3796223,19.195901 16.4499607,19.1491807 16.5169945,19.1015166 C17.5262785,18.3964651 18.395122,17.5281285 19.0994493,16.5198671 C19.1476003,16.4523822 19.1945712,16.3820658 19.2415421,16.3115135 C18.6250197,15.6869247 18.1213218,14.9816372 17.7377655,14.2114604 C16.9699449,14.5722448 16.2741149,15.0599762 15.6658537,15.6680478 Z" id="Path"></path>
                <path d="M19.7445319,5.53257807 C19.2984264,6.01582624 18.9238395,6.55334545 18.6250197,7.13852878 C19.2533438,7.33767989 19.8984264,7.45164906 20.5524784,7.47902054 C20.3530291,6.80086856 20.0825334,6.14961614 19.7445319,5.53257807 Z" id="Path"></path>
                <path d="M6.00165224,6.00001685 C5.30818253,6.69327034 4.51369001,7.24872258 3.6361133,7.65717111 C3.96632573,8.55830625 4.13461841,9.51111685 4.13461841,10.496962 C4.13461841,11.4738406 3.96585366,12.4290108 3.63422502,13.3428879 C4.51274587,13.7515724 5.30771046,14.3072606 6.00165224,15.00075 C6.69701023,15.6897562 7.25169158,16.4823493 7.65531078,17.3596524 C8.57018096,17.0283631 9.52399685,16.8601229 10.5,16.8601229 C11.4859166,16.8601229 12.4390244,17.0283631 13.3406766,17.3584725 C13.7501967,16.4785739 14.3065303,15.6862168 14.9995279,14.9990983 C15.6918175,14.3072606 16.4858379,13.7520443 17.3631786,13.3438317 C17.0287175,12.4356178 16.8583006,11.4797397 16.8583006,10.496726 C16.8583006,9.5078134 17.0284815,8.55429491 17.3634146,7.65551938 C16.486074,7.24707085 15.6913454,6.69279841 14.9981117,5.99954493 C14.3051141,5.30699933 13.7501967,4.51369838 13.3416208,3.63710319 C12.4461054,3.96980823 11.4913454,4.14017208 10.499764,4.14017208 C9.50959874,4.14017208 8.55601888,3.97028015 7.65790716,3.63686722 C7.25003934,4.51369838 6.69488592,5.3072353 6.00165224,6.00001685 Z" id="Path"></path>
                <path d="M13.8587726,18.6213359 C13.6571991,19.2475765 13.5415421,19.8948176 13.5141621,20.5545646 C14.1915814,20.3558854 14.8437451,20.0868898 15.4647522,19.7501735 C14.9856019,19.3044431 14.4486231,18.9259616 13.8587726,18.6213359 Z" id="Path"></path>
                <path d="M4.48347758,1.89925026 C3.48717545,2.58825644 2.61620771,3.45682896 1.89299764,4.48137172 C1.84437451,4.54956446 1.79834776,4.6201168 1.75208497,4.69043319 C2.36223446,5.302988 2.86758458,6.00803953 3.26034618,6.79048628 C4.02863887,6.42970187 4.72541306,5.94149852 5.33414634,5.33271909 C5.94240755,4.72464753 6.43029111,4.0292704 6.79118804,3.26192516 C6.01888277,2.87896042 5.30983478,2.37659941 4.68269079,1.76380864 C4.61565696,1.80816931 4.54862313,1.85252998 4.48347758,1.89925026 Z" id="Path"></path>
                <path d="M0.446341463,7.4835038 C1.09921322,7.45589636 1.74429583,7.3400395 2.37261998,7.13852878 C2.0686074,6.550042 1.69095201,6.01464644 1.24649882,5.53658941 C0.910385523,6.16471765 0.642486231,6.81644199 0.446341463,7.4835038 Z" id="Path"></path>
                <path d="M19.4974036,15.1904627 C19.7754524,14.662146 20.0022817,14.110705 20.1774194,13.542039 C19.6475216,13.5915908 19.1268293,13.6996609 18.6191188,13.8636539 C18.8612903,14.3360478 19.1546814,14.7798905 19.4974036,15.1904627 Z" id="Path"></path>
                <path d="M20.7873328,8.43466267 C19.9213218,8.42687596 19.0666404,8.28388358 18.2400472,8.01064072 C17.9504327,8.79662688 17.802439,9.63051313 17.802439,10.496962 C17.802439,11.3584557 17.9506688,12.1963533 18.2412274,12.9941375 C19.063572,12.7180631 19.9189614,12.573419 20.7899292,12.5658682 C20.8033832,12.4957878 20.8170732,12.4257074 20.829583,12.3565708 L20.8347758,12.3270757 C20.9445319,11.7374091 21,11.1241464 21,10.5035689 C21,9.88299142 20.9445319,9.26972873 20.8350118,8.68053406 C20.8206137,8.59912751 20.8038552,8.51701307 20.7873328,8.43466267 Z" id="Path"></path>
            </g>
        </g>
        <path d="M12,0 C18.627417,0 24,5.372583 24,12 C24,18.627417 18.627417,24 12,24 C5.372583,24 0,18.627417 0,12 C0,5.372583 5.372583,0 12,0 Z M12,0.75 C5.78679656,0.75 0.75,5.78679656 0.75,12 C0.75,18.2132034 5.78679656,23.25 12,23.25 C18.2132034,23.25 23.25,18.2132034 23.25,12 C23.25,5.78679656 18.2132034,0.75 12,0.75 Z" id="Combined-Shape" fill="#000000"></path>
    </g>
</svg>