<?xml version="1.0" encoding="UTF-8" standalone="no"?>
<!DOCTYPE svg PUBLIC "-//W3C//DTD SVG 1.1//EN" "http://www.w3.org/Graphics/SVG/1.1/DTD/svg11.dtd">
<svg width="100%" height="100%" viewBox="0 0 24 24" version="1.1" xmlns="http://www.w3.org/2000/svg" xmlns:xlink="http://www.w3.org/1999/xlink" xml:space="preserve" xmlns:serif="http://www.serif.com/" style="fill-rule:evenodd;clip-rule:evenodd;stroke-linejoin:round;stroke-miterlimit:2;">
    <g transform="matrix(1,0,0,1,-55.9307,-55.2801)">
        <g id="Gem-Co-Outline-Solid" serif:id="Gem Co Outline Solid" transform="matrix(0.13395,0,0,0.149263,30.466,30.2784)">
            <rect x="190.107" y="167.501" width="179.172" height="160.79" style="fill:none;"/>
            <clipPath id="_clip1">
                <rect x="190.107" y="167.501" width="179.172" height="160.79"/>
            </clipPath>
            <g clip-path="url(#_clip1)">
                <g transform="matrix(7.4655,0,0,6.69957,-227.444,-202.852)">
                    <path d="M67.931,55.28C74.554,55.28 79.931,60.657 79.931,67.28C79.931,73.903 74.554,79.28 67.931,79.28C61.308,79.28 55.931,73.903 55.931,67.28C55.931,60.657 61.308,55.28 67.931,55.28ZM67.931,56.146C61.786,56.146 56.797,61.135 56.797,67.28C56.797,73.425 61.786,78.414 67.931,78.414C74.076,78.414 79.065,73.425 79.065,67.28C79.065,61.135 74.076,56.146 67.931,56.146ZM58.177,69.608C57.995,68.851 57.898,68.062 57.898,67.25C57.898,66.51 57.978,65.788 58.131,65.094C58.858,64.964 59.532,64.803 60.161,64.588C60.476,65.345 60.632,66.13 60.632,67.236C60.632,68.364 60.444,69.203 60.067,70.055C59.48,69.865 58.853,69.721 58.177,69.608ZM58.318,64.371C58.504,63.75 58.748,63.154 59.045,62.591C59.369,63.1 59.643,63.542 59.867,63.968C59.405,64.114 58.897,64.24 58.318,64.371ZM59.377,62.007C60.171,60.715 61.25,59.616 62.526,58.798C63.146,59.234 63.75,59.607 64.361,59.906C64.047,60.696 63.599,61.38 62.791,62.188C62.012,62.967 61.3,63.425 60.457,63.759C60.164,63.176 59.801,62.599 59.377,62.007ZM64.585,59.256C64.144,59.027 63.684,58.748 63.166,58.42C63.74,58.11 64.347,57.854 64.981,57.659C64.847,58.266 64.727,58.786 64.585,59.256ZM65.206,57.592C66.073,57.348 66.987,57.217 67.931,57.217C68.687,57.217 69.423,57.301 70.131,57.46C70.264,58.214 70.431,58.911 70.656,59.56C69.871,59.901 69.068,60.069 67.919,60.069C66.814,60.069 65.986,59.889 65.151,59.527C65.354,58.898 65.503,58.222 65.619,57.49L65.206,57.592ZM70.853,57.65C71.491,57.844 72.101,58.1 72.677,58.411C72.155,58.744 71.704,59.027 71.273,59.259C71.12,58.781 70.99,58.254 70.853,57.65ZM71.484,59.85C72.067,59.549 72.646,59.179 73.241,58.748L72.732,58.44C74.247,59.269 75.526,60.476 76.44,61.935C76.015,62.544 75.65,63.136 75.356,63.736C74.553,63.421 73.862,62.972 73.043,62.153C72.273,61.383 71.817,60.68 71.484,59.85ZM76.814,62.585C77.106,63.14 77.347,63.725 77.532,64.334C76.956,64.206 76.459,64.091 76.007,63.957C76.23,63.53 76.499,63.084 76.814,62.585ZM77.704,64.975C77.874,65.706 77.963,66.468 77.963,67.25C77.963,68.055 77.868,68.838 77.689,69.588C76.984,69.712 76.33,69.864 75.717,70.067C75.367,69.27 75.193,68.46 75.193,67.294C75.193,66.188 75.373,65.359 75.736,64.524C76.346,64.718 76.999,64.862 77.704,64.975ZM77.487,70.312C77.303,70.884 77.07,71.434 76.791,71.957C76.493,71.489 76.238,71.079 76.024,70.685C76.463,70.552 76.944,70.434 77.487,70.312ZM76.457,72.536C75.632,73.863 74.506,74.985 73.174,75.803C72.583,75.391 72.007,75.037 71.425,74.749C71.738,73.973 72.185,73.298 72.981,72.502C73.795,71.688 74.534,71.225 75.427,70.887C75.712,71.435 76.057,71.979 76.457,72.536ZM72.516,76.174C71.98,76.45 71.416,76.679 70.83,76.856C70.952,76.308 71.065,75.832 71.197,75.398C71.609,75.614 72.038,75.873 72.516,76.174ZM70.181,77.029C69.457,77.195 68.704,77.282 67.931,77.282C67.129,77.282 66.349,77.188 65.601,77.01C65.476,76.316 65.32,75.671 65.116,75.068C65.894,74.733 66.693,74.568 67.831,74.568C68.951,74.568 69.787,74.753 70.633,75.125C70.44,75.716 70.295,76.348 70.181,77.029ZM64.872,76.807C64.305,76.625 63.759,76.394 63.241,76.12C63.701,75.827 64.107,75.577 64.497,75.368C64.632,75.801 64.75,76.273 64.872,76.807ZM62.657,75.784C61.344,74.971 60.232,73.863 59.415,72.553C59.815,71.976 60.16,71.414 60.443,70.846C61.225,71.16 61.904,71.607 62.706,72.409C63.495,73.198 63.955,73.918 64.29,74.775C63.747,75.053 63.208,75.392 62.657,75.784ZM59.04,71.899C58.766,71.378 58.537,70.829 58.358,70.259C58.896,70.379 59.365,70.49 59.793,70.62C59.582,71.02 59.331,71.437 59.04,71.899ZM60.736,64.37C61.674,63.979 62.508,63.441 63.273,62.67C64.022,61.916 64.546,61.09 64.923,60.159C65.862,60.546 66.833,60.755 67.919,60.751C68.988,60.747 69.947,60.532 70.876,60.136C71.266,61.058 71.8,61.88 72.56,62.635C73.324,63.392 74.159,63.92 75.103,64.297C74.717,65.237 74.507,66.208 74.511,67.293C74.515,68.373 74.735,69.34 75.138,70.278C74.159,70.672 73.292,71.221 72.499,72.02C71.76,72.764 71.24,73.578 70.865,74.493C69.914,74.097 68.931,73.882 67.832,73.886C66.772,73.89 65.821,74.102 64.9,74.491C64.508,73.542 63.966,72.699 63.188,71.927C62.44,71.183 61.621,70.662 60.7,70.286C61.1,69.33 61.318,68.343 61.314,67.237C61.31,66.202 61.108,65.271 60.736,64.37Z"/>
                </g>
            </g>
        </g>
    </g>
</svg>
