<?xml version="1.0" encoding="UTF-8"?>
<svg width="24px" height="24px" viewBox="0 0 24 24" version="1.1" xmlns="http://www.w3.org/2000/svg" xmlns:xlink="http://www.w3.org/1999/xlink">
    <title>Artboard Copy 20</title>
    <g id="Artboard-Copy-20" stroke="none" stroke-width="1" fill="none" fill-rule="evenodd">
        <g id="noun-gem-754519" fill="#000000" fill-rule="nonzero">
            <g id="Group">
                <path d="M8.15843543,2.71907998 C8.38610768,2.00957889 8.51666854,1.2698748 8.54742048,0.509945476 C7.76891087,0.738086075 7.02088344,1.04847594 6.31197033,1.43707004 C6.87143981,1.94917287 7.48998539,2.37821743 8.15843543,2.71907998 Z" id="Path"></path>
                <path d="M14.0841182,23.8121076 L14.121614,23.8053659 C14.1995729,23.791343 14.2786108,23.7757022 14.3576486,23.7606007 C14.366011,22.7612046 14.5316399,21.7820338 14.8472519,20.8411561 C13.944116,20.5143164 12.9889176,20.3473908 12.0002698,20.3473908 C11.0207935,20.3473908 10.0634371,20.5151254 9.14627402,20.8435831 C9.46053726,21.7806855 9.62589637,22.7590473 9.63479825,23.757904 C9.72813308,23.7765112 9.82146791,23.7956578 9.91480274,23.8121076 C11.2630325,24.0626308 12.7383163,24.0626308 14.0841182,23.8121076 Z" id="Path"></path>
                <path d="M6.31197033,22.5635367 C7.02196246,22.9526702 7.76972013,23.2627904 8.54742048,23.490931 C8.51612903,22.734777 8.38341014,21.9934549 8.15223109,21.2769424 C7.48782736,21.6207713 6.8709003,22.0514339 6.31197033,22.5635367 Z" id="Path"></path>
                <path d="M3.72557042,16.240051 C3.28155558,17.1224104 2.70671013,17.9287229 2.00804766,18.6428084 C2.06361695,18.724788 2.11972575,18.8067676 2.17097898,18.8784997 C2.97673373,20.0396976 3.9694279,21.0318126 5.12181634,21.8289564 C5.19734742,21.8828903 5.27449702,21.9338579 5.35137687,21.9850951 C6.06703383,21.2855718 6.87494661,20.7100966 7.75731145,20.2667596 C7.34998314,19.3897936 6.79455996,18.5983129 6.09778577,17.9079583 C5.40047207,17.2108621 4.60415871,16.6526457 3.72557042,16.240051 Z" id="Path"></path>
                <path d="M18.8779139,2.17165041 C18.8004945,2.11636811 18.7201079,2.0629735 18.6391817,2.00903955 C17.9351242,2.70991121 17.1290997,3.28538643 16.2383725,3.7276448 C16.6510959,4.60488046 17.2086771,5.39959718 17.9038328,6.0945361 C18.5989884,6.78947501 19.3942228,7.34715203 20.2714623,7.75947707 C20.7119703,6.87172429 21.285467,6.06541177 21.9838597,5.35806804 C21.9328763,5.2817515 21.8824323,5.2051653 21.8287513,5.13019711 C21.0340564,3.9735836 20.041632,2.97877194 18.8779139,2.17165041 Z" id="Path"></path>
                <path d="M1.43185343,17.6806268 C1.94249747,17.1232194 2.37221535,16.5081027 2.71615151,15.8441758 C1.99671799,15.6130689 1.2578622,15.4801217 0.51010453,15.4485703 C0.737776779,16.2236012 1.04610543,16.9703167 1.43185343,17.6806268 Z" id="Path"></path>
                <path d="M14.8475216,3.15432694 C14.5316399,2.21371889 14.3657413,1.23589641 14.3571091,0.240006068 C14.278341,0.224904562 14.1990334,0.209533387 14.1210745,0.195240891 L14.084388,0.188768817 C13.4108126,0.0633723886 12.7094526,0 11.9994605,0 C11.2894684,0 10.5883781,0.0633723886 9.91534225,0.188768817 C9.82146791,0.205218671 9.72786332,0.224365223 9.63398899,0.242972435 C9.62481735,1.24722254 9.46188603,2.223427 9.15112959,3.1537876 C10.0529167,3.48494204 11.0070361,3.65321627 11.9994605,3.65321627 C12.9937732,3.65348562 13.9487018,3.48467237 14.8475216,3.15432694 Z" id="Path"></path>
                <path d="M15.8407553,2.71907998 C16.5151399,2.37471172 17.1304485,1.94458849 17.6804766,1.43248565 C16.9677869,1.04550958 16.2197595,0.736737727 15.4447567,0.509675806 C15.4760481,1.26259372 15.6090368,2.00256748 15.8407553,2.71907998 Z" id="Path"></path>
                <path d="M0.188827695,9.91980134 C0.0633921547,10.5942454 0,11.295117 0,12.0043484 C0,12.7135798 0.0633921547,13.4144515 0.188557941,14.0878168 L0.194762279,14.1217952 C0.209059233,14.2008084 0.224704957,14.28117 0.240080926,14.3609923 C1.22872878,14.369352 2.20469821,14.5346596 3.14964595,14.8501732 C3.47793638,13.9343747 3.64626279,12.9762382 3.64626279,11.9962583 C3.64626279,11.0073794 3.4790154,10.0522092 3.15207373,9.1493549 C2.20685624,9.46513816 1.23142632,9.63044571 0.243048219,9.63934481 C0.224165449,9.73318988 0.20528268,9.82703495 0.188827695,9.91980134 Z" id="Path"></path>
                <path d="M17.9038328,17.9063403 C17.2084073,18.5953465 16.6505564,19.3881755 16.2372935,20.2678382 C17.132067,20.7168383 17.938631,21.2944709 18.6391817,21.9918369 C18.7195684,21.9381726 18.799955,21.884778 18.8765651,21.8303047 C20.0300326,21.0245315 21.0229965,20.0321469 21.827942,18.8798481 C21.8829718,18.8027225 21.9366528,18.722361 21.9903338,18.6417297 C21.2857368,17.9279139 20.7100821,17.1218711 20.271732,16.241669 C19.3942228,16.6539941 18.5989884,17.2114014 17.9038328,17.9063403 Z" id="Path"></path>
                <path d="M22.5651793,6.32294637 C22.0553445,6.87522999 21.6272451,7.48953766 21.2857368,8.15831861 C22.0038215,8.38591987 22.7410588,8.51617035 23.4885467,8.54745204 C23.2606047,7.77242121 22.9514668,7.02813273 22.5651793,6.32294637 Z" id="Path"></path>
                <path d="M6.85903113,6.85716212 C6.06649432,7.64945181 5.15850287,8.28425438 4.15555805,8.7510527 C4.53294369,9.78092143 4.72527818,10.8698478 4.72527818,11.996528 C4.72527818,13.1129607 4.53240418,14.2045838 4.15340002,15.2490147 C5.15742385,15.7160827 6.06595482,16.3511549 6.85903113,17.1437143 C7.65372598,17.9311499 8.28764752,18.8369706 8.7489266,19.8396027 C9.79449253,19.4609864 10.8845678,19.2687118 12,19.2687118 C13.1267618,19.2687118 14.2160279,19.4609864 15.2464876,19.8382543 C15.7145105,18.8326559 16.3503203,17.9271049 17.1423176,17.1418266 C17.9335057,16.3511549 18.8409576,15.716622 19.8436327,15.2500934 C19.4613915,14.2121346 19.2666292,13.1197025 19.2666292,11.9962583 C19.2666292,10.8660725 19.4611217,9.77633704 19.8439024,8.74916501 C18.8412274,8.28236669 17.9329662,7.64891247 17.1406991,6.85662278 C16.3487018,6.0651421 15.7145105,5.15851243 15.2475666,4.15668935 C14.2241205,4.53692369 13.1329662,4.73162524 11.9997302,4.73162524 C10.8681128,4.73162524 9.77830729,4.53746303 8.7518939,4.15641968 C8.28575924,5.15851243 7.65129819,6.06541177 6.85903113,6.85716212 Z" id="Path"></path>
                <path d="M15.8385973,21.2815268 C15.6082275,21.9972303 15.4760481,22.7369344 15.4447567,23.490931 C16.2189502,23.263869 16.9642801,22.9564455 17.6740025,22.5716268 C17.1264022,22.0622207 16.5127122,21.6296704 15.8385973,21.2815268 Z" id="Path"></path>
                <path d="M5.12397437,2.17057173 C3.98534337,2.95800737 2.98995167,3.95066167 2.16342587,5.12156768 C2.10785658,5.19950223 2.05525458,5.28013349 2.00238283,5.36049507 C2.69969653,6.06055771 3.27723952,6.86633089 3.72610992,7.76055574 C4.60415871,7.34823071 5.40047207,6.79028402 6.09616725,6.0945361 C6.79132292,5.39959718 7.34890412,4.60488046 7.76135776,3.72791447 C6.87872317,3.29024048 6.0683826,2.71611361 5.35164662,2.0157813 C5.27503653,2.06647921 5.19842644,2.11717712 5.12397437,2.17057173 Z" id="Path"></path>
                <path d="M0.51010453,8.55257577 C1.25624368,8.52102441 1.99348095,8.38861657 2.7115657,8.15831861 C2.36412274,7.48576228 1.93251658,6.87388164 1.42457008,6.32753075 C1.0404406,7.0453916 0.734269979,7.79021942 0.51010453,8.55257577 Z" id="Path"></path>
                <path d="M22.282747,17.3605288 C22.600517,16.7567382 22.8597505,16.1265201 23.0599078,15.476616 C22.4543104,15.5332466 21.8592334,15.6567554 21.2789929,15.8441758 C21.5557604,16.3840547 21.8910644,16.8913034 22.282747,17.3605288 Z" id="Path"></path>
                <path d="M23.7569518,9.63961448 C22.7672249,9.63071538 21.7904462,9.46729552 20.8457682,9.15501796 C20.5147803,10.0532879 20.3456446,11.0063007 20.3456446,11.996528 C20.3456446,12.9810922 20.51505,13.9386895 20.847117,14.8504428 C21.7869394,14.5349293 22.7645274,14.3696217 23.7599191,14.3609923 C23.775295,14.2809004 23.7909408,14.2008084 23.8052377,14.1217952 L23.8111723,14.0880865 C23.9366078,13.4141818 24,12.7133102 24,12.0040788 C24,11.2948473 23.9366078,10.5939757 23.8114421,9.92061035 C23.7949871,9.82757429 23.7758346,9.73372922 23.7569518,9.63961448 Z" id="Path"></path>
            </g>
        </g>
    </g>
</svg>