<?xml version="1.0" encoding="UTF-8"?>
<svg width="24px" height="24px" viewBox="0 0 24 24" version="1.1" xmlns="http://www.w3.org/2000/svg" xmlns:xlink="http://www.w3.org/1999/xlink">
    <title>gem2</title>
    <g id="gem2" stroke="none" stroke-width="1" fill="none" fill-rule="evenodd">
        <g id="noun-gem-756130" fill="#000000" fill-rule="nonzero">
            <path d="M0.19619232,14.1276875 C0.241110035,14.3746695 0.28731849,14.6299101 0.353146176,14.863472 C0.632203937,16.0416046 1.09635366,17.1655405 1.72571797,18.1932128 C1.87595999,18.4577442 2.0440142,18.7000808 2.17076476,18.8776394 C2.97721846,20.0389969 3.9708293,21.0323446 5.11984511,21.8267131 C5.33823814,21.9825931 5.55972894,22.1258272 5.78793159,22.2592542 C6.81949016,22.8990331 7.94449823,23.3658988 9.12939658,23.6464312 C9.39787028,23.7114672 9.65472733,23.7656639 9.91132623,23.8108278 C10.5866409,23.9365125 11.2895773,24 12,24 C12.7104227,24 13.4133591,23.9362544 14.0871249,23.8110859 L14.122233,23.8046339 C14.370313,23.759728 14.6269119,23.7132738 14.861052,23.6469473 C16.0397548,23.3679635 17.1642465,22.9039367 18.1999355,22.2700936 C18.4552436,22.1170525 18.6715715,21.9761411 18.8775734,21.8292939 C20.0302033,21.0240861 21.0232978,20.0315126 21.8263956,18.8820268 C21.975605,18.6729824 22.1165537,18.45697 22.2680865,18.2045683 C22.9039045,17.1665728 23.3677961,16.0426369 23.6432398,14.8792148 C23.7131978,14.6301681 23.7594063,14.3749276 23.804324,14.1279456 L23.8107777,14.0915564 C23.9362375,13.4174529 24,12.7149607 24,12.0031776 C24,11.2913945 23.9362375,10.5889023 23.8115521,9.91841196 C23.7653437,9.65697749 23.7113908,9.39993038 23.647112,9.13514088 C23.3657309,7.94823358 22.8987415,6.82378149 22.2642143,5.80049654 C22.1242982,5.56254731 21.9810261,5.34137323 21.8302678,5.13000618 C21.0354308,3.97355225 20.0413036,2.97710756 18.8806712,2.17189973 C18.6713133,2.02247174 18.4552436,1.88181845 18.2027751,1.7305839 C17.1642465,1.09467618 16.0397548,0.630907444 14.8765408,0.355794769 C14.6266538,0.285597164 14.3700549,0.239142866 14.122233,0.194237045 L14.0886738,0.188301218 C12.738819,-0.0630681487 11.2567925,-0.0622939104 9.91468216,0.187785059 C9.65524363,0.233465119 9.39838658,0.28740372 9.13120361,0.352181657 C7.94424008,0.633230158 6.81923201,1.10009585 5.79619232,1.73471317 C5.5589545,1.87355991 5.33772185,2.01679399 5.12397548,2.16931894 C3.98735076,2.95517081 2.99167473,3.9477443 2.16637625,5.11684413 C2.0089061,5.33750204 1.86769926,5.56461194 1.7231365,5.79739959 C1.08809293,6.85552526 0.627299129,7.97842887 0.353662472,9.13307625 C0.288867377,9.40018846 0.234914489,9.65697749 0.189480478,9.91479885 C0.063762504,10.5899346 0,11.2924269 0,12.0031776 C0,12.7139284 0.063762504,13.4166787 0.18922233,14.0897498 L0.19619232,14.1276875 Z M1.20141981,15.0508376 C1.97508874,15.1011631 2.7381736,15.2611724 3.47828332,15.5280265 C3.14501452,16.231551 2.71726363,16.8829435 2.20070991,17.4716227 C1.77011939,16.709256 1.43555986,15.9004351 1.20141981,15.0508376 Z M5.56515005,21.1933862 C4.48815747,20.4485689 3.56011617,19.5207734 2.80425944,18.4319363 C2.7035818,18.2907668 2.58973863,18.1212086 2.47744434,17.9369399 C3.0828009,17.2721273 3.57896096,16.5283424 3.95869635,15.7190053 C4.91926428,16.1347712 5.78509197,16.7211277 6.5339787,17.4698161 C7.28415618,18.2128268 7.86782833,19.0750702 8.27699258,20.0343514 C7.46795741,20.4134701 6.72345918,20.9097569 6.05743788,21.5157274 C5.88964182,21.413786 5.72700871,21.3087477 5.56515005,21.1933862 Z M4.16211681,15.2449134 C4.57076476,14.2058856 4.78063892,13.1144676 4.78063892,11.9954352 C4.78063892,10.8653054 4.57128106,9.77646827 4.16340755,8.75292524 C5.18386576,8.31160942 6.10338819,7.68886375 6.89822523,6.89449526 C7.69228783,6.10064292 8.3149403,5.18136399 8.75688932,4.16169215 C9.77528235,4.573845 10.8644079,4.78521206 12.0002581,4.78521206 C13.1368829,4.78521206 14.227041,4.57358692 15.2441433,4.16195023 C15.685576,5.18162207 16.3082285,6.10064292 17.1025492,6.89449526 C17.8973863,7.68937991 18.817425,8.31341597 19.8381413,8.7547318 C19.4245886,9.77388748 19.2123911,10.8622084 19.2123911,11.9954352 C19.2123911,13.1206615 19.4243304,14.2125956 19.8371087,15.2454295 C18.8169087,15.6867453 17.89687,16.309491 17.1033237,17.1030853 C16.3095192,17.8894533 15.6860923,18.8069257 15.2433688,19.8302106 C14.2198128,19.4224451 13.1306873,19.2131427 12,19.2131427 C10.8819619,19.2131427 9.79102936,19.4224451 8.75095192,19.8309849 C8.31597289,18.811313 7.69512746,17.8935826 6.89770894,17.1038595 C6.10364634,16.3097491 5.18334947,15.6867453 4.16211681,15.2449134 Z M6.52132946,21.7936789 C7.11119716,21.2762297 7.76353662,20.8478178 8.4672475,20.5151534 C8.73468861,21.2519702 8.89474024,22.0174338 8.94456276,22.7994145 C8.09732172,22.5663688 7.28647951,22.2303493 6.52132946,21.7936789 Z M14.5241691,22.9315512 C14.3486286,22.9738762 14.1653437,23.0100073 13.9843821,23.0427834 L13.9474669,23.0494935 C12.6895127,23.2833134 11.3143595,23.2840877 10.0496934,23.0489773 C9.85737335,23.0151689 9.66531139,22.9746504 9.46860278,22.9294865 C9.42807357,22.0313701 9.25072604,21.1528677 8.94172314,20.3104964 C9.92010326,19.9264742 10.9470152,19.7293016 12,19.7293016 C13.0646015,19.7293016 14.0891901,19.9259581 15.0513069,20.309206 C14.7420458,21.1531258 14.5646983,22.0321443 14.5241691,22.9315512 Z M15.0484672,22.7994145 C15.0985479,22.0171757 15.2585995,21.2519702 15.5257825,20.5151534 C16.2413682,20.8529794 16.8942239,21.2826817 17.4740239,21.7980663 C16.7101646,22.2295751 15.8998387,22.5648203 15.0484672,22.7994145 Z M21.1939335,18.4352913 C20.4406583,19.5132891 19.5118425,20.4416008 18.4309777,21.1967412 C18.2776379,21.3059088 18.1183608,21.4112052 17.9386899,21.5224375 C17.2845434,20.9180154 16.5392707,20.4199221 15.7173282,20.0351257 C16.1339787,19.0724894 16.7202323,18.2094718 17.4675702,17.4690419 C18.2154243,16.7213858 19.0807357,16.1352874 20.0405292,15.7197795 C20.4145854,16.5283424 20.9107454,17.2723854 21.5215231,17.9377141 C21.4115521,18.115789 21.3051952,18.2796694 21.1939335,18.4352913 Z M21.8003227,17.4708485 C21.2796386,16.8824273 20.8539529,16.2305187 20.5253308,15.5262199 C21.2602775,15.259882 22.0223298,15.1003889 22.7990965,15.0505795 C22.5675379,15.8939831 22.2332365,16.7048687 21.8003227,17.4708485 Z M23.049758,10.0564845 C23.1666989,10.6838756 23.2260729,11.3388812 23.2260729,12.0029195 C23.2260729,12.6669579 23.1669571,13.3219635 23.0494998,13.9511612 L23.0425298,13.9893569 C23.0105195,14.1663994 22.9743788,14.347055 22.9315263,14.5261621 C22.0365279,14.5666806 21.1595999,14.7442393 20.3164892,15.0534184 C19.9282349,14.0809751 19.7289448,13.053819 19.7289448,11.9951771 C19.7289448,10.9295672 19.9279768,9.90705646 20.3159729,8.95035601 C21.1634721,9.25592206 22.0398838,9.43141607 22.9299774,9.47167646 C22.9743788,9.66755875 23.0151662,9.86008601 23.049758,10.0564845 Z M22.7990965,8.94777522 C22.0236205,8.89796588 21.2592449,8.74002127 20.5183608,8.47574793 C20.8490481,7.76396486 21.2757664,7.1097335 21.7930945,6.52363511 C22.2280736,7.28522752 22.5652146,8.09740349 22.7990965,8.94777522 Z M18.4351081,2.80496858 C19.5229429,3.55959284 20.450726,4.48945303 21.1962569,5.57416088 C21.3067441,5.72926662 21.4110358,5.89030819 21.5150694,6.06012445 C20.9104873,6.71977548 20.4166505,7.46407656 20.0407874,8.27857525 C19.081252,7.86332544 18.2159406,7.27722705 17.4678283,6.52957094 C16.7199742,5.7821729 16.1337206,4.91709065 15.7181026,3.95729324 C16.5364311,3.57972303 17.2809293,3.08395244 17.9376573,2.4772077 C18.115263,2.58740762 18.2791868,2.69373634 18.4351081,2.80496858 Z M17.4740239,2.20054655 C16.8924169,2.71747965 16.2403356,3.14511727 15.526557,3.47752358 C15.259374,2.74148104 15.0990642,1.97808208 15.0487254,1.19919835 C15.8936431,1.43121176 16.7060342,1.76671502 17.4740239,2.20054655 Z M9.46886092,1.06912632 C9.66531139,1.0242205 9.85840594,0.983443948 10.0533075,0.949119383 C10.6816392,0.8322094 11.3365602,0.772851131 12.0002581,0.772851131 C12.6639561,0.772851131 13.3188771,0.831951321 13.949274,0.949377463 L13.9846402,0.955571369 C14.162504,0.987831298 14.3442401,1.02396242 14.5244272,1.06706168 C14.5652146,1.96259731 14.7428203,2.8398093 15.0523395,3.68269673 C14.0948693,4.07007395 13.0700226,4.26905319 12.0005163,4.26905319 C10.9317844,4.26905319 9.90797031,4.07059011 8.94869313,3.68269673 C9.25382381,2.84832592 9.42884802,1.97188817 9.46886092,1.06912632 Z M8.94482091,1.19919835 C8.89577283,1.98479214 8.73778638,2.7481911 8.47421749,3.47752358 C7.7666344,3.14821422 7.1119716,2.721867 6.52132946,2.20467582 C7.28260729,1.76981198 8.09448209,1.43276024 8.94482091,1.19919835 Z M2.79806389,5.56487002 C3.57199096,4.4685486 4.50287189,3.5399788 5.57005486,2.80187162 C5.72623427,2.69038131 5.88757664,2.5863753 6.05743788,2.48262737 C6.72474992,3.08911403 7.47182962,3.58333614 8.28292998,3.95729324 C7.86705389,4.91683257 7.28080026,5.7821729 6.53320426,6.52957094 C5.78483382,7.27774321 4.91874798,7.8638416 3.9589545,8.27934949 C3.57457244,7.45814073 3.07660536,6.71358157 2.47279768,6.06012445 C2.57863827,5.89030819 2.68344627,5.72539543 2.79806389,5.56487002 Z M2.1958051,6.5287967 C2.7095192,7.10715271 3.13649564,7.75880327 3.4738948,8.47213482 C2.73507583,8.73821472 1.97353985,8.89744973 1.20141981,8.94777522 C1.42988061,8.1172756 1.7631494,7.30716427 2.1958051,6.5287967 Z M0.9517909,10.0528713 C0.985608261,9.85982793 1.02613746,9.66807491 1.07105518,9.47219262 C1.96011617,9.43115799 2.83626976,9.25385742 3.68402711,8.94442018 C4.06763472,9.90679838 4.26434334,10.9316318 4.26434334,11.9956933 C4.26434334,13.0489155 4.06711843,14.0765878 3.68299451,15.0536765 C2.83497903,14.7447554 1.95856728,14.5671968 1.06924814,14.5264202 C1.02717005,14.3517004 0.991287512,14.1697544 0.958502743,13.989615 L0.951274605,13.9496127 C0.834333656,13.3214473 0.774701517,12.6664417 0.774701517,12.0031776 C0.774701517,11.3399135 0.834075508,10.6849079 0.9517909,10.0528713 Z" id="Shape"></path>
        </g>
    </g>
</svg>