<svg width="24" height="24" viewBox="0 0 24 24" fill="none" xmlns="http://www.w3.org/2000/svg">
<g clip-path="url(#clip0_1891_30170)">
<path d="M14.1255 10.4324C14.3546 10.6291 14.6465 10.7373 14.9484 10.7373C15.2503 10.7373 15.5423 10.6291 15.7713 10.4324L17.8594 8.63855C18.3139 8.24029 18.5983 7.6828 18.654 7.08103C18.7096 6.47926 18.5322 5.87908 18.1584 5.40423C17.7846 4.92938 17.2429 4.61605 16.6448 4.52885C16.0468 4.44165 15.4382 4.58722 14.9443 4.93555C14.4505 4.58722 13.8418 4.44165 13.2438 4.52885C12.6458 4.61605 12.104 4.92938 11.7302 5.40423C11.3564 5.87908 11.179 6.47926 11.2346 7.08103C11.2903 7.6828 11.5747 8.24029 12.0292 8.63855L14.1255 10.4324ZM12.9097 6.27686C13.0605 6.10079 13.2744 5.99108 13.5054 5.97145C13.7363 5.95182 13.9658 6.02384 14.1441 6.17194L14.4033 6.37767C14.5609 6.5074 14.7587 6.57834 14.9628 6.57834C15.167 6.57834 15.3648 6.5074 15.5224 6.37767L15.7775 6.17194C15.9563 6.02952 16.1835 5.96239 16.411 5.98481C16.6385 6.00723 16.8482 6.11743 16.9958 6.29201C17.1433 6.46659 17.217 6.6918 17.2012 6.91982C17.1853 7.14785 17.0813 7.36072 16.911 7.51325L14.9525 9.18577L13.0023 7.51325C12.8265 7.36132 12.718 7.14591 12.7007 6.91418C12.6833 6.68245 12.7585 6.45329 12.9097 6.27686Z" fill="currentColor"/>
<path d="M22.7108 10.1157C22.4853 9.78436 22.1757 9.51884 21.8139 9.34634C22.1689 8.16117 22.2109 6.90426 21.9359 5.69802C21.6608 4.49179 21.078 3.37736 20.2442 2.4633C19.4104 1.54924 18.3542 0.866706 17.1782 0.482189C16.0023 0.0976719 14.7468 0.0242794 13.5341 0.269161C12.3214 0.514042 11.1927 1.06885 10.2581 1.87953C9.32355 2.69022 8.61486 3.72915 8.20111 4.89512C7.78736 6.06109 7.68265 7.31434 7.89718 8.5328C8.11171 9.75126 8.63817 10.8934 9.42528 11.8479C8.76546 12.0722 8.155 12.4214 7.62727 12.8765L5.29438 14.8803L4.92408 14.045C4.84357 13.8673 4.69637 13.7284 4.51429 13.6584C4.33221 13.5883 4.12987 13.5927 3.95101 13.6706L1.30542 14.8453C1.12579 14.9254 0.985276 15.0735 0.914698 15.2571C0.84412 15.4406 0.849246 15.6447 0.928952 15.8245L4.31308 23.4363C4.39319 23.6159 4.54127 23.7564 4.72485 23.827C4.90843 23.8976 5.11251 23.8924 5.29232 23.8127L7.93173 22.638C8.11136 22.5579 8.25188 22.4099 8.32246 22.2263C8.39304 22.0427 8.38791 21.8386 8.30821 21.6588L7.84327 20.6158L12.6037 20.5006C13.4974 20.4846 14.3788 20.2902 15.1963 19.9288C16.0138 19.5674 16.7508 19.0463 17.3641 18.3961L22.6326 12.8416C23.2745 12.1627 23.3074 10.9921 22.7108 10.1157ZM14.953 1.6153C16.4599 1.61748 17.9044 2.21704 18.9699 3.28254C20.0354 4.34805 20.635 5.79255 20.6371 7.2994C20.6363 8.00744 20.5016 8.70893 20.2401 9.36691C20.1441 9.41907 20.0537 9.48112 19.9706 9.55206L16.8128 12.2717C16.6501 11.9908 16.4164 11.7575 16.1351 11.5954C15.8538 11.4333 15.5348 11.348 15.2102 11.348L11.176 11.5373C10.3127 10.773 9.70282 9.76397 9.42741 8.64443C9.15201 7.52489 9.2242 6.34801 9.63437 5.27052C10.0445 4.19304 10.7732 3.26607 11.7234 2.61308C12.6736 1.96008 13.8001 1.61204 14.953 1.6153ZM5.36638 22.1464L2.58502 15.8986L3.87078 15.3267L6.03498 20.1879L6.65214 21.5745L5.36638 22.1464ZM21.5588 11.8191L16.2943 17.3777C15.8176 17.889 15.2423 18.2984 14.603 18.5813C13.9638 18.8641 13.2739 19.0146 12.5749 19.0235L7.19319 19.1367L5.92389 16.2956L8.59827 13.9874C9.27548 13.4015 10.1311 13.0622 11.0258 13.0247L15.2822 12.8189C15.3562 12.786 15.5352 12.928 15.6319 13.1419C15.6524 13.193 15.6676 13.2461 15.6772 13.3003C15.6953 13.354 15.7006 13.4111 15.6927 13.4672C15.6849 13.5232 15.664 13.5767 15.6319 13.6233L10.6576 15.0634C10.56 15.0869 10.4683 15.1299 10.3878 15.1898C10.3074 15.2497 10.2399 15.3253 10.1895 15.412C10.1391 15.4987 10.1067 15.5948 10.0944 15.6943C10.0821 15.7939 10.0901 15.8949 10.1179 15.9913C10.1458 16.0877 10.1928 16.1774 10.2563 16.2551C10.3197 16.3328 10.3982 16.3968 10.4871 16.4434C10.576 16.4899 10.6734 16.5179 10.7734 16.5257C10.8734 16.5336 10.974 16.5211 11.069 16.489L16.0434 15.049C16.2923 14.9721 16.5175 14.833 16.6975 14.6447C16.8775 14.4564 17.0064 14.2252 17.072 13.973C17.0998 13.9607 17.1266 13.9462 17.1522 13.9298L20.9375 10.6753C20.9556 10.6597 20.9772 10.6486 21.0004 10.6429C21.0236 10.6371 21.0479 10.637 21.0712 10.6424C21.1569 10.6632 21.2374 10.7011 21.3081 10.7538C21.3788 10.8064 21.4382 10.8728 21.4827 10.9489C21.7069 11.274 21.7007 11.6669 21.5588 11.8191Z" fill="currentColor"/>
</g>
<defs>
<clipPath id="clip0_1891_30170">
<rect width="24" height="24" fill="white"/>
</clipPath>
</defs>
</svg>
