<?xml version="1.0" encoding="UTF-8" standalone="no"?>
<!DOCTYPE svg PUBLIC "-//W3C//DTD SVG 1.1//EN" "http://www.w3.org/Graphics/SVG/1.1/DTD/svg11.dtd">
<svg width="100%" height="100%" viewBox="0 0 24 24" version="1.1" xmlns="http://www.w3.org/2000/svg" xmlns:xlink="http://www.w3.org/1999/xlink" xml:space="preserve" xmlns:serif="http://www.serif.com/" style="fill-rule:evenodd;clip-rule:evenodd;stroke-linejoin:round;stroke-miterlimit:2;">
    <g transform="matrix(1,0,0,1,-222.306,-54.9825)">
        <g id="Greid" transform="matrix(0.13395,0,0,0.149263,196.841,29.9808)">
            <rect x="190.107" y="167.501" width="179.172" height="160.79" style="fill:none;"/>
            <g id="grid-2-light.svg" transform="matrix(0.349945,0,0,0.314042,279.693,247.896)">
                <g transform="matrix(1,0,0,1,-256,-256)">
                    <path d="M80,64C71.2,64 64,71.2 64,80L64,176C64,184.8 71.2,192 80,192L176,192C184.8,192 192,184.8 192,176L192,80C192,71.2 184.8,64 176,64L80,64ZM32,80C32,53.5 53.5,32 80,32L176,32C202.5,32 224,53.5 224,80L224,176C224,202.5 202.5,224 176,224L80,224C53.5,224 32,202.5 32,176L32,80ZM80,320C71.2,320 64,327.2 64,336L64,432C64,440.8 71.2,448 80,448L176,448C184.8,448 192,440.8 192,432L192,336C192,327.2 184.8,320 176,320L80,320ZM32,336C32,309.5 53.5,288 80,288L176,288C202.5,288 224,309.5 224,336L224,432C224,458.5 202.5,480 176,480L80,480C53.5,480 32,458.5 32,432L32,336ZM432,64L336,64C327.2,64 320,71.2 320,80L320,176C320,184.8 327.2,192 336,192L432,192C440.8,192 448,184.8 448,176L448,80C448,71.2 440.8,64 432,64ZM336,32L432,32C458.5,32 480,53.5 480,80L480,176C480,202.5 458.5,224 432,224L336,224C309.5,224 288,202.5 288,176L288,80C288,53.5 309.5,32 336,32ZM336,320C327.2,320 320,327.2 320,336L320,432C320,440.8 327.2,448 336,448L432,448C440.8,448 448,440.8 448,432L448,336C448,327.2 440.8,320 432,320L336,320ZM288,336C288,309.5 309.5,288 336,288L432,288C458.5,288 480,309.5 480,336L480,432C480,458.5 458.5,480 432,480L336,480C309.5,480 288,458.5 288,432L288,336Z" style="fill-rule:nonzero;"/>
                </g>
            </g>
        </g>
    </g>
</svg>
