<svg width="24" height="25" viewBox="0 0 24 25" fill="none" xmlns="http://www.w3.org/2000/svg">
<g clip-path="url(#clip0_1891_30198)">
<path d="M2.58643 10.7063C2.45725 10.7056 2.32922 10.7306 2.20984 10.78C2.09045 10.8293 1.9821 10.902 1.89113 10.9937C1.80017 11.0854 1.7284 11.1944 1.68004 11.3141C1.63167 11.4339 1.60768 11.5622 1.60947 11.6913V21.5227C1.61018 22.0264 1.81061 22.5094 2.16682 22.8656C2.52303 23.2218 3.00596 23.4222 3.50971 23.4229H20.4831C20.9869 23.4222 21.4698 23.2218 21.826 22.8656C22.1822 22.5094 22.3826 22.0264 22.3833 21.5227V11.6913C22.3833 11.4336 22.281 11.1865 22.0988 11.0043C21.9166 10.8221 21.6694 10.7197 21.4117 10.7197C21.1541 10.7197 20.9069 10.8221 20.7247 11.0043C20.5425 11.1865 20.4402 11.4336 20.4402 11.6913V21.4797H3.55803V11.6913C3.5598 11.5626 3.53599 11.4348 3.48795 11.3154C3.43992 11.196 3.36864 11.0873 3.27824 10.9956C3.18784 10.904 3.08013 10.8312 2.96137 10.7815C2.84261 10.7319 2.71516 10.7063 2.58643 10.7063Z" fill="black"/>
<path d="M0.973401 9.7346C1.16438 9.73562 1.35131 9.67954 1.51019 9.57356L11.9777 2.64357L22.4988 9.4501C22.6059 9.52103 22.7261 9.57 22.8523 9.59419C22.9784 9.61837 23.1082 9.61728 23.234 9.59099C23.3597 9.5647 23.479 9.51372 23.585 9.44101C23.6909 9.3683 23.7814 9.27529 23.8511 9.16739C23.9209 9.05948 23.9685 8.93881 23.9913 8.81236C24.0141 8.68591 24.0116 8.55619 23.9839 8.43072C23.9563 8.30525 23.904 8.18651 23.8301 8.08138C23.7562 7.97625 23.6623 7.88681 23.5536 7.81825L13.0029 0.987563C12.6973 0.787788 12.3401 0.681396 11.975 0.681396C11.6098 0.681396 11.2526 0.787788 10.947 0.987563L0.433925 7.95245C0.259606 8.06766 0.127074 8.236 0.0559928 8.43249C-0.0150884 8.62898 -0.020931 8.84315 0.0393318 9.04322C0.0995946 9.24329 0.222752 9.41861 0.39053 9.54315C0.558307 9.66769 0.761766 9.73483 0.970717 9.7346H0.973401Z" fill="black"/>
<path d="M6.60016 14.6061C7.45694 14.6061 8.15149 13.9115 8.15149 13.0547C8.15149 12.198 7.45694 11.5034 6.60016 11.5034C5.74338 11.5034 5.04883 12.198 5.04883 13.0547C5.04883 13.9115 5.74338 14.6061 6.60016 14.6061Z" fill="black"/>
<path d="M12.0005 14.6088C12.308 14.6093 12.6087 14.5186 12.8646 14.3482C13.1206 14.1777 13.3202 13.9352 13.4382 13.6513C13.5562 13.3674 13.5874 13.0548 13.5277 12.7532C13.4681 12.4516 13.3203 12.1744 13.103 11.9568C12.8858 11.7392 12.6089 11.591 12.3074 11.5308C12.0059 11.4706 11.6933 11.5012 11.4092 11.6188C11.125 11.7363 10.8822 11.9355 10.7113 12.1911C10.5404 12.4467 10.4492 12.7473 10.4492 13.0547C10.4492 13.4664 10.6126 13.8613 10.9034 14.1527C11.1943 14.444 11.5889 14.608 12.0005 14.6088Z" fill="black"/>
<path d="M17.4009 14.6088C17.7084 14.6093 18.0091 14.5186 18.265 14.3482C18.5209 14.1777 18.7205 13.9352 18.8386 13.6513C18.9566 13.3674 18.9878 13.0548 18.9281 12.7532C18.8684 12.4516 18.7207 12.1744 18.5034 11.9568C18.2862 11.7392 18.0093 11.591 17.7078 11.5308C17.4063 11.4706 17.0937 11.5012 16.8096 11.6188C16.5254 11.7363 16.2826 11.9355 16.1117 12.1911C15.9408 12.4467 15.8496 12.7473 15.8496 13.0547C15.8496 13.4664 16.013 13.8613 16.3038 14.1527C16.5947 14.444 16.9893 14.608 17.4009 14.6088Z" fill="black"/>
<path d="M6.59894 19.3431C6.90565 19.3426 7.20532 19.2512 7.46008 19.0804C7.71484 18.9096 7.91326 18.6671 8.03026 18.3836C8.14727 18.1001 8.17761 17.7883 8.11745 17.4875C8.05729 17.1868 7.90933 16.9106 7.69226 16.6939C7.4752 16.4772 7.19877 16.3297 6.89792 16.2701C6.59706 16.2105 6.28528 16.2413 6.00197 16.3588C5.71865 16.4763 5.47653 16.6752 5.30618 16.9302C5.13584 17.1853 5.04492 17.4851 5.04492 17.7918C5.04492 17.9958 5.08514 18.1977 5.16327 18.3861C5.2414 18.5745 5.35591 18.7456 5.50024 18.8897C5.64458 19.0338 5.81592 19.148 6.00444 19.2258C6.19297 19.3036 6.39499 19.3435 6.59894 19.3431Z" fill="black"/>
<path d="M12.0005 19.3431C12.3074 19.3431 12.6073 19.2522 12.8624 19.0817C13.1175 18.9112 13.3164 18.6689 13.4338 18.3855C13.5512 18.102 13.5819 17.7901 13.5221 17.4892C13.4622 17.1882 13.3145 16.9118 13.0975 16.6949C12.8805 16.4779 12.6041 16.3301 12.3032 16.2703C12.0023 16.2104 11.6903 16.2412 11.4069 16.3586C11.1234 16.476 10.8811 16.6748 10.7107 16.9299C10.5402 17.1851 10.4492 17.485 10.4492 17.7918C10.4492 18.2032 10.6127 18.5978 10.9036 18.8888C11.1945 19.1797 11.5891 19.3431 12.0005 19.3431Z" fill="black"/>
<path d="M17.4009 19.3431C17.7078 19.3431 18.0077 19.2522 18.2628 19.0817C18.5179 18.9112 18.7168 18.6689 18.8342 18.3855C18.9516 18.102 18.9823 17.7901 18.9225 17.4892C18.8626 17.1882 18.7149 16.9118 18.4979 16.6949C18.2809 16.4779 18.0045 16.3301 17.7036 16.2703C17.4027 16.2104 17.0907 16.2412 16.8073 16.3586C16.5238 16.476 16.2815 16.6748 16.1111 16.9299C15.9406 17.1851 15.8496 17.485 15.8496 17.7918C15.8496 17.9955 15.8897 18.1973 15.9677 18.3855C16.0457 18.5737 16.1599 18.7447 16.304 18.8888C16.448 19.0328 16.6191 19.1471 16.8073 19.2251C16.9955 19.303 17.1972 19.3431 17.4009 19.3431Z" fill="black"/>
</g>
<defs>
<clipPath id="clip0_1891_30198">
<rect width="24" height="24" fill="white" transform="translate(0 0.0549316)"/>
</clipPath>
</defs>
</svg>
