<?xml version="1.0" encoding="UTF-8"?>
<svg width="24px" height="24px" viewBox="0 0 24 24" version="1.1" xmlns="http://www.w3.org/2000/svg" xmlns:xlink="http://www.w3.org/1999/xlink">
    <title>Artboard Copy</title>
    <g id="Artboard-Copy" stroke="none" stroke-width="1" fill="none" fill-rule="evenodd">
        <g id="house-solid" transform="translate(1.000000, 2.000000)" fill="#000000" fill-rule="nonzero">
            <path d="M21.9942316,9.98046875 C21.9942316,10.6835938 21.4212662,11.234375 20.7719054,11.234375 L19.5495792,11.234375 L19.5763176,17.4921875 C19.5763176,17.5976562 19.5686781,17.703125 19.5572188,17.8085938 L19.5572188,18.4375 C19.5572188,19.3007812 18.8734801,20 18.029311,20 L17.418148,20 C17.3761305,20 17.334113,20 17.2920956,19.9960938 C17.2386188,20 17.185142,20 17.1316653,20 L15.8902402,20 L14.9734956,20 C14.1293266,20 13.4455879,19.3007812 13.4455879,18.4375 L13.4455879,17.5 L13.4455879,15 C13.4455879,14.3085938 12.8993609,13.75 12.2232617,13.75 L9.77860938,13.75 C9.10251021,13.75 8.55628321,14.3085938 8.55628321,15 L8.55628321,17.5 L8.55628321,18.4375 C8.55628321,19.3007812 7.8725445,20 7.02837549,20 L6.11163086,20 L4.89312446,20 C4.83582792,20 4.77853138,19.9960938 4.72123484,19.9921875 C4.67539761,19.9960938 4.62956038,20 4.58372315,20 L3.97256006,20 C3.12839105,20 2.44465234,19.3007812 2.44465234,18.4375 L2.44465234,14.0625 C2.44465234,14.0273438 2.44465234,13.9882812 2.44847211,13.953125 L2.44847211,11.234375 L1.22232617,11.234375 C0.5347677,11.234375 0,10.6875 0,9.98046875 C0,9.62890625 0.114593079,9.31640625 0.381976929,9.04296875 L10.1758654,0.3125 C10.4432492,0.0390625 10.7488308,0 11.0162146,0 C11.2835985,0 11.58918,0.078125 11.8183662,0.2734375 L21.5740569,9.04296875 C21.8796385,9.31640625 22.0324293,9.62890625 21.9942316,9.98046875 Z" id="Path"></path>
        </g>
    </g>
</svg>