<?xml version="1.0" encoding="UTF-8" standalone="no"?>
<!DOCTYPE svg PUBLIC "-//W3C//DTD SVG 1.1//EN" "http://www.w3.org/Graphics/SVG/1.1/DTD/svg11.dtd">
<svg width="100%" height="100%" viewBox="0 0 24 24" version="1.1" xmlns="http://www.w3.org/2000/svg" xmlns:xlink="http://www.w3.org/1999/xlink" xml:space="preserve" xmlns:serif="http://www.serif.com/" style="fill-rule:evenodd;clip-rule:evenodd;stroke-linejoin:round;stroke-miterlimit:2;">
    <g transform="matrix(1,0,0,1,-277.353,-54.6126)">
        <g id="Icebreaker" transform="matrix(0.13395,0,0,0.149263,251.888,29.6108)">
            <rect x="190.107" y="167.501" width="179.172" height="160.79" style="fill:none;"/>
            <clipPath id="_clip1">
                <rect x="190.107" y="167.501" width="179.172" height="160.79"/>
            </clipPath>
            <g clip-path="url(#_clip1)">
                <g id="ice.svg" transform="matrix(0.701198,0,0,0.629258,280.247,247.896)">
                    <g transform="matrix(1,0,0,1,-175,-175)">
                        <rect x="0" y="0" width="350" height="350" style="fill:none;"/>
                        <path d="M167.698,49.85L125.85,74.011C125.376,74.285 124.993,74.675 124.729,75.133L169.688,101.09C171.721,102.264 173.244,104.087 174.055,106.212C174.339,106.201 174.624,106.199 174.908,106.205C175.544,104.28 176.868,102.619 178.675,101.575L224.187,75.3C223.734,74.517 223.08,73.851 222.27,73.383L181.509,49.85C177.236,47.383 171.972,47.383 167.698,49.85ZM161.03,108.965C161.818,109.419 162.453,110.066 162.891,110.827L137.969,125.216C137.645,125.368 137.325,125.533 137.011,125.712L123.557,133.355C123.153,133.584 122.783,133.86 122.453,134.173L120.076,135.546C115.803,138.014 113.17,142.573 113.17,147.507L113.17,196.786C112.384,196.767 111.601,196.554 110.896,196.147L72.045,173.716L69.906,172.481C65.632,170.014 63,165.455 63,160.52L63,118.405C63,113.47 65.632,108.911 69.906,106.444L106.379,85.386C110.652,82.919 115.917,82.919 120.19,85.386L161.03,108.965ZM125.687,145.265L139.601,137.232C142.699,135.88 146.282,136.06 149.25,137.774L163.45,145.973L150.782,153.287C146.508,155.754 143.877,160.313 143.877,165.247L143.877,180.307L129.185,171.825C126.519,170.286 124.761,167.592 124.392,164.582L124.392,147.507C124.392,146.582 124.886,145.728 125.687,145.265ZM124.392,202.496L124.392,181.932L143.877,193.181L143.877,215.24L125.687,204.739C124.886,204.276 124.392,203.421 124.392,202.496ZM150.782,232.197C150.627,232.108 150.473,232.015 150.322,231.92L125.1,217.358C124.598,218.186 124.32,219.148 124.32,220.15L124.32,267.131C124.32,272.065 126.952,276.625 131.225,279.092L167.698,300.15C171.972,302.617 177.236,302.617 181.509,300.15L217.983,279.092C222.256,276.625 224.888,272.065 224.888,267.131L224.888,220.15C224.888,219.148 224.61,218.186 224.107,217.358L198.753,231.996C198.641,232.065 198.529,232.132 198.415,232.197L186.223,239.236C186.152,239.278 186.078,239.318 186.005,239.356L181.509,241.952C177.236,244.419 171.972,244.419 167.698,241.952L163.275,239.398C163.173,239.347 163.073,239.293 162.974,239.236L150.782,232.197ZM114.701,208.816C114.931,209.263 115.186,209.698 115.463,210.117C114.002,211.948 113.17,214.247 113.17,216.665L113.17,267.884C112.409,267.865 111.652,267.658 110.97,267.265L69.906,243.557C65.632,241.089 63,236.529 63,231.595L63,184.872C63,183.789 63.3,182.749 63.842,181.854L108.508,207.642C110.41,208.74 112.596,209.132 114.701,208.816ZM236.037,216.665C236.037,214.247 235.206,211.948 233.744,210.117C234.018,209.703 234.269,209.276 234.497,208.835C236.579,209.153 238.744,208.768 240.627,207.681L285.365,181.852C285.905,182.744 286.203,183.78 286.203,184.858L286.203,231.595C286.203,236.529 283.571,241.089 279.298,243.557L238.43,267.152C237.688,267.58 236.865,267.803 236.037,267.823L236.037,216.665ZM238.273,196.167C237.58,196.567 236.81,196.777 236.037,196.796L236.037,147.507C236.037,142.573 233.405,138.014 229.131,135.546L186.196,110.757C186.557,110.129 187.082,109.595 187.732,109.22L229.014,85.386C233.287,82.919 238.551,82.919 242.825,85.386L279.298,106.444C283.571,108.911 286.203,113.47 286.203,118.405L286.203,160.52C286.203,165.455 283.571,170.014 279.298,172.481L238.273,196.167ZM223.52,204.739L205.321,215.246L205.321,193.188L224.815,181.932L224.815,202.496C224.815,203.421 224.321,204.276 223.52,204.739ZM224.815,147.507L224.815,163.293C224.39,167.139 222.163,170.591 218.766,172.551L205.321,180.314L205.321,165.247C205.321,160.313 202.689,155.754 198.415,153.287L185.748,145.973L199.582,137.985C202.777,136.141 206.642,135.959 209.969,137.441L223.52,145.265C224.321,145.728 224.815,146.582 224.815,147.507ZM174.599,139.536L194.098,128.278L175.898,117.771C175.097,117.308 174.11,117.308 173.309,117.771L155.104,128.28L174.599,139.536ZM175.898,232.234L190.338,223.896C192.735,222.071 194.173,219.216 194.173,216.156L194.173,199.624L181.51,206.935C177.237,209.402 171.972,209.402 167.699,206.935L155.025,199.617L155.025,216.156C155.025,219.203 156.45,222.048 158.829,223.873L173.309,232.234C174.11,232.696 175.097,232.696 175.898,232.234ZM161.931,159.723L174.599,152.409L187.267,159.723C191.54,162.19 194.173,166.749 194.173,171.684L194.173,186.751L181.51,194.062C177.237,196.529 171.972,196.529 167.699,194.062L155.025,186.744L155.025,171.684C155.025,166.749 157.658,162.19 161.931,159.723Z"/>
                    </g>
                </g>
            </g>
        </g>
    </g>
</svg>
