<?xml version="1.0" encoding="UTF-8"?>
<svg width="24px" height="24px" viewBox="0 0 24 24" version="1.1" xmlns="http://www.w3.org/2000/svg" xmlns:xlink="http://www.w3.org/1999/xlink">
    <title>Artboard Copy 10</title>
    <g id="Artboard-Copy-10" stroke="none" stroke-width="1" fill="none" fill-rule="evenodd">
        <g id="circles-overlap-light" transform="translate(0.500000, 3.000000)" fill="#1E3050" fill-rule="nonzero">
            <path d="M8.3375,14.6179688 C7.431875,13.3453125 6.9,11.7949219 6.9,10.125 C6.9,6.64101563 9.21078125,3.68789063 12.4164062,2.64726563 C11.226875,1.69453125 9.70671875,1.125 8.05,1.125 C4.240625,1.125 1.15,4.1484375 1.15,7.875 C1.15,11.6015625 4.240625,14.625 8.05,14.625 C8.14703125,14.625 8.2440625,14.6214844 8.3375,14.6179688 Z M9.645625,14.4421875 C12.6859375,13.7390625 14.95,11.0636719 14.95,7.875 C14.95,6.23320313 14.3498437,4.72851562 13.354375,3.5578125 C10.3140625,4.2609375 8.05,6.93632812 8.05,10.125 C8.05,11.7667969 8.65015625,13.2714844 9.645625,14.4421875 Z M9.22875,15.665625 C8.84421875,15.721875 8.44890625,15.75 8.05,15.75 C3.60453125,15.75 0,12.2238281 0,7.875 C0,3.52617188 3.60453125,0 8.05,0 C10.2889063,0 12.3121875,0.89296875 13.77125,2.334375 C14.1557813,2.278125 14.5475,2.25 14.95,2.25 C19.3954688,2.25 23,5.77617188 23,10.125 C23,14.4738281 19.3954688,18 14.95,18 C12.7110937,18 10.6878125,17.1070313 9.22875,15.665625 Z M14.6625,3.38203125 C15.568125,4.65820312 16.1,6.20507812 16.1,7.875 C16.1,11.3589844 13.7892187,14.3121094 10.5835937,15.3527344 C11.773125,16.3054688 13.2932812,16.875 14.95,16.875 C18.759375,16.875 21.85,13.8515625 21.85,10.125 C21.85,6.3984375 18.759375,3.375 14.95,3.375 C14.8529687,3.375 14.7559375,3.37851562 14.6625,3.38203125 Z" id="Shape"></path>
        </g>
    </g>
</svg>