<?xml version="1.0" encoding="UTF-8" standalone="no"?>
<!DOCTYPE svg PUBLIC "-//W3C//DTD SVG 1.1//EN" "http://www.w3.org/Graphics/SVG/1.1/DTD/svg11.dtd">
<svg width="100%" height="100%" viewBox="0 0 24 24" version="1.1" xmlns="http://www.w3.org/2000/svg" xmlns:xlink="http://www.w3.org/1999/xlink" xml:space="preserve" xmlns:serif="http://www.serif.com/" style="fill-rule:evenodd;clip-rule:evenodd;stroke-linejoin:round;stroke-miterlimit:2;">
    <g transform="matrix(1,0,0,1,-137.668,-0.171075)">
        <g id="Links" transform="matrix(0.13395,0,0,0.149263,112.204,-24.8306)">
            <rect x="190.107" y="167.501" width="179.172" height="160.79" style="fill:none;"/>
            <g transform="matrix(7.77508,2.18391,-2.43358,6.9774,208.269,160.607)">
                <path d="M8.838,14.618C7.932,13.345 7.4,11.795 7.4,10.125C7.4,6.641 9.711,3.688 12.916,2.647C11.727,1.695 10.207,1.125 8.55,1.125C4.741,1.125 1.65,4.148 1.65,7.875C1.65,11.602 4.741,14.625 8.55,14.625C8.647,14.625 8.744,14.621 8.838,14.618ZM10.146,14.442C13.186,13.739 15.45,11.064 15.45,7.875C15.45,6.233 14.85,4.729 13.854,3.558C10.814,4.261 8.55,6.936 8.55,10.125C8.55,11.767 9.15,13.271 10.146,14.442ZM9.729,15.666C9.344,15.722 8.949,15.75 8.55,15.75C4.105,15.75 0.5,12.224 0.5,7.875C0.5,3.526 4.105,0 8.55,0C10.789,0 12.812,0.893 14.271,2.334C14.656,2.278 15.048,2.25 15.45,2.25C19.895,2.25 23.5,5.776 23.5,10.125C23.5,14.474 19.895,18 15.45,18C13.211,18 11.188,17.107 9.729,15.666ZM15.163,3.382C16.068,4.658 16.6,6.205 16.6,7.875C16.6,11.359 14.289,14.312 11.084,15.353C12.273,16.305 13.793,16.875 15.45,16.875C19.259,16.875 22.35,13.852 22.35,10.125C22.35,6.398 19.259,3.375 15.45,3.375C15.353,3.375 15.256,3.379 15.163,3.382Z" style="fill-rule:nonzero;"/>
            </g>
        </g>
    </g>
</svg>
