<?xml version="1.0" encoding="UTF-8" standalone="no"?>
<!DOCTYPE svg PUBLIC "-//W3C//DTD SVG 1.1//EN" "http://www.w3.org/Graphics/SVG/1.1/DTD/svg11.dtd">
<svg width="100%" height="100%" viewBox="0 0 24 24" version="1.1" xmlns="http://www.w3.org/2000/svg" xmlns:xlink="http://www.w3.org/1999/xlink" xml:space="preserve" xmlns:serif="http://www.serif.com/" style="fill-rule:evenodd;clip-rule:evenodd;stroke-linejoin:round;stroke-miterlimit:2;">
    <g transform="matrix(1,0,0,1,-138.757,-53.9476)">
        <g id="Links" transform="matrix(0.13395,0,0,0.149263,113.293,28.9459)">
            <rect x="190.107" y="167.501" width="179.172" height="160.79" style="fill:none;"/>
            <g transform="matrix(7.53439,0,0,6.62072,-855.346,-180.652)">
                <path d="M147.452,53.948C152.251,53.948 156.148,57.844 156.148,62.643C156.148,67.442 152.251,71.338 147.452,71.338C142.654,71.338 138.757,67.442 138.757,62.643C138.757,57.844 142.654,53.948 147.452,53.948ZM147.452,56.174C143.869,56.174 140.937,59.059 140.937,62.643C140.937,66.226 143.869,69.112 147.452,69.112C151.036,69.112 153.968,66.226 153.968,62.643C153.968,59.059 151.036,56.174 147.452,56.174Z"/>
            </g>
            <g transform="matrix(7.53439,0,0,6.62072,-807.249,-149.607)">
                <path d="M147.452,53.948C152.251,53.948 156.148,57.844 156.148,62.643C156.148,67.442 152.251,71.338 147.452,71.338C142.654,71.338 138.757,67.442 138.757,62.643C138.757,57.844 142.654,53.948 147.452,53.948ZM147.452,56.174C143.869,56.174 140.937,59.059 140.937,62.643C140.937,66.226 143.869,69.112 147.452,69.112C151.036,69.112 153.968,66.226 153.968,62.643C153.968,59.059 151.036,56.174 147.452,56.174Z"/>
            </g>
        </g>
    </g>
</svg>
