<svg width="24" height="24" viewBox="0 0 24 24" fill="none" xmlns="http://www.w3.org/2000/svg">
<path d="M1.55081 21.9132C1.55081 22.1336 1.63836 22.3449 1.79419 22.5008C1.95003 22.6566 2.1614 22.7442 2.38179 22.7442C2.60218 22.7442 2.81354 22.6566 2.96938 22.5008C3.12522 22.3449 3.21276 22.1336 3.21276 21.9132C3.21138 20.7138 3.45663 19.527 3.93327 18.4264C4.4099 17.3259 5.10775 16.3351 5.98346 15.5156C6.77008 16.2681 7.69786 16.8576 8.71333 17.2499C9.72879 17.6422 10.8119 17.8297 11.9001 17.8016C12.9884 17.7734 14.0603 17.5301 15.0541 17.0858C16.0479 16.6414 16.944 16.0048 17.6906 15.2126C18.6663 16.0342 19.4495 17.0603 19.9846 18.2183C20.5197 19.3762 20.7938 20.6376 20.7873 21.9132C20.7751 22.029 20.7873 22.1461 20.8233 22.2569C20.8592 22.3677 20.9181 22.4697 20.996 22.5563C21.0739 22.6429 21.1692 22.7121 21.2756 22.7595C21.382 22.8069 21.4972 22.8314 21.6137 22.8314C21.7302 22.8314 21.8453 22.8069 21.9517 22.7595C22.0582 22.7121 22.1534 22.6429 22.2313 22.5563C22.3093 22.4697 22.3681 22.3677 22.4041 22.2569C22.44 22.1461 22.4523 22.029 22.4401 21.9132C22.4368 20.3856 22.1006 18.877 21.4548 17.4926C20.809 16.1082 19.8691 14.8813 18.7007 13.8972C19.372 12.8113 19.7827 11.5847 19.9004 10.3135C20.0181 9.04226 19.8397 7.76106 19.3791 6.57036C18.9186 5.37967 18.1885 4.31187 17.246 3.45073C16.3035 2.58958 15.1743 1.9585 13.947 1.607C12.7197 1.2555 11.4276 1.19313 10.1722 1.42479C8.91671 1.65644 7.73199 2.17582 6.71095 2.94219C5.68991 3.70855 4.86031 4.70106 4.28722 5.84186C3.71414 6.98266 3.41316 8.24072 3.40788 9.51736C3.40704 11.2085 3.92723 12.8588 4.89768 14.2438C3.83949 15.221 2.99565 16.4072 2.41955 17.7273C1.84344 19.0475 1.54762 20.4728 1.55081 21.9132ZM11.6809 2.91544C12.989 2.91499 14.2678 3.30257 15.3555 4.02913C16.4431 4.7557 17.2909 5.7886 17.7913 6.99712C18.2918 8.20563 18.4225 9.53545 18.1669 10.8183C17.9113 12.1011 17.281 13.2793 16.3556 14.2037C15.4302 15.1282 14.2513 15.7573 12.9682 16.0116C11.6851 16.2658 10.3554 16.1337 9.14744 15.632C7.93945 15.1303 6.90744 14.2815 6.182 13.193C5.45657 12.1046 5.07032 10.8254 5.07214 9.51736C5.07639 7.76654 5.77425 6.08874 7.01292 4.85136C8.25159 3.61398 9.93012 2.91786 11.6809 2.91544Z" fill="currentColor"/>
<path d="M8.82586 12.0423C9.32527 12.0423 9.81347 11.8942 10.2287 11.6168C10.644 11.3393 10.9676 10.945 11.1587 10.4836C11.3498 10.0222 11.3998 9.51446 11.3024 9.02465C11.205 8.53483 10.9645 8.0849 10.6114 7.73177C10.2582 7.37863 9.80829 7.13814 9.31847 7.04071C8.82866 6.94328 8.32095 6.99328 7.85955 7.1844C7.39815 7.37552 7.00379 7.69916 6.72633 8.11441C6.44887 8.52965 6.30078 9.01785 6.30078 9.51726C6.30078 10.187 6.56681 10.8292 7.04036 11.3028C7.5139 11.7763 8.15616 12.0423 8.82586 12.0423ZM8.82586 8.66103C8.99566 8.66149 9.16151 8.71228 9.30244 8.807C9.44337 8.90171 9.55305 9.03609 9.61761 9.19314C9.68217 9.35018 9.69871 9.52285 9.66513 9.6893C9.63156 9.85575 9.54939 10.0085 9.429 10.1282C9.30861 10.248 9.15542 10.3293 8.9888 10.362C8.82217 10.3947 8.6496 10.3772 8.4929 10.3118C8.33619 10.2465 8.20241 10.1361 8.10845 9.99462C8.01449 9.85318 7.96458 9.68706 7.96504 9.51726C7.96805 9.29095 8.06008 9.07494 8.22119 8.91598C8.3823 8.75702 8.59953 8.6679 8.82586 8.66792V8.66103Z" fill="currentColor"/>
<path d="M14.6169 12.0423C15.1163 12.0423 15.6045 11.8942 16.0197 11.6168C16.435 11.3393 16.7586 10.945 16.9497 10.4836C17.1409 10.0222 17.1909 9.51446 17.0934 9.02465C16.996 8.53483 16.7555 8.0849 16.4024 7.73177C16.0492 7.37863 15.5993 7.13814 15.1095 7.04071C14.6197 6.94328 14.112 6.99328 13.6506 7.1844C13.1892 7.37552 12.7948 7.69916 12.5173 8.11441C12.2399 8.52965 12.0918 9.01785 12.0918 9.51726C12.0918 10.187 12.3578 10.8292 12.8314 11.3028C13.3049 11.7763 13.9472 12.0423 14.6169 12.0423ZM14.6169 8.66103C14.7867 8.66149 14.9525 8.71228 15.0935 8.807C15.2344 8.90171 15.3441 9.03609 15.4086 9.19314C15.4732 9.35018 15.4897 9.52285 15.4562 9.6893C15.4226 9.85575 15.3404 10.0085 15.22 10.1282C15.0996 10.248 14.9464 10.3293 14.7798 10.362C14.6132 10.3947 14.4406 10.3772 14.2839 10.3118C14.1272 10.2465 13.9934 10.1361 13.8995 9.99462C13.8055 9.85318 13.7556 9.68706 13.7561 9.51726C13.7591 9.29095 13.8511 9.07494 14.0122 8.91598C14.1733 8.75702 14.3905 8.6679 14.6169 8.66792V8.66103Z" fill="currentColor"/>
</svg>
