<?xml version="1.0" encoding="UTF-8"?>
<svg width="24px" height="24px" viewBox="0 0 24 24" version="1.1" xmlns="http://www.w3.org/2000/svg" xmlns:xlink="http://www.w3.org/1999/xlink">
    <title>Artboard Copy 14</title>
    <g id="Artboard-Copy-14" stroke="none" stroke-width="1" fill="none" fill-rule="evenodd">
        <g id="message-regular" transform="translate(1.000000, 1.000000)" fill="#000000" fill-rule="nonzero">
            <path d="M6.875,15.8131809 C8.01367188,15.8131809 8.9375,16.7370489 8.9375,17.8757698 L8.9375,18.5632994 L12.0527344,16.2256987 C12.409375,15.959281 12.8433594,15.8131809 13.2902344,15.8131809 L19.25,15.8131809 C19.628125,15.8131809 19.9375,15.5037926 19.9375,15.1256513 L19.9375,2.75011842 C19.9375,2.37197714 19.628125,2.06258882 19.25,2.06258882 L2.75,2.06258882 C2.371875,2.06258882 2.0625,2.37197714 2.0625,2.75011842 L2.0625,15.1256513 C2.0625,15.5037926 2.371875,15.8131809 2.75,15.8131809 L6.875,15.8131809 Z M8.9375,21.1415354 L8.92890625,21.1501295 L8.70976563,21.3134178 L7.975,21.8634415 C7.76875,22.0181356 7.48945313,22.043918 7.253125,21.9278974 C7.01679688,21.8118768 6.875,21.5755385 6.875,21.3134178 L6.875,20.398144 L6.875,20.1231322 L6.875,20.110241 L6.875,19.9383586 L6.875,17.8757698 L4.8125,17.8757698 L2.75,17.8757698 C1.23320313,17.8757698 0,16.6425135 0,15.1256513 L0,2.75011842 C0,1.23325623 1.23320312,0 2.75,0 L19.25,0 C20.7667969,0 22,1.23325623 22,2.75011842 L22,15.1256513 C22,16.6425135 20.7667969,17.8757698 19.25,17.8757698 L13.2902344,17.8757698 L8.9375,21.1415354 Z" id="Shape"></path>
        </g>
    </g>
</svg>