<?xml version="1.0" encoding="UTF-8" standalone="no"?>
<!DOCTYPE svg PUBLIC "-//W3C//DTD SVG 1.1//EN" "http://www.w3.org/Graphics/SVG/1.1/DTD/svg11.dtd">
<svg width="100%" height="100%" viewBox="0 0 24 24" version="1.1" xmlns="http://www.w3.org/2000/svg" xmlns:xlink="http://www.w3.org/1999/xlink" xml:space="preserve" xmlns:serif="http://www.serif.com/" style="fill-rule:evenodd;clip-rule:evenodd;stroke-linejoin:round;stroke-miterlimit:2;">
    <g transform="matrix(1,0,0,1,-111.372,-55.6541)">
        <g id="message-heart" serif:id="message heart" transform="matrix(0.13395,0,0,0.149263,85.9075,30.6523)">
            <rect x="190.107" y="167.501" width="179.172" height="160.79" style="fill:none;"/>
            <clipPath id="_clip1">
                <rect x="190.107" y="167.501" width="179.172" height="160.79"/>
            </clipPath>
            <g clip-path="url(#_clip1)">
                <g transform="matrix(0.349945,0,0,0.314056,190.107,167.501)">
                    <path d="M0,64C0,28.7 28.7,0 64,0L448,0C483.3,0 512,28.7 512,64L512,352C512,387.3 483.3,416 448,416L309.3,416L185.6,508.8C180.8,512.4 174.3,513 168.8,510.3C163.3,507.6 160,502.1 160,496L160,416L64,416C28.7,416 -0,387.3 -0,352L0,64ZM205.3,112C171.5,112 144,139.4 144,173.3C144,189.5 150.5,205.1 161.9,216.6L244.6,299.3C250.8,305.5 261,305.5 267.2,299.3L349.9,216.6C361.4,205.1 367.8,189.5 367.8,173.3C367.8,139.5 340.4,112 306.5,112C290.3,112 274.7,118.5 263.2,129.9L255.8,137.3L248.4,129.9C236.9,118.4 221.3,112 205.1,112L205.3,112Z" style="fill-rule:nonzero;"/>
                </g>
            </g>
        </g>
    </g>
</svg>
