<?xml version="1.0" encoding="UTF-8"?>
<svg width="24px" height="24px" viewBox="0 0 24 24" version="1.1" xmlns="http://www.w3.org/2000/svg" xmlns:xlink="http://www.w3.org/1999/xlink">
    <title>Artboard Copy 16</title>
    <g id="Artboard-Copy-16" stroke="none" stroke-width="1" fill="none" fill-rule="evenodd">
        <g id="messages-solid" transform="translate(0.000000, 2.000000)" fill="#000000" fill-rule="nonzero">
            <path d="M2.4,0 C1.07625,0 0,1.12114203 0,2.50010766 L0,10.0004306 C0,11.3793963 1.07625,12.5005383 2.4,12.5005383 L3.6,12.5005383 L3.6,14.375619 C3.6,14.6139105 3.7275,14.8287636 3.93,14.9342368 C4.1325,15.0397101 4.37625,15.0162716 4.56,14.8756406 L7.60125,12.5005383 L13.2,12.5005383 C14.52375,12.5005383 15.6,11.3793963 15.6,10.0004306 L15.6,2.50010766 C15.6,1.12114203 14.52375,0 13.2,0 L2.4,0 Z M13.2,13.7505921 L9.6,13.7505921 L9.6,15.000646 C9.6,16.3796116 10.67625,17.5007536 12,17.5007536 L16.39875,17.5007536 L19.44,19.8758559 C19.62,20.0164869 19.86375,20.0399255 20.07,19.9344522 C20.27625,19.8289789 20.4,19.6141259 20.4,19.3758344 L20.4,17.5007536 L21.6,17.5007536 C22.92375,17.5007536 24,16.3796116 24,15.000646 L24,7.50032298 C24,6.12135735 22.92375,5.00021532 21.6,5.00021532 L16.8,5.00021532 L16.8,10.0004306 C16.8,12.0708323 15.1875,13.7505921 13.2,13.7505921 Z" id="Shape"></path>
        </g>
    </g>
</svg>