<?xml version="1.0" encoding="UTF-8"?>
<svg width="24px" height="24px" viewBox="0 0 24 24" version="1.1" xmlns="http://www.w3.org/2000/svg" xmlns:xlink="http://www.w3.org/1999/xlink">
    <title>Artboard Copy 20</title>
    <g id="Artboard-Copy-20" stroke="none" stroke-width="1" fill="none" fill-rule="evenodd">
        <g id="messages-question-solid" transform="translate(1.000000, 3.000000)" fill="#000000" fill-rule="nonzero">
            <path d="M0,2.25009689 C0,1.00902783 0.9865625,0 2.2,0 L12.1,0 C13.3134375,0 14.3,1.00902783 14.3,2.25009689 L14.3,9.00038757 C14.3,10.2414566 13.3134375,11.2504845 12.1,11.2504845 L6.9678125,11.2504845 L4.18,13.3880765 C4.015,13.5146445 3.7915625,13.5357391 3.6025,13.4408132 C3.4134375,13.3458872 3.3,13.1525195 3.3,12.9380571 L3.3,11.2504845 L2.2,11.2504845 C0.9865625,11.2504845 0,10.2414566 0,9.00038757 L0,2.25009689 Z M8.8,12.3755329 L12.1,12.3755329 C13.921875,12.3755329 15.4,10.8637491 15.4,9.00038757 L15.4,4.50019379 L19.8,4.50019379 C21.0134375,4.50019379 22,5.50922161 22,6.75029068 L22,13.5005814 C22,14.7416504 21.0134375,15.7506783 19.8,15.7506783 L18.7,15.7506783 L18.7,17.4382509 C18.7,17.6527133 18.583125,17.846081 18.3975,17.9410069 C18.211875,18.0359329 17.9884375,18.0148382 17.82,17.8882703 L15.0321875,15.7506783 L11,15.7506783 C9.7865625,15.7506783 8.8,14.7416504 8.8,13.5005814 L8.8,12.3755329 Z M4.681875,3.24857739 L4.668125,3.28373515 C4.5409375,3.6493759 4.73,4.05017441 5.0875,4.18025813 C5.445,4.31034186 5.836875,4.11697416 5.9640625,3.75133341 L5.9778125,3.71617565 C6.00875,3.62124969 6.098125,3.56148149 6.194375,3.56148149 L7.8615625,3.56148149 C8.1021875,3.56148149 8.2946875,3.76188074 8.2946875,4.00446931 C8.2946875,4.16267925 8.2121875,4.31034186 8.078125,4.38768894 L6.80625,5.13654931 C6.593125,5.26311726 6.4625,5.49515851 6.4625,5.74477863 L6.4625,6.13854559 C6.4625,6.52528099 6.771875,6.84170087 7.15,6.84170087 C7.5246875,6.84170087 7.830625,6.53231254 7.8375,6.15260869 L8.7621875,5.61117913 C9.3225,5.28069615 9.6696875,4.66895105 9.6696875,4.00798509 C9.6696875,2.98489416 8.8584375,2.15868671 7.8615625,2.15868671 L6.194375,2.15868671 C5.51375,2.15868671 4.90875,2.59464298 4.681875,3.25209317 L4.681875,3.24857739 Z M8.0678125,8.71912546 C8.08869118,8.37068661 7.91879434,8.03917793 7.62674555,7.85850015 C7.33469676,7.67782236 6.96874074,7.67782236 6.67669195,7.85850015 C6.38464316,8.03917793 6.21474632,8.37068661 6.235625,8.71912546 C6.21474632,9.06756431 6.38464316,9.39907299 6.67669195,9.57975077 C6.96874074,9.76042856 7.33469676,9.76042856 7.62674555,9.57975077 C7.91879434,9.39907299 8.08869118,9.06756431 8.0678125,8.71912546 L8.0678125,8.71912546 Z" id="Shape"></path>
        </g>
    </g>
</svg>