<?xml version="1.0" encoding="UTF-8" standalone="no"?>
<!DOCTYPE svg PUBLIC "-//W3C//DTD SVG 1.1//EN" "http://www.w3.org/Graphics/SVG/1.1/DTD/svg11.dtd">
<svg width="100%" height="100%" viewBox="0 0 24 24" version="1.1" xmlns="http://www.w3.org/2000/svg" xmlns:xlink="http://www.w3.org/1999/xlink" xml:space="preserve" xmlns:serif="http://www.serif.com/" style="fill-rule:evenodd;clip-rule:evenodd;stroke-linejoin:round;stroke-miterlimit:2;">
    <g transform="matrix(1,0,0,1,-166.458,-163.465)">
        <g id="write" transform="matrix(0.13395,0,0,0.149263,140.993,138.464)">
            <rect x="190.107" y="167.501" width="179.172" height="160.79" style="fill:none;"/>
            <g id="meteor-regular.svg" transform="matrix(0.345851,0,0,0.310368,279.079,248.836)">
                <g transform="matrix(1,0,0,1,-256,-256)">
                    <path d="M474.8,0C469.6,0 464.5,1.1 459.8,3.2L324,62.9L325.4,44.7C327.9,10.5 289.2,-10.8 261.7,9.6L82.7,142.5C30.6,181.2 0,242.7 0,307.5C0,419.8 91,512 203.6,512C269.3,512 331,480.2 369.3,426.7L495.6,249.8C515.3,222.2 493.8,184.1 460,186.7L449.3,187.5L508.8,52.2C510.9,47.5 512,42.4 512,37.2C512,16.7 495.3,0 474.8,0ZM306.8,122.9L453.8,58.2L389.2,204.9C385.8,212.6 386.7,221.6 391.6,228.4C396.5,235.2 404.6,239.1 413,238.5L446.5,235.9L330.1,398.9C301,439.7 253.8,464 203.6,464C117.8,464 48,393.6 48,307.5C48,257.8 71.6,210.6 111.4,181L276.2,58.6L273.2,99.2C272.6,107.6 276.4,115.7 283.3,120.6C290.2,125.5 299.1,126.4 306.8,123L306.8,122.9ZM200,424C261.441,424 312,373.441 312,312C312,250.559 261.441,200 200,200C138.559,200 88,250.559 88,312C88,373.441 138.559,424 200,424ZM176,264C189.166,264 200,274.834 200,288C200,301.166 189.166,312 176,312C162.834,312 152,301.166 152,288C152,274.834 162.834,264 176,264ZM200,360C200,351.223 207.223,344 216,344C224.777,344 232,351.223 232,360C232,368.777 224.777,376 216,376C207.223,376 200,368.777 200,360Z" style="fill-rule:nonzero;"/>
                </g>
            </g>
        </g>
    </g>
</svg>
