<?xml version="1.0" encoding="UTF-8"?>
<svg width="24px" height="24px" viewBox="0 0 24 24" version="1.1" xmlns="http://www.w3.org/2000/svg" xmlns:xlink="http://www.w3.org/1999/xlink">
    <title>Artboard Copy 11</title>
    <g id="Artboard-Copy-11" stroke="none" stroke-width="1" fill="none" fill-rule="evenodd">
        <g id="paper-plane-solid" transform="translate(2.000000, 2.000000)" fill="#000000" fill-rule="nonzero">
            <path d="M19.457736,0.218853986 C19.8522733,0.492234815 20.0593077,0.964793106 19.9850879,1.4373514 L17.4850496,17.6839836 C17.4264549,18.0628113 17.1959827,18.3947737 16.86004,18.5822349 C16.5240974,18.769696 16.1217475,18.7931286 15.7662733,18.6447219 L11.0943267,16.703718 L8.41850451,19.5976494 C8.07084293,19.9764771 7.52395956,20.1014512 7.04348345,19.91399 C6.56300735,19.7265289 6.25050256,19.2617815 6.25050256,18.7462633 L6.25050256,15.4813152 C6.25050256,15.3250975 6.30909721,15.1766908 6.41456757,15.063433 L12.9615428,7.9203825 C13.1881088,7.67433975 13.1802962,7.29551203 12.9459176,7.06118561 C12.711539,6.82685918 12.3326269,6.81123742 12.0865294,7.03384752 L4.14109526,14.0909784 L0.6918237,12.3647737 C0.27775486,12.1577854 0.0121257929,11.7438087 0.000406863474,11.2829667 C-0.011312066,10.8221247 0.230879142,10.3925263 0.629322743,10.1621053 L18.1295907,0.16417782 C18.5475659,-0.074054046 19.0631987,-0.0506214035 19.457736,0.218853986 Z" id="Path"></path>
        </g>
    </g>
</svg>