<?xml version="1.0" encoding="UTF-8" standalone="no"?>
<!DOCTYPE svg PUBLIC "-//W3C//DTD SVG 1.1//EN" "http://www.w3.org/Graphics/SVG/1.1/DTD/svg11.dtd">
<svg width="100%" height="100%" viewBox="0 0 24 24" version="1.1" xmlns="http://www.w3.org/2000/svg" xmlns:xlink="http://www.w3.org/1999/xlink" xml:space="preserve" xmlns:serif="http://www.serif.com/" style="fill-rule:evenodd;clip-rule:evenodd;stroke-linejoin:round;stroke-miterlimit:2;">
    <g transform="matrix(1,0,0,1,-304.996,-27.2489)">
        <g id="Party" transform="matrix(0.13395,0,0,0.149263,279.531,2.24723)">
            <rect x="190.107" y="167.501" width="179.172" height="160.79" style="fill:none;"/>
            <clipPath id="_clip1">
                <rect x="190.107" y="167.501" width="179.172" height="160.79"/>
            </clipPath>
            <g clip-path="url(#_clip1)">
                <g id="face-party-regular.svg" transform="matrix(0.279956,0,0,0.251234,279.693,248.725)">
                    <g transform="matrix(1,0,0,1,-320,-256)">
                        <clipPath id="_clip2">
                            <rect x="0" y="0" width="640" height="512"/>
                        </clipPath>
                        <g clip-path="url(#_clip2)">
                            <path d="M320,464C379,464 432.2,439.4 470.1,400L531.7,400C485.6,467.6 408,512 320,512C178.6,512 64,397.4 64,256C64,114.6 178.6,0 320,0C433.4,0 529.7,73.8 563.3,176L560,176C544.1,176 529.3,180.6 516.8,188.6C488.9,106.8 411.3,48 320,48C205.1,48 112,141.1 112,256C112,370.9 205.1,464 320,464ZM204.8,233.6C199.5,240.7 189.5,242.1 182.4,236.8C175.3,231.5 173.9,221.5 179.2,214.4C209.6,173.9 270.4,173.9 300.8,214.4C306.1,221.5 304.7,231.5 297.6,236.8C290.5,242.1 280.5,240.7 275.2,233.6C257.6,210.1 222.4,210.1 204.8,233.6ZM364.8,233.6C359.5,240.7 349.5,242.1 342.4,236.8C335.3,231.5 333.9,221.5 339.2,214.4C369.6,173.9 430.4,173.9 460.8,214.4C466.1,221.5 464.7,231.5 457.6,236.8C450.5,242.1 440.5,240.7 435.2,233.6C417.6,210.1 382.4,210.1 364.8,233.6ZM416,316C416,322.9 412.9,329.2 408.7,334.3C408.2,334.9 407.7,335.4 407.2,336L592,336C600.8,336 608,328.8 608,320L608,256C608,247.2 600.8,240 592,240L560,240C551.2,240 544,247.2 544,256C544,264.8 551.2,272 560,272L576,272C584.8,272 592,279.2 592,288C592,296.8 584.8,304 576,304L560,304C533.5,304 512,282.5 512,256C512,229.5 533.5,208 560,208L592,208C618.5,208 640,229.5 640,256L640,320C640,346.5 618.5,368 592,368L407.2,368C407.7,368.6 408.2,369.1 408.7,369.7C413,374.8 416,381.1 416,388C416,394.9 412.9,401.2 408.7,406.3C404.4,411.5 398.6,416 392,419.7C378.7,427.1 361.4,432 344,432C340.4,432 337.2,429.5 336.3,426C335.4,422.5 336.9,418.8 340.1,417L340.3,416.9C340.5,416.8 340.8,416.6 341.2,416.4C342,415.9 343.2,415.2 344.6,414.3C347.4,412.4 351.1,409.8 354.8,406.7C358.5,403.6 362,400.1 364.4,396.6C366.9,393.1 367.9,390.2 367.9,388C367.9,385.8 366.9,383 364.4,379.4C361.9,375.9 358.5,372.5 354.8,369.3C351.1,366.2 347.4,363.6 344.6,361.7C343.2,360.8 342,360.1 341.2,359.6C340.8,359.4 340.5,359.2 340.3,359.1L340.1,359C337.6,357.6 336,354.9 336,352C336,349.1 337.6,346.4 340.1,345L340.3,344.9C340.5,344.8 340.8,344.6 341.2,344.4C342,343.9 343.2,343.2 344.6,342.3C347.4,340.4 351.1,337.8 354.8,334.7C358.5,331.6 362,328.1 364.4,324.6C366.9,321.1 367.9,318.2 367.9,316C367.9,313.8 366.9,311 364.4,307.4C361.9,303.9 358.5,300.5 354.8,297.3C351.1,294.2 347.4,291.6 344.6,289.7C343.2,288.8 342,288.1 341.2,287.6C340.8,287.4 340.5,287.2 340.3,287.1L340.1,287C336.9,285.2 335.4,281.5 336.3,278C337.2,274.5 340.4,272 344,272C361.4,272 378.7,276.9 391.9,284.3C398.5,288 404.4,292.5 408.6,297.7C412.9,302.8 415.9,309.1 415.9,316L416,316ZM51.3,152.2L31.3,100.2C46.6,71.8 66,46 88.8,23.4L132,37.8C96.5,68.5 68.5,107.7 51.3,152.2ZM55.1,12.2C40.9,27.6 28,44.4 16.6,62.1L1.1,21.7C-1.2,16 0.2,9.4 4.4,4.9C8.6,0.4 15.2,-1.1 21.1,0.8L55.1,12.2Z" style="fill-rule:nonzero;"/>
                        </g>
                    </g>
                </g>
            </g>
        </g>
    </g>
</svg>
