<?xml version="1.0" encoding="UTF-8" standalone="no"?>
<!DOCTYPE svg PUBLIC "-//W3C//DTD SVG 1.1//EN" "http://www.w3.org/Graphics/SVG/1.1/DTD/svg11.dtd">
<svg width="100%" height="100%" viewBox="0 0 24 24" version="1.1" xmlns="http://www.w3.org/2000/svg" xmlns:xlink="http://www.w3.org/1999/xlink" xml:space="preserve" xmlns:serif="http://www.serif.com/" style="fill-rule:evenodd;clip-rule:evenodd;stroke-linejoin:round;stroke-miterlimit:2;">
    <g transform="matrix(1,0,0,1,-277.427,-27.2489)">
        <g id="Party" transform="matrix(0.13395,0,0,0.149263,251.963,2.24723)">
            <rect x="190.107" y="167.501" width="179.172" height="160.79" style="fill:none;"/>
            <clipPath id="_clip1">
                <rect x="190.107" y="167.501" width="179.172" height="160.79"/>
            </clipPath>
            <g clip-path="url(#_clip1)">
                <g id="face-party-light.svg" transform="matrix(0.279956,0,0,0.254475,279.693,247.896)">
                    <g transform="matrix(1,0,0,1,-320,-256)">
                        <clipPath id="_clip2">
                            <rect x="0" y="0" width="640" height="512"/>
                        </clipPath>
                        <g clip-path="url(#_clip2)">
                            <path d="M96,256C96,132.3 196.3,32 320,32C411.8,32 490.8,87.3 525.4,166.4C528.9,174.5 538.4,178.2 546.5,174.7C554.6,171.2 558.3,161.7 554.8,153.6C515.2,63.2 425,0 320,0C263.2,0 210.7,18.5 168.2,49.9L21.1,0.8C15.2,-1.1 8.7,0.5 4.4,4.9C0.1,9.3 -1.2,16 1.1,21.7L70,200.9C66.1,218.7 64,237.1 64,256C64,397.4 178.6,512 320,512C395.8,512 464,479 510.8,426.7C516.7,420.1 516.1,410 509.5,404.1C506.5,401.4 502.7,400 498.9,400L498.8,400C494.4,400 490.1,401.8 486.9,405.3C445.9,451.2 386.3,480 319.9,480C196.3,480 96,379.7 96,256ZM139.8,74.1C117.2,96.5 98.7,123.1 85.7,152.6L73.9,121.9C74.4,121.2 74.9,120.5 75.3,119.8C86.2,100.2 99.4,82.1 114.6,65.7L139.8,74.1ZM81.6,54.7C73.6,64.1 66.2,74 59.4,84.3L43.1,41.9L81.6,54.7ZM275.2,233.6C280.5,240.7 290.5,242.1 297.6,236.8C304.7,231.5 306.1,221.5 300.8,214.4C270.4,173.9 209.6,173.9 179.2,214.4C173.9,221.5 175.3,231.5 182.4,236.8C189.5,242.1 199.5,240.7 204.8,233.6C222.4,210.1 257.6,210.1 275.2,233.6ZM435.2,233.6C440.5,240.7 450.5,242.1 457.6,236.8C464.7,231.5 466.1,221.5 460.8,214.4C430.4,173.9 369.6,173.9 339.2,214.4C333.9,221.5 335.3,231.5 342.4,236.8C349.5,242.1 359.5,240.7 364.8,233.6C382.4,210.1 417.6,210.1 435.2,233.6ZM381.4,303.1C386.9,305.8 390.9,308.6 393.3,311.1C395.7,313.6 396,315.2 396,316C396,316.8 395.7,318.4 393.3,320.9C390.9,323.5 386.9,326.2 381.4,328.9C370.5,334.3 355.9,338.2 342.6,340.1C341.7,340.2 340.8,340.4 339.9,340.7C338.2,341.3 336.7,342.3 335.5,343.5C334.3,344.7 333.3,346.2 332.7,347.9C332.2,349.2 332,350.6 332,352C332,353.4 332.2,354.8 332.7,356.1C333.3,357.8 334.3,359.3 335.5,360.5C336.7,361.7 338.2,362.7 339.9,363.3C340.8,363.6 341.6,363.8 342.6,363.9C355.9,365.8 370.5,369.7 381.4,375.1C386.9,377.8 390.9,380.6 393.3,383.1C395.7,385.6 396,387.2 396,388C396,388.8 395.7,390.4 393.3,392.9C390.9,395.5 386.9,398.2 381.4,400.9C370.4,406.3 355.7,410.2 342.3,412.1C335.7,413 331.2,419.1 332.1,425.7C333,432.3 339.1,436.8 345.7,435.9C360.8,433.8 378.1,429.3 392,422.5C398.9,419.1 405.6,414.8 410.7,409.5C415.9,404.1 420,396.9 420,388.1C420,380.1 416.5,373.3 412,368.1L592,368.1C618.5,368.1 640,346.6 640,320.1L640,256.1C640,229.6 618.5,208.1 592,208.1L560,208.1C533.5,208.1 512,229.6 512,256.1C512,282.6 533.5,304.1 560,304.1L576,304.1C584.8,304.1 592,296.9 592,288.1C592,279.3 584.8,272.1 576,272.1L560,272.1C551.2,272.1 544,264.9 544,256.1C544,247.3 551.2,240.1 560,240.1L592,240.1C600.8,240.1 608,247.3 608,256.1L608,320.1C608,328.9 600.8,336.1 592,336.1L412,336.1C416.5,330.9 420,324.1 420,316.1C420,307.3 415.9,300.1 410.7,294.7C405.6,289.3 398.9,285.1 392,281.7C378.1,274.9 360.8,270.4 345.7,268.3C339.1,267.4 333.1,271.9 332.1,278.5C331.1,285.1 335.8,291.1 342.3,292.1C355.7,294 370.4,297.9 381.4,303.3L381.4,303.1Z" style="fill-rule:nonzero;"/>
                        </g>
                    </g>
                </g>
            </g>
        </g>
    </g>
</svg>
