<?xml version="1.0" encoding="UTF-8"?>
<svg width="24px" height="24px" viewBox="0 0 24 24" version="1.1" xmlns="http://www.w3.org/2000/svg" xmlns:xlink="http://www.w3.org/1999/xlink">
    <title>Artboard Copy 13</title>
    <g id="Artboard-Copy-13" stroke="none" stroke-width="1" fill="none" fill-rule="evenodd">
        <g id="planet-ringed-solid" transform="translate(2.000000, 2.000000)" fill="#000000" fill-rule="nonzero">
            <path d="M17.8211075,1.21701652 C17.8143391,1.183174 17.7814174,1.16122618 17.747575,1.16799468 C17.7137326,1.17476318 17.6917849,1.20768492 17.6985533,1.24152743 C17.7029318,1.2634197 17.718657,1.28131312 17.7398054,1.28846741 C17.7609538,1.29562169 17.7843125,1.29094993 17.8010825,1.27621195 C17.8178525,1.26147396 17.825486,1.23890879 17.8211075,1.21701652 L17.8211075,1.21701652 Z M16.1985624,3.27722775 C16.6165136,3.0272382 16.995404,2.82802778 17.3274214,2.67178432 C17.1672718,3.00380168 16.9680614,3.38269209 16.721978,3.80064336 C16.5501101,4.08969377 16.362618,4.39046244 16.1595015,4.70294937 C15.8938876,4.39436853 15.6087433,4.1092242 15.3001624,3.84361031 C15.6126494,3.6404938 15.913418,3.44909556 16.2024684,3.28113383 L16.1985624,3.27722775 Z M2.56631998,13.2885278 C0.406254066,16.3391815 -0.546831074,18.8156404 0.316414073,19.6827916 C1.69135657,21.0577341 7.14034743,17.8352127 12.48778,12.48778 C17.8352127,7.14034743 21.0577341,1.69135657 19.6827916,0.316414073 C18.8156404,-0.546831074 16.3391815,0.406254066 13.2885278,2.56631998 C12.2807575,2.1210261 11.1714288,1.87494264 9.99960285,1.87494264 C5.5115093,1.87494264 1.87494264,5.5115093 1.87494264,9.99960285 C1.87494264,11.1714288 2.1210261,12.2807575 2.56631998,13.2885278 Z M3.83970422,15.3001624 C4.10531811,15.6087433 4.39046244,15.8938876 4.69904328,16.1595015 C4.38655635,16.362618 4.08578768,16.5540162 3.79673727,16.721978 C3.378786,16.9719675 2.99989559,17.1711779 2.66787823,17.3274214 C2.82802778,16.995404 3.0272382,16.6165136 3.27332166,16.1985624 C3.44518947,15.9095119 3.63268163,15.6087433 3.83579814,15.2962563 L3.83970422,15.3001624 Z M1.21701603,17.8211071 C1.25085855,17.8278756 1.28378028,17.8059278 1.29054879,17.7720854 C1.29731729,17.738243 1.27536947,17.7053214 1.24152695,17.6985529 C1.21963468,17.6941744 1.19706951,17.7018079 1.18233152,17.7185779 C1.16759353,17.7353479 1.16292178,17.7587066 1.17007606,17.779855 C1.17723035,17.8010035 1.19512376,17.8167286 1.21701603,17.8211071 L1.21701603,17.8211071 Z M2.18742957,18.7375187 C2.16882781,18.7583192 2.1642877,18.7881519 2.17585955,18.8135444 C2.1874314,18.8389369 2.21292484,18.8550827 2.24082703,18.8546904 C2.26872923,18.8542982 2.29375871,18.8374421 2.30461217,18.8117343 C2.32321394,18.7909338 2.32775405,18.7611011 2.3161822,18.7357086 C2.30461035,18.7103161 2.27911691,18.6941703 2.25121471,18.6945555 C2.22331252,18.6949548 2.19828304,18.7118109 2.18742957,18.7375187 L2.18742957,18.7375187 Z M18.7375187,2.18742957 C18.7118109,2.19828304 18.6949548,2.22331252 18.6945555,2.25121471 C18.6941703,2.27911691 18.7103161,2.30461035 18.7357086,2.3161822 C18.7611011,2.32775405 18.7909338,2.32321394 18.8117343,2.30461217 C18.8374421,2.29375871 18.8542982,2.26872923 18.8546904,2.24082703 C18.8550827,2.21292484 18.8389369,2.1874314 18.8135444,2.17585955 C18.7881519,2.1642877 18.7583192,2.16882781 18.7375187,2.18742957 L18.7375187,2.18742957 Z M9.99960285,18.1242631 C14.4876964,18.1242631 18.1242631,14.4876964 18.1242631,9.99960285 C18.1242631,9.3707229 18.0539535,8.7574673 17.9172405,8.16764822 C16.6751049,9.83164113 15.1282946,11.6128166 13.3705556,13.3705556 C11.6128166,15.1282946 9.83164113,16.6751049 8.16764822,17.9172405 C8.7574673,18.0539535 9.36681682,18.1242631 9.99960285,18.1242631 L9.99960285,18.1242631 Z" id="Shape"></path>
        </g>
    </g>
</svg>