<svg width="24" height="24" viewBox="0 0 24 24" fill="none" xmlns="http://www.w3.org/2000/svg">
<path d="M22.9604 11.2941C22.9547 11.2735 22.9606 11.2517 22.9528 11.2315L20.3911 4.40001H22.2663C22.5283 4.40001 22.7703 4.26024 22.9014 4.03336C23.0324 3.80649 23.0324 3.52696 22.9014 3.30006C22.7703 3.07318 22.5284 2.93341 22.2663 2.93341H12.7331V0.733353C12.7331 0.471304 12.5933 0.229349 12.3665 0.0981973C12.1396 -0.0327324 11.8601 -0.0327324 11.6332 0.0981973C11.4063 0.229311 11.2665 0.47129 11.2665 0.733353V2.93341H1.73335C1.4713 2.93341 1.22935 3.07318 1.0982 3.30006C0.967268 3.52693 0.967268 3.80647 1.0982 4.03336C1.22931 4.26024 1.47129 4.40001 1.73335 4.40001H3.60854L1.04681 11.2315C1.03926 11.2517 1.04515 11.2735 1.03926 11.2941V11.2943C1.01716 11.3569 1.0039 11.4224 1.00004 11.4889C1.00004 11.514 1.00703 11.5373 1.0074 11.5622L1.01053 11.5928V11.5926C1.04368 12.8763 1.7477 14.0486 2.86531 14.6812C3.98292 15.3136 5.35044 15.3136 6.46804 14.6812C7.58565 14.0486 8.28968 12.8763 8.32282 11.5926L8.32595 11.562C8.32632 11.5372 8.33332 11.514 8.33332 11.4889C8.32945 11.4224 8.31619 11.3569 8.29391 11.2943C8.2882 11.2736 8.2941 11.2519 8.28636 11.2317L5.72463 4.40019H11.2667V20.5334H5.64449C5.38263 20.5334 5.14049 20.6732 5.00953 20.9001C4.87841 21.1269 4.87841 21.4065 5.00953 21.6334C5.14046 21.8602 5.38262 22 5.64449 22H18.3556C18.6174 22 18.8596 21.8602 18.9905 21.6334C19.1216 21.4065 19.1216 21.1269 18.9905 20.9001C18.8596 20.6732 18.6174 20.5334 18.3556 20.5334H12.7333V4.40019H18.2754L15.7135 11.2317C15.7059 11.2519 15.7118 11.2736 15.7059 11.2943L15.7061 11.2945C15.6838 11.3571 15.6706 11.4226 15.6667 11.4891C15.6667 11.5141 15.6737 11.5375 15.6741 11.5624L15.6772 11.593V11.5928C15.7104 12.8765 16.4144 14.0488 17.532 14.6814C18.6496 15.3138 20.0171 15.3138 21.1347 14.6814C22.2523 14.0488 22.9564 12.8765 22.9895 11.5928L22.9926 11.5622C22.9932 11.5373 23 11.514 23 11.4889V11.4891C22.9961 11.4226 22.9829 11.3571 22.9608 11.2945L22.9604 11.2941ZM4.66669 13.6886C4.21184 13.6881 3.76839 13.5468 3.39714 13.2842C3.02571 13.0216 2.74469 12.6506 2.59279 12.222H6.74059C6.58848 12.6506 6.30747 13.0216 5.93624 13.2842C5.565 13.5468 5.12138 13.6881 4.66669 13.6886V13.6886ZM2.79131 10.7552L4.66669 5.75527L6.54207 10.7557L2.79131 10.7552ZM19.3332 5.75527L21.2086 10.7557H17.4578L19.3332 5.75527ZM19.3332 13.6889C18.8785 13.6884 18.4349 13.5471 18.0636 13.2845C17.6924 13.0219 17.4114 12.6509 17.2593 12.2224H21.4071C21.2552 12.6509 20.9741 13.022 20.6027 13.2845C20.2315 13.5471 19.7881 13.6884 19.3332 13.6889V13.6889Z" fill="currentColor"/>
</svg>
