<?xml version="1.0" encoding="UTF-8" standalone="no"?>
<!DOCTYPE svg PUBLIC "-//W3C//DTD SVG 1.1//EN" "http://www.w3.org/Graphics/SVG/1.1/DTD/svg11.dtd">
<svg width="100%" height="100%" viewBox="0 0 24 24" version="1.1" xmlns="http://www.w3.org/2000/svg" xmlns:xlink="http://www.w3.org/1999/xlink" xml:space="preserve" xmlns:serif="http://www.serif.com/" style="fill-rule:evenodd;clip-rule:evenodd;stroke-linejoin:round;stroke-miterlimit:2;">
    <g transform="matrix(1,0,0,1,-140.993,-83.8026)">
        <g id="write" transform="matrix(0.13395,0,0,0.149263,115.528,58.8009)">
            <rect x="190.107" y="167.501" width="179.172" height="160.79" style="fill:none;"/>
            <g id="share-nodes-regular.svg" transform="matrix(0.349945,0,0,0.314042,279.693,247.896)">
                <g transform="matrix(1,0,0,1,-224,-256)">
                    <path d="M448,128C448,181 405,224 352,224C323.1,224 297.2,211.2 279.6,191L189.9,235.9C191.3,242.4 192,249.1 192,256C192,262.9 191.3,269.6 189.9,276.1L279.6,321C297.2,300.8 323.1,288 352,288C405,288 448,331 448,384C448,437 405,480 352,480C299,480 256,437 256,384C256,377.1 256.7,370.4 258.1,363.9L168.4,319C150.8,339.2 124.9,352 96,352C43,352 0,309 0,256C0,203 43,160 96,160C124.9,160 150.8,172.8 168.4,193L258.1,148.1C256.7,141.6 256,134.9 256,128C256,75 299,32 352,32C405,32 448,75 448,128ZM96,304C122.332,304 144,282.332 144,256C144,229.668 122.332,208 96,208C69.668,208 48,229.668 48,256C48,282.332 69.668,304 96,304ZM400,128C400,101.668 378.332,80 352,80C325.668,80 304,101.668 304,128C304,154.332 325.668,176 352,176C378.332,176 400,154.332 400,128ZM352,432C378.332,432 400,410.332 400,384C400,357.668 378.332,336 352,336C325.668,336 304,357.668 304,384C304,410.332 325.668,432 352,432Z" style="fill-rule:nonzero;"/>
                </g>
            </g>
        </g>
    </g>
</svg>
