<?xml version="1.0" encoding="UTF-8"?>
<svg width="24px" height="24px" viewBox="0 0 24 24" version="1.1" xmlns="http://www.w3.org/2000/svg" xmlns:xlink="http://www.w3.org/1999/xlink">
    <title>Artboard Copy 21</title>
    <g id="Artboard-Copy-21" stroke="none" stroke-width="1" fill="none" fill-rule="evenodd">
        <g id="share-solid" transform="translate(1.000000, 2.000000)" fill="#000000" fill-rule="nonzero">
            <path d="M13.1914062,0.11959902 C12.6972656,0.335883937 12.375,0.82358522 12.375,1.35793619 L12.375,4.07209985 L7.5625,4.07209985 C3.3859375,4.07209985 0,7.41391386 0,11.5360499 C0,16.3409678 3.50195312,18.4868534 4.30546875,18.9194233 C4.41289063,18.9787956 4.53320312,19 4.65351562,19 C5.121875,19 5.5,18.6225616 5.5,18.1645465 C5.5,17.8464804 5.31523438,17.5538597 5.07890625,17.3375748 C4.675,16.9601364 4.125,16.2179822 4.125,14.9287545 C4.125,12.6810877 5.97265625,10.857509 8.25,10.857509 L12.375,10.857509 L12.375,13.5716727 C12.375,14.1060236 12.6929687,14.5937249 13.1914062,14.8100098 C13.6898438,15.0262948 14.265625,14.9372363 14.6695312,14.5810023 L21.5445312,8.47413405 C21.8324219,8.21544032 22,7.85072458 22,7.46480443 C22,7.07888429 21.8367187,6.71416854 21.5445312,6.45547482 L14.6695312,0.348606579 C14.265625,-0.0118682821 13.6855469,-0.100926777 13.1914062,0.11959902 Z" id="Path"></path>
        </g>
    </g>
</svg>