<?xml version="1.0" encoding="UTF-8" standalone="no"?>
<!DOCTYPE svg PUBLIC "-//W3C//DTD SVG 1.1//EN" "http://www.w3.org/Graphics/SVG/1.1/DTD/svg11.dtd">
<svg width="100%" height="100%" viewBox="0 0 24 24" version="1.1" xmlns="http://www.w3.org/2000/svg" xmlns:xlink="http://www.w3.org/1999/xlink" xml:space="preserve" xmlns:serif="http://www.serif.com/" style="fill-rule:evenodd;clip-rule:evenodd;stroke-linejoin:round;stroke-miterlimit:2;">
    <g transform="matrix(1,0,0,1,-166.516,-83.8026)">
        <g id="write" transform="matrix(0.13395,0,0,0.149263,141.051,58.8009)">
            <rect x="190.107" y="167.501" width="179.172" height="160.79" style="fill:none;"/>
            <g id="share-nodes-sharp-light.svg" transform="matrix(0.349945,2.77556e-17,-6.93889e-17,0.314042,279.693,247.896)">
                <g transform="matrix(1,0,0,1,-224,-256)">
                    <clipPath id="_clip1">
                        <rect x="0" y="0" width="448" height="512"/>
                    </clipPath>
                    <g clip-path="url(#_clip1)">
                        <path d="M448,112C448,156.2 412.2,192 368,192C345.1,192 324.4,182.4 309.9,167L158.9,242.5C159.7,246.9 160,251.4 160,256C160,260.6 159.6,265.1 158.9,269.5L309.9,345C324.5,329.6 345.1,320 368,320C412.2,320 448,355.8 448,400C448,444.2 412.2,480 368,480C323.8,480 288,444.2 288,400C288,390.3 289.7,381 292.9,372.3L147.2,299.5C132.9,321.5 108.2,336 80,336C35.8,336 -0,300.2 -0,256C-0,211.8 35.8,176 80,176C108.2,176 132.9,190.5 147.2,212.5L292.9,139.6C289.7,131 288,121.7 288,111.9C288,67.7 323.8,31.9 368,31.9C412.2,31.9 448,67.7 448,111.9L448,112ZM80,304C106.332,304 128,282.332 128,256C128,229.668 106.332,208 80,208C53.668,208 32,229.668 32,256C32,282.332 53.668,304 80,304ZM416,112C416,85.668 394.332,64 368,64C341.668,64 320,85.668 320,112C320,138.332 341.668,160 368,160C394.332,160 416,138.332 416,112ZM368,448C394.332,448 416,426.332 416,400C416,373.668 394.332,352 368,352C341.668,352 320,373.668 320,400C320,426.332 341.668,448 368,448Z" style="fill-rule:nonzero;"/>
                    </g>
                </g>
            </g>
        </g>
    </g>
</svg>
