<svg width="16" height="16" viewBox="0 0 16 16" fill="none" xmlns="http://www.w3.org/2000/svg">
<path d="M3.4999 12.5C3.4999 12.6326 3.44722 12.7598 3.35345 12.8536C3.25968 12.9473 3.13251 13 2.9999 13C2.86729 13 2.74011 12.9473 2.64635 12.8536C2.55258 12.7598 2.4999 12.6326 2.4999 12.5V3.70703L1.3539 4.85403C1.30741 4.90052 1.25222 4.93739 1.19148 4.96255C1.13074 4.98771 1.06564 5.00066 0.999899 5.00066C0.934155 5.00066 0.869055 4.98771 0.808316 4.96255C0.747576 4.93739 0.692387 4.90052 0.645899 4.85403C0.599411 4.80754 0.562535 4.75235 0.537376 4.69161C0.512217 4.63087 0.499268 4.56577 0.499268 4.50003C0.499268 4.43428 0.512217 4.36918 0.537376 4.30844C0.562535 4.2477 0.599411 4.19252 0.645899 4.14603L2.6459 2.14703L2.6529 2.14003C2.7469 2.04873 2.8731 1.99816 3.00413 1.99929C3.13517 2.00041 3.26048 2.05313 3.3529 2.14603L5.3529 4.14603C5.39939 4.19245 5.43628 4.24757 5.46146 4.30825C5.48664 4.36893 5.49963 4.43398 5.49968 4.49967C5.49972 4.56537 5.48683 4.63044 5.46173 4.69115C5.43663 4.75186 5.39982 4.80704 5.3534 4.85353C5.30698 4.90002 5.25185 4.93691 5.19117 4.96209C5.1305 4.98727 5.06545 5.00026 4.99975 5.00031C4.93406 5.00035 4.86899 4.98746 4.80828 4.96236C4.74756 4.93726 4.69239 4.90045 4.6459 4.85403L3.4999 3.70703V12.5ZM6.9999 3.50003C6.9999 3.36742 7.05258 3.24024 7.14635 3.14647C7.24011 3.05271 7.36729 3.00003 7.4999 3.00003H14.4999C14.6325 3.00003 14.7597 3.05271 14.8535 3.14647C14.9472 3.24024 14.9999 3.36742 14.9999 3.50003C14.9999 3.63264 14.9472 3.75981 14.8535 3.85358C14.7597 3.94735 14.6325 4.00003 14.4999 4.00003H7.4999C7.36729 4.00003 7.24011 3.94735 7.14635 3.85358C7.05258 3.75981 6.9999 3.63264 6.9999 3.50003ZM7.4999 6.00003C7.36729 6.00003 7.24011 6.05271 7.14635 6.14647C7.05258 6.24024 6.9999 6.36742 6.9999 6.50003C6.9999 6.63264 7.05258 6.75981 7.14635 6.85358C7.24011 6.94735 7.36729 7.00003 7.4999 7.00003H12.4999C12.6325 7.00003 12.7597 6.94735 12.8535 6.85358C12.9472 6.75981 12.9999 6.63264 12.9999 6.50003C12.9999 6.36742 12.9472 6.24024 12.8535 6.14647C12.7597 6.05271 12.6325 6.00003 12.4999 6.00003H7.4999ZM7.4999 9.00003C7.36729 9.00003 7.24011 9.05271 7.14635 9.14647C7.05258 9.24024 6.9999 9.36742 6.9999 9.50003C6.9999 9.63264 7.05258 9.75981 7.14635 9.85358C7.24011 9.94735 7.36729 10 7.4999 10H10.4999C10.6325 10 10.7597 9.94735 10.8535 9.85358C10.9472 9.75981 10.9999 9.63264 10.9999 9.50003C10.9999 9.36742 10.9472 9.24024 10.8535 9.14647C10.7597 9.05271 10.6325 9.00003 10.4999 9.00003H7.4999ZM7.4999 12C7.36729 12 7.24011 12.0527 7.14635 12.1465C7.05258 12.2402 6.9999 12.3674 6.9999 12.5C6.9999 12.6326 7.05258 12.7598 7.14635 12.8536C7.24011 12.9473 7.36729 13 7.4999 13H8.4999C8.63251 13 8.75968 12.9473 8.85345 12.8536C8.94722 12.7598 8.9999 12.6326 8.9999 12.5C8.9999 12.3674 8.94722 12.2402 8.85345 12.1465C8.75968 12.0527 8.63251 12 8.4999 12H7.4999Z" fill="black"/>
</svg>
