<svg width="16" height="16" viewBox="0 0 16 16" fill="none" xmlns="http://www.w3.org/2000/svg">
<path d="M3.4999 2.5C3.4999 2.36739 3.44722 2.24021 3.35345 2.14645C3.25968 2.05268 3.13251 2 2.9999 2C2.86729 2 2.74011 2.05268 2.64635 2.14645C2.55258 2.24021 2.4999 2.36739 2.4999 2.5V11.293L1.3539 10.146C1.26001 10.0521 1.13267 9.99937 0.999899 9.99937C0.867123 9.99937 0.739786 10.0521 0.645899 10.146C0.552013 10.2399 0.499268 10.3672 0.499268 10.5C0.499268 10.6328 0.552013 10.7601 0.645899 10.854L2.6459 12.853L2.6529 12.86C2.74678 12.9515 2.87302 13.0023 3.00413 13.0011C3.13525 13 3.26061 12.9471 3.3529 12.854L5.3529 10.854C5.39939 10.8076 5.43628 10.7525 5.46146 10.6918C5.48664 10.6311 5.49963 10.5661 5.49968 10.5004C5.49972 10.4347 5.48683 10.3696 5.46173 10.3089C5.43663 10.2482 5.39982 10.193 5.3534 10.1465C5.30698 10.1 5.25185 10.0631 5.19117 10.0379C5.13049 10.0128 5.06545 9.99977 4.99975 9.99972C4.93406 9.99968 4.86899 10.0126 4.80828 10.0377C4.74756 10.0628 4.69239 10.0996 4.6459 10.146L3.4999 11.293V2.5ZM6.9999 3.5C6.9999 3.36739 7.05258 3.24021 7.14635 3.14645C7.24011 3.05268 7.36729 3 7.4999 3H14.4999C14.6325 3 14.7597 3.05268 14.8535 3.14645C14.9472 3.24021 14.9999 3.36739 14.9999 3.5C14.9999 3.63261 14.9472 3.75979 14.8535 3.85355C14.7597 3.94732 14.6325 4 14.4999 4H7.4999C7.36729 4 7.24011 3.94732 7.14635 3.85355C7.05258 3.75979 6.9999 3.63261 6.9999 3.5ZM7.4999 6C7.36729 6 7.24011 6.05268 7.14635 6.14645C7.05258 6.24021 6.9999 6.36739 6.9999 6.5C6.9999 6.63261 7.05258 6.75979 7.14635 6.85355C7.24011 6.94732 7.36729 7 7.4999 7H12.4999C12.6325 7 12.7597 6.94732 12.8535 6.85355C12.9472 6.75979 12.9999 6.63261 12.9999 6.5C12.9999 6.36739 12.9472 6.24021 12.8535 6.14645C12.7597 6.05268 12.6325 6 12.4999 6H7.4999ZM7.4999 9C7.36729 9 7.24011 9.05268 7.14635 9.14645C7.05258 9.24021 6.9999 9.36739 6.9999 9.5C6.9999 9.63261 7.05258 9.75979 7.14635 9.85355C7.24011 9.94732 7.36729 10 7.4999 10H10.4999C10.6325 10 10.7597 9.94732 10.8535 9.85355C10.9472 9.75979 10.9999 9.63261 10.9999 9.5C10.9999 9.36739 10.9472 9.24021 10.8535 9.14645C10.7597 9.05268 10.6325 9 10.4999 9H7.4999ZM7.4999 12C7.36729 12 7.24011 12.0527 7.14635 12.1464C7.05258 12.2402 6.9999 12.3674 6.9999 12.5C6.9999 12.6326 7.05258 12.7598 7.14635 12.8536C7.24011 12.9473 7.36729 13 7.4999 13H8.4999C8.63251 13 8.75968 12.9473 8.85345 12.8536C8.94722 12.7598 8.9999 12.6326 8.9999 12.5C8.9999 12.3674 8.94722 12.2402 8.85345 12.1464C8.75968 12.0527 8.63251 12 8.4999 12H7.4999Z" fill="black"/>
</svg>
