<?xml version="1.0" encoding="UTF-8" standalone="no"?>
<!DOCTYPE svg PUBLIC "-//W3C//DTD SVG 1.1//EN" "http://www.w3.org/Graphics/SVG/1.1/DTD/svg11.dtd">
<svg width="100%" height="100%" viewBox="0 0 24 24" version="1.1" xmlns="http://www.w3.org/2000/svg" xmlns:xlink="http://www.w3.org/1999/xlink" xml:space="preserve" xmlns:serif="http://www.serif.com/" style="fill-rule:evenodd;clip-rule:evenodd;stroke-linejoin:round;stroke-miterlimit:2;">
    <g transform="matrix(1,0,0,1,-166.235,-110.531)">
        <g id="write" transform="matrix(0.13395,0,0,0.149263,140.77,85.5289)">
            <rect x="190.107" y="167.501" width="179.172" height="160.79" style="fill:none;"/>
            <clipPath id="_clip1">
                <rect x="190.107" y="167.501" width="179.172" height="160.79"/>
            </clipPath>
            <g clip-path="url(#_clip1)">
                <g id="stars-regular.svg" transform="matrix(0.347898,0,0,0.312205,281.265,248.366)">
                    <g transform="matrix(1,0,0,1,-256,-256)">
                        <clipPath id="_clip2">
                            <rect x="0" y="0" width="512" height="512"/>
                        </clipPath>
                        <g clip-path="url(#_clip2)">
                            <path d="M325.8,152.3C327.1,156.9 331.3,160 336,160C340.7,160 344.9,156.9 346.2,152.3L360,104L408.3,90.2C412.9,88.9 416,84.7 416,80C416,75.3 412.9,71.1 408.3,69.8L360,56L346.2,7.7C344.9,3.1 340.7,0 336,0C331.3,0 327.1,3.1 325.8,7.7L312,56L263.7,69.8C259.1,71.1 256,75.3 256,80C256,84.7 259.1,88.9 263.7,90.2L312,104L325.8,152.3ZM115.7,346.2L75.5,307L131,298.9C146.6,296.6 160.2,286.8 167.1,272.6L191.9,222.3L216.7,272.6C223.7,286.8 237.2,296.6 252.8,298.9L308.3,307L268.1,346.2C256.8,357.2 251.7,373.1 254.3,388.6L263.8,444L214.3,417.9C200.3,410.5 183.6,410.5 169.6,417.9L120,444L129.5,388.6C132.2,373 127,357.2 115.7,346.2ZM170.4,157.4L124.1,251.4L20.5,266.5C0.9,269.3 -7,293.5 7.2,307.4L82.1,380.6L64.5,483.9C61.1,503.5 81.7,518.5 99.3,509.2L191.9,460.4L284.5,509.2C302.1,518.5 322.7,503.5 319.3,483.9L301.6,380.6L376.5,307.4C390.7,293.5 382.9,269.3 363.2,266.5L259.7,251.4L213.4,157.4C204.6,139.5 179.1,139.5 170.3,157.4L170.4,157.4ZM428.8,243.2L439.8,281.8C440.8,285.4 444.2,288 448,288C451.8,288 455.1,285.5 456.2,281.8L467.2,243.2L505.8,232.2C509.4,231.2 512,227.8 512,224C512,220.2 509.5,216.9 505.8,215.8L467.2,204.8L456.2,166.2C455.2,162.6 451.8,160 448,160C444.2,160 440.9,162.5 439.8,166.2L428.8,204.8L390.2,215.8C386.6,216.8 384,220.2 384,224C384,227.8 386.5,231.1 390.2,232.2L428.8,243.2Z" style="fill-rule:nonzero;"/>
                        </g>
                    </g>
                </g>
            </g>
        </g>
    </g>
</svg>
