<?xml version="1.0" encoding="UTF-8" standalone="no"?>
<!DOCTYPE svg PUBLIC "-//W3C//DTD SVG 1.1//EN" "http://www.w3.org/Graphics/SVG/1.1/DTD/svg11.dtd">
<svg width="100%" height="100%" viewBox="0 0 24 24" version="1.1" xmlns="http://www.w3.org/2000/svg" xmlns:xlink="http://www.w3.org/1999/xlink" xml:space="preserve" xmlns:serif="http://www.serif.com/" style="fill-rule:evenodd;clip-rule:evenodd;stroke-linejoin:round;stroke-miterlimit:2;">
    <g transform="matrix(1,0,0,1,-166.481,-137.041)">
        <g id="write" transform="matrix(0.13395,0,0,0.149263,141.016,112.039)">
            <rect x="190.107" y="167.501" width="179.172" height="160.79" style="fill:none;"/>
            <g id="star-shooting-regular.svg" transform="matrix(0.346363,0,0,0.310828,278.776,248.718)">
                <g transform="matrix(1,0,0,1,-256,-256)">
                    <clipPath id="_clip1">
                        <rect x="0" y="0" width="512" height="512"/>
                    </clipPath>
                    <g clip-path="url(#_clip1)">
                        <path d="M313,41L265,89C255.6,98.4 240.4,98.4 231.1,89C221.8,79.6 221.7,64.4 231.1,55.1L279,7C288.4,-2.4 303.6,-2.4 312.9,7C322.2,16.4 322.3,31.6 312.9,40.9L313,41ZM129.5,388.7L120,444L169.5,417.9C183.5,410.5 200.2,410.5 214.2,417.9L263.8,444L254.3,388.6C251.6,373 256.8,357.2 268.1,346.2L308.3,307L252.8,298.9C237.2,296.6 223.6,286.8 216.7,272.6L191.9,222.3L167.1,272.6C160.1,286.8 146.6,296.6 131,298.9L75.5,307L115.7,346.2C127,357.2 132.1,373.1 129.5,388.6L129.5,388.7ZM124.1,251.4L170.4,157.4C179.2,139.5 204.7,139.5 213.5,157.4L259.8,251.4L363.3,266.5C383,269.4 390.8,293.5 376.6,307.4L301.7,380.6L319.4,483.9C322.8,503.5 302.2,518.5 284.6,509.2L192,460.4L99.3,509.2C81.7,518.5 61.1,503.5 64.5,483.9L82.2,380.6L7.2,307.4C-7,293.5 0.9,269.3 20.5,266.5L124,251.4L124.1,251.4ZM505,199C514.4,208.4 514.4,223.6 505,232.9L457,280.9C447.6,290.3 432.4,290.3 423.1,280.9C413.8,271.5 413.7,256.3 423.1,247L471.1,199C480.5,189.6 495.7,189.6 505,199ZM505,41L361,185C351.6,194.4 336.4,194.4 327.1,185C317.8,175.6 317.7,160.4 327.1,151.1L471,7C480.4,-2.4 495.6,-2.4 504.9,7C514.2,16.4 514.3,31.6 504.9,40.9L505,41Z" style="fill-rule:nonzero;"/>
                    </g>
                </g>
            </g>
        </g>
    </g>
</svg>
