<?xml version="1.0" encoding="UTF-8" standalone="no"?>
<!DOCTYPE svg PUBLIC "-//W3C//DTD SVG 1.1//EN" "http://www.w3.org/Graphics/SVG/1.1/DTD/svg11.dtd">
<svg width="100%" height="100%" viewBox="0 0 24 24" version="1.1" xmlns="http://www.w3.org/2000/svg" xmlns:xlink="http://www.w3.org/1999/xlink" xml:space="preserve" xmlns:serif="http://www.serif.com/" style="fill-rule:evenodd;clip-rule:evenodd;stroke-linejoin:round;stroke-miterlimit:2;">
    <g transform="matrix(1,0,0,1,-194.688,-110.166)">
        <g id="write" transform="matrix(0.13395,0,0,0.149263,169.223,85.1642)">
            <rect x="190.107" y="167.501" width="179.172" height="160.79" style="fill:none;"/>
            <g id="list-timeline-solid.svg" transform="matrix(0.337314,0,0,0.302707,276.459,247.907)">
                <g transform="matrix(1,0,0,1,-256,-256)">
                    <path d="M16,96C16,69.668 37.668,48 64,48C90.332,48 112,69.668 112,96C112,122.332 90.332,144 64,144C37.668,144 16,122.332 16,96ZM64,208C90.332,208 112,229.668 112,256C112,282.332 90.332,304 64,304C37.668,304 16,282.332 16,256C16,229.668 37.668,208 64,208ZM64,368C90.332,368 112,389.668 112,416C112,442.332 90.332,464 64,464C37.668,464 16,442.332 16,416C16,389.668 37.668,368 64,368ZM191.5,54.4C197,50.2 203.8,48 210.7,48L424,48C437.3,48 448,58.7 448,72L448,120C448,133.3 437.3,144 424,144L210.7,144C203.8,144 197,141.8 191.5,137.6L153.1,108.8C144.6,102.4 144.6,89.6 153.1,83.2L191.5,54.4ZM153.1,243.2L191.5,214.4C197,210.2 203.8,208 210.7,208L488,208C501.3,208 512,218.7 512,232L512,280C512,293.3 501.3,304 488,304L210.7,304C203.8,304 197,301.8 191.5,297.6L153.1,268.8C144.6,262.4 144.6,249.6 153.1,243.2ZM153.1,403.2L191.5,374.4C197,370.2 203.8,368 210.7,368L424,368C437.3,368 448,378.7 448,392L448,440C448,453.3 437.3,464 424,464L210.7,464C203.8,464 197,461.8 191.5,457.6L153.1,428.8C144.6,422.4 144.6,409.6 153.1,403.2Z" style="fill-rule:nonzero;"/>
                </g>
            </g>
        </g>
    </g>
</svg>
