<?xml version="1.0" encoding="UTF-8"?>
<svg width="24px" height="24px" viewBox="0 0 24 24" version="1.1" xmlns="http://www.w3.org/2000/svg" xmlns:xlink="http://www.w3.org/1999/xlink">
    <title>Artboard Copy 12</title>
    <g id="Artboard-Copy-12" stroke="none" stroke-width="1" fill="none" fill-rule="evenodd">
        <g id="hammer-brush-solid" transform="translate(1.000000, 3.000000)" fill="#000000" fill-rule="nonzero">
            <path d="M4.95,0 C2.2171875,0 0,2.26757812 0,5.0625 C0,5.25585938 0.0996875,5.43867187 0.26125,5.540625 C0.4228125,5.64257812 0.625625,5.653125 0.7975,5.56523437 L2.5609375,4.66523437 C3.03875,5.26640625 3.7571875,5.625 4.5340625,5.625 L6.813125,5.625 C7.5659375,5.625 8.256875,5.1890625 8.59375,4.5 L9.9,4.5 C9.9,5.12226562 10.3915625,5.625 11,5.625 C11.6084375,5.625 12.1,5.12226562 12.1,4.5 L12.1,1.125 C12.1,0.502734375 11.6084375,0 11,0 C10.3915625,0 9.9,0.502734375 9.9,1.125 L8.5903125,1.125 C8.2534375,0.4359375 7.5625,0 6.8096875,0 L4.95,0 Z M3.85,6.75 L3.41,15.7535156 C3.3515625,16.9769531 4.30375,18 5.5,18 C6.69625,18 7.6484375,16.9769531 7.59,15.7535156 L7.15,6.75 L3.85,6.75 Z M14.375625,17.7679687 L15.0871875,15.5847656 C15.186875,15.2753906 15.613125,15.2753906 15.7128125,15.5847656 L16.424375,17.7679687 C16.4690625,17.9050781 16.59625,18 16.7371875,18 L20.35,18 C21.2609375,18 22,17.2441406 22,16.3125 L22,11.25 L12.1,11.25 L12.1,16.3125 C12.1,17.2441406 12.8390625,18 13.75,18 L14.0628125,18 C14.20375,18 14.3309375,17.9085938 14.375625,17.7679687 Z M13.0796875,8.33203125 C12.4884375,8.73632812 12.1275,9.40429688 12.1,10.125 L22,10.125 C21.9759375,9.40429688 21.6115625,8.73632812 21.0203125,8.33203125 L18.7825,6.80625 C18.755,6.78867188 18.7275,6.77460937 18.7,6.7640625 L18.7,1.6875 C18.7,0.755859375 17.9609375,0 17.05,0 C16.1390625,0 15.4,0.755859375 15.4,1.6875 L15.4,6.76757812 C15.3690625,6.778125 15.3415625,6.7921875 15.3175,6.80976562 L13.0796875,8.33203125 Z M17.05,2.25 C16.7462434,2.25 16.5,1.99816017 16.5,1.6875 C16.5,1.37683983 16.7462434,1.125 17.05,1.125 C17.3537566,1.125 17.6,1.37683983 17.6,1.6875 C17.6,1.99816017 17.3537566,2.25 17.05,2.25 Z" id="Shape"></path>
        </g>
    </g>
</svg>