<?xml version="1.0" encoding="UTF-8"?>
<svg width="24px" height="24px" viewBox="0 0 24 24" version="1.1" xmlns="http://www.w3.org/2000/svg" xmlns:xlink="http://www.w3.org/1999/xlink">
    <title>Artboard Copy 2</title>
    <g id="Artboard-Copy-2" stroke="none" stroke-width="1" fill="none" fill-rule="evenodd">
        <g id="user-solid" transform="translate(3.500000, 2.000000)" fill="#000000" fill-rule="nonzero">
            <path d="M8.5,9.5 C11.1825259,9.5 13.3571429,7.37335256 13.3571429,4.75 C13.3571429,2.12664744 11.1825259,0 8.5,0 C5.81747407,0 3.64285714,2.12664744 3.64285714,4.75 C3.64285714,7.37335256 5.81747407,9.5 8.5,9.5 Z M6.76584821,11.28125 C3.028125,11.28125 0,14.2425781 0,17.8978516 C0,18.5064453 0.5046875,19 1.12700893,19 L15.8729911,19 C16.4953125,19 17,18.5064453 17,17.8978516 C17,14.2425781 13.971875,11.28125 10.2341518,11.28125 L6.76584821,11.28125 Z" id="Shape"></path>
        </g>
    </g>
</svg>