<?xml version="1.0" encoding="UTF-8" standalone="no"?>
<!DOCTYPE svg PUBLIC "-//W3C//DTD SVG 1.1//EN" "http://www.w3.org/Graphics/SVG/1.1/DTD/svg11.dtd">
<svg width="100%" height="100%" viewBox="0 0 24 24" version="1.1" xmlns="http://www.w3.org/2000/svg" xmlns:xlink="http://www.w3.org/1999/xlink" xml:space="preserve" xmlns:serif="http://www.serif.com/" style="fill-rule:evenodd;clip-rule:evenodd;stroke-linejoin:round;stroke-miterlimit:2;">
    <g transform="matrix(1,0,0,1,-249.727,-0.045357)">
        <g id="Want" transform="matrix(0.13395,0,0,0.149263,224.262,-24.9564)">
            <rect x="190.107" y="167.501" width="179.172" height="160.79" style="fill:none;"/>
            <clipPath id="_clip1">
                <rect x="190.107" y="167.501" width="179.172" height="160.79"/>
            </clipPath>
            <g clip-path="url(#_clip1)">
                <g transform="matrix(0.32936,0,0,0.295569,190.107,170.282)">
                    <path d="M234.7,42.7L197,56.8C194,57.9 192,60.8 192,64C192,67.2 194,70.1 197,71.2L234.7,85.3L248.8,123C249.9,126 252.8,128 256,128C259.2,128 262.1,126 263.2,123L277.3,85.3L315,71.2C318,70.1 320,67.2 320,64C320,60.8 318,57.9 315,56.8L277.3,42.7L263.2,5C262.1,2 259.2,0 256,0C252.8,0 249.9,2 248.8,5L234.7,42.7ZM46.1,395.4C27.4,414.1 27.4,444.5 46.1,463.3L80.7,497.9C99.4,516.6 129.8,516.6 148.6,497.9L529.9,116.5C548.6,97.8 548.6,67.4 529.9,48.6L495.3,14.1C476.6,-4.6 446.2,-4.6 427.4,14.1L46.1,395.4ZM484.6,82.6L379.6,187.6L356.3,164.3L461.3,59.3L484.6,82.6ZM7.5,117.2C3,118.9 0,123.2 0,128C0,132.8 3,137.1 7.5,138.8L64,160L85.2,216.5C86.9,221 91.2,224 96,224C100.8,224 105.1,221 106.8,216.5L128,160L184.5,138.8C189,137.1 192,132.8 192,128C192,123.2 189,118.9 184.5,117.2L128,96L106.8,39.5C105.1,35 100.8,32 96,32C91.2,32 86.9,35 85.2,39.5L64,96L7.5,117.2ZM359.5,373.2C355,374.9 352,379.2 352,384C352,388.8 355,393.1 359.5,394.8L416,416L437.2,472.5C438.9,477 443.2,480 448,480C452.8,480 457.1,477 458.8,472.5L480,416L536.5,394.8C541,393.1 544,388.8 544,384C544,379.2 541,374.9 536.5,373.2L480,352L458.8,295.5C457.1,291 452.8,288 448,288C443.2,288 438.9,291 437.2,295.5L416,352L359.5,373.2Z" style="fill-rule:nonzero;"/>
                </g>
            </g>
        </g>
    </g>
</svg>
