<?xml version="1.0" encoding="UTF-8" standalone="no"?>
<!DOCTYPE svg PUBLIC "-//W3C//DTD SVG 1.1//EN" "http://www.w3.org/Graphics/SVG/1.1/DTD/svg11.dtd">
<svg width="100%" height="100%" viewBox="0 0 24 24" version="1.1" xmlns="http://www.w3.org/2000/svg" xmlns:xlink="http://www.w3.org/1999/xlink" xml:space="preserve" xmlns:serif="http://www.serif.com/" style="fill-rule:evenodd;clip-rule:evenodd;stroke-linejoin:round;stroke-miterlimit:2;">
    <g transform="matrix(1,0,0,1,-222.306,-110.168)">
        <g id="wreath" transform="matrix(0.13395,0,0,0.149263,196.841,85.1659)">
            <rect x="190.107" y="167.501" width="179.172" height="160.79" style="fill:none;"/>
            <g id="wreath-laurel-light.svg" transform="matrix(0.279956,0,0,0.251234,279.693,247.896)">
                <g transform="matrix(1,0,0,1,-320,-256)">
                    <clipPath id="_clip1">
                        <rect x="0" y="0" width="640" height="512"/>
                    </clipPath>
                    <g clip-path="url(#_clip1)">
                        <path d="M384,32C428.2,32 464,67.8 464,112C419.8,112 384,76.2 384,32ZM494.6,94C486,40.7 439.7,0 384,0L368,0C359.2,0 352,7.2 352,16L352,32C352,93.9 402.1,144 464,144L472.1,144C497.8,175.5 512,215 512,256C512,328.8 471.5,392.1 411.8,424.7C421.2,427 430.5,429.7 439.6,432.9C451.9,437.2 463.9,442.2 475.6,448.1L480.2,450.4C531.7,459.4 585.6,436.2 613.2,388.3L630,359C633.9,352.2 631.6,343.5 624.8,339.6C613.4,333 601.2,328.6 588.9,326.3C619.9,302.9 639.9,265.8 639.9,224L639.9,190.2C639.9,182.3 633.5,176 625.7,176C612.5,176 599.8,178.3 588,182.4C603.2,146.7 602,104.5 581.1,68.3L564.2,39C560.3,32.2 551.6,29.9 544.8,33.8C520.5,47.8 503.3,69.5 494.6,94ZM319.8,480L339.6,480C376.9,480 413.6,488.7 446.9,505.3L456.8,510.3C464.7,514.3 474.3,511 478.3,503.1C482.3,495.2 479,485.6 471.1,481.6L461.2,476.6C423.4,457.8 381.8,448 339.6,448L320,448C214,448 128,362 128,256C128,215 142.2,175.5 167.9,144L176,144C237.9,144 288,93.9 288,32L288,16C288,7.2 280.8,0 272,0L256,0C200.3,0 154,40.7 145.4,94C136.6,69.5 119.5,47.8 95.2,33.8C88.4,29.9 79.7,32.2 75.8,39L58.9,68.3C38,104.5 36.8,146.7 51.9,182.4C40.1,178.3 27.4,176 14.2,176C6.4,176 0,182.4 0,190.2L0,224C0,265.8 20,302.9 51,326.3C38.7,328.6 26.6,333 15.1,339.6C8.4,343.5 6.1,352.2 10,359L26.9,388.3C56.7,440 117.1,463 172,447.7C178.9,445.8 185.7,443.3 192.3,440.1C202.5,447.2 213.3,453.5 224.7,458.8C208.9,463.4 193.6,469.4 178.8,476.8L168.9,481.8C161,485.8 157.8,495.4 161.7,503.3C165.6,511.2 175.3,514.4 183.2,510.5L193.1,505.5C226.4,488.8 263.2,480.2 300.4,480.2L319.7,480.2L319.8,480ZM176,112C176,90.4 184.5,70.8 198.4,56.5C213,41.4 233.4,32 256,32C256,76.2 220.2,112 176,112ZM96,289.7L96,314.6C58.7,301.4 32,265.8 32,224L32,209.9C68.6,218 96,250.7 96,289.7ZM544,314.6L544,289.8C544,250.7 571.4,218.1 608,210L608,224.1C608,265.9 581.3,301.5 544,314.6ZM142.9,397.3L155.3,418.7C116.4,425.9 75.5,408.5 54.6,372.3L47.6,360.1C83.4,348.8 123.4,363.4 142.9,397.2L142.9,397.3ZM96.7,194.7C71,164.6 65.7,120.5 86.6,84.3L93.6,72.1C121.3,97.4 128.6,139.4 109.1,173.2L96.7,194.7ZM530.8,173.3C511.3,139.5 518.7,97.5 546.3,72.2L553.3,84.4C574.2,120.6 568.8,164.8 543.1,194.8L530.7,173.4L530.8,173.3ZM497,397.3C516.5,363.5 556.6,348.9 592.3,360.2L585.3,372.4C564.4,408.6 523.5,426 484.6,418.8L497,397.4L497,397.3Z" style="fill-rule:nonzero;"/>
                    </g>
                </g>
            </g>
        </g>
    </g>
</svg>
