<?xml version="1.0" encoding="UTF-8" standalone="no"?>
<!DOCTYPE svg PUBLIC "-//W3C//DTD SVG 1.1//EN" "http://www.w3.org/Graphics/SVG/1.1/DTD/svg11.dtd">
<svg width="100%" height="100%" viewBox="0 0 24 24" version="1.1" xmlns="http://www.w3.org/2000/svg" xmlns:xlink="http://www.w3.org/1999/xlink" xml:space="preserve" xmlns:serif="http://www.serif.com/" style="fill-rule:evenodd;clip-rule:evenodd;stroke-linejoin:round;stroke-miterlimit:2;">
    <g transform="matrix(1,0,0,1,-222.306,-82.7505)">
        <g id="wreath" transform="matrix(0.13395,0,0,0.149263,196.841,57.7488)">
            <rect x="190.107" y="167.501" width="179.172" height="160.79" style="fill:none;"/>
            <g id="wreath-laurel-thin.svg" transform="matrix(0.279956,0,0,0.251234,279.693,247.896)">
                <g transform="matrix(1,0,0,1,-320,-256)">
                    <clipPath id="_clip1">
                        <rect x="0" y="0" width="640" height="512"/>
                    </clipPath>
                    <g clip-path="url(#_clip1)">
                        <path d="M272,16L256,16C203,16 160,59 160,112L160,128L176,128C229,128 272,85 272,32L272,16ZM160,144C158.6,144 157.3,143.8 156,143.5C127.8,174.1 112,214.2 112,256C112,370.9 205.1,464 320,464L347.6,464C388.6,464 429,473.5 465.7,491.9L475.6,496.9C479.6,498.9 481.2,503.7 479.2,507.6C477.2,511.5 472.4,513.2 468.5,511.2L458.6,506.2C424,489 386.1,480 347.6,480L292.4,480C253.9,480 215.9,489 181.5,506.2L171.6,511.2C167.6,513.2 162.8,511.6 160.9,507.6C159,503.6 160.5,498.8 164.5,496.9L174.4,491.9C197.5,480.4 222,472.3 247.2,467.9C221.7,459.1 198.2,445.9 177.8,429.1C119.5,452.8 51.2,430.5 18.9,374.5L10,359C6.1,352.2 8.4,343.5 15.2,339.6C33.9,328.8 54.5,323.9 74.6,324.4C30.6,304.1 0,259.6 0,208L0,190.2C0,182.4 6.4,176 14.2,176C35.8,176 56.1,182 73.3,192.5C45.3,153 41,99.2 66.9,54.4L75.8,39C79.7,32.2 88.4,29.9 95.2,33.8C119.5,47.8 136.7,69.5 145.4,94C154,40.7 200.3,0 256,0L272,0C280.8,0 288,7.2 288,16L288,32C288,93.9 237.9,144 176,144L160,144ZM135.5,142.8C139.4,106.1 122.2,68.8 88.7,48.6L80.7,62.4C53.5,109.6 64.5,168.3 104,202.7C110.6,181 121.3,160.6 135.6,142.7L135.5,142.8ZM117.3,351.4C89.1,336.8 54.5,336.1 24.7,352.6L32.7,366.4C59.6,413.1 115,433 164.3,417C144.9,398.3 129,376.1 117.3,351.4ZM96,256C96,249.8 96.3,243.7 96.9,237.6C79.9,210.7 50,192.6 16,192L16,208C16,261.8 54,306.8 104.6,317.5C99,298 96,277.3 96,256ZM480,128L480,112C480,59 437,16 384,16L368,16L368,32C368,85 411,128 464,128L480,128ZM504.5,142.8C518.7,160.7 529.4,181.1 536.1,202.8C575.6,168.3 586.6,109.6 559.3,62.5L551.3,48.7C517.7,68.9 500.6,106.2 504.5,142.9L504.5,142.8ZM566.7,192.5C583.9,182 604.1,176 625.8,176C633.7,176 640,182.4 640,190.2L640,208C640,259.6 609.4,304.1 565.4,324.4C585.6,323.9 606.1,328.8 624.8,339.6C631.6,343.5 633.9,352.2 630,359L621.1,374.4C588.8,430.4 520.5,452.7 462.2,429C454.6,435.2 446.6,441 438.3,446.2C431.2,443.9 424,441.9 416.7,440.1C482.9,405.4 528,336 528,256C528,214.2 512.2,174.1 484,143.5C482.7,143.8 481.4,144 480,144L464,144C402.1,144 352,93.9 352,32L352,16C352,7.2 359.2,0 368,0L384,0C439.7,0 486,40.7 494.6,94C503.4,69.5 520.5,47.8 544.8,33.8C551.6,29.9 560.3,32.2 564.2,39L573.1,54.4C598.9,99.1 594.7,153 566.7,192.5ZM522.7,351.4C511.1,376.1 495.1,398.2 475.7,417C524.9,433 580.3,413.1 607.2,366.4L615.2,352.6C585.5,336.1 550.8,336.8 522.6,351.4L522.7,351.4ZM543.1,237.6C543.7,243.7 544,249.8 544,256C544,277.3 541,298 535.4,317.5C586,306.8 624,261.8 624,208L624,192C589.9,192.6 560.1,210.7 543.1,237.6Z" style="fill-rule:nonzero;"/>
                    </g>
                </g>
            </g>
        </g>
    </g>
</svg>
