<svg width="221" height="58" viewBox="0 0 221 58" fill="none" xmlns="http://www.w3.org/2000/svg">
<path d="M83.6475 35.8955C83.4814 38.1904 82.6318 39.9971 81.0986 41.3154C79.5752 42.6338 77.5635 43.293 75.0635 43.293C72.3291 43.293 70.1758 42.375 68.6035 40.5391C67.041 38.6934 66.2598 36.1641 66.2598 32.9512V31.6475C66.2598 29.5967 66.6211 27.79 67.3438 26.2275C68.0664 24.665 69.0967 23.4688 70.4346 22.6387C71.7822 21.7988 73.3447 21.3789 75.1221 21.3789C77.583 21.3789 79.5654 22.0381 81.0693 23.3564C82.5732 24.6748 83.4424 26.5254 83.6768 28.9082H79.2822C79.1748 27.5312 78.7891 26.5352 78.125 25.9199C77.4707 25.2949 76.4697 24.9824 75.1221 24.9824C73.6572 24.9824 72.5586 25.5098 71.8262 26.5645C71.1035 27.6094 70.7324 29.2354 70.7129 31.4424V33.0537C70.7129 35.3584 71.0596 37.043 71.7529 38.1074C72.4561 39.1719 73.5596 39.7041 75.0635 39.7041C76.4209 39.7041 77.4316 39.3965 78.0957 38.7812C78.7695 38.1562 79.1553 37.1943 79.2529 35.8955H83.6475ZM85.5957 34.9287C85.5957 33.3564 85.8984 31.9551 86.5039 30.7246C87.1094 29.4941 87.9785 28.542 89.1113 27.8682C90.2539 27.1943 91.5771 26.8574 93.0811 26.8574C95.2197 26.8574 96.9629 27.5117 98.3105 28.8203C99.668 30.1289 100.425 31.9062 100.581 34.1523L100.61 35.2363C100.61 37.668 99.9316 39.6211 98.5742 41.0957C97.2168 42.5605 95.3955 43.293 93.1104 43.293C90.8252 43.293 88.999 42.5605 87.6318 41.0957C86.2744 39.6309 85.5957 37.6387 85.5957 35.1191V34.9287ZM89.8291 35.2363C89.8291 36.7402 90.1123 37.8926 90.6787 38.6934C91.2451 39.4844 92.0557 39.8799 93.1104 39.8799C94.1357 39.8799 94.9365 39.4893 95.5127 38.708C96.0889 37.917 96.377 36.6572 96.377 34.9287C96.377 33.4541 96.0889 32.3115 95.5127 31.501C94.9365 30.6904 94.126 30.2852 93.0811 30.2852C92.0459 30.2852 91.2451 30.6904 90.6787 31.501C90.1123 32.3018 89.8291 33.5469 89.8291 35.2363ZM102.559 34.9287C102.559 33.3564 102.861 31.9551 103.467 30.7246C104.072 29.4941 104.941 28.542 106.074 27.8682C107.217 27.1943 108.54 26.8574 110.044 26.8574C112.183 26.8574 113.926 27.5117 115.273 28.8203C116.631 30.1289 117.388 31.9062 117.544 34.1523L117.573 35.2363C117.573 37.668 116.895 39.6211 115.537 41.0957C114.18 42.5605 112.358 43.293 110.073 43.293C107.788 43.293 105.962 42.5605 104.595 41.0957C103.237 39.6309 102.559 37.6387 102.559 35.1191V34.9287ZM106.792 35.2363C106.792 36.7402 107.075 37.8926 107.642 38.6934C108.208 39.4844 109.019 39.8799 110.073 39.8799C111.099 39.8799 111.899 39.4893 112.476 38.708C113.052 37.917 113.34 36.6572 113.34 34.9287C113.34 33.4541 113.052 32.3115 112.476 31.501C111.899 30.6904 111.089 30.2852 110.044 30.2852C109.009 30.2852 108.208 30.6904 107.642 31.501C107.075 32.3018 106.792 33.5469 106.792 35.2363ZM129.087 31.1201C128.511 31.042 128.003 31.0029 127.563 31.0029C125.962 31.0029 124.912 31.5449 124.414 32.6289V43H120.181V27.1504H124.18L124.297 29.04C125.146 27.585 126.323 26.8574 127.827 26.8574C128.296 26.8574 128.735 26.9209 129.146 27.0479L129.087 31.1201ZM130.186 34.958C130.186 32.4873 130.737 30.5195 131.841 29.0547C132.954 27.5898 134.473 26.8574 136.396 26.8574C137.939 26.8574 139.214 27.4336 140.22 28.5859V20.5H144.468V43H140.645L140.439 41.3154C139.385 42.6338 138.027 43.293 136.367 43.293C134.502 43.293 133.003 42.5605 131.87 41.0957C130.747 39.6211 130.186 37.5752 130.186 34.958ZM134.419 35.2656C134.419 36.75 134.678 37.8877 135.195 38.6787C135.713 39.4697 136.465 39.8652 137.451 39.8652C138.76 39.8652 139.683 39.3135 140.22 38.21V31.9551C139.692 30.8516 138.779 30.2998 137.48 30.2998C135.439 30.2998 134.419 31.9551 134.419 35.2656ZM152.217 43H147.969V27.1504H152.217V43ZM147.72 23.0488C147.72 22.4141 147.93 21.8916 148.35 21.4814C148.779 21.0713 149.36 20.8662 150.093 20.8662C150.815 20.8662 151.392 21.0713 151.821 21.4814C152.251 21.8916 152.466 22.4141 152.466 23.0488C152.466 23.6934 152.246 24.2207 151.807 24.6309C151.377 25.041 150.806 25.2461 150.093 25.2461C149.38 25.2461 148.804 25.041 148.364 24.6309C147.935 24.2207 147.72 23.6934 147.72 23.0488ZM159.614 27.1504L159.746 28.9814C160.879 27.5654 162.397 26.8574 164.302 26.8574C165.981 26.8574 167.231 27.3506 168.052 28.3369C168.872 29.3232 169.292 30.7979 169.312 32.7607V43H165.078V32.8633C165.078 31.9648 164.883 31.3154 164.492 30.915C164.102 30.5049 163.452 30.2998 162.544 30.2998C161.353 30.2998 160.459 30.8076 159.863 31.8232V43H155.63V27.1504H159.614ZM181.719 43C181.523 42.6191 181.382 42.1455 181.294 41.5791C180.269 42.7217 178.936 43.293 177.295 43.293C175.742 43.293 174.453 42.8438 173.428 41.9453C172.412 41.0469 171.904 39.9141 171.904 38.5469C171.904 36.8672 172.524 35.5781 173.765 34.6797C175.015 33.7812 176.816 33.3271 179.17 33.3174H181.118V32.4092C181.118 31.6768 180.928 31.0908 180.547 30.6514C180.176 30.2119 179.585 29.9922 178.774 29.9922C178.062 29.9922 177.5 30.1631 177.09 30.5049C176.689 30.8467 176.489 31.3154 176.489 31.9111H172.256C172.256 30.9932 172.539 30.1436 173.105 29.3623C173.672 28.5811 174.473 27.9707 175.508 27.5312C176.543 27.082 177.705 26.8574 178.994 26.8574C180.947 26.8574 182.495 27.3506 183.638 28.3369C184.79 29.3135 185.366 30.6904 185.366 32.4678V39.3379C185.376 40.8418 185.586 41.9795 185.996 42.751V43H181.719ZM178.218 40.0557C178.843 40.0557 179.419 39.9189 179.946 39.6455C180.474 39.3623 180.864 38.9863 181.118 38.5176V35.793H179.536C177.417 35.793 176.289 36.5254 176.152 37.9902L176.138 38.2393C176.138 38.7666 176.323 39.2012 176.694 39.543C177.065 39.8848 177.573 40.0557 178.218 40.0557ZM202.886 35.2217C202.886 37.6631 202.329 39.6211 201.216 41.0957C200.112 42.5605 198.618 43.293 196.733 43.293C195.132 43.293 193.838 42.7363 192.852 41.623V49.0938H188.618V27.1504H192.544L192.69 28.7031C193.716 27.4727 195.054 26.8574 196.704 26.8574C198.657 26.8574 200.176 27.5801 201.26 29.0254C202.344 30.4707 202.886 32.4629 202.886 35.002V35.2217ZM198.652 34.9141C198.652 33.4395 198.389 32.3018 197.861 31.501C197.344 30.7002 196.587 30.2998 195.591 30.2998C194.263 30.2998 193.35 30.8076 192.852 31.8232V38.3125C193.369 39.3574 194.292 39.8799 195.62 39.8799C197.642 39.8799 198.652 38.2246 198.652 34.9141ZM212.817 43.293C210.493 43.293 208.599 42.5801 207.134 41.1543C205.679 39.7285 204.951 37.8291 204.951 35.4561V35.0459C204.951 33.4541 205.259 32.0332 205.874 30.7832C206.489 29.5234 207.358 28.5566 208.481 27.8828C209.614 27.1992 210.903 26.8574 212.349 26.8574C214.517 26.8574 216.221 27.541 217.461 28.9082C218.711 30.2754 219.336 32.2139 219.336 34.7236V36.4521H209.243C209.38 37.4873 209.79 38.3174 210.474 38.9424C211.167 39.5674 212.041 39.8799 213.096 39.8799C214.727 39.8799 216.001 39.2891 216.919 38.1074L218.999 40.4365C218.364 41.335 217.505 42.0381 216.421 42.5459C215.337 43.0439 214.136 43.293 212.817 43.293ZM212.334 30.2852C211.494 30.2852 210.811 30.5684 210.283 31.1348C209.766 31.7012 209.434 32.5117 209.287 33.5664H215.176V33.2295C215.156 32.292 214.902 31.5693 214.414 31.0615C213.926 30.5439 213.232 30.2852 212.334 30.2852Z" fill="white"/>
<path d="M83.6475 35.8955C83.4814 38.1904 82.6318 39.9971 81.0986 41.3154C79.5752 42.6338 77.5635 43.293 75.0635 43.293C72.3291 43.293 70.1758 42.375 68.6035 40.5391C67.041 38.6934 66.2598 36.1641 66.2598 32.9512V31.6475C66.2598 29.5967 66.6211 27.79 67.3438 26.2275C68.0664 24.665 69.0967 23.4688 70.4346 22.6387C71.7822 21.7988 73.3447 21.3789 75.1221 21.3789C77.583 21.3789 79.5654 22.0381 81.0693 23.3564C82.5732 24.6748 83.4424 26.5254 83.6768 28.9082H79.2822C79.1748 27.5312 78.7891 26.5352 78.125 25.9199C77.4707 25.2949 76.4697 24.9824 75.1221 24.9824C73.6572 24.9824 72.5586 25.5098 71.8262 26.5645C71.1035 27.6094 70.7324 29.2354 70.7129 31.4424V33.0537C70.7129 35.3584 71.0596 37.043 71.7529 38.1074C72.4561 39.1719 73.5596 39.7041 75.0635 39.7041C76.4209 39.7041 77.4316 39.3965 78.0957 38.7812C78.7695 38.1562 79.1553 37.1943 79.2529 35.8955H83.6475ZM85.5957 34.9287C85.5957 33.3564 85.8984 31.9551 86.5039 30.7246C87.1094 29.4941 87.9785 28.542 89.1113 27.8682C90.2539 27.1943 91.5771 26.8574 93.0811 26.8574C95.2197 26.8574 96.9629 27.5117 98.3105 28.8203C99.668 30.1289 100.425 31.9062 100.581 34.1523L100.61 35.2363C100.61 37.668 99.9316 39.6211 98.5742 41.0957C97.2168 42.5605 95.3955 43.293 93.1104 43.293C90.8252 43.293 88.999 42.5605 87.6318 41.0957C86.2744 39.6309 85.5957 37.6387 85.5957 35.1191V34.9287ZM89.8291 35.2363C89.8291 36.7402 90.1123 37.8926 90.6787 38.6934C91.2451 39.4844 92.0557 39.8799 93.1104 39.8799C94.1357 39.8799 94.9365 39.4893 95.5127 38.708C96.0889 37.917 96.377 36.6572 96.377 34.9287C96.377 33.4541 96.0889 32.3115 95.5127 31.501C94.9365 30.6904 94.126 30.2852 93.0811 30.2852C92.0459 30.2852 91.2451 30.6904 90.6787 31.501C90.1123 32.3018 89.8291 33.5469 89.8291 35.2363ZM102.559 34.9287C102.559 33.3564 102.861 31.9551 103.467 30.7246C104.072 29.4941 104.941 28.542 106.074 27.8682C107.217 27.1943 108.54 26.8574 110.044 26.8574C112.183 26.8574 113.926 27.5117 115.273 28.8203C116.631 30.1289 117.388 31.9062 117.544 34.1523L117.573 35.2363C117.573 37.668 116.895 39.6211 115.537 41.0957C114.18 42.5605 112.358 43.293 110.073 43.293C107.788 43.293 105.962 42.5605 104.595 41.0957C103.237 39.6309 102.559 37.6387 102.559 35.1191V34.9287ZM106.792 35.2363C106.792 36.7402 107.075 37.8926 107.642 38.6934C108.208 39.4844 109.019 39.8799 110.073 39.8799C111.099 39.8799 111.899 39.4893 112.476 38.708C113.052 37.917 113.34 36.6572 113.34 34.9287C113.34 33.4541 113.052 32.3115 112.476 31.501C111.899 30.6904 111.089 30.2852 110.044 30.2852C109.009 30.2852 108.208 30.6904 107.642 31.501C107.075 32.3018 106.792 33.5469 106.792 35.2363ZM129.087 31.1201C128.511 31.042 128.003 31.0029 127.563 31.0029C125.962 31.0029 124.912 31.5449 124.414 32.6289V43H120.181V27.1504H124.18L124.297 29.04C125.146 27.585 126.323 26.8574 127.827 26.8574C128.296 26.8574 128.735 26.9209 129.146 27.0479L129.087 31.1201ZM130.186 34.958C130.186 32.4873 130.737 30.5195 131.841 29.0547C132.954 27.5898 134.473 26.8574 136.396 26.8574C137.939 26.8574 139.214 27.4336 140.22 28.5859V20.5H144.468V43H140.645L140.439 41.3154C139.385 42.6338 138.027 43.293 136.367 43.293C134.502 43.293 133.003 42.5605 131.87 41.0957C130.747 39.6211 130.186 37.5752 130.186 34.958ZM134.419 35.2656C134.419 36.75 134.678 37.8877 135.195 38.6787C135.713 39.4697 136.465 39.8652 137.451 39.8652C138.76 39.8652 139.683 39.3135 140.22 38.21V31.9551C139.692 30.8516 138.779 30.2998 137.48 30.2998C135.439 30.2998 134.419 31.9551 134.419 35.2656ZM152.217 43H147.969V27.1504H152.217V43ZM147.72 23.0488C147.72 22.4141 147.93 21.8916 148.35 21.4814C148.779 21.0713 149.36 20.8662 150.093 20.8662C150.815 20.8662 151.392 21.0713 151.821 21.4814C152.251 21.8916 152.466 22.4141 152.466 23.0488C152.466 23.6934 152.246 24.2207 151.807 24.6309C151.377 25.041 150.806 25.2461 150.093 25.2461C149.38 25.2461 148.804 25.041 148.364 24.6309C147.935 24.2207 147.72 23.6934 147.72 23.0488ZM159.614 27.1504L159.746 28.9814C160.879 27.5654 162.397 26.8574 164.302 26.8574C165.981 26.8574 167.231 27.3506 168.052 28.3369C168.872 29.3232 169.292 30.7979 169.312 32.7607V43H165.078V32.8633C165.078 31.9648 164.883 31.3154 164.492 30.915C164.102 30.5049 163.452 30.2998 162.544 30.2998C161.353 30.2998 160.459 30.8076 159.863 31.8232V43H155.63V27.1504H159.614ZM181.719 43C181.523 42.6191 181.382 42.1455 181.294 41.5791C180.269 42.7217 178.936 43.293 177.295 43.293C175.742 43.293 174.453 42.8438 173.428 41.9453C172.412 41.0469 171.904 39.9141 171.904 38.5469C171.904 36.8672 172.524 35.5781 173.765 34.6797C175.015 33.7812 176.816 33.3271 179.17 33.3174H181.118V32.4092C181.118 31.6768 180.928 31.0908 180.547 30.6514C180.176 30.2119 179.585 29.9922 178.774 29.9922C178.062 29.9922 177.5 30.1631 177.09 30.5049C176.689 30.8467 176.489 31.3154 176.489 31.9111H172.256C172.256 30.9932 172.539 30.1436 173.105 29.3623C173.672 28.5811 174.473 27.9707 175.508 27.5312C176.543 27.082 177.705 26.8574 178.994 26.8574C180.947 26.8574 182.495 27.3506 183.638 28.3369C184.79 29.3135 185.366 30.6904 185.366 32.4678V39.3379C185.376 40.8418 185.586 41.9795 185.996 42.751V43H181.719ZM178.218 40.0557C178.843 40.0557 179.419 39.9189 179.946 39.6455C180.474 39.3623 180.864 38.9863 181.118 38.5176V35.793H179.536C177.417 35.793 176.289 36.5254 176.152 37.9902L176.138 38.2393C176.138 38.7666 176.323 39.2012 176.694 39.543C177.065 39.8848 177.573 40.0557 178.218 40.0557ZM202.886 35.2217C202.886 37.6631 202.329 39.6211 201.216 41.0957C200.112 42.5605 198.618 43.293 196.733 43.293C195.132 43.293 193.838 42.7363 192.852 41.623V49.0938H188.618V27.1504H192.544L192.69 28.7031C193.716 27.4727 195.054 26.8574 196.704 26.8574C198.657 26.8574 200.176 27.5801 201.26 29.0254C202.344 30.4707 202.886 32.4629 202.886 35.002V35.2217ZM198.652 34.9141C198.652 33.4395 198.389 32.3018 197.861 31.501C197.344 30.7002 196.587 30.2998 195.591 30.2998C194.263 30.2998 193.35 30.8076 192.852 31.8232V38.3125C193.369 39.3574 194.292 39.8799 195.62 39.8799C197.642 39.8799 198.652 38.2246 198.652 34.9141ZM212.817 43.293C210.493 43.293 208.599 42.5801 207.134 41.1543C205.679 39.7285 204.951 37.8291 204.951 35.4561V35.0459C204.951 33.4541 205.259 32.0332 205.874 30.7832C206.489 29.5234 207.358 28.5566 208.481 27.8828C209.614 27.1992 210.903 26.8574 212.349 26.8574C214.517 26.8574 216.221 27.541 217.461 28.9082C218.711 30.2754 219.336 32.2139 219.336 34.7236V36.4521H209.243C209.38 37.4873 209.79 38.3174 210.474 38.9424C211.167 39.5674 212.041 39.8799 213.096 39.8799C214.727 39.8799 216.001 39.2891 216.919 38.1074L218.999 40.4365C218.364 41.335 217.505 42.0381 216.421 42.5459C215.337 43.0439 214.136 43.293 212.817 43.293ZM212.334 30.2852C211.494 30.2852 210.811 30.5684 210.283 31.1348C209.766 31.7012 209.434 32.5117 209.287 33.5664H215.176V33.2295C215.156 32.292 214.902 31.5693 214.414 31.0615C213.926 30.5439 213.232 30.2852 212.334 30.2852Z" fill="url(#paint0_linear)" fill-opacity="0.4"/>
<path d="M83.6475 35.8955C83.4814 38.1904 82.6318 39.9971 81.0986 41.3154C79.5752 42.6338 77.5635 43.293 75.0635 43.293C72.3291 43.293 70.1758 42.375 68.6035 40.5391C67.041 38.6934 66.2598 36.1641 66.2598 32.9512V31.6475C66.2598 29.5967 66.6211 27.79 67.3438 26.2275C68.0664 24.665 69.0967 23.4688 70.4346 22.6387C71.7822 21.7988 73.3447 21.3789 75.1221 21.3789C77.583 21.3789 79.5654 22.0381 81.0693 23.3564C82.5732 24.6748 83.4424 26.5254 83.6768 28.9082H79.2822C79.1748 27.5312 78.7891 26.5352 78.125 25.9199C77.4707 25.2949 76.4697 24.9824 75.1221 24.9824C73.6572 24.9824 72.5586 25.5098 71.8262 26.5645C71.1035 27.6094 70.7324 29.2354 70.7129 31.4424V33.0537C70.7129 35.3584 71.0596 37.043 71.7529 38.1074C72.4561 39.1719 73.5596 39.7041 75.0635 39.7041C76.4209 39.7041 77.4316 39.3965 78.0957 38.7812C78.7695 38.1562 79.1553 37.1943 79.2529 35.8955H83.6475ZM85.5957 34.9287C85.5957 33.3564 85.8984 31.9551 86.5039 30.7246C87.1094 29.4941 87.9785 28.542 89.1113 27.8682C90.2539 27.1943 91.5771 26.8574 93.0811 26.8574C95.2197 26.8574 96.9629 27.5117 98.3105 28.8203C99.668 30.1289 100.425 31.9062 100.581 34.1523L100.61 35.2363C100.61 37.668 99.9316 39.6211 98.5742 41.0957C97.2168 42.5605 95.3955 43.293 93.1104 43.293C90.8252 43.293 88.999 42.5605 87.6318 41.0957C86.2744 39.6309 85.5957 37.6387 85.5957 35.1191V34.9287ZM89.8291 35.2363C89.8291 36.7402 90.1123 37.8926 90.6787 38.6934C91.2451 39.4844 92.0557 39.8799 93.1104 39.8799C94.1357 39.8799 94.9365 39.4893 95.5127 38.708C96.0889 37.917 96.377 36.6572 96.377 34.9287C96.377 33.4541 96.0889 32.3115 95.5127 31.501C94.9365 30.6904 94.126 30.2852 93.0811 30.2852C92.0459 30.2852 91.2451 30.6904 90.6787 31.501C90.1123 32.3018 89.8291 33.5469 89.8291 35.2363ZM102.559 34.9287C102.559 33.3564 102.861 31.9551 103.467 30.7246C104.072 29.4941 104.941 28.542 106.074 27.8682C107.217 27.1943 108.54 26.8574 110.044 26.8574C112.183 26.8574 113.926 27.5117 115.273 28.8203C116.631 30.1289 117.388 31.9062 117.544 34.1523L117.573 35.2363C117.573 37.668 116.895 39.6211 115.537 41.0957C114.18 42.5605 112.358 43.293 110.073 43.293C107.788 43.293 105.962 42.5605 104.595 41.0957C103.237 39.6309 102.559 37.6387 102.559 35.1191V34.9287ZM106.792 35.2363C106.792 36.7402 107.075 37.8926 107.642 38.6934C108.208 39.4844 109.019 39.8799 110.073 39.8799C111.099 39.8799 111.899 39.4893 112.476 38.708C113.052 37.917 113.34 36.6572 113.34 34.9287C113.34 33.4541 113.052 32.3115 112.476 31.501C111.899 30.6904 111.089 30.2852 110.044 30.2852C109.009 30.2852 108.208 30.6904 107.642 31.501C107.075 32.3018 106.792 33.5469 106.792 35.2363ZM129.087 31.1201C128.511 31.042 128.003 31.0029 127.563 31.0029C125.962 31.0029 124.912 31.5449 124.414 32.6289V43H120.181V27.1504H124.18L124.297 29.04C125.146 27.585 126.323 26.8574 127.827 26.8574C128.296 26.8574 128.735 26.9209 129.146 27.0479L129.087 31.1201ZM130.186 34.958C130.186 32.4873 130.737 30.5195 131.841 29.0547C132.954 27.5898 134.473 26.8574 136.396 26.8574C137.939 26.8574 139.214 27.4336 140.22 28.5859V20.5H144.468V43H140.645L140.439 41.3154C139.385 42.6338 138.027 43.293 136.367 43.293C134.502 43.293 133.003 42.5605 131.87 41.0957C130.747 39.6211 130.186 37.5752 130.186 34.958ZM134.419 35.2656C134.419 36.75 134.678 37.8877 135.195 38.6787C135.713 39.4697 136.465 39.8652 137.451 39.8652C138.76 39.8652 139.683 39.3135 140.22 38.21V31.9551C139.692 30.8516 138.779 30.2998 137.48 30.2998C135.439 30.2998 134.419 31.9551 134.419 35.2656ZM152.217 43H147.969V27.1504H152.217V43ZM147.72 23.0488C147.72 22.4141 147.93 21.8916 148.35 21.4814C148.779 21.0713 149.36 20.8662 150.093 20.8662C150.815 20.8662 151.392 21.0713 151.821 21.4814C152.251 21.8916 152.466 22.4141 152.466 23.0488C152.466 23.6934 152.246 24.2207 151.807 24.6309C151.377 25.041 150.806 25.2461 150.093 25.2461C149.38 25.2461 148.804 25.041 148.364 24.6309C147.935 24.2207 147.72 23.6934 147.72 23.0488ZM159.614 27.1504L159.746 28.9814C160.879 27.5654 162.397 26.8574 164.302 26.8574C165.981 26.8574 167.231 27.3506 168.052 28.3369C168.872 29.3232 169.292 30.7979 169.312 32.7607V43H165.078V32.8633C165.078 31.9648 164.883 31.3154 164.492 30.915C164.102 30.5049 163.452 30.2998 162.544 30.2998C161.353 30.2998 160.459 30.8076 159.863 31.8232V43H155.63V27.1504H159.614ZM181.719 43C181.523 42.6191 181.382 42.1455 181.294 41.5791C180.269 42.7217 178.936 43.293 177.295 43.293C175.742 43.293 174.453 42.8438 173.428 41.9453C172.412 41.0469 171.904 39.9141 171.904 38.5469C171.904 36.8672 172.524 35.5781 173.765 34.6797C175.015 33.7812 176.816 33.3271 179.17 33.3174H181.118V32.4092C181.118 31.6768 180.928 31.0908 180.547 30.6514C180.176 30.2119 179.585 29.9922 178.774 29.9922C178.062 29.9922 177.5 30.1631 177.09 30.5049C176.689 30.8467 176.489 31.3154 176.489 31.9111H172.256C172.256 30.9932 172.539 30.1436 173.105 29.3623C173.672 28.5811 174.473 27.9707 175.508 27.5312C176.543 27.082 177.705 26.8574 178.994 26.8574C180.947 26.8574 182.495 27.3506 183.638 28.3369C184.79 29.3135 185.366 30.6904 185.366 32.4678V39.3379C185.376 40.8418 185.586 41.9795 185.996 42.751V43H181.719ZM178.218 40.0557C178.843 40.0557 179.419 39.9189 179.946 39.6455C180.474 39.3623 180.864 38.9863 181.118 38.5176V35.793H179.536C177.417 35.793 176.289 36.5254 176.152 37.9902L176.138 38.2393C176.138 38.7666 176.323 39.2012 176.694 39.543C177.065 39.8848 177.573 40.0557 178.218 40.0557ZM202.886 35.2217C202.886 37.6631 202.329 39.6211 201.216 41.0957C200.112 42.5605 198.618 43.293 196.733 43.293C195.132 43.293 193.838 42.7363 192.852 41.623V49.0938H188.618V27.1504H192.544L192.69 28.7031C193.716 27.4727 195.054 26.8574 196.704 26.8574C198.657 26.8574 200.176 27.5801 201.26 29.0254C202.344 30.4707 202.886 32.4629 202.886 35.002V35.2217ZM198.652 34.9141C198.652 33.4395 198.389 32.3018 197.861 31.501C197.344 30.7002 196.587 30.2998 195.591 30.2998C194.263 30.2998 193.35 30.8076 192.852 31.8232V38.3125C193.369 39.3574 194.292 39.8799 195.62 39.8799C197.642 39.8799 198.652 38.2246 198.652 34.9141ZM212.817 43.293C210.493 43.293 208.599 42.5801 207.134 41.1543C205.679 39.7285 204.951 37.8291 204.951 35.4561V35.0459C204.951 33.4541 205.259 32.0332 205.874 30.7832C206.489 29.5234 207.358 28.5566 208.481 27.8828C209.614 27.1992 210.903 26.8574 212.349 26.8574C214.517 26.8574 216.221 27.541 217.461 28.9082C218.711 30.2754 219.336 32.2139 219.336 34.7236V36.4521H209.243C209.38 37.4873 209.79 38.3174 210.474 38.9424C211.167 39.5674 212.041 39.8799 213.096 39.8799C214.727 39.8799 216.001 39.2891 216.919 38.1074L218.999 40.4365C218.364 41.335 217.505 42.0381 216.421 42.5459C215.337 43.0439 214.136 43.293 212.817 43.293ZM212.334 30.2852C211.494 30.2852 210.811 30.5684 210.283 31.1348C209.766 31.7012 209.434 32.5117 209.287 33.5664H215.176V33.2295C215.156 32.292 214.902 31.5693 214.414 31.0615C213.926 30.5439 213.232 30.2852 212.334 30.2852Z" fill="url(#paint1_linear)" fill-opacity="0.4"/>
<path d="M18.7165 24.1179C13.1612 28.2391 10.0641 32.1701 8.57348 34.4222C8.52137 34.5015 8.47832 34.5876 8.43075 34.6692C8.39676 34.6669 8.36505 34.6601 8.33106 34.6601C7.08951 34.6601 6.08356 35.666 6.08356 36.9076C6.08356 38.0857 6.98981 39.0396 8.14302 39.137C9.24862 42.6125 12.8215 47.9211 13.6394 49.3891C13.9 49.8581 14.3939 50.1458 14.9309 50.1458H19.8201C18.4856 46.0043 15.5268 34.7282 18.7168 24.1183L18.7165 24.1179Z" fill="white"/>
<path d="M28.4791 39.4131C27.5139 43.4096 27.6 48.7586 27.6431 50.1454H31.9319C32.4076 50.1454 32.7928 49.767 32.8041 49.2935C32.8358 47.8662 33.0556 43.2487 32.3261 39.8778C30.6019 39.8529 29.2222 39.59 28.4791 39.4133L28.4791 39.4131Z" fill="white"/>
<path d="M50.7657 24.2628C50.0634 20.887 47.4715 18.3108 44.243 17.4884L44.2407 15.6351C44.2407 11.3395 40.7585 7.85498 36.4606 7.85498C32.165 7.85498 28.6805 11.3372 28.6805 15.6351V17.2097H27.4322C25.2277 17.2097 23.1637 18.2836 21.8972 20.0893C21.5166 20.633 21.1178 21.2561 20.7214 21.9516C20.5832 22.2892 20.454 22.6313 20.3294 22.9711C16.3397 33.9818 19.754 46.239 21.0409 50.1134C21.0454 50.1247 21.0477 50.1338 21.0522 50.1451H26.4761C26.4761 50.1224 26.4739 50.0952 26.4739 50.0681C26.424 48.3938 26.3538 42.6847 27.5024 38.5382L27.6633 37.9537L28.0802 38.0851L28.241 38.135C28.2727 38.144 30.6199 38.8667 33.7057 38.6651C35.5454 38.2505 38.5542 37.3737 40.4755 35.7923C40.4755 35.7923 40.4664 35.7946 40.4528 35.7969C41.1393 35.3868 41.7556 34.8748 42.2834 34.2789C42.2834 34.2834 42.2857 34.2879 42.2857 34.2925C42.2925 34.3333 42.2993 34.3786 42.3061 34.4261C42.3106 34.4511 42.3129 34.4737 42.3174 34.4986C42.3242 34.544 42.331 34.5938 42.3378 34.6436C42.3423 34.6708 42.3446 34.6958 42.3491 34.7229C42.3559 34.7773 42.365 34.8317 42.3718 34.8906C42.374 34.9155 42.3786 34.9404 42.3808 34.9654C42.3899 35.0288 42.3967 35.0922 42.4058 35.1602C42.7026 37.5618 43.0605 42.6869 41.9164 49.1347C41.8235 49.6604 42.2313 50.1407 42.7637 50.1407H47.5578C47.8999 50.1407 48.2103 49.939 48.3462 49.6241C49.0531 47.9974 51.1601 42.6595 51.8239 35.464C51.9553 34.0457 51.9508 32.6184 51.8103 31.2023C51.6359 29.4986 51.3164 26.9113 50.7659 24.2626L50.7657 24.2628ZM36.4606 34.041C33.948 34.041 31.9044 32.0608 31.7888 29.5777L41.132 29.5755C41.0165 32.0609 38.9729 34.041 36.4603 34.041L36.4606 34.041ZM41.1436 27.063V28.4065H31.7795V27.063C31.7795 25.4907 32.5566 24.1041 33.746 23.2545C32.4388 22.7787 31.025 21.7955 30.4201 19.7768C30.2139 19.0903 30.735 18.397 31.4509 18.397H41.4739C42.1899 18.397 42.7109 19.0903 42.5047 19.7768C41.8975 21.7977 40.486 22.7787 39.1788 23.2545C40.366 24.1041 41.1431 25.4907 41.1431 27.063H41.1436Z" fill="white"/>
<path d="M35.2981 20.8872C35.2981 22.0744 33.5173 22.0744 33.5173 20.8872C33.5173 19.7 35.2981 19.7 35.2981 20.8872Z" fill="white"/>
<path d="M39.6457 20.8872C39.6457 22.0744 37.8649 22.0744 37.8649 20.8872C37.8649 19.7 39.6457 19.7 39.6457 20.8872Z" fill="white"/>
<path d="M35.1804 24.8201C34.9471 24.6411 34.6118 24.6842 34.4328 24.9175L34.3806 24.9855C34.2017 25.2189 34.2447 25.5542 34.4781 25.7332L34.9652 26.107C35.1985 26.286 35.5339 26.2429 35.7129 26.0096L35.765 25.9416C35.944 25.7083 35.9009 25.3729 35.6675 25.1939L35.1804 24.8201Z" fill="white"/>
<path d="M38.7555 24.9175C38.5765 24.6842 38.2412 24.6411 38.0078 24.8201L37.5207 25.1939C37.2874 25.3729 37.2443 25.7082 37.4233 25.9416L37.4754 26.0096C37.6544 26.2429 37.9897 26.286 38.2231 26.107L38.7102 25.7332C38.9436 25.5542 38.9866 25.2189 38.8076 24.9855L38.7555 24.9175Z" fill="white"/>
<defs>
<linearGradient id="paint0_linear" x1="143" y1="15" x2="143" y2="50" gradientUnits="userSpaceOnUse">
<stop stop-color="#EDFDFE"/>
<stop offset="1" stop-color="#CFE7E9" stop-opacity="0"/>
</linearGradient>
<linearGradient id="paint1_linear" x1="143" y1="15" x2="143" y2="50" gradientUnits="userSpaceOnUse">
<stop stop-color="white" stop-opacity="0"/>
<stop offset="0.401042" stop-color="#DFEDEA"/>
</linearGradient>
</defs>
</svg>
