<?xml version="1.0" encoding="UTF-8"?><svg xmlns="http://www.w3.org/2000/svg" viewBox="0 0 1169.81 208.99"><g id="a"/><g id="b"><g id="c"><g><path d="M1143.68,17.98c-44.44-37.05-98.35-8.98-142.06,13.97-23.51,11.78-49.61,27.43-76.47,27.73-9.13-.03-18.25-2.67-25.77-7.92,2.15,1.55,4.45,2.88,6.84,4-4.53-2-6.84-4-6.84-4v119.44c-3.71-1.92-7.52-3.65-11.41-5.15l-.02-68.76c0-7.77-1.19-14.6-3.56-20.5-2.37-5.9-5.86-10.86-10.46-14.89-4.61-4.03-10.29-7.05-17.05-9.06-6.76-2.01-14.6-3.02-23.52-3.02s-17.01,.86-24.27,2.59c-7.27,1.73-13.99,3.88-20.17,6.47v24.81c6.47-2.88,12.73-4.93,18.77-6.15,6.04-1.22,12.15-1.83,18.34-1.83,9.49,0,16.79,1.58,21.9,4.75,5.1,3.17,7.66,8.34,7.66,15.54v2.59c-3.74-1.58-8.24-2.88-13.49-3.88-5.25-1-10.75-1.51-16.51-1.51-6.33,0-12.27,.72-17.8,2.16-5.54,1.44-10.36,3.6-14.46,6.47-4.1,2.88-7.37,6.62-9.82,11.22-2.45,4.61-3.67,10-3.67,16.18s1.11,11.37,3.34,15.97c2.23,4.61,5.21,8.52,8.95,11.76,2.53,2.19,5.36,4,8.45,5.47-8.4,1.53-16.75,3.37-25.01,5.33-54.25,13.12-107.63,32.89-163.86,35.08-27.76,.89-56.29-1.06-82.33-11.27-48.63-18.85-62.81-59.64-80.64-95.68,.84-1.2,1.73-2.31,2.7-3.33,2.88-3.02,6.33-5.25,10.36-6.69,4.03-1.44,8.42-2.16,13.16-2.16,1.15,0,2.19,.04,3.13,.11,.93,.07,1.69,.25,2.27,.54V50.04c-.58,0-1.22-.03-1.94-.11-.72-.07-1.51-.11-2.37-.11-7.91,0-14.64,1.91-20.17,5.72-5.54,3.81-11.7,10.12-15.3,16.74,0,0-5.24-7.71-14.46-14.82-3.17-2.44-5.85-4.32-8.09-5.79-6.46-5.73-13.94-10.65-22.87-14.44-19.83-8.17-41.62-9.01-62.69-7.37-14.15,.91-28.23,3.73-41.23,9.5-13.42,5.81-25.68,13.88-37.08,23-4.46-3.52-9.5-6.41-15.12-8.66-7.55-3.02-15.79-4.53-24.71-4.53s-17.12,1.55-24.6,4.64c-7.48,3.1-13.99,7.3-19.53,12.62-5.54,5.32-9.82,11.54-12.84,18.66-3.02,7.12-4.53,14.78-4.53,22.98s1.51,15.64,4.53,22.76c2.82,6.66,6.73,12.52,11.69,17.6-15.63,15.59-32.31,29.95-51.69,41.14-23.44,13.06-53.08,21.1-78.35,9.03C13.31,186.32,.43,159.03,6.18,131.3c4.29-21.15,21.14-34.25,41.45-38.92,4.13-1,8.32-1.7,12.55-2.17-1.77,5.72-2.67,11.68-2.67,17.88,0,8.06,1.47,15.64,4.42,22.76,2.95,7.12,7.08,13.34,12.41,18.66,5.32,5.32,11.54,9.53,18.66,12.62,7.12,3.09,14.85,4.64,23.2,4.64,5.03,0,10-.58,14.89-1.73,4.89-1.15,9.2-2.59,12.95-4.31v-31.93c-3.74,3.31-7.66,5.79-11.76,7.44-4.1,1.66-8.24,2.48-12.41,2.48s-8.27-.83-11.87-2.48c-3.6-1.65-6.73-3.88-9.39-6.69-2.66-2.81-4.75-6.08-6.26-9.82-1.51-3.74-2.27-7.77-2.27-12.08s.72-8.31,2.16-11.98c.87-2.22,1.96-4.25,3.23-6.13,4.88-.13,9.76-.43,14.59-.97,8.93-1.08,40.52-4.06,40.15-21.04,.5-8.28-5.44-14.21-19.45-16.96-4.65-.91-9.24-1.19-13.7-1.19-8.78,0-16.83,1.55-24.17,4.64-7.34,3.09-13.63,7.34-18.88,12.73-5.08,5.21-9.03,11.24-11.89,18.06-19.72,1.85-40.15,8.7-52.02,25.39-12.74,18.11-12.83,42.95-3.69,62.65,6.64,13,17.47,23.65,30.66,29.87,26.69,12.64,57.83,4.38,82.36-9.46,19.7-11.42,36.62-26.13,52.46-42.1,5.07,4.54,10.94,8.2,17.62,10.96,7.48,3.09,15.68,4.64,24.6,4.64s17.15-1.58,24.71-4.75c7.55-3.16,14.06-7.44,19.53-12.84,5.47-5.39,9.74-11.65,12.84-18.77,3.09-7.12,4.64-14.71,4.64-22.76s-1.51-15.64-4.53-22.76c-3.02-7.12-7.27-13.34-12.73-18.66-.55-.54-1.13-1.06-1.7-1.58,5.57-4.44,11.33-8.66,17.36-12.55,18.02-11.55,37.12-17.94,58.49-19.2,26.91-2.42,54.35,.21,76.02,14.8v116.49h33.23v-43.59c0-6.47,.86-12.01,2.59-16.61,.77-2.05,1.65-3.93,2.65-5.66,12.94,25.85,23.73,53.13,45.67,72.83,20.78,19.51,48.98,28.83,76.83,31.9,70.73,8.67,138.66-17.46,206.09-34.46,48.06-12.25,89.19-14.09,123.65,3.57,7.81,4.47,25.85,15.64,33.18,27.31v-50.82c4.17,5.18,9.2,9.46,15.1,12.84,5.9,3.38,13.23,5.07,22.01,5.07,6.9,0,13.45-1.37,19.64-4.1,6.18-2.73,11.65-6.62,16.4-11.65,4.75-5.03,8.52-11.18,11.33-18.45,2.8-7.26,4.21-15.43,4.21-24.49s-1.4-17.22-4.21-24.49c-2.81-7.26-6.58-13.41-11.33-18.45-4.75-5.03-10.25-8.92-16.51-11.65-6.25-2.73-12.82-4.1-19.72-4.1,11.33-4.9,22.33-10.7,32.83-15.77,42.7-21.52,96.37-49.05,138.84-12.44,23.17,18.61,28.71,59.17,19.52,86.19-1.85,5.77-4.4,11.1-7.54,15.96-8.18,10.19-28.84,23.72-47.18,25.75-10.36,1.15-37.67-1.76-48.24-18.58l78.11-19.85c-.29-7.91-1.66-15.57-4.1-22.98-2.45-7.41-6.01-13.88-10.68-19.42-4.68-5.54-10.39-9.96-17.15-13.27-6.76-3.31-14.53-4.96-23.3-4.96s-16.22,1.48-23.2,4.42c-6.98,2.95-12.98,7.05-18.02,12.3-5.04,5.25-8.95,11.44-11.76,18.56-2.8,7.12-4.21,14.85-4.21,23.2s1.44,16.54,4.32,23.73c2.88,7.19,6.9,13.42,12.08,18.66,5.18,5.25,11.33,9.35,18.45,12.3,7.12,2.95,15,4.42,23.63,4.42,3.45,0,7.01-.25,10.68-.75,3.67-.51,7.37-1.22,11.11-2.16,3.74-.93,7.44-2.19,11.11-3.78,3.3-1.42,9.8-4.7,13.4-7,17.47-9.8,31.45-25.03,37.5-44.93,9.34-28.91,2.87-71.33-22.05-90.82ZM119.22,77.45c1.47,0,2.89,.1,4.28,.27,1.73,.39,5.62,1.52,1.02,3.1-4.96,1.14-10.07,1.84-15.04,2.48-3.07,.34-6.14,.59-9.23,.78,2.07-1.79,4.44-3.24,7.1-4.36,3.59-1.51,7.55-2.26,11.87-2.26Zm68.25,18.34c1.37-3.74,3.27-6.98,5.72-9.71,2.44-2.73,5.43-4.89,8.95-6.47,3.52-1.58,7.44-2.37,11.76-2.37s8.27,.83,11.87,2.48c1.94,.89,3.72,1.96,5.36,3.19-14.05,13.65-27.15,28.38-40.45,42.85-1.22-1.85-2.27-3.84-3.1-6.01-1.44-3.74-2.16-7.77-2.16-12.08s.68-8.13,2.05-11.87Zm47.58-9.39c2.59,2.81,4.6,6.04,6.04,9.71,1.44,3.67,2.16,7.59,2.16,11.76s-.68,8.13-2.05,11.87c-1.37,3.74-3.31,7.01-5.83,9.82-2.52,2.8-5.58,5.04-9.17,6.69-3.6,1.66-7.55,2.48-11.87,2.48s-8.02-.83-11.54-2.48c-3.53-1.65-6.58-3.88-9.17-6.69-.22-.24-.41-.49-.62-.74,13.44-14.74,26.65-29.74,40.81-43.62,.41,.4,.84,.78,1.23,1.21Zm579.22,34.52c1.22-2.08,2.84-3.85,4.86-5.29,2.01-1.44,4.42-2.52,7.23-3.24,2.8-.72,5.79-1.08,8.95-1.08,4.17,0,7.98,.47,11.44,1.4,3.45,.94,6.4,2.05,8.85,3.34v19.42c-3.17,3.02-6.65,5.32-10.46,6.9-3.81,1.59-8.02,2.37-12.62,2.37-2.73,0-5.29-.39-7.66-1.19-2.37-.79-4.5-1.87-6.37-3.24-1.87-1.37-3.34-3.09-4.42-5.18-1.08-2.08-1.62-4.42-1.62-7.01,0-2.73,.61-5.14,1.83-7.23Zm166.03-35.28c2.59,2.73,4.6,5.97,6.04,9.71,1.44,3.74,2.16,7.84,2.16,12.3,0,4.75-.72,9.03-2.16,12.84-1.44,3.81-3.45,7.09-6.04,9.82-2.59,2.73-5.61,4.82-9.06,6.26-3.45,1.44-7.12,2.16-11,2.16s-7.55-.75-11-2.27c-3.45-1.51-6.44-3.63-8.95-6.37-2.52-2.73-4.53-5.97-6.04-9.71-1.51-3.74-2.27-7.84-2.27-12.3s.76-8.59,2.27-12.41c1.51-3.81,3.52-7.08,6.04-9.82,2.52-2.73,5.47-4.85,8.85-6.36,3.38-1.51,7.01-2.27,10.9-2.27s7.77,.72,11.22,2.16c3.45,1.44,6.47,3.53,9.06,6.26Zm74.66,21.15c0-3.74,.47-7.48,1.4-11.22,.93-3.74,2.37-7.12,4.32-10.14s4.46-5.5,7.55-7.44c3.09-1.94,6.72-2.91,10.9-2.91,6.18,0,11.36,1.87,15.54,5.61,4.17,3.74,6.98,8.71,8.41,14.89,0,0-11.67,3.01-15.56,4.01-8.03,2.07-32.13,8.29-32.13,8.29l-.43-1.08Z"/><path d="M383.93,66.22c-5.47-5.32-11.98-9.49-19.53-12.51s-15.79-4.53-24.71-4.53-17.12,1.55-24.6,4.64c-7.48,3.1-13.99,7.3-19.53,12.62-5.54,5.32-9.82,11.54-12.84,18.66-3.02,7.12-4.53,14.78-4.53,22.98s1.51,15.64,4.53,22.76c3.02,7.12,7.26,13.34,12.73,18.66,5.47,5.32,11.94,9.53,19.42,12.62,7.48,3.09,15.68,4.64,24.6,4.64s17.15-1.58,24.71-4.75c7.55-3.16,14.06-7.44,19.53-12.84,5.47-5.39,9.74-11.65,12.84-18.77,3.09-7.12,4.64-14.71,4.64-22.76s-1.51-15.64-4.53-22.76c-3.02-7.12-7.27-13.34-12.73-18.66Zm-17.37,53.51c-1.37,3.74-3.31,7.01-5.83,9.82-2.52,2.8-5.58,5.04-9.17,6.69-3.6,1.66-7.55,2.48-11.87,2.48s-8.02-.83-11.54-2.48c-3.53-1.65-6.58-3.88-9.17-6.69-2.59-2.81-4.61-6.08-6.04-9.82-1.44-3.74-2.16-7.77-2.16-12.08s.68-8.13,2.05-11.87c1.37-3.74,3.27-6.98,5.72-9.71,2.44-2.73,5.43-4.89,8.95-6.47,3.52-1.58,7.44-2.37,11.76-2.37s8.27,.83,11.87,2.48c3.59,1.66,6.69,3.88,9.28,6.69,2.59,2.81,4.6,6.04,6.04,9.71,1.44,3.67,2.16,7.59,2.16,11.76s-.68,8.13-2.05,11.87Z"/><path d="M483.43,131.63c2.72,7.17,6.45,13.29,11.18,18.38,4.73,5.09,10.21,8.96,16.44,11.61,6.23,2.65,12.79,3.98,19.66,3.98,8.6,0,15.65-1.76,21.17-5.27,5.51-3.51,10.42-7.84,14.72-13l-.06,17.5,33.81,.12V6.12h-33.1v60.61c-4.01-5.16-8.96-9.46-14.83-12.89-5.88-3.44-13.18-5.16-21.92-5.16-6.88,0-13.43,1.36-19.66,4.08-6.23,2.72-11.68,6.59-16.33,11.61-4.66,5.02-8.35,11.17-11.07,18.48-2.72,7.31-4.08,15.47-4.08,24.5s1.36,17.12,4.08,24.29Zm30.84-36.97c1.5-3.72,3.51-6.95,6.02-9.67,2.5-2.72,5.44-4.84,8.81-6.34,3.36-1.5,6.91-2.26,10.64-2.26s7.49,.75,10.85,2.26c3.36,1.5,6.34,3.62,8.92,6.34,2.58,2.72,4.62,5.95,6.13,9.67,1.5,3.73,2.26,7.81,2.26,12.25s-.72,8.78-2.15,12.57c-1.43,3.8-3.44,7.06-6.02,9.78-2.58,2.72-5.59,4.84-9.03,6.34-3.44,1.5-7.09,2.26-10.96,2.26s-7.49-.75-10.85-2.26c-3.37-1.5-6.31-3.62-8.81-6.34-2.51-2.72-4.48-5.94-5.91-9.67-1.43-3.72-2.15-7.88-2.15-12.47s.75-8.74,2.26-12.46Z"/><path d="M619.28,33.69c3.81,3.24,8.45,4.86,13.93,4.86s10.33-1.62,14.14-4.86c3.81-3.24,5.72-7.66,5.72-13.28,0-5.9-1.91-10.43-5.72-13.6-3.82-3.16-8.53-4.75-14.14-4.75s-10.11,1.59-13.93,4.75c-3.82,3.17-5.72,7.7-5.72,13.6s1.91,10.04,5.72,13.28Z"/><rect x="616.8" y="52.15" width="33.25" height="112.49"/><path d="M699.06,102.24c0-4.03,.65-7.52,1.94-10.47,1.3-2.95,2.91-5.36,4.86-7.23,1.94-1.87,4.17-3.24,6.69-4.1,2.52-.86,5.07-1.29,7.66-1.29,2.45,0,4.86,.43,7.23,1.29,2.38,.86,4.46,2.23,6.26,4.1,1.8,1.87,3.24,4.28,4.32,7.23,1.08,2.95,1.62,6.44,1.62,10.47v62.4h33.25V91.87c0-6.62-.97-12.56-2.91-17.81-1.94-5.25-4.64-9.68-8.1-13.28-3.45-3.6-7.59-6.37-12.41-8.31-4.82-1.94-10.04-2.91-15.65-2.91-8.06,0-14.9,1.76-20.51,5.29-5.61,3.53-10.29,7.74-14.03,12.63l-.18-15.22-33.29-.11v112.49h33.25v-62.4Z"/></g></g></g></svg>