<svg width="92" height="82" viewBox="0 0 92 82" fill="none" xmlns="http://www.w3.org/2000/svg">
<path d="M35.7169 36.1177C30.1616 40.2389 27.0645 44.1698 25.5739 46.422C25.5218 46.5013 25.4788 46.5873 25.4312 46.6689C25.3972 46.6666 25.3655 46.6598 25.3315 46.6598C24.0899 46.6598 23.084 47.6658 23.084 48.9073C23.084 50.0854 23.9902 51.0393 25.1434 51.1367C26.249 54.6122 29.822 59.9208 30.6399 61.3888C30.9004 61.8578 31.3943 62.1456 31.9313 62.1456H36.8205C35.4861 58.004 32.5272 46.728 35.7172 36.1181L35.7169 36.1177Z" fill="#E7E7E7"/>
<path d="M45.4794 51.4131C44.5143 55.4096 44.6004 60.7586 44.6434 62.1454H48.9322C49.408 62.1454 49.7932 61.767 49.8045 61.2935C49.8362 59.8662 50.056 55.2487 49.3264 51.8778C47.6023 51.8529 46.2225 51.59 45.4794 51.4133L45.4794 51.4131Z" fill="#E7E7E7"/>
<path d="M67.7664 36.2628C67.0641 32.887 64.4722 30.3108 61.2437 29.4884L61.2415 27.6351C61.2415 23.3395 57.7592 19.855 53.4613 19.855C49.1658 19.855 45.6812 23.3372 45.6812 27.6351V29.2097H44.4329C42.2284 29.2097 40.1644 30.2836 38.898 32.0893C38.5173 32.633 38.1185 33.2561 37.7221 33.9516C37.5839 34.2892 37.4548 34.6313 37.3302 34.9711C33.3404 45.9818 36.7547 58.239 38.0416 62.1134C38.0461 62.1247 38.0484 62.1338 38.0529 62.1451H43.4769C43.4769 62.1224 43.4746 62.0952 43.4746 62.0681C43.4247 60.3938 43.3545 54.6847 44.5032 50.5382L44.664 49.9537L45.0809 50.0851L45.2417 50.135C45.2735 50.144 47.6207 50.8667 50.7064 50.6651C52.5462 50.2505 55.5549 49.3737 57.4762 47.7923C57.4762 47.7923 57.4671 47.7946 57.4536 47.7969C58.14 47.3868 58.7563 46.8748 59.2841 46.2789C59.2841 46.2834 59.2864 46.2879 59.2864 46.2925C59.2932 46.3333 59.3 46.3786 59.3068 46.4261C59.3113 46.4511 59.3136 46.4737 59.3181 46.4986C59.3249 46.544 59.3317 46.5938 59.3385 46.6436C59.3431 46.6708 59.3453 46.6958 59.3498 46.7229C59.3566 46.7773 59.3657 46.8317 59.3725 46.8906C59.3748 46.9155 59.3793 46.9404 59.3816 46.9654C59.3906 47.0288 59.3974 47.0922 59.4065 47.1602C59.7033 49.5618 60.0613 54.6869 58.9171 61.1347C58.8242 61.6603 59.232 62.1407 59.7644 62.1407H64.5585C64.9006 62.1407 65.211 61.939 65.3469 61.6241C66.0538 59.9974 68.1609 54.6595 68.8247 47.464C68.9561 46.0457 68.9515 44.6184 68.8111 43.2023C68.6366 41.4986 68.3172 38.9113 67.7666 36.2626L67.7664 36.2628ZM53.4613 46.041C50.9487 46.041 48.9051 44.0608 48.7896 41.5777L58.1328 41.5755C58.0172 44.0609 55.9736 46.041 53.4611 46.041L53.4613 46.041ZM58.1443 39.063V40.4065H48.7802V39.063C48.7802 37.4907 49.5573 36.1041 50.7468 35.2545C49.4395 34.7787 48.0258 33.7955 47.4208 31.7768C47.2147 31.0903 47.7357 30.397 48.4517 30.397H58.4746C59.1906 30.397 59.7117 31.0903 59.5055 31.7768C58.8983 33.7977 57.4868 34.7787 56.1795 35.2545C57.3667 36.1041 58.1438 37.4907 58.1438 39.063H58.1443Z" fill="#E7E7E7"/>
<path d="M52.2984 32.887C52.2984 34.0742 50.5176 34.0742 50.5176 32.887C50.5176 31.6998 52.2984 31.6998 52.2984 32.887Z" fill="#E7E7E7"/>
<path d="M56.646 32.887C56.646 34.0742 54.8652 34.0742 54.8652 32.887C54.8652 31.6998 56.646 31.6998 56.646 32.887Z" fill="#E7E7E7"/>
<path d="M52.1807 36.8203C51.9473 36.6414 51.612 36.6844 51.433 36.9178L51.3809 36.9857C51.2019 37.2191 51.245 37.5544 51.4783 37.7334L51.9654 38.1072C52.1988 38.2862 52.5341 38.2432 52.7131 38.0098L52.7652 37.9419C52.9442 37.7085 52.9012 37.3732 52.6678 37.1942L52.1807 36.8203Z" fill="#E7E7E7"/>
<path d="M55.7561 36.9178C55.5771 36.6844 55.2418 36.6414 55.0084 36.8203L54.5213 37.1942C54.2879 37.3732 54.2449 37.7085 54.4239 37.9418L54.476 38.0098C54.6549 38.2432 54.9903 38.2862 55.2236 38.1072L55.7108 37.7334C55.9441 37.5544 55.9872 37.2191 55.8082 36.9857L55.7561 36.9178Z" fill="#E7E7E7"/>
</svg>
