<?xml version="1.0" encoding="UTF-8"?>
<svg width="24px" height="24px" viewBox="0 0 24 24" version="1.1" xmlns="http://www.w3.org/2000/svg" xmlns:xlink="http://www.w3.org/1999/xlink">
    <title>Group</title>
    <g id="Page-1" stroke="none" stroke-width="1" fill="none" fill-rule="evenodd">
        <g id="Group">
            <rect id="Rectangle" x="0" y="0" width="24" height="24"></rect>
            <g id="_Walsh_Coordinape_Black_Co-Mark" transform="translate(0.000000, 7.000000)" fill="#000000" fill-rule="nonzero">
                <path d="M23.4795293,2.0878908 C22.2480809,-0.319953284 18.3645227,-0.684326403 16.5304384,1.19888919 C16.275499,1.01426583 15.9929601,0.859457428 15.6833908,0.735037338 C15.1897302,0.536079868 14.6505447,0.436601133 14.067257,0.436601133 C13.4839693,0.436601133 12.9476291,0.538660008 12.4582364,0.742491076 C11.9691283,0.946895509 11.543186,1.22354387 11.1815476,1.57415624 C10.8193402,1.92534197 10.5393621,2.33529757 10.3418978,2.80459639 C10.1444336,3.2738952 10.0457015,3.77845594 10.0457015,4.31885195 C10.0457015,4.85924796 10.1444336,5.34947458 10.3418978,5.8187734 C10.5257046,6.25567712 10.7786523,6.64183809 11.1018791,6.9758229 C11.1033017,6.97725631 11.1044398,6.97840304 11.1058625,6.97983645 C11.0076994,7.07788177 10.9089673,7.17621378 10.8096661,7.27253901 C9.87299138,8.18648197 8.87115913,9.02330741 7.72592346,9.68955693 C6.19287257,10.550177 4.25436558,11.0799658 2.60152731,10.2852826 C1.0300648,9.52758146 0.192406707,7.90725347 0.395561557,6.20636778 C0.395561557,6.20235423 0.396130618,6.19920072 0.39698421,6.19518717 C0.400398577,6.16623227 0.404951067,6.13641731 0.409503556,6.10746241 C0.414625107,6.07248718 0.418608536,6.03751194 0.424583678,6.00339676 C0.427713515,5.98304232 0.431127882,5.96326124 0.435111311,5.94348017 C0.4396638,5.91509863 0.445638943,5.88757713 0.451329555,5.85976896 C0.454459392,5.84514816 0.457873759,5.83081405 0.461003595,5.81619326 C0.518478777,5.54413182 0.607536855,5.29242482 0.725332525,5.06107225 C0.744396075,5.02294352 0.764028687,4.98596151 0.784230359,4.9489795 C0.806423746,4.90683721 0.830608847,4.86526829 0.856785663,4.82513277 C0.872434846,4.80019142 0.888937621,4.77496338 0.905155865,4.75002203 C1.41674189,3.98687392 2.26236684,3.52359543 3.16489791,3.28306904 C3.16888133,3.28163563 3.17286476,3.28106226 3.17656366,3.2804889 C3.44203071,3.21598539 3.71233478,3.16982955 3.98434604,3.13944124 C3.86854209,3.51642838 3.8110669,3.90918304 3.8110669,4.31827858 C3.8110669,4.84950076 3.90723825,5.34890122 4.10015,5.81820003 C4.29306174,6.28749885 4.56308128,6.69802781 4.9119158,7.0483535 C5.25989673,7.39896587 5.66677549,7.67647428 6.13226756,7.88001866 C6.59804415,8.08356305 7.1033705,8.18590861 7.64881566,8.18590861 C7.97858663,8.18590861 8.30295152,8.14777987 8.62276391,8.07180908 C8.94257631,7.99612497 9.2251152,7.90123315 9.46981152,7.78770698 L9.46981152,5.68288602 C9.2251152,5.9010512 8.96875313,6.06503344 8.7007253,6.173686 C8.43269747,6.28233857 8.16182434,6.33709488 7.88895949,6.33709488 C7.61609464,6.33709488 7.34806682,6.28233857 7.11332907,6.173686 C6.87802226,6.06503344 6.67316023,5.91739209 6.49931203,5.73276873 C6.32546383,5.547572 6.18860461,5.33198696 6.0898725,5.08572693 C5.99114038,4.8391802 5.94220111,4.57371245 5.94220111,4.28961036 C5.94220111,4.00550827 5.9885796,3.74204729 6.08275923,3.50008749 C6.13966535,3.35445291 6.20909082,3.21999894 6.29217375,3.09672558 C6.45492526,3.09213867 6.61796129,3.08497161 6.7807128,3.07436437 C7.25018829,3.0657639 7.71852566,3.03021531 8.1828796,2.92414288 C8.36725543,2.87999382 8.56358155,2.82667092 8.74795738,2.74553985 C9.34831695,2.55059593 9.88067371,2.22234477 9.87498309,1.65557399 L9.87498309,1.65299385 C9.91282566,1.10342401 9.3468943,0.645879164 8.60227771,0.528912812 C8.29555372,0.480750197 7.99736565,0.45036188 7.70629085,0.45036188 C7.13210809,0.45036188 6.60544195,0.552420755 6.12543882,0.756251824 C5.64600476,0.95979621 5.23400444,1.23988475 4.89057601,1.59508404 C4.56621112,1.93050226 4.31098717,2.31723659 4.12604228,2.75500036 C3.67079332,2.80889662 3.21753607,2.90063494 2.78789486,3.0416826 C2.75915727,3.05028306 2.73098874,3.05945689 2.70225115,3.06949077 C1.91666216,3.32635805 1.20192128,3.76268841 0.711390525,4.4584662 C0.694318689,4.48283419 0.677246853,4.50720218 0.66159767,4.53214353 C0.647086609,4.55335802 0.632860079,4.57485918 0.61920261,4.59750708 C0.60952857,4.61270124 0.599569999,4.62846876 0.590465019,4.64423628 C0.577376612,4.66545077 0.564857265,4.68637857 0.55319151,4.70759306 C0.540672164,4.72880754 0.528437348,4.75030871 0.516487063,4.7715232 C0.457589228,4.87902903 0.404666536,4.98911501 0.356865395,5.10178113 C0.347191355,5.12414234 0.337801845,5.14650356 0.329265927,5.16886477 C0.314185805,5.20441337 0.301097397,5.24082201 0.288578051,5.27694398 C0.284025561,5.28869795 0.279473071,5.3007386 0.275489643,5.31249257 C0.265815602,5.34087411 0.256426092,5.36839561 0.247321113,5.39677715 C0.0700585482,5.93889325 0.0157132032,6.52085819 0.0700585482,7.09422266 C0.0700585482,7.09880957 0.0706276094,7.10339649 0.0714812012,7.10798341 C0.0891220985,7.32614859 0.120420465,7.54345372 0.163100055,7.75903876 C0.458158289,9.11332563 1.49783311,10.2505941 2.78846392,10.7092856 C4.09986546,11.1883316 5.5302008,10.9776202 6.7975001,10.4495515 C7.16625176,10.2999034 7.52333767,10.1238805 7.86107549,9.93237678 C9.15028365,9.17983591 10.2559696,8.21113664 11.2927991,7.15872616 C11.6242772,7.45802241 12.0089626,7.69854881 12.445148,7.88030534 C12.9342561,8.08384973 13.4705963,8.18619529 14.0541686,8.18619529 C14.6377408,8.18619529 15.1757882,8.08155627 15.6697333,7.87313829 C16.1633939,7.66500699 16.5893362,7.38291167 16.9469912,7.02713902 C17.3040771,6.67193973 17.5840552,6.25940399 17.786641,5.79039186 C17.9886577,5.32109304 18.0902352,4.82111922 18.0902352,4.29047041 C18.0902352,3.75982159 17.991503,3.25927441 17.7931852,2.78997559 C17.595721,2.32067678 17.3183036,1.91100786 16.9606487,1.56039549 C16.9239442,1.52484689 16.8866707,1.4892983 16.8488282,1.45632984 C16.791922,1.40358031 16.7330242,1.35427096 16.6729882,1.30610835 C16.6704275,1.30410157 16.6670131,1.30152143 16.6644523,1.29951466 C18.4296802,-0.503429914 22.174672,-0.157977821 23.3728303,2.14694734 C24.3715327,3.98601387 23.9216899,6.60084253 22.123741,7.76735254 C21.6881246,8.05862169 21.1930414,8.25442566 20.682309,8.36823851 L20.6959664,8.43274201 C21.2146657,8.32064926 21.719423,8.12570534 22.165567,7.83185605 C24.0150159,6.65043856 24.4907511,3.97942018 23.4800984,2.08817748 L23.4795293,2.0878908 Z M7.07064948,2.44911042 C7.30538723,2.34963168 7.56431008,2.29946229 7.84684896,2.29946229 C7.93903688,2.29946229 8.02866402,2.30462257 8.11629944,2.31522981 C8.1168685,2.31522981 8.11829116,2.31580318 8.11886022,2.31580318 C8.22811997,2.3395978 8.50070029,2.41470855 8.19482989,2.52078098 C8.19340724,2.52135434 8.19226911,2.52135434 8.19141552,2.52221439 C7.88981308,2.59130481 7.57853661,2.63631392 7.27579604,2.67644943 L7.27522698,2.67644943 C7.05670748,2.69479709 6.84017969,2.70425761 6.63958562,2.70884452 C6.76648627,2.60334546 6.91045875,2.51705411 7.07064948,2.44911042 L7.07064948,2.44911042 Z M12.3179628,5.08630029 C12.2237832,4.83975357 12.1768357,4.57428582 12.1768357,4.29018373 C12.1768357,4.00608163 12.2212224,3.75437463 12.3108496,3.50811459 C12.3999077,3.26156787 12.5248166,3.04827629 12.6850073,2.86823984 C12.844629,2.6882034 13.0395325,2.54600901 13.2702868,2.44194336 C13.500472,2.33730435 13.7568341,2.28512818 14.039373,2.28512818 C14.3219119,2.28512818 14.5802657,2.33988449 14.8155725,2.44853705 C14.9419041,2.50730691 15.0594152,2.57697069 15.1666832,2.65810177 C14.4818181,3.32836483 13.8325192,4.03732999 13.1863502,4.74973535 C13.1812287,4.75489563 13.1758226,4.76034259 13.1712701,4.76607623 C12.9501898,5.00000894 12.7296786,5.23394164 12.5105901,5.46930775 C12.4334823,5.35148136 12.3700319,5.22362108 12.3176783,5.08658697 L12.3179628,5.08630029 Z M15.8248025,5.08630029 C15.7351754,5.33284701 15.6077057,5.54814537 15.4435315,5.73334209 C15.2787883,5.91796545 15.0784787,6.06474676 14.843741,6.17425937 C14.6084342,6.28291194 14.3500804,6.33766824 14.0675415,6.33766824 C13.7850026,6.33766824 13.5431516,6.28291194 13.3126818,6.17425937 C13.0819275,6.06474676 12.8824716,5.91796545 12.7128913,5.73334209 C12.6983803,5.71757457 12.6847228,5.70180705 12.6716344,5.68603952 C13.5505494,4.71418675 14.415807,3.72427299 15.3433767,2.80889662 C15.3701226,2.83469802 15.3968685,2.86164615 15.4224762,2.88916765 C15.5912029,3.07436437 15.7232251,3.28708259 15.8174047,3.52904239 C15.9110153,3.7710022 15.9579628,4.02930289 15.9579628,4.30394447 C15.9579628,4.57858605 15.9135761,4.83975357 15.824518,5.08601361 L15.8248025,5.08630029 Z" id="Shape"></path>
                <path d="M0.1,4.93970894 C0.0631016043,4.97226102 0.0299465241,5.00559436 7.06295729e-16,5.03970894 C0.0295900178,5.00481311 0.0631016043,4.97147977 0.1,4.93970894 Z" id="Path"></path>
                <path d="M1.09781336,4.98960499 C1.07628483,5.14039184 1.05723209,5.29799819 1.04119333,5.46431836 C1.02364759,5.63518486 1.00922347,5.81021884 0.997920998,5.98752599 C1.01966481,5.62798649 1.05335695,5.29534616 1.097921,4.98960499 L1.09781336,4.98960499 Z" id="Path"></path>
                <path d="M11.077131,6.93680819 C11.0439898,6.96988362 11.0106564,7.00305577 10.977131,7.03555094 C11.0102722,7.00266892 11.0434134,6.96910993 11.0757861,6.93555094 C11.0762664,6.93603449 11.0766507,6.93642134 11.077131,6.9369049 L11.077131,6.93680819 Z" id="Path"></path>
            </g>
        </g>
    </g>
</svg>