<svg width="24" height="24" viewBox="0 0 24 24" fill="none" xmlns="http://www.w3.org/2000/svg">
<path fill-rule="evenodd" clip-rule="evenodd" d="M18.4703 7.04989C19.8488 7.40121 20.9555 8.50167 21.2554 9.9437L21.2555 9.94364C21.4905 11.075 21.6269 12.1803 21.7014 12.9081C21.7614 13.513 21.7633 14.1227 21.7072 14.7285C21.4238 17.8022 20.5241 20.0824 20.2223 20.7772C20.1643 20.9118 20.0317 20.9979 19.8857 20.9979H17.8387C17.6114 20.9979 17.4373 20.7927 17.4769 20.5682C17.9655 17.8139 17.8126 15.6246 17.6859 14.5987L17.6813 14.5622C17.6793 14.5464 17.6775 14.5309 17.6752 14.5155C17.6749 14.5114 17.6744 14.5074 17.6738 14.5033L17.6733 14.4995C17.6726 14.4942 17.6719 14.4889 17.6714 14.4836C17.6697 14.4694 17.6678 14.4559 17.6659 14.4426L17.6659 14.4426C17.6644 14.4322 17.663 14.4221 17.6617 14.4119L17.66 14.4002L17.6593 14.395L17.6583 14.3875L17.6569 14.3781L17.6568 14.3776L17.6568 14.3776C17.6539 14.3565 17.651 14.3353 17.6482 14.3161C17.6472 14.3108 17.6465 14.3057 17.6457 14.3007C17.645 14.2956 17.6443 14.2905 17.6433 14.2852C17.6404 14.2648 17.6375 14.2455 17.6346 14.2281C17.6346 14.2261 17.6337 14.2242 17.6337 14.2223C17.4083 14.4768 17.1451 14.6955 16.852 14.8707C16.8578 14.8697 16.8617 14.8687 16.8617 14.8687C16.0414 15.5443 14.7567 15.9188 13.9712 16.0959C12.6784 16.1804 11.6893 15.8848 11.6397 15.87L11.6379 15.8695L11.5692 15.8482L11.3912 15.792L11.3225 16.0417C10.8321 17.8129 10.8621 20.2517 10.8834 20.9669C10.8834 20.973 10.8836 20.979 10.8839 20.9848L10.8839 20.9849L10.8842 20.9924L10.8843 20.9998H8.56844L8.56602 20.993L8.5636 20.9862C8.01413 19.3312 6.55631 14.0954 8.25984 9.39194C8.31304 9.24678 8.36818 9.10063 8.42719 8.95643C8.59646 8.65932 8.76673 8.39318 8.92924 8.16091C9.47 7.38959 10.3513 6.93084 11.2925 6.93084H11.8255V6.25823C11.8255 4.42232 13.3133 2.93481 15.1475 2.93481C16.9825 2.93481 18.4694 4.42329 18.4694 6.25823L18.4703 7.04989ZM13.1527 12.2141C13.2021 13.2748 14.0746 14.1206 15.1474 14.1206L15.1473 14.1206C16.2201 14.1206 17.0927 13.2748 17.142 12.2131L13.1527 12.2141ZM17.147 11.7138V11.1399H17.1468C17.1468 10.4682 16.815 9.87591 16.3081 9.513C16.8662 9.30976 17.4689 8.8907 17.7282 8.02742C17.8162 7.73417 17.5937 7.43803 17.288 7.43803H13.0084C12.7028 7.43803 12.4803 7.73417 12.5683 8.02742C12.8266 8.88974 13.4302 9.30976 13.9884 9.513C13.4805 9.87591 13.1487 10.4682 13.1487 11.1399V11.7138H17.147ZM7.57122 9.88163C5.19924 11.6421 3.87683 13.3213 3.24038 14.2833C3.22602 14.3052 3.21327 14.3282 3.20057 14.3512L3.20056 14.3512C3.19359 14.3638 3.18664 14.3764 3.17944 14.3888C3.17357 14.3884 3.16785 14.3877 3.16217 14.387H3.16216H3.16215H3.16214H3.16213H3.16212C3.15378 14.3859 3.1455 14.3849 3.13687 14.3849C2.60676 14.3849 2.17725 14.8146 2.17725 15.345C2.17725 15.8482 2.56419 16.2557 3.05659 16.2973C3.42261 17.4484 4.42199 19.0703 5.01529 20.0332C5.18718 20.3122 5.32498 20.5358 5.40343 20.6767C5.51468 20.877 5.72557 20.9999 5.95484 20.9999H8.04242C7.47263 19.2308 6.20927 14.414 7.57132 9.8818L7.57122 9.88163ZM11.7396 16.4153C11.3275 18.1225 11.3642 20.4075 11.3826 20.9998H13.2138C13.417 20.9998 13.5814 20.8382 13.5863 20.6359C13.5876 20.5777 13.5896 20.5069 13.5919 20.4254V20.4254C13.614 19.6541 13.6639 17.9162 13.3821 16.6138C12.646 16.6032 12.0568 16.4909 11.7396 16.4154L11.7396 16.4153ZM14.6508 8.5025C14.6508 9.01055 13.8905 9.01055 13.8905 8.5025C13.8905 7.99445 14.6508 7.99445 14.6508 8.5025ZM16.5078 8.50254C16.5078 9.01059 15.7475 9.01059 15.7475 8.50254C15.7475 7.99449 16.5078 7.99449 16.5078 8.50254ZM14.601 10.1821C14.5014 10.1055 14.3582 10.124 14.2818 10.2238L14.2595 10.2529C14.1831 10.3528 14.2015 10.4963 14.3011 10.5729L14.5091 10.7328C14.6088 10.8094 14.7519 10.791 14.8284 10.6911L14.8506 10.6621C14.927 10.5622 14.9086 10.4187 14.809 10.3421L14.601 10.1821ZM15.8082 10.1821C15.9079 10.1055 16.051 10.1239 16.1274 10.2238L16.1497 10.2529C16.2261 10.3528 16.2077 10.4962 16.1081 10.5728L15.9001 10.7328C15.8005 10.8094 15.6573 10.791 15.5809 10.6911L15.5586 10.662C15.4822 10.5622 15.5006 10.4187 15.6002 10.3421L15.8082 10.1821Z" fill="#516369"/>
</svg>
