<svg width="24" height="24" viewBox="0 0 24 24" fill="none" xmlns="http://www.w3.org/2000/svg">
<g clip-path="url(#clip0_1158_910)">
<path fill-rule="evenodd" clip-rule="evenodd" d="M3.0506 3.57286L3.05609 3.56474C3.12316 3.46568 3.19045 3.37601 3.259 3.29614C3.39508 3.1376 3.53611 3.01765 3.69019 2.93953C3.82921 2.86905 3.97885 2.83262 4.14504 2.83262H11.7418V0H8.39407C7.9101 0 7.31742 0.0834711 6.70413 0.243402C4.93601 0.704472 2.99626 1.80101 2.99414 3.36505V3.37101C2.99425 3.43046 2.99716 3.49059 3.00298 3.55139L3.00343 3.55603C3.00571 3.57922 3.00841 3.60252 3.01154 3.62591L3.01221 3.6309L3.01495 3.62669C3.02296 3.61439 3.03097 3.60224 3.03899 3.5902C3.04286 3.58439 3.04673 3.57861 3.0506 3.57286ZM11.7419 2.83262C12.9457 2.83262 14.1378 3.06974 15.2501 3.53044C16.3623 3.99116 17.3729 4.6664 18.2242 5.51768C19.0755 6.36896 19.7507 7.37954 20.2114 8.49178C20.6721 9.60402 20.9092 10.7961 20.9092 12C20.9092 13.2039 20.6721 14.396 20.2114 15.5082C19.7507 16.6205 19.0755 17.631 18.2242 18.4823C17.3729 19.3336 16.3623 20.0088 15.2501 20.4696C14.1378 20.9303 12.9457 21.1674 11.7419 21.1674V24C13.3177 24 14.8781 23.6896 16.3341 23.0866C17.79 22.4835 19.1129 21.5996 20.2272 20.4853C21.3415 19.371 22.2254 18.0481 22.8284 16.5922C23.4315 15.1363 23.7419 13.5759 23.7419 12C23.7419 10.4241 23.4315 8.86373 22.8284 7.40781C22.2254 5.9519 21.3415 4.62901 20.2272 3.51472C19.1129 2.40042 17.79 1.5165 16.3341 0.913447C14.8781 0.310388 13.3177 0 11.7419 0V2.83262ZM11.3298 8.39485C11.8033 8.39485 12.2721 8.48812 12.7095 8.66925C13.1469 8.85044 13.5443 9.11598 13.879 9.4508C14.2139 9.78556 14.4794 10.183 14.6606 10.6204C14.8417 11.0578 14.935 11.5265 14.935 12C14.935 12.4735 14.8417 12.9422 14.6606 13.3796C14.4794 13.817 14.2139 14.2144 13.879 14.5492C13.5443 14.884 13.1469 15.1496 12.7095 15.3307C12.2721 15.5119 11.8033 15.6052 11.3298 15.6052H3.75903V18.4378H11.3298C12.1753 18.4378 13.0124 18.2713 13.7935 17.9477C14.5745 17.6242 15.2842 17.15 15.882 16.5522C16.4799 15.9544 16.954 15.2447 17.2776 14.4636C17.6011 13.6826 17.7676 12.8454 17.7676 12C17.7676 11.1546 17.6011 10.3174 17.2776 9.53639C16.954 8.75531 16.4799 8.04561 15.882 7.44783C15.2842 6.84999 14.5745 6.37581 13.7935 6.05227C13.0124 5.72874 12.1753 5.56223 11.3298 5.56223H3.75903V8.39485H11.3298ZM3.07443 21.1757C3.60877 22.9551 6.68167 24 8.39407 24H11.7418V21.1674H4.14504C3.75978 21.1674 3.46346 20.9716 3.18217 20.6097C3.1251 20.5362 3.06866 20.4559 3.01221 20.3691C3.01219 20.3693 3.01217 20.3694 3.01216 20.3695C2.97359 20.6526 2.99813 20.9217 3.07443 21.1757Z" fill="currentColor"/>
<path fill-rule="evenodd" clip-rule="evenodd" d="M3.0506 3.57286L3.05609 3.56474C3.12316 3.46568 3.19045 3.37601 3.259 3.29614C3.39508 3.1376 3.53611 3.01765 3.69019 2.93953C3.82921 2.86905 3.97885 2.83262 4.14504 2.83262H11.7418V0H8.39407C7.9101 0 7.31742 0.0834711 6.70413 0.243402C4.93601 0.704472 2.99626 1.80101 2.99414 3.36505V3.37101C2.99425 3.43046 2.99716 3.49059 3.00298 3.55139L3.00343 3.55603C3.00571 3.57922 3.00841 3.60252 3.01154 3.62591L3.01221 3.6309L3.01495 3.62669C3.02296 3.61439 3.03097 3.60224 3.03899 3.5902C3.04286 3.58439 3.04673 3.57861 3.0506 3.57286ZM11.7419 2.83262C12.9457 2.83262 14.1378 3.06974 15.2501 3.53044C16.3623 3.99116 17.3729 4.6664 18.2242 5.51768C19.0755 6.36896 19.7507 7.37954 20.2114 8.49178C20.6721 9.60402 20.9092 10.7961 20.9092 12C20.9092 13.2039 20.6721 14.396 20.2114 15.5082C19.7507 16.6205 19.0755 17.631 18.2242 18.4823C17.3729 19.3336 16.3623 20.0088 15.2501 20.4696C14.1378 20.9303 12.9457 21.1674 11.7419 21.1674V24C13.3177 24 14.8781 23.6896 16.3341 23.0866C17.79 22.4835 19.1129 21.5996 20.2272 20.4853C21.3415 19.371 22.2254 18.0481 22.8284 16.5922C23.4315 15.1363 23.7419 13.5759 23.7419 12C23.7419 10.4241 23.4315 8.86373 22.8284 7.40781C22.2254 5.9519 21.3415 4.62901 20.2272 3.51472C19.1129 2.40042 17.79 1.5165 16.3341 0.913447C14.8781 0.310388 13.3177 0 11.7419 0V2.83262ZM11.3298 8.39485C11.8033 8.39485 12.2721 8.48812 12.7095 8.66925C13.1469 8.85044 13.5443 9.11598 13.879 9.4508C14.2139 9.78556 14.4794 10.183 14.6606 10.6204C14.8417 11.0578 14.935 11.5265 14.935 12C14.935 12.4735 14.8417 12.9422 14.6606 13.3796C14.4794 13.817 14.2139 14.2144 13.879 14.5492C13.5443 14.884 13.1469 15.1496 12.7095 15.3307C12.2721 15.5119 11.8033 15.6052 11.3298 15.6052H3.75903V18.4378H11.3298C12.1753 18.4378 13.0124 18.2713 13.7935 17.9477C14.5745 17.6242 15.2842 17.15 15.882 16.5522C16.4799 15.9544 16.954 15.2447 17.2776 14.4636C17.6011 13.6826 17.7676 12.8454 17.7676 12C17.7676 11.1546 17.6011 10.3174 17.2776 9.53639C16.954 8.75531 16.4799 8.04561 15.882 7.44783C15.2842 6.84999 14.5745 6.37581 13.7935 6.05227C13.0124 5.72874 12.1753 5.56223 11.3298 5.56223H3.75903V8.39485H11.3298ZM3.07443 21.1757C3.60877 22.9551 6.68167 24 8.39407 24H11.7418V21.1674H4.14504C3.75978 21.1674 3.46346 20.9716 3.18217 20.6097C3.1251 20.5362 3.06866 20.4559 3.01221 20.3691C3.01219 20.3693 3.01217 20.3694 3.01216 20.3695C2.97359 20.6526 2.99813 20.9217 3.07443 21.1757Z" fill="currentColor"/>
<path fill-rule="evenodd" clip-rule="evenodd" d="M3.01318 3.63603C3.02613 3.90089 3.16841 4.5923 3.37216 4.85466L9.68198 11.6212C9.77845 11.7246 9.82413 11.8572 9.82011 11.9882C9.82315 12.1179 9.77742 12.249 9.68188 12.3514L3.40389 19.0838L3.41371 19.0927C3.21976 19.3051 3.02723 20.0767 3.01318 20.3639C2.86079 23.4798 8.18914 23.9949 8.18914 23.9949C7.21045 23.9864 6.45007 23.9918 5.8392 23.9961C4.58553 24.005 3.96108 24.0094 3.36977 23.8808C2.44952 23.6581 1.63573 23.1215 1.06857 22.3634C0.501422 21.6053 0.216419 20.6731 0.262673 19.7274C0.308343 18.7936 0.674192 17.9044 1.29808 17.209L1.28786 17.1995L6.14935 11.9862L1.32592 6.81373L1.32195 6.81734C0.683528 6.11815 0.308922 5.21825 0.262673 4.27257C0.216419 3.3269 0.501422 2.39471 1.06857 1.63658C1.63573 0.878452 2.44952 0.34185 3.36977 0.119222C3.96113 -0.00946264 4.58565 -0.0050317 5.83951 0.00386447C6.45038 0.00819852 7.2106 0.0135924 8.18914 0.00517014C8.18914 0.00517014 2.86079 0.520151 3.01318 3.63603Z" fill="currentColor"/>
<path fill-rule="evenodd" clip-rule="evenodd" d="M3.01318 3.63603C3.02613 3.90089 3.16841 4.5923 3.37216 4.85466L9.68198 11.6212C9.77845 11.7246 9.82413 11.8572 9.82011 11.9882C9.82315 12.1179 9.77742 12.249 9.68188 12.3514L3.40389 19.0838L3.41371 19.0927C3.21976 19.3051 3.02723 20.0767 3.01318 20.3639C2.86079 23.4798 8.18914 23.9949 8.18914 23.9949C7.21045 23.9864 6.45007 23.9918 5.8392 23.9961C4.58553 24.005 3.96108 24.0094 3.36977 23.8808C2.44952 23.6581 1.63573 23.1215 1.06857 22.3634C0.501422 21.6053 0.216419 20.6731 0.262673 19.7274C0.308343 18.7936 0.674192 17.9044 1.29808 17.209L1.28786 17.1995L6.14935 11.9862L1.32592 6.81373L1.32195 6.81734C0.683528 6.11815 0.308922 5.21825 0.262673 4.27257C0.216419 3.3269 0.501422 2.39471 1.06857 1.63658C1.63573 0.878452 2.44952 0.34185 3.36977 0.119222C3.96113 -0.00946264 4.58565 -0.0050317 5.83951 0.00386447C6.45038 0.00819852 7.2106 0.0135924 8.18914 0.00517014C8.18914 0.00517014 2.86079 0.520151 3.01318 3.63603Z" fill="currentColor"/>
</g>
<defs>
<clipPath id="clip0_1158_910">
<rect width="24" height="24" fill="white"/>
</clipPath>
</defs>
</svg>
