<svg width="24" height="24" viewBox="0 0 24 24" fill="none" xmlns="http://www.w3.org/2000/svg">
<path d="M20.317 4.25871C18.7873 3.55711 17.147 3.04021 15.4319 2.74416C15.4007 2.73845 15.3695 2.75273 15.3534 2.78129C15.1424 3.15634 14.9087 3.64564 14.7451 4.03023C12.9004 3.75417 11.0652 3.75417 9.25832 4.03023C9.09465 3.63709 8.85248 3.15634 8.64057 2.78129C8.62448 2.75368 8.59328 2.7394 8.56205 2.74416C6.84791 3.03927 5.20756 3.55617 3.67694 4.25871C3.66368 4.26442 3.65233 4.27394 3.64479 4.28631C0.533392 8.93275 -0.31895 13.465 0.0991801 17.941C0.101072 17.9629 0.11337 17.9839 0.130398 17.9972C2.18321 19.5041 4.17171 20.4189 6.12328 21.0253C6.15451 21.0348 6.18761 21.0234 6.20748 20.9977C6.66913 20.3675 7.08064 19.7031 7.43348 19.0043C7.4543 18.9634 7.43442 18.9148 7.39186 18.8987C6.73913 18.6512 6.1176 18.3494 5.51973 18.0067C5.47244 17.9791 5.46865 17.9115 5.51216 17.8791C5.63797 17.7849 5.76382 17.6868 5.88395 17.5878C5.90569 17.5697 5.93598 17.5659 5.96153 17.5774C9.88928 19.3699 14.1415 19.3699 18.023 17.5774C18.0485 17.565 18.0788 17.5688 18.1015 17.5869C18.2216 17.6859 18.3475 17.7849 18.4742 17.8791C18.5177 17.9115 18.5149 17.9791 18.4676 18.0067C17.8697 18.356 17.2482 18.6512 16.5945 18.8977C16.552 18.9139 16.533 18.9634 16.5538 19.0043C16.9143 19.7021 17.3258 20.3666 17.7789 20.9967C17.7978 21.0234 17.8319 21.0348 17.8631 21.0253C19.8241 20.4189 21.8126 19.5041 23.8654 17.9972C23.8834 17.9839 23.8948 17.9639 23.8967 17.942C24.3971 12.7672 23.0585 8.27211 20.3482 4.28726C20.3416 4.27394 20.3303 4.26442 20.317 4.25871ZM8.02002 15.2156C6.8375 15.2156 5.86313 14.1304 5.86313 12.7976C5.86313 11.4649 6.8186 10.3797 8.02002 10.3797C9.23087 10.3797 10.1958 11.4744 10.1769 12.7976C10.1769 14.1304 9.22141 15.2156 8.02002 15.2156ZM15.9947 15.2156C14.8123 15.2156 13.8379 14.1304 13.8379 12.7976C13.8379 11.4649 14.7933 10.3797 15.9947 10.3797C17.2056 10.3797 18.1705 11.4744 18.1516 12.7976C18.1516 14.1304 17.2056 15.2156 15.9947 15.2156Z" fill="#B8BDBF"/>
</svg>
