<svg width="24" height="24" viewBox="0 0 24 24" fill="none" xmlns="http://www.w3.org/2000/svg">
<path d="M12.0004 3.07455e-09C9.15089 -6.52807e-05 6.39435 1.03953 4.22405 2.93275C2.05375 4.82597 0.611347 7.44925 0.154949 10.3332C-0.301449 13.2171 0.257949 16.1734 1.73304 18.6731C3.20813 21.1728 5.50264 23.0527 8.20597 23.9765C8.80597 24.0847 9.03037 23.7156 9.03037 23.392C9.03037 23.1004 9.01597 22.1309 9.01597 21.1011C6.00035 21.6695 5.22034 20.3468 4.98034 19.6554C4.71411 18.982 4.29194 18.3853 3.75033 17.9168C3.33032 17.6868 2.73032 17.1171 3.73473 17.1023C4.11859 17.1449 4.48677 17.2818 4.80806 17.5013C5.12935 17.7209 5.39426 18.0166 5.58034 18.3635C5.74442 18.6657 5.96506 18.9318 6.22963 19.1465C6.49419 19.3612 6.79747 19.5203 7.12209 19.6146C7.44672 19.7089 7.7863 19.7366 8.12138 19.6961C8.45645 19.6556 8.78044 19.5476 9.07477 19.3785C9.12675 18.7527 9.39885 18.1676 9.84038 17.7323C7.17036 17.4247 4.38033 16.3641 4.38033 11.6579C4.36333 10.4348 4.80343 9.25151 5.61034 8.35061C5.24351 7.28782 5.28644 6.12151 5.73034 5.09009C5.73034 5.09009 6.73475 4.76773 9.03037 6.35124C10.9939 5.7975 13.0669 5.7975 15.0304 6.35124C17.3248 4.75174 18.3305 5.09009 18.3305 5.09009C18.7745 6.12148 18.8174 7.28784 18.4505 8.35061C19.2598 9.24996 19.7003 10.4343 19.6805 11.6579C19.6805 16.3789 16.8748 17.4247 14.2048 17.7323C14.4912 18.0299 14.7118 18.3872 14.8515 18.78C14.9913 19.1727 15.047 19.5917 15.0148 20.0085C15.0148 21.6547 15.0004 22.9774 15.0004 23.392C15.0004 23.7156 15.2248 24.0995 15.8248 23.9765C18.5232 23.045 20.8109 21.1606 22.2795 18.6597C23.7481 16.1588 24.3021 13.2041 23.8426 10.3231C23.383 7.44217 21.9399 4.8224 19.7707 2.93149C17.6016 1.04057 14.8476 0.00158727 12.0004 3.07455e-09V3.07455e-09Z" fill="#B8BDBF"/>
</svg>
