<?xml version="1.0" encoding="UTF-8" standalone="no"?>
<!DOCTYPE svg PUBLIC "-//W3C//DTD SVG 1.1//EN" "http://www.w3.org/Graphics/SVG/1.1/DTD/svg11.dtd">
<svg width="100%" height="100%" viewBox="0 0 1721 512" version="1.1" xmlns="http://www.w3.org/2000/svg" xmlns:xlink="http://www.w3.org/1999/xlink" xml:space="preserve" xmlns:serif="http://www.serif.com/" style="fill-rule:evenodd;clip-rule:evenodd;stroke-linejoin:round;stroke-miterlimit:2;">
    <path d="M487.842,317.991L504.588,317.991L504.588,195.846L487.842,195.846L487.842,317.991ZM595.327,319.91C614.166,319.91 631.958,312.233 643.994,299.146L633.005,287.978C623.934,298.448 610.328,304.381 595.85,304.381C568.987,304.381 548.752,283.79 548.752,256.918C548.752,230.046 568.813,209.282 595.327,209.282C609.805,209.282 623.934,215.389 633.179,226.208L644.343,214.691C632.656,201.604 614.689,193.926 595.327,193.926C559.567,193.926 531.658,221.671 531.658,256.918C531.658,292.166 559.567,319.91 595.327,319.91ZM669.759,317.991L759.594,317.991L759.594,303.334L686.505,303.334L686.505,263.549L733.952,263.549L733.952,249.066L686.505,249.066L686.505,210.503L758.896,210.503L758.896,195.846L669.759,195.846L669.759,317.991ZM785.589,317.991L839.664,317.991C864.958,317.991 881.529,304.381 881.529,283.267C881.529,269.831 872.807,259.361 859.027,254.475C870.016,249.415 876.645,239.992 876.645,227.778C876.645,208.409 861.12,195.846 837.397,195.846L785.589,195.846L785.589,317.991ZM802.335,248.194L802.335,210.154L836.35,210.154C850.828,210.154 860.073,217.483 860.073,229.174C860.073,240.865 850.828,248.194 836.35,248.194L802.335,248.194ZM802.335,303.683L802.335,261.63L838.269,261.63C854.317,261.63 864.609,270.005 864.609,282.743C864.609,295.481 854.317,303.683 838.269,303.683L802.335,303.683ZM908.915,317.991L925.66,317.991L925.66,267.039L961.594,267.039L987.062,317.991L1005.55,317.991L978.34,264.771C993.865,259.885 1003.81,247.67 1003.81,231.617C1003.81,210.329 987.411,195.846 963.339,195.846L908.915,195.846L908.915,317.991ZM925.66,253.079L925.66,210.678L962.117,210.678C976.945,210.678 986.887,219.053 986.887,231.791C986.887,244.704 976.945,253.079 962.117,253.079L925.66,253.079ZM1030.19,317.991L1120.03,317.991L1120.03,303.334L1046.94,303.334L1046.94,263.549L1094.39,263.549L1094.39,249.066L1046.94,249.066L1046.94,210.503L1119.33,210.503L1119.33,195.846L1030.19,195.846L1030.19,317.991ZM1136.02,317.991L1153.47,317.991L1168.12,281.347L1223.59,281.347L1238.24,317.991L1256.39,317.991L1206.32,195.846L1186.44,195.846L1136.02,317.991ZM1173.7,267.388L1195.85,211.725L1218.18,267.388L1173.7,267.388ZM1276.5,317.991L1293.25,317.991L1293.25,259.885L1353.78,317.991L1376.8,317.991L1310.69,255.173L1375.06,195.846L1353.6,195.846L1293.25,252.905L1293.25,195.846L1276.5,195.846L1276.5,317.991ZM1392.5,317.991L1482.34,317.991L1482.34,303.334L1409.25,303.334L1409.25,263.549L1456.7,263.549L1456.7,249.066L1409.25,249.066L1409.25,210.503L1481.64,210.503L1481.64,195.846L1392.5,195.846L1392.5,317.991ZM1508.33,317.991L1525.08,317.991L1525.08,267.039L1561.02,267.039L1586.48,317.991L1604.97,317.991L1577.76,264.771C1593.29,259.885 1603.23,247.67 1603.23,231.617C1603.23,210.329 1586.83,195.846 1562.76,195.846L1508.33,195.846L1508.33,317.991ZM1525.08,253.079L1525.08,210.678L1561.53,210.678C1576.36,210.678 1586.31,219.053 1586.31,231.791C1586.31,244.704 1576.36,253.079 1561.53,253.079L1525.08,253.079Z" style="fill:white;fill-rule:nonzero;"/>
    <path d="M246.442,88.565L190.755,120.793C190.135,121.152 189.62,121.668 189.262,122.289L249.091,156.913C251.755,158.455 253.807,160.868 254.902,163.745C255.28,163.73 255.659,163.727 256.037,163.735C256.893,161.132 258.678,158.933 261.05,157.56L321.612,122.511C321.001,121.45 320.121,120.569 319.062,119.955L264.821,88.565C259.144,85.278 252.119,85.278 246.442,88.565ZM237.569,167.417C238.598,168.012 239.453,168.869 240.045,169.9L206.881,189.094C206.45,189.296 206.024,189.517 205.606,189.756L187.704,199.95C187.171,200.253 186.678,200.62 186.234,201.042L183.071,202.873C177.388,206.167 173.879,212.259 173.881,218.828L173.881,284.56C172.817,284.534 171.776,284.241 170.855,283.708L119.155,253.788L116.309,252.14C110.626,248.847 107.116,242.755 107.119,236.186L107.119,180.009C107.116,173.44 110.625,167.347 116.309,164.054L164.844,135.965C170.521,132.678 177.546,132.678 183.223,135.965L237.569,167.417ZM190.537,215.837L209.053,205.122C213.201,203.307 217.975,203.576 221.893,205.845L240.789,216.781L223.932,226.537C218.249,229.831 214.74,235.923 214.743,242.491L214.743,262.579L195.192,251.265C191.671,249.224 189.307,245.643 188.814,241.603L188.814,218.828C188.814,217.594 189.471,216.454 190.537,215.837ZM188.814,292.176L188.814,264.746L214.743,279.751L214.743,309.176L190.537,295.168C189.471,294.55 188.813,293.408 188.814,292.176ZM223.932,331.795C223.725,331.675 223.521,331.552 223.32,331.425L189.756,312.001C189.077,313.124 188.718,314.412 188.718,315.725L188.718,378.392C188.715,384.961 192.224,391.053 197.907,394.346L246.442,422.435C252.119,425.722 259.144,425.722 264.821,422.435L313.356,394.346C319.039,391.053 322.549,384.961 322.546,378.392L322.546,315.725C322.546,314.389 322.175,313.105 321.506,312.001L287.767,331.527C287.619,331.617 287.469,331.707 287.318,331.795L271.094,341.184C270.998,341.24 270.901,341.293 270.803,341.344L264.821,344.806C259.144,348.093 252.119,348.093 246.442,344.806L240.556,341.399C240.42,341.332 240.287,341.26 240.156,341.184L223.932,331.795ZM175.918,300.606C176.225,301.202 176.563,301.782 176.932,302.342C174.957,304.824 173.881,307.904 173.881,311.076L173.881,379.396C172.851,379.37 171.844,379.086 170.953,378.57L116.309,346.946C110.625,343.653 107.116,337.56 107.119,330.991L107.119,268.668C107.119,267.224 107.519,265.836 108.24,264.642L167.677,299.04C170.166,300.481 173.073,301.034 175.918,300.606ZM337.381,311.076C337.381,307.851 336.275,304.785 334.33,302.342C334.694,301.79 335.029,301.22 335.332,300.631C338.146,301.063 341.025,300.52 343.489,299.093L403.023,264.64C403.753,265.85 404.139,267.236 404.138,268.649L404.138,330.991C404.141,337.56 400.633,343.652 394.949,346.946L340.565,378.42C339.596,378.981 338.501,379.289 337.381,379.315L337.381,311.076ZM340.357,283.734C339.451,284.259 338.428,284.548 337.381,284.574L337.381,218.828C337.384,212.259 333.875,206.167 328.192,202.873L271.057,169.807C271.546,168.956 272.252,168.248 273.102,167.757L328.035,135.965C333.712,132.678 340.737,132.678 346.414,135.965L394.949,164.054C400.633,167.348 404.141,173.44 404.138,180.009L404.138,236.186C404.141,242.755 400.632,248.847 394.949,252.14L340.357,283.734ZM320.725,295.168L296.507,309.183L296.507,279.761L322.448,264.747L322.448,292.176C322.449,293.408 321.791,294.55 320.725,295.168ZM322.448,218.828L322.448,239.884C321.881,245.042 318.889,249.632 314.399,252.233L296.507,262.588L296.507,242.491C296.51,235.923 293.001,229.831 287.318,226.537L270.461,216.781L288.87,206.127C293.091,203.683 298.239,203.412 302.693,205.4L320.725,215.837C321.791,216.454 322.449,217.596 322.448,218.828ZM255.626,208.195L281.573,193.178L257.354,179.163C256.29,178.546 254.972,178.546 253.908,179.163L229.684,193.181L255.626,208.195ZM257.354,331.843L276.57,320.722C279.784,318.265 281.673,314.443 281.672,310.398L281.672,288.346L264.822,298.097C259.145,301.384 252.12,301.384 246.443,298.097L229.578,288.336L229.578,310.398C229.577,314.426 231.449,318.234 234.64,320.692L253.908,331.843C254.973,332.458 256.289,332.458 257.354,331.843ZM238.767,235.122L255.626,225.366L272.483,235.122C278.166,238.416 281.675,244.508 281.672,251.077L281.672,271.174L264.822,280.926C259.145,284.213 252.12,284.213 246.443,280.926L229.578,271.165L229.578,251.077C229.575,244.508 233.084,238.416 238.767,235.122Z" style="fill:white;"/>
</svg>
