<svg width="24" height="24" viewBox="0 0 24 24" fill="none" xmlns="http://www.w3.org/2000/svg">
<path d="M13.2917 11.992C13.2917 15.4048 10.5419 18.1713 7.15021 18.1713C3.75846 18.1713 1.00854 15.4048 1.00854 11.992C1.00854 8.57927 3.75825 5.8125 7.15021 5.8125C10.5422 5.8125 13.2917 8.57927 13.2917 11.992Z" fill="currentColor"/>
<path d="M20.0265 12.0051C20.0265 15.2174 18.6516 17.8226 16.9556 17.8226C15.2596 17.8226 13.8848 15.2174 13.8848 12.0051C13.8848 8.79267 15.2594 6.1875 16.9554 6.1875C18.6514 6.1875 20.0262 8.79187 20.0262 12.0051" fill="currentColor"/>
<path d="M22.7992 12.0085C22.7992 14.886 22.3157 17.2201 21.7192 17.2201C21.1227 17.2201 20.6394 14.8866 20.6394 12.0085C20.6394 9.13034 21.1229 6.79688 21.7192 6.79688C22.3155 6.79688 22.7992 9.13014 22.7992 12.0085Z" fill="currentColor"/>
</svg>
