<svg width="24" height="24" viewBox="0 0 24 24" fill="none" xmlns="http://www.w3.org/2000/svg">
<path fill-rule="evenodd" clip-rule="evenodd" d="M6.86621 20.7006L10.0107 21.5349V20.4439L10.2674 20.1873H12.0642V21.4707V22.3691H10.139L7.76461 21.3423L6.86621 20.7006Z" fill="#CDBDB2"/>
<path fill-rule="evenodd" clip-rule="evenodd" d="M17.1338 20.7006L14.0535 21.5349V20.4439L13.7969 20.1873H12.0001V21.4707V22.3691H13.9252L16.2995 21.3423L17.1338 20.7006Z" fill="#CDBDB2"/>
<path fill-rule="evenodd" clip-rule="evenodd" d="M10.2665 18.3265L10.0098 20.4441L10.3306 20.1875H13.6675L14.0525 20.4441L13.7958 18.3265L13.2825 18.0056L10.7156 18.0698L10.2665 18.3265Z" fill="#393939"/>
<path fill-rule="evenodd" clip-rule="evenodd" d="M8.53418 4.01636L10.0743 7.60997L10.7802 18.07H13.2829L14.0529 7.60997L15.4647 4.01636H8.53418Z" fill="#F89C35"/>
<path fill-rule="evenodd" clip-rule="evenodd" d="M1.79681 11.9093L0 17.1071L4.49202 16.8504H7.37969V14.6045L7.25135 9.98413L6.60963 10.4975L1.79681 11.9093Z" fill="#F89D35"/>
<path fill-rule="evenodd" clip-rule="evenodd" d="M5.19727 12.4871L10.4593 12.6154L9.88186 15.3106L7.3791 14.6689L5.19727 12.4871Z" fill="#D87C30"/>
<path fill-rule="evenodd" clip-rule="evenodd" d="M5.19727 12.551L7.3791 14.6045V16.658L5.19727 12.551Z" fill="#EA8D3A"/>
<path fill-rule="evenodd" clip-rule="evenodd" d="M7.38086 14.6692L9.94773 15.3109L10.782 18.0703L10.2044 18.3911L7.38086 16.7227V14.6692Z" fill="#F89D35"/>
<path fill-rule="evenodd" clip-rule="evenodd" d="M7.37958 16.7224L6.86621 20.7011L10.2674 18.3268L7.37958 16.7224Z" fill="#EB8F35"/>
<path fill-rule="evenodd" clip-rule="evenodd" d="M10.4601 12.615L10.781 18.0696L9.81836 15.2781L10.4601 12.615Z" fill="#EA8E3A"/>
<path fill-rule="evenodd" clip-rule="evenodd" d="M4.42871 16.7866L7.38061 16.7224L6.86724 20.7011L4.42871 16.7866Z" fill="#D87C30"/>
<path fill-rule="evenodd" clip-rule="evenodd" d="M1.41178 22.4335L6.86632 20.7008L4.42779 16.7864L0 17.1072L1.41178 22.4335Z" fill="#EB8F35"/>
<path fill-rule="evenodd" clip-rule="evenodd" d="M10.0743 7.60962L7.31499 9.9198L5.19727 12.4867L10.4593 12.6792L10.0743 7.60962Z" fill="#E8821E"/>
<path fill-rule="evenodd" clip-rule="evenodd" d="M6.86621 20.7012L10.2674 18.3269L10.0107 20.3804V21.5355L7.7005 21.0862L6.86621 20.7012Z" fill="#DFCEC3"/>
<path fill-rule="evenodd" clip-rule="evenodd" d="M17.1338 20.7012L13.7969 18.3269L14.0535 20.3804V21.5355L16.3637 21.0862L17.1338 20.7012Z" fill="#DFCEC3"/>
<path fill-rule="evenodd" clip-rule="evenodd" d="M9.04894 13.7703L9.75488 15.2463L7.25213 14.6046L9.04894 13.7703Z" fill="#393939"/>
<path fill-rule="evenodd" clip-rule="evenodd" d="M1.34668 1.00024L10.074 7.60987L8.59814 4.01626L1.34668 1.00024Z" fill="#E88F35"/>
<path fill-rule="evenodd" clip-rule="evenodd" d="M1.34747 1.00024L0.192383 4.52969L0.8341 8.37999L0.384898 8.63668L1.02661 9.21422L0.513241 9.66342L1.21913 10.3051L0.769928 10.6902L1.79668 11.9736L6.60955 10.4977C8.96252 8.61529 10.1176 7.65271 10.0748 7.60993C10.032 7.56715 7.12293 5.36392 1.34747 1.00024Z" fill="#8E5A30"/>
<path fill-rule="evenodd" clip-rule="evenodd" d="M22.2022 11.9093L23.999 17.1071L19.507 16.8504H16.6193V14.6045L16.7477 9.98413L17.3894 10.4975L22.2022 11.9093Z" fill="#F89D35"/>
<path fill-rule="evenodd" clip-rule="evenodd" d="M18.8027 12.4871L13.5407 12.6154L14.1181 15.3106L16.6209 14.6689L18.8027 12.4871Z" fill="#D87C30"/>
<path fill-rule="evenodd" clip-rule="evenodd" d="M18.8027 12.5515L16.6209 14.605V16.6585L18.8027 12.5515Z" fill="#EA8D3A"/>
<path fill-rule="evenodd" clip-rule="evenodd" d="M16.6201 14.6692L14.0532 15.3109L13.219 18.0703L13.7966 18.3911L16.6201 16.7227V14.6692Z" fill="#F89D35"/>
<path fill-rule="evenodd" clip-rule="evenodd" d="M16.6204 16.7224L17.1338 20.7011L13.7969 18.3909L16.6204 16.7224Z" fill="#EB8F35"/>
<path fill-rule="evenodd" clip-rule="evenodd" d="M13.5399 12.615L13.219 18.0696L14.1816 15.2781L13.5399 12.615Z" fill="#EA8E3A"/>
<path fill-rule="evenodd" clip-rule="evenodd" d="M19.5732 16.7866L16.6213 16.7224L17.1347 20.7011L19.5732 16.7866Z" fill="#D87C30"/>
<path fill-rule="evenodd" clip-rule="evenodd" d="M22.5872 22.434L17.1327 20.7013L19.5712 16.7869L23.999 17.1077L22.5872 22.434Z" fill="#EB8F35"/>
<path fill-rule="evenodd" clip-rule="evenodd" d="M13.9257 7.60962L16.685 9.9198L18.8027 12.4867L13.5407 12.6792L13.9257 7.60962Z" fill="#E8821E"/>
<path fill-rule="evenodd" clip-rule="evenodd" d="M14.952 13.7703L14.2461 15.2463L16.7488 14.6046L14.952 13.7703Z" fill="#393939"/>
<path fill-rule="evenodd" clip-rule="evenodd" d="M22.6523 1.00024L13.925 7.60987L15.4009 4.01626L22.6523 1.00024Z" fill="#E88F35"/>
<path fill-rule="evenodd" clip-rule="evenodd" d="M22.6525 1.00024L23.8076 4.52969L23.1659 8.37999L23.6151 8.63668L22.9734 9.21422L23.4868 9.66342L22.7809 10.3051L23.2301 10.6902L22.2033 11.9736L17.3904 10.4977C15.0375 8.61529 13.8824 7.65271 13.9252 7.60993C13.968 7.56715 16.8771 5.36392 22.6525 1.00024Z" fill="#8E5A30"/>
</svg>
