<svg width="24" height="24" viewBox="0 0 24 24" fill="none" xmlns="http://www.w3.org/2000/svg">
<path d="M4.94058 2.26416L23.5406 14.9642L18.9406 21.7642L0.340576 8.96416L4.94058 2.26416Z" fill="url(#paint0_linear_1158_793)"/>
<path d="M23.5405 14.9641C21.9405 17.2641 16.5405 16.3641 11.4405 12.7641C6.24051 9.26409 3.44051 4.56409 4.94051 2.26409C6.54051 -0.0359136 11.9405 0.864087 17.0405 4.46409C22.2405 7.86409 25.0405 12.6641 23.5405 14.9641Z" fill="url(#paint1_linear_1158_793)"/>
<path d="M18.9406 21.6642C17.3406 23.9642 11.9406 23.0642 6.84056 19.4642C1.74056 15.8642 -1.15944 11.2642 0.44056 8.86418C2.04056 6.56418 7.44056 7.46418 12.5406 11.0642C17.6406 14.6642 20.4406 19.3642 18.9406 21.6642Z" fill="url(#paint2_linear_1158_793)"/>
<path d="M23.5405 14.9641L18.9405 21.7641C17.3405 24.0641 11.9405 23.0641 6.84053 19.5641C5.84053 18.8641 4.94053 18.1641 4.04053 17.3641C4.74053 17.2641 5.64053 16.8641 6.54053 15.8641C8.14053 14.1641 8.94053 13.7641 9.64053 13.8641C10.3405 13.8641 11.1405 14.5641 12.4405 16.2641C13.7405 17.9641 15.5405 18.4641 16.6405 17.5641C16.7405 17.4641 16.8405 17.4641 16.9405 17.3641C17.8405 16.6641 18.1405 16.3641 19.8405 13.1641C20.2405 12.3641 21.6405 11.0641 23.5405 11.6641C24.0405 12.9641 24.0405 14.0641 23.5405 14.9641Z" fill="#0E0F23"/>
<path fill-rule="evenodd" clip-rule="evenodd" d="M22.8405 14.5639C21.4405 16.5639 16.5405 15.5639 11.8405 12.2639C7.04046 8.96389 4.24046 4.7639 5.64046 2.7639C7.04046 0.763896 11.9405 1.7639 16.6405 5.0639C21.3405 8.36389 24.1405 12.5639 22.8405 14.5639ZM18.4405 11.5639C17.7405 12.5639 15.3405 12.0639 12.9405 10.4639C10.6405 8.86389 9.24046 6.7639 9.94046 5.7639C10.6405 4.7639 13.0405 5.2639 15.4405 6.86389C17.7405 8.46389 19.1405 10.5639 18.4405 11.5639Z" fill="white"/>
<path d="M4.54062 4.56427C4.54062 4.46427 4.44063 4.36427 4.34063 4.46427C4.24063 4.56427 4.14062 4.56427 4.14062 4.66427C4.24062 4.96427 4.34063 5.16427 4.34063 5.36427C4.34063 5.46427 4.44062 5.56427 4.54062 5.46427C4.64062 5.46427 4.74062 5.36427 4.64062 5.26427C4.64062 5.06427 4.64062 4.86427 4.54062 4.56427Z" fill="white"/>
<path d="M5.04048 6.16388C5.04048 6.06388 4.94048 5.96388 4.84048 6.06388C4.74048 6.16388 4.74048 6.16388 4.74048 6.26388C5.84048 8.76388 8.14048 11.4639 11.1405 13.4639C11.2405 13.5639 11.3405 13.4639 11.4405 13.4639C11.5405 13.3639 11.4405 13.2639 11.4405 13.1639C8.34048 11.1639 6.14048 8.56388 5.04048 6.16388Z" fill="white"/>
<path d="M17.1407 15.9639C17.0407 15.9639 16.9407 15.9639 16.9407 16.0639C16.9407 16.1639 16.9407 16.2639 17.0407 16.2639C17.3407 16.3639 17.7407 16.4639 18.0407 16.5639C18.1407 16.5639 18.2407 16.5639 18.2407 16.4639C18.2407 16.3639 18.2407 16.2639 18.1407 16.2639C17.8407 16.1639 17.4407 16.0639 17.1407 15.9639Z" fill="white"/>
<path d="M18.9405 16.3643C18.8405 16.3643 18.7405 16.4643 18.7405 16.5643C18.7405 16.6643 18.8405 16.7643 18.9405 16.7643C19.7405 16.8643 20.6405 16.9643 21.3405 16.8643C21.4405 16.8643 21.5405 16.7643 21.5405 16.6643C21.5405 16.5643 21.4405 16.4643 21.3405 16.4643C20.5405 16.5643 19.7405 16.4643 18.9405 16.3643Z" fill="white"/>
<defs>
<linearGradient id="paint0_linear_1158_793" x1="8.58478" y1="0.45846" x2="12.2734" y2="13.1247" gradientUnits="userSpaceOnUse">
<stop stop-color="#03B8FF"/>
<stop offset="1" stop-color="#FA52A0"/>
</linearGradient>
<linearGradient id="paint1_linear_1158_793" x1="11.6223" y1="-0.426314" x2="15.311" y2="12.24" gradientUnits="userSpaceOnUse">
<stop stop-color="#03B8FF"/>
<stop offset="1" stop-color="#FA52A0"/>
</linearGradient>
<linearGradient id="paint2_linear_1158_793" x1="5.55656" y1="1.34028" x2="9.24526" y2="14.0066" gradientUnits="userSpaceOnUse">
<stop stop-color="#03B8FF"/>
<stop offset="1" stop-color="#FA52A0"/>
</linearGradient>
</defs>
</svg>
