<svg width="24" height="24" viewBox="0 0 24 24" fill="none" xmlns="http://www.w3.org/2000/svg">
<path d="M24 3.84072C23.098 4.23203 22.1441 4.49072 21.168 4.60872C22.1978 3.99351 22.9695 3.02566 23.34 1.88472C22.3723 2.4608 21.3129 2.86668 20.208 3.08472C19.4695 2.28381 18.486 1.75068 17.4118 1.56894C16.3376 1.38721 15.2335 1.56715 14.2725 2.08055C13.3116 2.59394 12.5483 3.41176 12.1023 4.40572C11.6563 5.39969 11.5528 6.51359 11.808 7.57272C9.85131 7.47375 7.93733 6.96426 6.19039 6.07735C4.44344 5.19044 2.90262 3.94595 1.668 2.42472C1.23497 3.18092 1.00742 4.03731 1.008 4.90872C1.00646 5.71798 1.20506 6.51506 1.58611 7.229C1.96715 7.94294 2.51882 8.55157 3.192 9.00072C2.40957 8.97943 1.64386 8.76948 0.96 8.38872V8.44872C0.965864 9.58259 1.36319 10.6796 2.08478 11.5543C2.80636 12.4289 3.80791 13.0275 4.92 13.2487C4.49191 13.379 4.04745 13.4477 3.6 13.4527C3.29027 13.4491 2.98131 13.421 2.676 13.3687C2.99269 14.3441 3.60555 15.1965 4.42929 15.8073C5.25303 16.4181 6.24669 16.757 7.272 16.7767C5.54064 18.139 3.40306 18.8825 1.2 18.8887C0.798882 18.89 0.398083 18.866 0 18.8167C2.24931 20.269 4.87058 21.04 7.548 21.0367C9.39563 21.0559 11.2286 20.7067 12.9397 20.0096C14.6509 19.3125 16.206 18.2814 17.5142 16.9765C18.8225 15.6717 19.8576 14.1192 20.5591 12.4098C21.2606 10.7004 21.6144 8.86839 21.6 7.02072V6.38472C22.5416 5.68249 23.3538 4.82163 24 3.84072V3.84072Z" fill="#B8BDBF"/>
</svg>
