<svg width="24" height="24" viewBox="0 0 24 24" fill="none" xmlns="http://www.w3.org/2000/svg">
<path d="M4.9133 7.37401C8.82718 3.542 15.1728 3.542 19.0867 7.37401L19.5578 7.8352C19.7535 8.0268 19.7535 8.33745 19.5578 8.52905L17.9464 10.1067C17.8486 10.2025 17.6899 10.2025 17.5921 10.1067L16.9439 9.47204C14.2135 6.79873 9.78657 6.79873 7.05614 9.47204L6.36196 10.1517C6.26412 10.2475 6.10548 10.2475 6.00763 10.1517L4.39629 8.57406C4.20059 8.38246 4.20059 8.07181 4.39629 7.88021L4.9133 7.37401ZM22.4191 10.6367L23.8532 12.0408C24.0489 12.2324 24.0489 12.5431 23.8532 12.7347L17.3868 19.066C17.1911 19.2576 16.8738 19.2576 16.6781 19.066L12.0886 14.5725C12.0397 14.5246 11.9604 14.5246 11.9115 14.5725L7.32207 19.066C7.12638 19.2576 6.80909 19.2576 6.6134 19.066L0.146771 12.7346C-0.0489235 12.543 -0.0489235 12.2324 0.146771 12.0408L1.58087 10.6367C1.77656 10.4451 2.09385 10.4451 2.28954 10.6367L6.8791 15.1302C6.92802 15.1781 7.00734 15.1781 7.05626 15.1302L11.6456 10.6367C11.8413 10.4451 12.1586 10.445 12.3543 10.6366L16.9438 15.1302C16.9927 15.1781 17.0721 15.1781 17.121 15.1302L21.7105 10.6367C21.9062 10.4451 22.2234 10.4451 22.4191 10.6367Z" fill="#B8BDBF"/>
</svg>
