<svg width="24" height="19" viewBox="0 0 24 19" fill="none" xmlns="http://www.w3.org/2000/svg">
<path fill-rule="evenodd" clip-rule="evenodd" d="M16.8057 5.00315C16.7906 5.07871 16.7301 5.13916 16.6394 5.16938C14.5085 5.78901 12.831 7.46653 12.2114 9.58233C12.1812 9.68812 12.0905 9.74856 11.9998 9.74856C11.9091 9.74856 11.8184 9.68812 11.7882 9.58233C11.1686 7.45142 9.49107 5.7739 7.36016 5.16938C7.26949 5.13916 7.20904 5.07871 7.19392 5.00315H7.17881V4.97292V4.94269H7.19392C7.20904 4.86713 7.26949 4.80668 7.36016 4.77646C9.49107 4.17194 11.1686 2.49442 11.7882 0.363512C11.8184 0.257722 11.9091 0.197266 11.9998 0.197266C12.0905 0.197266 12.1812 0.257722 12.2114 0.363512C12.831 2.49442 14.5085 4.17194 16.6394 4.77646C16.7301 4.80668 16.7906 4.86713 16.8057 4.94269H16.8208V4.97292V5.00315H16.8057ZM0.333092 5.0332H0.242416C0.0610627 5.0332 -0.0598412 5.22967 0.0308357 5.3808L3.67302 11.6828L7.31521 17.9849C7.40589 18.136 7.63258 18.136 7.72326 17.9849L10.3831 13.3604C10.6249 12.9372 10.64 12.4082 10.3982 11.9851C8.38822 8.29756 4.68558 5.63771 0.333092 5.0332ZM23.7576 5.0332H23.667C19.3145 5.6226 15.6118 8.28246 13.5867 12.0002C13.3449 12.4234 13.36 12.9523 13.6018 13.3755L16.2768 18C16.3675 18.1511 16.5942 18.1511 16.6848 18L20.327 11.698L23.9692 5.39591C24.0599 5.22967 23.939 5.0332 23.7576 5.0332Z" fill="currentColor"/>
</svg>
