<svg width="24" height="18" viewBox="0 0 24 18" fill="none" xmlns="http://www.w3.org/2000/svg">
<path fill-rule="evenodd" clip-rule="evenodd" d="M16.806 4.80596C16.7909 4.88152 16.7304 4.94197 16.6397 4.9722C14.5088 5.59183 12.8313 7.26938 12.2116 9.38521C12.1814 9.491 12.0907 9.55145 12 9.55145C11.9094 9.55145 11.8187 9.491 11.7885 9.38521C11.1688 7.25427 9.49127 5.57672 7.36033 4.9722C7.26965 4.94197 7.2092 4.88152 7.19409 4.80596H7.17898V4.77573V4.7455H7.19409C7.2092 4.66994 7.26965 4.60949 7.36033 4.57926C9.49127 3.97474 11.1688 2.29719 11.7885 0.166249C11.8187 0.0604577 11.9094 0 12 0C12.0907 0 12.1814 0.0604577 12.2116 0.166249C12.8313 2.29719 14.5088 3.97474 16.6397 4.57926C16.7304 4.60949 16.7909 4.66994 16.806 4.7455H16.8211V4.77573V4.80596H16.806ZM0.333097 4.83567H0.24242C0.0610636 4.83567 -0.0598421 5.03215 0.0308361 5.18328L3.67308 11.4854L7.31533 17.7876C7.40601 17.9387 7.6327 17.9387 7.72338 17.7876L10.3833 13.163C10.6251 12.7398 10.6402 12.2108 10.3984 11.7877C8.38835 8.10009 4.68565 5.44019 0.333097 4.83567ZM23.7575 4.83567H23.6669C19.3143 5.42508 15.6116 8.08498 13.5865 11.8028C13.3446 12.226 13.3598 12.7549 13.6016 13.1781L16.2766 17.8027C16.3673 17.9538 16.5939 17.9538 16.6846 17.8027L20.3269 11.5005L23.9691 5.19839C24.0598 5.03215 23.9389 4.83567 23.7575 4.83567Z" fill="url(#paint0_linear_17263_197085)"/>
<defs>
<linearGradient id="paint0_linear_17263_197085" x1="20.909" y1="17.916" x2="20.5069" y2="-8.59217e-07" gradientUnits="userSpaceOnUse">
<stop stop-color="#CCBBFF"/>
<stop offset="0.473958" stop-color="#7427FF"/>
<stop offset="1" stop-color="#00BAFF"/>
</linearGradient>
</defs>
</svg>
