<svg width="24" height="24" viewBox="0 0 24 24" fill="none" xmlns="http://www.w3.org/2000/svg">
<path fill-rule="evenodd" clip-rule="evenodd" d="M4.01891 1.42026L2.65142 2.82033L5.98597 6.23314L9.32044 9.64597V12.8241V16.0021H11.2573H13.1942V12.8242V9.64624L16.5289 6.23297L19.8634 2.81968L18.4856 1.40984L17.1077 0L14.2024 2.97344C12.6045 4.60888 11.2791 5.94694 11.2572 5.94694C11.2352 5.94694 9.91438 4.61341 8.32215 2.98353C6.72979 1.35366 5.41793 0.0201271 5.40672 0.0201271C5.39556 0.0201271 4.77107 0.650128 4.01891 1.42026ZM2.58647 9.38688C2.10142 10.2467 1.65438 11.7774 1.5312 13.0005C1.47037 13.6037 1.50255 14.9201 1.59247 15.5116C2.43389 21.0457 7.54126 24.8074 12.916 23.8515C16.4592 23.2215 19.3728 20.6631 20.5053 17.1874C20.878 16.0437 20.9988 15.2702 21 14.0197C21.0012 12.6662 20.8506 11.7666 20.4149 10.5249C20.2654 10.099 19.881 9.25781 19.836 9.25781C19.8179 9.25781 19.1493 9.92701 18.3504 10.7451C17.007 12.1204 16.8992 12.241 16.9179 12.3493C16.929 12.4137 16.9674 12.6012 17.0031 12.7659C17.107 13.2446 17.1475 13.8923 17.1074 14.4323C17.0652 14.9997 16.9986 15.3495 16.8299 15.8882C16.2886 17.6177 14.8549 19.0992 13.1428 19.698C12.4889 19.9267 12.1219 19.9832 11.2773 19.985C10.4187 19.9869 10.095 19.9402 9.42952 19.7186C7.61921 19.116 6.14392 17.561 5.6126 15.6955C5.44008 15.0896 5.39047 14.7026 5.39269 13.9788C5.39474 13.306 5.41576 13.1337 5.59202 12.3438C5.60621 12.2801 5.28544 11.9301 4.13689 10.7562L2.66355 9.25024L2.58647 9.38688Z" fill="#0657F9"/>
</svg>
