<svg width="20" height="18" viewBox="0 0 20 18" fill="none" xmlns="http://www.w3.org/2000/svg">
    <path fill-rule="evenodd" clip-rule="evenodd" d="M9.93939 2.90823H12.6061L18.5455 0.0700073L19.6364 3.02649L19.1515 6.10123L19.6364 6.45601L19.0303 6.92904L19.5152 7.28382L18.9091 7.75686L19.2727 7.99338L18.4242 9.05771L20 13.315L18.9091 17.9272L14.1818 16.2715L13.2121 16.7446L11.4505 16.9956H9.93939H8.54947L6.78788 16.7446L5.81818 16.2715L1.09091 17.9272L0 13.315L1.57576 9.05771L0.727273 7.99338L1.09091 7.75686L0.484848 7.28382L0.969697 6.92904L0.363636 6.45601L0.848485 6.10123L0.363636 3.02649L1.45455 0.0700073L7.39394 2.90823H9.93939Z" fill="#FF7E00"/>
    <mask id="mask0" mask-type="alpha" maskUnits="userSpaceOnUse" x="0" y="0" width="20" height="18">
        <path fill-rule="evenodd" clip-rule="evenodd" d="M9.93939 2.90823H12.6061L18.5455 0.0700073L19.6364 3.02649L19.1515 6.10123L19.6364 6.45601L19.0303 6.92904L19.5152 7.28382L18.9091 7.75686L19.2727 7.99338L18.4242 9.05771L20 13.315L18.9091 17.9272L14.1818 16.2715L13.2121 16.7446L11.4505 16.9956H9.93939H8.54947L6.78788 16.7446L5.81818 16.2715L1.09091 17.9272L0 13.315L1.57576 9.05771L0.727273 7.99338L1.09091 7.75686L0.484848 7.28382L0.969697 6.92904L0.363636 6.45601L0.848485 6.10123L0.363636 3.02649L1.45455 0.0700073L7.39394 2.90823H9.93939Z" fill="#FF7E00"/>
    </mask>
    <g mask="url(#mask0)">
        <path fill-rule="evenodd" clip-rule="evenodd" d="M9.69715 13.0785H10.7881L11.2729 13.5516L14.182 16.2715L13.2123 16.7446L11.4507 16.9956H9.69715H8.54964L6.78806 16.7446L5.81836 16.2715L8.72745 13.5516L9.2123 13.0785H9.69715Z" fill="#DBC0B1"/>
        <path fill-rule="evenodd" clip-rule="evenodd" d="M10.303 16.9956H8.54947L6.78788 16.7445L5.81818 16.2715L1.09091 17.9271L0 13.315L3.75758 12.842L6.30303 12.7237L8.72727 13.5515L9.21212 13.0785H10.303V16.9956Z" fill="#F36F00"/>
        <path fill-rule="evenodd" clip-rule="evenodd" d="M9.69697 16.9956H11.4505L13.2121 16.7445L14.1818 16.2715L18.9091 17.9271L20 13.315L16.2424 12.842L13.697 12.7237L11.2727 13.5515L10.7879 13.0785H9.69697V16.9956Z" fill="#F36F00"/>
        <path fill-rule="evenodd" clip-rule="evenodd" d="M9.69715 13.0785H10.7881L11.2729 13.5516C11.2729 13.5516 11.4421 16.1373 11.5495 16.2377C11.6568 16.3381 14.182 16.2715 14.182 16.2715L13.2123 16.7446L11.4507 16.9956H9.69715H8.54964L6.78806 16.7446L5.81836 16.2715C5.81836 16.2715 8.34353 16.3381 8.45088 16.2377C8.55822 16.1373 8.72745 13.5516 8.72745 13.5516L9.2123 13.0785H9.69715Z" fill="#C3AC9C"/>
        <path fill-rule="evenodd" clip-rule="evenodd" d="M9.69698 15.0889H8.84476L8.48486 15.562L8.72729 13.5516L9.21214 13.0785H9.69698H10.7879L11.2727 13.5516L11.5152 15.562L11.1553 15.0889H9.69698Z" fill="#161616"/>
        <path fill-rule="evenodd" clip-rule="evenodd" d="M14.3029 7.99337L18.4241 9.05771L19.2726 7.99337L18.909 7.75686L19.515 7.28382L19.0302 6.92904L19.6362 6.456L19.1514 6.10123L19.6362 3.02649L18.5453 0.0700073L12.6059 2.90823L11.3938 5.50993L10.909 12.7237L11.3938 11.5412L13.6968 11.0681V12.369L15.3938 9.29423L14.3029 7.99337Z" fill="#F16F00"/>
        <path fill-rule="evenodd" clip-rule="evenodd" d="M5.6971 7.99337L1.57589 9.05771L0.727406 7.99337L1.09104 7.75686L0.484982 7.28382L0.96983 6.92904L0.36377 6.456L0.848618 6.10123L0.36377 3.02649L1.45468 0.0700073L7.39407 2.90823L8.60619 5.50993L9.09104 12.7237L8.60619 11.5412L6.30316 11.0681V12.369L4.60619 9.29423L5.6971 7.99337Z" fill="#F16F00"/>
        <path fill-rule="evenodd" clip-rule="evenodd" d="M8.84838 9.29422L8.60596 11.5411L6.30293 11.0681L4.60596 9.29422H8.84838Z" fill="#DB5A00"/>
        <path fill-rule="evenodd" clip-rule="evenodd" d="M11.1516 9.29422L11.394 11.5411L13.6971 11.0681L15.394 9.29422H11.1516Z" fill="#DB5A00"/>
        <path fill-rule="evenodd" clip-rule="evenodd" d="M12.2425 10.2403L11.394 11.5411L13.9395 11.0681L12.2425 10.2403Z" fill="#2F2F38"/>
        <path fill-rule="evenodd" clip-rule="evenodd" d="M18.4241 9.05771L19.2726 7.99338L18.909 7.75686L19.515 7.28382L19.0302 6.92904L19.6362 6.45601L19.1514 6.10123L19.6362 3.02649L18.5453 0.0700073L11.3938 5.50993L14.3029 7.99338L18.4241 9.05771Z" fill="#7E3A06"/>
        <path fill-rule="evenodd" clip-rule="evenodd" d="M14.1816 16.2715L16.2422 12.842L13.6967 12.7237L14.1816 16.2715Z" fill="#DB5A00"/>
        <path fill-rule="evenodd" clip-rule="evenodd" d="M5.81842 16.2715L3.75781 12.842L6.30327 12.7237L5.81842 16.2715Z" fill="#DB5A00"/>
        <path fill-rule="evenodd" clip-rule="evenodd" d="M7.75752 10.2403L8.606 11.5411L6.06055 11.0681L7.75752 10.2403Z" fill="#2F2F38"/>
        <path fill-rule="evenodd" clip-rule="evenodd" d="M1.57589 9.05771L0.727406 7.99338L1.09104 7.75686L0.484982 7.28382L0.96983 6.92904L0.36377 6.45601L0.848618 6.10123L0.36377 3.02649L1.45468 0.0700073L8.60619 5.50993L5.6971 7.99338L1.57589 9.05771Z" fill="#7E3A06"/>
    </g>
</svg>
