<svg width="16" height="24" viewBox="0 0 16 24" fill="none" xmlns="http://www.w3.org/2000/svg">
<path d="M8 16C3.6 16 0 12.4 0 8C0 3.6 3.6 0 8 0C12.4 0 16 3.6 16 8C16 12.4 12.4 16 8 16ZM8 2C4.7 2 2 4.7 2 8C2 11.3 4.7 14 8 14C11.3 14 14 11.3 14 8C14 4.7 11.3 2 8 2Z" fill="#B8BDBF"/>
<path d="M12 24C11.8 24 11.7 24 11.6 23.9L8 22.1L4.4 23.9C4.1 24.1 3.7 24 3.4 23.9C3.2 23.7 3 23.3 3 23V14C3 13.4 3.4 13 4 13C4.6 13 5 13.4 5 14V21.4L7.6 20.1C7.9 20 8.2 20 8.5 20.1L11.1 21.4V14C11.1 13.4 11.5 13 12.1 13C12.7 13 13.1 13.4 13.1 14V23C13.1 23.3 12.9 23.7 12.6 23.9C12.4 23.9 12.2 24 12 24Z" fill="#B8BDBF"/>
</svg>
