<?xml version="1.0" encoding="UTF-8"?>
<svg width="1170px" height="209px" viewBox="0 0 1170 209" version="1.1" xmlns="http://www.w3.org/2000/svg" xmlns:xlink="http://www.w3.org/1999/xlink">
    <title>Combined Shape</title>
    <g id="Page-1" stroke="none" stroke-width="1" fill="none" fill-rule="evenodd">
        <g id="Coordinape_logo" transform="translate(-0.011500, -0.002532)" fill="white" fill-rule="nonzero">
            <path d="M1001.6315,31.9525317 C1045.3415,9.00253175 1099.2515,-19.0674683 1143.6915,17.9825317 L1143.7115,17.9625317 C1168.6315,37.4525317 1175.1015,79.8725317 1165.7615,108.782532 C1159.7115,128.682532 1145.7315,143.912532 1128.2615,153.712532 C1124.6615,156.012532 1118.1615,159.292532 1114.8615,160.712532 C1111.1915,162.302532 1107.4915,163.562532 1103.7515,164.492532 C1100.0115,165.432532 1096.3115,166.142532 1092.6415,166.652532 C1088.9715,167.152532 1085.4115,167.402532 1081.9615,167.402532 C1073.3315,167.402532 1065.4515,165.932532 1058.3315,162.982532 C1051.2115,160.032532 1045.0615,155.932532 1039.8815,150.682532 C1034.7015,145.442532 1030.6815,139.212532 1027.8015,132.022532 C1024.9215,124.832532 1023.4815,116.642532 1023.4815,108.292532 C1023.4815,99.9425317 1024.8915,92.2125317 1027.6915,85.0925317 C1030.5015,77.9725317 1034.4115,71.7825317 1039.4515,66.5325317 C1044.4915,61.2825317 1050.4915,57.1825317 1057.4715,54.2325317 C1064.4515,51.2925317 1071.9015,49.8125317 1080.6715,49.8125317 C1089.4415,49.8125317 1097.2115,51.4625317 1103.9715,54.7725317 C1110.7315,58.0825317 1116.4415,62.5025317 1121.1215,68.0425317 C1125.7915,73.5825317 1129.3515,80.0525317 1131.8015,87.4625317 C1134.2415,94.8725317 1135.6115,102.532532 1135.9015,110.442532 L1057.7915,130.292532 C1068.3615,147.112532 1095.6715,150.022532 1106.0315,148.872532 C1124.3715,146.842532 1145.0315,133.312532 1153.2115,123.122532 C1156.3515,118.262532 1158.9015,112.932532 1160.7515,107.162532 C1169.9415,80.1425317 1164.4015,39.5825317 1141.2315,20.9725317 C1098.7615,-15.6374683 1045.0915,11.8925317 1002.3915,33.4125317 C991.8915,38.4825317 980.8915,44.2825317 969.5615,49.1825317 C976.4615,49.1825317 983.0315,50.5525317 989.2815,53.2825317 C995.5415,56.0125317 1001.0415,59.9025317 1005.7915,64.9325317 C1010.5415,69.9725317 1014.3115,76.1225317 1017.1215,83.3825317 C1019.9315,90.6525317 1021.3315,98.8125317 1021.3315,107.872532 C1021.3315,116.932532 1019.9215,125.102532 1017.1215,132.362532 C1014.3115,139.632532 1010.5415,145.782532 1005.7915,150.812532 C1001.0415,155.842532 995.5715,159.732532 989.3915,162.462532 C983.2015,165.192532 976.6515,166.562532 969.7515,166.562532 C960.9715,166.562532 953.6415,164.872532 947.7415,161.492532 C941.8415,158.112532 936.8115,153.832532 932.6415,148.652532 L932.6415,199.472532 C925.3115,187.802532 907.2715,176.632532 899.4615,172.162532 C865.0015,154.502532 823.8715,156.342532 775.8115,168.592532 C765.0227,171.312532 754.2211,174.26626 743.39728,177.273778 L739.337287,178.403768 C735.953061,179.346941 732.56655,180.293171 729.177466,181.236966 L725.109313,182.368 C674.2415,196.482532 622.769,209.555032 569.7215,203.052532 C541.8715,199.982532 513.6715,190.662532 492.8915,171.152532 C475.937864,155.929804 465.641976,136.181003 455.867199,116.063352 L455.005915,114.287413 C453.858923,111.918501 452.716646,109.546176 451.56909,107.177208 L450.707278,105.401217 C449.556459,103.03435 448.397864,100.672532 447.2215,98.3225317 C446.2215,100.052532 445.3415,101.932532 444.5715,103.982532 C442.8415,108.582532 441.9815,114.122532 441.9815,120.592532 L441.9815,164.182532 L408.7515,164.182532 L408.7515,47.6925317 C387.0815,33.1025317 359.6415,30.4725317 332.7315,32.8925317 C311.3615,34.1525317 292.2615,40.5425317 274.2415,52.0925317 C268.2115,55.9825317 262.4515,60.2025317 256.8815,64.6425317 C257.4515,65.1625317 258.0315,65.6825317 258.5815,66.2225317 C264.0415,71.5425317 268.2915,77.7625317 271.3115,84.8825317 C274.3315,92.0025317 275.8415,99.5925317 275.8415,107.642532 C275.8415,115.692532 274.2915,123.282532 271.2015,130.402532 C268.1015,137.522532 263.8315,143.782532 258.3615,149.172532 C252.8915,154.572532 246.3815,158.852532 238.8315,162.012532 C231.2715,165.182532 223.0415,166.762532 214.1215,166.762532 C205.2015,166.762532 197.0015,165.212532 189.5215,162.122532 C182.8415,159.362532 176.9715,155.702532 171.9015,151.162532 C156.0615,167.132532 139.1415,181.842532 119.4415,193.262532 C94.9115004,207.102532 63.7715004,215.362532 37.0815004,202.722532 C23.8915004,196.502532 13.0615004,185.852532 6.42150037,172.852532 C-2.71849963,153.152532 -2.62849963,128.312532 10.1115004,110.202532 C21.9815004,93.5125317 42.4115004,86.6625317 62.1315004,84.8125317 C64.9915004,77.9925317 68.9415004,71.9625317 74.0215004,66.7525317 C79.2715004,61.3625317 85.5615004,57.1125317 92.9015004,54.0225317 C100.2415,50.9325317 108.2915,49.3825317 117.0715,49.3825317 C121.5315,49.3825317 126.1215,49.6625317 130.7715,50.5725317 C144.7815,53.3225317 150.7215,59.2525317 150.2215,67.5325317 C150.5915,84.5125317 119.0015,87.4925317 110.0715,88.5725317 C105.2415,89.1125317 100.3615,89.4125317 95.4815004,89.5425317 C94.2115004,91.4225317 93.1215004,93.4525317 92.2515004,95.6725317 C90.8115004,99.3425317 90.0915004,103.342532 90.0915004,107.652532 C90.0915004,111.962532 90.8515004,115.992532 92.3615004,119.732532 C93.8715004,123.472532 95.9615004,126.742532 98.6215004,129.552532 C101.2815,132.362532 104.4115,134.592532 108.0115,136.242532 C111.6115,137.892532 115.7115,138.722532 119.8815,138.722532 C124.0515,138.722532 128.1915,137.902532 132.2915,136.242532 C136.3915,134.592532 140.3115,132.112532 144.0515,128.802532 L144.0515,160.732532 C140.3015,162.452532 135.9915,163.892532 131.1015,165.042532 C126.2115,166.192532 121.2415,166.772532 116.2115,166.772532 C107.8615,166.772532 100.1315,165.222532 93.0115004,162.132532 C85.8915004,159.042532 79.6715004,154.832532 74.3515004,149.512532 C69.0215004,144.192532 64.8915004,137.972532 61.9415004,130.852532 C58.9915004,123.732532 57.5215004,116.152532 57.5215004,108.092532 C57.5215004,101.892532 58.4215004,95.9325317 60.1915004,90.2125317 C55.9615004,90.6825317 51.7715004,91.3825317 47.6415004,92.3825317 C27.3315004,97.0525317 10.4815004,110.152532 6.19150037,131.302532 C0.441500372,159.032532 13.3215004,186.322532 39.0215004,198.602532 C64.2915004,210.672532 93.9315004,202.632532 117.3715,189.572532 C136.7515,178.382532 153.4315,164.022532 169.0615,148.432532 C164.1015,143.352532 160.1915,137.492532 157.3715,130.832532 C154.3515,123.712532 152.8415,116.272532 152.8415,108.072532 C152.8415,99.8725317 154.3515,92.2125317 157.3715,85.0925317 C160.3915,77.9725317 164.6715,71.7525317 170.2115,66.4325317 C175.7515,61.1125317 182.2615,56.9125317 189.7415,53.8125317 C197.2215,50.7225317 205.4215,49.1725317 214.3415,49.1725317 C223.2615,49.1725317 231.5015,50.6825317 239.0515,53.7025317 C244.6715,55.9525317 249.7115,58.8425317 254.1715,62.3625317 C265.5715,53.2425317 277.8315,45.1725317 291.2515,39.3625317 C304.2515,33.5925317 318.3315,30.7725317 332.4815,29.8625317 C353.5515,28.2225317 375.3415,29.0625317 395.1715,37.2325317 C404.1015,41.0225317 411.5815,45.9425317 418.0415,51.6725317 C420.2815,53.1425317 422.9615,55.0225317 426.1315,57.4625317 C435.3515,64.5725317 440.5915,72.2825317 440.5915,72.2825317 C444.1915,65.6625317 450.3515,59.3525317 455.8915,55.5425317 C461.4215,51.7325317 468.1515,49.8225317 476.0615,49.8225317 C476.9215,49.8225317 477.7115,49.8625317 478.4315,49.9325317 C479.1515,50.0125317 479.7915,50.0425317 480.3715,50.0425317 L480.3715,84.3625317 C479.7915,84.0725317 479.0315,83.8925317 478.1015,83.8225317 C477.1615,83.7525317 476.1215,83.7125317 474.9715,83.7125317 C470.2315,83.7125317 465.8415,84.4325317 461.8115,85.8725317 C457.7815,87.3125317 454.3315,89.5425317 451.4515,92.5625317 C450.4815,93.5825317 449.5915,94.6925317 448.7515,95.8925317 C450.7128,99.8569317 452.629935,103.878807 454.553616,107.922632 L455.603851,110.130319 C470.850505,142.167146 487.0834,175.173032 529.3915,191.572532 C555.4315,201.782532 583.9615,203.732532 611.7215,202.842532 C648.242016,201.420161 683.560315,192.582015 718.695575,182.966441 L722.04127,182.048534 C723.156339,181.741923 724.271255,181.434741 725.386053,181.1272 L728.730121,180.203714 C729.287417,180.049691 729.844691,179.895632 730.401947,179.741562 L733.745309,178.817237 C737.645727,177.739213 741.545683,176.663298 745.446574,175.5986 L748.790457,174.68896 C757.708264,172.271712 766.633047,169.926655 775.5815,167.762532 C783.8415,165.802532 792.1915,163.962532 800.5915,162.432532 C797.5015,160.962532 794.6715,159.152532 792.1415,156.962532 C788.4015,153.722532 785.4215,149.812532 783.1915,145.202532 C780.9615,140.602532 779.8515,135.412532 779.8515,129.232532 C779.8515,123.052532 781.0715,117.662532 783.5215,113.052532 C785.9715,108.452532 789.2415,104.712532 793.3415,101.832532 C797.4415,98.9625317 802.2615,96.8025317 807.8015,95.3625317 C813.3315,93.9225317 819.2715,93.2025317 825.6015,93.2025317 C831.3615,93.2025317 836.8615,93.7125317 842.1115,94.7125317 C847.3615,95.7125317 851.8615,97.0125317 855.6015,98.5925317 L855.6015,96.0025317 C855.6015,88.8025317 853.0415,83.6325317 847.9415,80.4625317 C842.8315,77.2925317 835.5315,75.7125317 826.0415,75.7125317 C819.8515,75.7125317 813.7415,76.3225317 807.7015,77.5425317 C801.6615,78.7625317 795.4015,80.8125317 788.9315,83.6925317 L788.9315,58.8825317 C795.1115,56.2925317 801.8315,54.1425317 809.1015,52.4125317 C816.3615,50.6825317 824.4515,49.8225317 833.3715,49.8225317 C842.2915,49.8225317 850.1315,50.8325317 856.8915,52.8425317 C863.6515,54.8525317 869.3315,57.8725317 873.9415,61.9025317 C878.5415,65.9325317 882.0315,70.8925317 884.4015,76.7925317 C886.7715,82.6925317 887.9615,89.5225317 887.9615,97.2925317 L887.9815,166.052532 C891.8715,167.552532 895.6815,169.282532 899.3915,171.202532 L899.3915,51.7625317 L899.395,51.765 L899.407205,51.7759212 C899.611301,51.9485808 901.803488,53.7636115 905.911706,55.6197016 L906.2315,55.7625317 C903.8415,54.6425317 901.5415,53.3125317 899.3915,51.7625317 L899.397,51.766 L899.906688,52.1164419 C907.153508,57.0145617 915.825252,59.5345617 924.539035,59.6764419 L925.1615,59.6825317 C952.0215,59.3825317 978.1215,43.7325317 1001.6315,31.9525317 Z M339.7015,49.1825317 C348.6215,49.1825317 356.8615,50.6925317 364.4115,53.7125317 C371.9615,56.7325317 378.4715,60.9025317 383.9415,66.2225317 C389.4015,71.5425317 393.6515,77.7625317 396.6715,84.8825317 C399.6915,92.0025317 401.2015,99.5925317 401.2015,107.642532 C401.2015,115.692532 399.6515,123.282532 396.5615,130.402532 C393.4615,137.522532 389.1915,143.782532 383.7215,149.172532 C378.2515,154.572532 371.7415,158.852532 364.1915,162.012532 C356.6315,165.182532 348.4015,166.762532 339.4815,166.762532 C330.5615,166.762532 322.3615,165.212532 314.8815,162.122532 C307.4015,159.032532 300.9315,154.822532 295.4615,149.502532 C289.9915,144.182532 285.7515,137.962532 282.7315,130.842532 C279.7115,123.722532 278.2015,116.282532 278.2015,108.082532 C278.2015,99.8825317 279.7115,92.2225317 282.7315,85.1025317 C285.7515,77.9825317 290.0315,71.7625317 295.5715,66.4425317 C301.1115,61.1225317 307.6215,56.9225317 315.1015,53.8225317 C322.5815,50.7325317 330.7815,49.1825317 339.7015,49.1825317 Z M600.3615,6.12253175 L600.3615,164.952532 L566.5515,164.832532 L566.6115,147.332532 C562.3115,152.492532 557.4015,156.822532 551.8915,160.332532 C546.3715,163.842532 539.3215,165.602532 530.7215,165.602532 C523.8515,165.602532 517.2915,164.272532 511.0615,161.622532 C504.8315,158.972532 499.3515,155.102532 494.6215,150.012532 C489.8915,144.922532 486.1615,138.802532 483.4415,131.632532 L483.4515,131.642532 C480.7315,124.472532 479.3715,116.382532 479.3715,107.352532 C479.3715,98.3225317 480.7315,90.1625317 483.4515,82.8525317 C486.1715,75.5425317 489.8615,69.3925317 494.5215,64.3725317 C499.1715,59.3525317 504.6215,55.4825317 510.8515,52.7625317 C517.0815,50.0425317 523.6315,48.6825317 530.5115,48.6825317 C539.2515,48.6825317 546.5515,50.4025317 552.4315,53.8425317 C558.3015,57.2725317 563.2515,61.5725317 567.2615,66.7325317 L567.2615,6.12253175 L600.3615,6.12253175 Z M733.8315,49.5625317 C739.4415,49.5625317 744.6615,50.5325317 749.4815,52.4725317 C754.3015,54.4125317 758.4415,57.1825317 761.8915,60.7825317 C765.3515,64.3825317 768.0515,68.8125317 769.9915,74.0625317 C771.9315,79.3125317 772.9015,85.2525317 772.9015,91.8725317 L772.9015,164.642532 L739.6515,164.642532 L739.6515,102.242532 C739.6515,98.2125317 739.1115,94.7225317 738.0315,91.7725317 C736.9515,88.8225317 735.5115,86.4125317 733.7115,84.5425317 C731.9115,82.6725317 729.8315,81.3025317 727.4515,80.4425317 C725.0815,79.5825317 722.6715,79.1525317 720.2215,79.1525317 C717.6315,79.1525317 715.0815,79.5825317 712.5615,80.4425317 C710.0415,81.3025317 707.8115,82.6725317 705.8715,84.5425317 C703.9215,86.4125317 702.3115,88.8225317 701.0115,91.7725317 C699.7215,94.7225317 699.0715,98.2125317 699.0715,102.242532 L699.0715,164.642532 L665.8215,164.642532 L665.8215,52.1525317 L699.1115,52.2625317 L699.2915,67.4825317 C703.0315,62.5925317 707.7115,58.3825317 713.3215,54.8525317 C718.9315,51.3225317 725.7715,49.5625317 733.8315,49.5625317 Z M650.0615,52.1525317 L650.0615,164.642532 L616.8115,164.642532 L616.8115,52.1525317 L650.0615,52.1525317 Z M835.3215,111.312532 C832.1615,111.312532 829.1715,111.672532 826.3715,112.392532 C823.5615,113.112532 821.1515,114.192532 819.1415,115.632532 C817.1215,117.072532 815.5015,118.842532 814.2815,120.922532 L814.2915,120.892532 C813.0715,122.982532 812.4615,125.392532 812.4615,128.122532 C812.4615,130.712532 813.0015,133.052532 814.0815,135.132532 C815.1615,137.222532 816.6315,138.942532 818.5015,140.312532 C820.3715,141.682532 822.5015,142.762532 824.8715,143.552532 C827.2415,144.352532 829.8015,144.742532 832.5315,144.742532 C837.1315,144.742532 841.3415,143.962532 845.1515,142.372532 C848.9615,140.792532 852.4415,138.492532 855.6115,135.472532 L855.6115,116.052532 C853.1615,114.762532 850.2115,113.652532 846.7615,112.712532 C843.3015,111.782532 839.4915,111.312532 835.3215,111.312532 Z M233.8215,85.2025317 C222.4935,96.3065317 211.7735,108.127332 201.05734,119.958372 L197.03778,124.394112 C195.6972,125.871932 194.3555,127.348532 193.0115,128.822532 C193.2215,129.072532 193.4115,129.322532 193.6315,129.562532 C196.2215,132.372532 199.2715,134.602532 202.8015,136.252532 C206.3215,137.902532 210.0215,138.732532 214.3415,138.732532 C218.6615,138.732532 222.6115,137.912532 226.2115,136.252532 C229.8015,134.602532 232.8615,132.362532 235.3815,129.562532 C237.9015,126.752532 239.8415,123.482532 241.2115,119.742532 C242.5815,116.002532 243.2615,112.042532 243.2615,107.872532 C243.2615,103.702532 242.5415,99.7825317 241.1015,96.1125317 C239.6615,92.4425317 237.6515,89.2125317 235.0615,86.4025317 L235.0515,86.4125317 C234.6615,85.9825317 234.2315,85.6025317 233.8215,85.2025317 Z M960.0515,77.2225317 C956.1615,77.2225317 952.5315,77.9825317 949.1515,79.4925317 C945.7715,81.0025317 942.8215,83.1225317 940.3015,85.8525317 C937.7815,88.5925317 935.7715,91.8625317 934.2615,95.6725317 C932.7515,99.4925317 931.9915,103.622532 931.9915,108.082532 C931.9915,112.542532 932.7515,116.642532 934.2615,120.382532 C935.7715,124.122532 937.7815,127.362532 940.3015,130.092532 C942.8115,132.832532 945.8015,134.952532 949.2515,136.462532 C952.7015,137.982532 956.3715,138.732532 960.2515,138.732532 C964.1315,138.732532 967.8015,138.012532 971.2515,136.572532 C974.7015,135.132532 977.7215,133.042532 980.3115,130.312532 C982.9015,127.582532 984.9115,124.302532 986.3515,120.492532 C987.7915,116.682532 988.5115,112.402532 988.5115,107.652532 C988.5115,103.192532 987.7915,99.0925317 986.3515,95.3525317 C984.9115,91.6125317 982.9015,88.3725317 980.3115,85.6425317 L980.3315,85.6425317 C977.7415,82.9125317 974.7215,80.8225317 971.2715,79.3825317 C967.8215,77.9425317 963.9415,77.2225317 960.0515,77.2225317 Z M339.2715,77.2325317 C334.9515,77.2325317 331.0315,78.0225317 327.5115,79.6025317 C323.9915,81.1825317 321.0015,83.3425317 318.5615,86.0725317 C316.1115,88.8025317 314.2115,92.0425317 312.8415,95.7825317 C311.4715,99.5225317 310.7915,103.342532 310.7915,107.652532 C310.7915,111.962532 311.5115,115.992532 312.9515,119.732532 C314.3815,123.472532 316.4015,126.742532 318.9915,129.552532 C321.5815,132.362532 324.6315,134.592532 328.1615,136.242532 C331.6815,137.892532 335.3815,138.722532 339.7015,138.722532 C344.0215,138.722532 347.9715,137.902532 351.5715,136.242532 C355.1615,134.592532 358.2215,132.352532 360.7415,129.552532 C363.2615,126.742532 365.2015,123.472532 366.5715,119.732532 L366.5715,119.742532 C367.9415,116.002532 368.6215,112.042532 368.6215,107.872532 C368.6215,103.702532 367.9015,99.7825317 366.4615,96.1125317 C365.0215,92.4425317 363.0115,89.2125317 360.4215,86.4025317 C357.8315,83.5925317 354.7315,81.3725317 351.1415,79.7125317 C347.5415,78.0625317 343.5915,77.2325317 339.2715,77.2325317 Z M539.7515,76.3925317 C536.0215,76.3925317 532.4715,77.1525317 529.1115,78.6525317 C525.7415,80.1525317 522.8015,82.2725317 520.3015,84.9925317 C517.7915,87.7125317 515.7815,90.9425317 514.2815,94.6625317 L514.2915,94.6625317 C512.7815,98.3825317 512.0315,102.532532 512.0315,107.122532 C512.0315,111.712532 512.7515,115.872532 514.1815,119.592532 C515.6115,123.322532 517.5815,126.542532 520.0915,129.262532 C522.5915,131.982532 525.5315,134.102532 528.9015,135.602532 C532.2615,137.112532 535.8815,137.862532 539.7515,137.862532 C543.6215,137.862532 547.2715,137.102532 550.7115,135.602532 C554.1515,134.102532 557.1615,131.982532 559.7415,129.262532 C562.3215,126.542532 564.3315,123.282532 565.7615,119.482532 C567.1915,115.692532 567.9115,111.352532 567.9115,106.912532 C567.9115,102.472532 567.1515,98.3925317 565.6515,94.6625317 C564.1415,90.9425317 562.1015,87.7125317 559.5215,84.9925317 C556.9415,82.2725317 553.9615,80.1525317 550.6015,78.6525317 C547.2415,77.1425317 543.4815,76.3925317 539.7515,76.3925317 Z M213.9115,77.2425317 C209.5915,77.2425317 205.6715,78.0325317 202.1515,79.6125317 C198.6315,81.1925317 195.6415,83.3525317 193.2015,86.0825317 C190.7515,88.8125317 188.8515,92.0525317 187.4815,95.7925317 L187.4815,95.8025317 C186.1115,99.5425317 185.4315,103.362532 185.4315,107.672532 C185.4315,111.982532 186.1515,116.012532 187.5915,119.752532 C188.4215,121.922532 189.4715,123.912532 190.6915,125.762532 C192.6865,123.592032 194.677,121.415682 196.666882,119.238004 L200.646969,114.882219 C210.600875,103.995032 220.604,93.1500317 231.1415,82.9125317 C229.5015,81.6825317 227.7215,80.6125317 225.7815,79.7225317 C222.1815,78.0725317 218.2315,77.2425317 213.9115,77.2425317 Z M1079.1415,75.0825317 C1074.9615,75.0825317 1071.3315,76.0525317 1068.2415,77.9925317 C1065.1515,79.9325317 1062.6415,82.4125317 1060.6915,85.4325317 C1058.7415,88.4525317 1057.3015,91.8325317 1056.3715,95.5725317 C1055.4415,99.3125317 1054.9715,103.052532 1054.9715,106.792532 L1054.9715,106.802532 L1055.4015,107.882532 C1055.4015,107.882532 1064.66554,105.491564 1073.61998,103.181089 L1074.48526,102.957829 C1079.66723,101.620772 1084.6407,100.337732 1087.5315,99.5925317 C1088.86869,99.2487817 1091.12519,98.667522 1093.51097,98.0526593 L1094.16425,97.8842896 C1094.4919,97.7998413 1094.82062,97.7151129 1095.1484,97.6306214 L1095.80213,97.4621075 C1099.60133,96.4827393 1103.0915,95.5825317 1103.0915,95.5825317 C1101.6615,89.4025317 1098.8515,84.4325317 1094.6815,80.6925317 C1090.5015,76.9525317 1085.3215,75.0825317 1079.1415,75.0825317 Z M119.2315,77.4525317 L119.2315,77.4625317 C114.9115,77.4625317 110.9515,78.2125317 107.3615,79.7225317 C104.7015,80.8425317 102.3315,82.2925317 100.2615,84.0825317 C103.3515,83.8925317 106.4215,83.6425317 109.4915,83.3025317 C114.4615,82.6625317 119.5715,81.9625317 124.5315,80.8225317 C129.1315,79.2425317 125.2415,78.1125317 123.5115,77.7225317 C122.1215,77.5525317 120.7015,77.4525317 119.2315,77.4525317 Z M633.2215,2.06253175 C638.8315,2.06253175 643.5415,3.65253175 647.3615,6.81253175 C651.1715,9.98253175 653.0815,14.5125317 653.0815,20.4125317 C653.0815,26.0325317 651.1715,30.4525317 647.3615,33.6925317 C643.5515,36.9325317 638.7015,38.5525317 633.2215,38.5525317 C627.7415,38.5525317 623.1015,36.9325317 619.2915,33.6925317 C615.4815,30.4525317 613.5715,26.3125317 613.5715,20.4125317 C613.5715,14.5125317 615.4715,9.98253175 619.2915,6.81253175 C623.1115,3.65253175 627.6115,2.06253175 633.2215,2.06253175 Z" id="Combined-Shape"></path>
        </g>
    </g>
</svg>