<?xml version="1.0" encoding="UTF-8"?>
<svg width="128px" height="128px" viewBox="0 0 128 128" version="1.1" xmlns="http://www.w3.org/2000/svg" xmlns:xlink="http://www.w3.org/1999/xlink">
    <title>Rectangle</title>
    <g id="Page-1" stroke="none" stroke-width="1" fill="none" fill-rule="evenodd">
        <rect id="Rectangle" fill="#D8D8D8" x="0" y="0" width="128" height="128"></rect>
        <g id="logo" transform="translate(10.000000, 58.000000)" fill="#4E5658" fill-rule="nonzero">
            <path d="M11,4.53992632 L7.76875899,4.53992632 C7.74583619,4.27378431 7.68473113,4.03233589 7.58544381,3.81558105 C7.48992093,3.59889314 7.35628302,3.41258704 7.18439563,3.25666275 C7.01633991,3.09696416 6.81198415,2.97529637 6.57139557,2.89164601 C6.33073978,2.80418787 6.05761561,2.76046215 5.75209031,2.76046215 C5.21737061,2.76046215 4.76476293,2.88974547 4.39428073,3.14831879 C4.02761003,3.40683189 3.74879214,3.77757032 3.55782034,4.26046717 C3.37066676,4.74336402 3.27708661,5.32322837 3.27708661,6 C3.27708661,6.71483589 3.37257587,7.31370561 3.56354767,7.79660246 C3.7583377,8.27568485 4.03907143,8.6369206 4.40573541,8.88024279 C4.77240611,9.11981744 5.21355238,9.23953785 5.72917423,9.23953785 C6.02326502,9.23953785 6.28684362,9.20346781 6.51976885,9.13119389 C6.75276131,9.05517244 6.95523484,8.94676156 7.12712224,8.8060951 C7.29894241,8.66542864 7.43836144,8.49618722 7.5453121,8.29850467 C7.65609443,8.09700766 7.73057673,7.87075014 7.76875899,7.61979904 L11,7.64261886 C10.9618177,8.13689215 10.8223987,8.64073505 10.5818101,9.15401371 C10.3411543,9.66354483 9.999329,10.1349983 9.55626689,10.5684411 C9.11703645,10.9981363 8.57273757,11.3441142 7.92343748,11.6065087 C7.27413739,11.8688362 6.51976885,12 5.66042599,12 C4.58334342,12 3.61702301,11.7699949 2.76146476,11.3099179 C1.90972474,10.8498409 1.23559274,10.173009 0.739068739,9.27948926 C0.246356246,8.38596949 0,7.29282648 0,6 C0,4.69966506 0.252083585,3.60458136 0.756250756,2.71483589 C1.26041793,1.82129605 1.940284,1.14639149 2.79584224,0.690115538 C3.65139376,0.230038513 4.6062595,0 5.66042599,0 C6.4013904,0 7.08315886,0.100761888 7.70577171,0.302285663 C8.32831733,0.503802746 8.87449843,0.798486263 9.34431501,1.18631614 C9.81406437,1.57034494 10.1921897,2.04373241 10.4786911,2.60647186 C10.7651253,3.16919793 10.9388949,3.81370728 11,4.53992632 Z" id="Path"></path>
            <path d="M24,6 C24,7.30038847 23.7551495,8.39734594 23.2655134,9.29086571 C22.775942,10.180638 22.1151243,10.8555291 21.2831251,11.3156061 C20.4511259,11.7718687 19.5234283,12 18.4999676,12 C17.4691853,12 16.5377946,11.7699949 15.7057954,11.3099179 C14.8774894,10.8460264 14.2185507,10.1691946 13.7289145,9.27948926 C13.2429715,8.38596949 13,7.29282648 13,6 C13,4.69966506 13.2429715,3.60458136 13.7289145,2.71483589 C14.2185507,1.82129605 14.8774894,1.14639149 15.7057954,0.690115538 C16.5377946,0.230038513 17.4691853,0 18.4999676,0 C19.5234283,0 20.4511259,0.230038513 21.2831251,0.690115538 C22.1151243,1.14639149 22.775942,1.82129605 23.2655134,2.71483589 C23.7551495,3.60458136 24,4.69966506 24,6 Z M20.8413705,5.99999331 C20.8413705,5.30040855 20.7511795,4.71104151 20.5707975,4.23195913 C20.3940438,3.74906228 20.1308571,3.38401207 19.7811077,3.13688881 C19.4350515,2.8859377 19.0080048,2.76046215 18.4999676,2.76046215 C17.9919304,2.76046215 17.5630695,2.8859377 17.2133201,3.13688881 C16.8672639,3.38401207 16.6040772,3.74906228 16.4236952,4.23195913 C16.2470063,4.71104151 16.1586295,5.30040855 16.1586295,5.99999331 C16.1586295,6.69964499 16.2470063,7.29088579 16.4236952,7.77378264 C16.6040772,8.25286503 16.8672639,8.61791523 17.2133201,8.86886634 C17.5630695,9.11600298 17.9919304,9.23953785 18.4999676,9.23953785 C19.0080048,9.23953785 19.4350515,9.11600298 19.7811077,8.86886634 C20.1308571,8.61791523 20.3940438,8.25286503 20.5707975,7.77378264 C20.7511795,7.29088579 20.8413705,6.69964499 20.8413705,5.99999331 Z" id="Shape"></path>
            <path d="M36,6 C36,7.30038847 35.7552129,8.39734594 35.2655738,9.29086571 C34.7759348,10.180638 34.1151132,10.8555291 33.2831091,11.3156061 C32.4511698,11.7718687 31.523402,12 30.5,12 C29.4692116,12 28.5378154,11.7699949 27.7058113,11.3099179 C26.8775004,10.8460264 26.218493,10.1691946 25.7289188,9.27948926 C25.2429729,8.38596949 25,7.29282648 25,6 C25,4.69966506 25.2429729,3.60458136 25.7289188,2.71483589 C26.218493,1.82129605 26.8775004,1.14639149 27.7058113,0.690115538 C28.5378154,0.230038513 29.4692116,0 30.5,0 C31.523402,0 32.4511698,0.230038513 33.2831091,0.690115538 C34.1151132,1.14639149 34.7759348,1.82129605 35.2655738,2.71483589 C35.7552129,3.60458136 36,4.69966506 36,6 Z M32.8413519,5.99999331 C32.8413519,5.30040855 32.7511604,4.71104151 32.5707773,4.23195913 C32.3940874,3.74906228 32.1308343,3.38401207 31.7811477,3.13688881 C31.4350894,2.8859377 31.0080402,2.76046215 30.5,2.76046215 C29.9919598,2.76046215 29.5630964,2.8859377 29.213345,3.13688881 C28.8672867,3.38401207 28.6040984,3.74906228 28.4236505,4.23195913 C28.2469606,4.71104151 28.1586481,5.30040855 28.1586481,5.99999331 C28.1586481,6.69964499 28.2469606,7.29088579 28.4236505,7.77378264 C28.6040984,8.25286503 28.8672867,8.61791523 29.213345,8.86886634 C29.5630964,9.11600298 29.9919598,9.23953785 30.5,9.23953785 C31.0080402,9.23953785 31.4350894,9.11600298 31.7811477,8.86886634 C32.1308343,8.61791523 32.3940874,8.25286503 32.5707773,7.77378264 C32.7511604,7.29088579 32.8413519,6.69964499 32.8413519,5.99999331 Z" id="Shape"></path>
            <path d="M38,12 L38,0 L43.1635608,0 C44.0513745,0 44.8282971,0.162112551 45.4941916,0.486330777 C46.1600861,0.810549003 46.6779431,1.2773479 47.0478997,1.88672059 C47.4178563,2.49609328 47.6028346,3.22653476 47.6028346,4.07814127 C47.6028346,4.93751654 47.4120308,5.66214177 47.0303545,6.2519482 C46.6526534,6.84182339 46.1210892,7.28711728 45.4357305,7.58789862 C44.7542784,7.88867997 43.9579601,8.03903626 43.0467072,8.03903626 L39.9625931,8.03903626 L39.9625931,5.50779797 L42.3925323,5.50779797 C42.77414,5.50779797 43.0993427,5.46091046 43.3680033,5.36720418 C43.6405705,5.2695104 43.8489195,5.11523535 43.9929819,4.90431028 C44.1409509,4.69338522 44.2149696,4.41797263 44.2149696,4.07814127 C44.2149696,3.73439117 44.1409509,3.45505983 43.9929819,3.24021601 C43.8489195,3.02148782 43.6405705,2.86132777 43.3680033,2.75976336 C43.0993427,2.65430083 42.77414,2.60156269 42.3925323,2.60156269 L41.2476407,2.60156269 L41.2476407,12 L38,12 Z M45.0093689,6.49216078 L48,12 L44.4719791,12 L41.5513916,6.49216078 L45.0093689,6.49216078 Z" id="Shape"></path>
            <path d="M53.3584269,12 L49,12 L49,0 L53.314167,0 C54.4793303,0 55.4860147,0.2402332 56.3340905,0.720706475 C57.1858654,1.19726787 57.8422351,1.88476809 58.3031345,2.78320712 C58.7677331,3.67774115 59,4.75003523 59,5.99997937 C59,7.24999227 58.7695503,8.32421135 58.3086508,9.22263663 C57.8477513,10.1172119 57.1950808,10.8047121 56.3507041,11.2851373 C55.5062626,11.7617124 54.5088585,12 53.3584269,12 Z M52.0752158,9.23439289 L53.2477773,9.23439289 C53.808229,9.23439289 54.2857421,9.13869286 54.6803167,8.9472928 C55.0785255,8.75589274 55.3808813,8.42575513 55.587384,7.95701749 C55.7975858,7.48827984 55.9026543,6.83591089 55.9026543,5.99997937 C55.9026543,5.16404786 55.7957038,4.51174766 55.5818677,4.04294126 C55.3716659,3.57420362 55.0619768,3.24413476 54.6526705,3.0527347 C54.2470634,2.86132777 53.7492375,2.76562774 53.1592576,2.76562774 L52.0752158,2.76562774 L52.0752158,9.23439289 Z" id="Shape"></path>
            <polygon id="Path" points="64 0 64 12 61 12 61 0"></polygon>
            <polygon id="Path" points="75 0 75 12 72.3811936 12 68.2056707 5.69534803 68.1374691 5.69534803 68.1374691 12 65 12 65 0 67.6633692 0 71.7720149 6.28123571 71.8620674 6.28123571 71.8620674 0"></polygon>
            <path d="M79.4093333,12 L76,12 L79.8406667,0 L84.1593333,0 L88,12 L84.5906667,12 L82.0453333,3.30470353 L81.9546667,3.30470353 L79.4093333,12 Z M78.7726667,7.26559852 L85.182,7.26559852 L85.182,9.70313053 L78.7726667,9.70313053 L78.7726667,7.26559852 Z" id="Shape"></path>
            <path d="M90,12 L90,0 L94.8394833,0 C95.671972,0 96.3997573,0.175780055 97.0241239,0.52734704 C97.6478481,0.87890715 98.1334666,1.37304793 98.4803369,2.00976938 C98.8265648,2.64648395 99,3.39064106 99,4.24217883 C99,5.10155409 98.821426,5.84570433 98.4636357,6.47462952 C98.1096995,7.10348597 97.611234,7.58789862 96.9688816,7.92772998 C96.3303833,8.26756133 95.5839697,8.43751139 94.7302833,8.43751139 L91.8396974,8.43751139 L91.8396974,5.9062731 L94.1168368,5.9062731 C94.4746271,5.9062731 94.7791021,5.83986057 95.0309043,5.70703553 C95.2865606,5.57029174 95.4818357,5.37696668 95.6167297,5.12692285 C95.7554778,4.87694777 95.8248519,4.58201018 95.8248519,4.24217883 C95.8248519,3.89842872 95.7554778,3.60548488 95.6167297,3.36327855 C95.4818357,3.11722222 95.2865606,2.92968592 95.0309043,2.80077963 C94.7791021,2.66796833 94.4746271,2.60156269 94.1168368,2.60156269 L93.0441082,2.60156269 L93.0441082,12 L90,12 Z" id="Path"></path>
            <polygon id="Path" points="100 12 100 0 108 0 108 2.62499957 103.013672 2.62499957 103.013672 4.68747271 107.587917 4.68747271 107.587917 7.31248604 103.013672 7.31248604 103.013672 9.37498668 107.977742 9.37498668 107.977742 12"></polygon>
        </g>
    </g>
</svg>