<svg width="96" height="96" viewBox="0 0 96 96" fill="none" xmlns="http://www.w3.org/2000/svg">
<g clip-path="url(#clip0)">
<path d="M51.8656 50.2656L68.6976 67.0976C69.0194 67.4212 69.2686 67.8096 69.4286 68.237C69.5886 68.6644 69.6556 69.121 69.6254 69.5763C69.5951 70.0317 69.4681 70.4754 69.253 70.8778C69.0379 71.2803 68.7394 71.6323 68.3776 71.9104C63.8857 75.4385 58.4909 77.6303 52.8112 78.2349C47.1314 78.8395 41.3962 77.8323 36.2622 75.3288C31.1282 72.8253 26.803 68.9266 23.7818 64.0791C20.7607 59.2317 19.1657 53.6314 19.1795 47.9196C19.1932 42.2077 20.8153 36.6152 23.8598 31.7824C26.9043 26.9495 31.2483 23.0718 36.3943 20.5931C41.5403 18.1143 47.2803 17.1349 52.9571 17.7669C58.6339 18.3988 64.0179 20.6166 68.4928 24.1664C68.8376 24.4495 69.1188 24.802 69.3182 25.201C69.5175 25.6001 69.6305 26.0366 69.6499 26.4823C69.6692 26.9279 69.5944 27.3726 69.4303 27.7874C69.2662 28.2022 69.0166 28.5778 68.6976 28.8896L51.8528 45.7344C51.5567 46.0314 51.3219 46.3837 51.1616 46.7712C50.9986 47.1781 50.916 47.6128 50.9184 48.0512C50.9134 48.4911 51.0006 48.9271 51.1744 49.3312C51.3316 49.7204 51.5668 50.0732 51.8656 50.368V50.2656ZM48 0C38.5065 0 29.2262 2.81515 21.3327 8.08946C13.4391 13.3638 7.28681 20.8603 3.6538 29.6312C0.0207977 38.4021 -0.929763 48.0532 0.922328 57.3643C2.77442 66.6754 7.34598 75.2282 14.0589 81.9411C20.7718 88.6541 29.3246 93.2256 38.6357 95.0777C47.9468 96.9298 57.598 95.9792 66.3688 92.3462C75.1397 88.7132 82.6363 82.5609 87.9106 74.6674C93.1849 66.7738 96 57.4935 96 48C96 35.2696 90.9429 23.0606 81.9411 14.0589C72.9394 5.05713 60.7304 0 48 0V0Z" fill="#69E2DC"/>
</g>
<defs>
<clipPath id="clip0">
<rect width="96" height="96" fill="white"/>
</clipPath>
</defs>
</svg>
