<?xml version="1.0" encoding="UTF-8"?>
<svg xmlns="http://www.w3.org/2000/svg" xmlns:xlink="http://www.w3.org/1999/xlink" width="184px" height="88px" viewBox="0 0 184 88" version="1.1">
    <!-- Generator: Sketch 55.2 (78181) - https://sketchapp.com -->
    
    
    <g id="Page-1" stroke="none" stroke-width="1" fill="none" fill-rule="evenodd">
        <g id="Artboard" transform="translate(-82.000000, -46.000000)" fill-rule="nonzero">
            <g id="Asset-17" transform="translate(82.000000, 46.000000)">
                <path d="M29.76,66.78 L29.76,61.29 C26.04,66.12 21.76,67.29 16.76,67.29 C12.11,67.29 8.02,65.71 5.6,63.29 C0.93,58.68 0,51.06 0,43.9 C0,36.74 0.93,29.11 5.58,24.46 C8,22.04 12.09,20.46 16.74,20.46 C21.74,20.46 25.95,21.58 29.67,26.32 L29.67,0.56 L36.36,0.56 L36.36,66.78 L29.76,66.78 Z M18.23,26.41 C8.28,26.41 6.7,35 6.7,43.9 C6.7,52.8 8.28,61.38 18.23,61.38 C28.18,61.38 29.67,52.83 29.67,43.9 C29.67,34.97 28.18,26.41 18.23,26.41 Z" id="Shape" fill="#1AAF71"/>
                <path d="M91.89,60.45 C82.4673232,69.6234905 67.4526768,69.6234905 58.03,60.45 C51.8,54.22 51.8,47.71 51.8,33.67 C51.8,19.63 51.8,13.11 58,6.88 C67.4226768,-2.29349051 82.4373232,-2.29349051 91.86,6.88 C98.0900027,13.11 98.0900027,19.62 98.0900027,33.67 C98.0900027,47.72 98.12,54.22 91.89,60.45 Z M86.4,11.07 C83.3696582,8.02889552 79.2531676,6.31951315 74.96,6.31951315 C70.6668324,6.31951315 66.5503418,8.02889552 63.52,11.07 C59.33,15.35 58.87,19.81 58.87,33.67 C58.87,47.53 59.33,51.99 63.52,56.27 C69.838457,62.5873662 80.081543,62.5873662 86.4,56.27 C90.58,51.99 91.05,47.52 91.05,33.67 C91.05,19.82 90.58,15.35 86.4,11.07 Z" id="Shape" fill="#000000"/>
                <path d="M139.13,29.76 C136.62,27.25 134.76,26.41 131.22,26.41 C124.53,26.41 120.22,31.71 120.22,38.69 L120.22,66.78 L113.52,66.78 L113.52,21 L120.22,21 L120.22,26.6 C122.73,22.79 127.75,20.46 133.05,20.46 C137.42,20.46 140.77,21.46 144.05,24.74 L139.13,29.76 Z" id="Path" fill="#000000"/>
                <path d="M164.24,87.79 C157.36,87.79 153.54,86.03 148.71,81.66 L153.08,77.38 C156.42,80.38 158.75,81.94 164.08,81.94 C172.92,81.94 176.64,75.7 176.64,67.94 L176.64,60.73 C172.92,65.47 168.73,66.73 163.8,66.73 C159.72177,66.8566078 155.754623,65.3895525 152.74,62.64 C148.15,58 147.12,51 147.12,43.53 C147.12,36.06 148.12,29.02 152.71,24.46 C155.12,22.04 159.21,20.46 163.87,20.46 C168.87,20.46 172.98,21.58 176.7,26.41 L176.7,21 L183.3,21 L183.3,68.17 C183.3,79.52 176.23,87.79 164.24,87.79 Z M165.24,26.41 C155.29,26.41 153.8,34.97 153.8,43.53 C153.8,52.09 155.29,60.64 165.24,60.64 C175.19,60.64 176.59,52.08 176.59,43.53 C176.59,34.98 175.21,26.41 165.26,26.41 L165.24,26.41 Z" id="Shape" fill="#000000"/>
                <path d="M79,32.85 L78.65,32.5 L78.65,32.5 L78.3,32.14 C77.5690857,32.9704218 76.5162713,33.4463019 75.41,33.4463019 C74.3037287,33.4463019 73.2509143,32.9704218 72.52,32.14 L72.17,32.5 L72.17,32.5 L71.82,32.85 C72.6663729,33.5373903 73.15783,34.5696549 73.15783,35.66 C73.15783,36.7503451 72.6663729,37.7826097 71.82,38.47 L72.52,39.19 C73.2509143,38.3595782 74.3037287,37.8836981 75.41,37.8836981 C76.5162713,37.8836981 77.5690857,38.3595782 78.3,39.19 L79,38.47 C78.1569588,37.7805666 77.6679991,36.7490532 77.6679991,35.66 C77.6679991,34.5709468 78.1569588,33.5394334 79,32.85 L79,32.85 Z" id="Path" fill="#000000"/>
                <path d="M87.41,31.42 C87.41,31.36 87.41,31.3 87.41,31.24 C87.41,30.86 87.41,30.47 87.41,30.1 C87.3957336,29.7314378 87.3589987,29.364089 87.3,29 C87.2536484,28.5355645 87.1285257,28.0824173 86.93,27.66 C86.742839,27.2463278 86.4819167,26.870193 86.16,26.55 C85.8260456,26.2315369 85.4315964,25.9833059 85,25.82 C84.5346803,25.6258657 84.0341038,25.5305179 83.53,25.54 C83.0226623,25.5305805 82.5188339,25.6258994 82.05,25.82 C81.623012,25.9945716 81.2353691,26.2530002 80.91,26.58 C80.5880833,26.900193 80.327161,27.2763278 80.14,27.69 C79.9516098,28.1042773 79.8333338,28.5469672 79.79,29 C79.74,29.34 79.71,29.7 79.69,30.07 C79.67,30.44 79.69,30.83 79.69,31.21 L79.69,31.39 L87.41,31.42 Z" id="Path" fill="#000000"/>
                <circle id="Oval" fill="#000000" cx="83.51" cy="22.35" r="3.16"/>
                <path d="M71.45,31.42 L71.45,31.24 C71.45,30.86 71.45,30.47 71.45,30.1 C71.45,29.73 71.4,29.37 71.36,29.03 C71.3121287,28.5670116 71.1905972,28.1146442 71,27.69 C70.8050994,27.2782863 70.5413062,26.9028882 70.22,26.58 C69.8965603,26.2553262 69.5126698,25.9971343 69.09,25.82 C67.6951716,25.2229008 66.0781485,25.5226416 64.99,26.58 C64.6713426,26.9029103 64.4108477,27.278429 64.22,27.69 C64.018637,28.1029265 63.8836459,28.5450224 63.82,29 C63.82,29.34 63.75,29.7 63.72,30.07 C63.69,30.44 63.72,30.83 63.72,31.21 C63.72,31.27 63.72,31.33 63.72,31.39 L71.45,31.42 Z" id="Path" fill="#000000"/>
                <circle id="Oval" fill="#000000" cx="67.54" cy="22.35" r="3.16"/>
                <path d="M71.45,49.35 L71.45,49.18 C71.45,48.79 71.45,48.41 71.45,48.03 C71.45,47.65 71.4,47.3 71.36,46.97 C71.313351,46.5035736 71.1917905,46.047722 71,45.62 C70.8050994,45.2082863 70.5413062,44.8328882 70.22,44.51 C69.8938953,44.1885723 69.5106682,43.9308267 69.09,43.75 C67.6951716,43.1529008 66.0781485,43.4526416 64.99,44.51 C64.6713426,44.8329103 64.4108477,45.208429 64.22,45.62 C64.011268,46.0547141 63.8760997,46.5210447 63.82,47 C63.82,47.33 63.75,47.69 63.72,48.06 C63.69,48.43 63.72,48.82 63.72,49.21 C63.72,49.27 63.72,49.32 63.72,49.38 L71.45,49.35 Z" id="Path" fill="#000000"/>
                <circle id="Oval" fill="#000000" cx="67.54" cy="40.28" r="3.16"/>
                <path d="M87.12,49.35 C87.12,49.29 87.12,49.24 87.12,49.18 C87.12,48.79 87.12,48.41 87.12,48.03 C87.1004443,47.6845922 87.0603736,47.3406523 87,47 C86.9549639,46.5321176 86.8298069,46.0754637 86.63,45.65 C86.442839,45.2363278 86.1819167,44.860193 85.86,44.54 C85.5319989,44.2162172 85.1450307,43.9582384 84.72,43.78 C84.2526314,43.5938313 83.7530202,43.5020659 83.25,43.51 C82.7437331,43.5020606 82.2408501,43.5938028 81.77,43.78 C81.3449693,43.9582384 80.9580011,44.2162172 80.63,44.54 C80.3080833,44.860193 80.047161,45.2363278 79.86,45.65 C79.6636448,46.0760886 79.5418772,46.5327173 79.5,47 C79.5,47.33 79.42,47.69 79.4,48.06 C79.38,48.43 79.4,48.82 79.4,49.21 L79.4,49.38 L87.12,49.35 Z" id="Path" fill="#000000"/>
                <circle id="Oval" fill="#000000" cx="83.22" cy="40.28" r="3.16"/>
            </g>
        </g>
    </g>
</svg>
